g default
v 5.000000 -0.199756 3.030000
v -5.000000 -0.199756 3.030000
v 5.000000 -0.199756 -3.030000
v -5.000000 -0.199756 -3.030000
v -5.000000 0.383675 3.030000
v 5.000000 0.383675 3.030000
v -5.000000 0.383675 -3.030000
v 5.000000 0.383675 -3.030000
v 5.039434 -0.479880 3.036797
v 4.934652 -0.479880 3.080199
v 5.082836 -0.479880 2.932015
v 5.246821 -0.479880 3.219524
v 5.140473 -0.479880 3.263348
v 5.291032 -0.479880 3.113337
v -5.039434 -0.479880 3.036797
v -5.082836 -0.479880 2.932015
v -4.934652 -0.479880 3.080199
v -5.246821 -0.479880 3.219524
v -5.291032 -0.479880 3.113337
v -5.140473 -0.479880 3.263348
v 5.039434 -0.479880 -3.036797
v 5.082836 -0.479880 -2.932015
v 4.934652 -0.479880 -3.080199
v 5.246821 -0.479880 -3.219524
v 5.291032 -0.479880 -3.113337
v 5.140473 -0.479880 -3.263348
v -5.039434 -0.479880 -3.036797
v -4.934652 -0.479880 -3.080199
v -5.082836 -0.479880 -2.932015
v -5.246821 -0.479880 -3.219524
v -5.140473 -0.479880 -3.263348
v -5.291032 -0.479880 -3.113337
v 5.246821 0.663799 3.219524
v 5.140473 0.663799 3.263348
v 5.291032 0.663799 3.113337
v -5.246821 0.663799 3.219524
v -5.291032 0.663799 3.113337
v -5.140473 0.663799 3.263348
v 5.246821 0.663799 -3.219524
v 5.291032 0.663799 -3.113337
v 5.140473 0.663799 -3.263348
v -5.246821 0.663799 -3.219524
v -5.140473 0.663799 -3.263348
v -5.291032 0.663799 -3.113337
v -5.039434 0.663799 3.036797
v -4.934652 0.663799 3.080199
v -5.082836 0.663799 2.932015
v 5.039434 0.663799 3.036797
v 5.082836 0.663799 2.932015
v 4.934652 0.663799 3.080199
v -5.039434 0.663799 -3.036797
v -5.082836 0.663799 -2.932015
v -4.934652 0.663799 -3.080199
v 5.039434 0.663799 -3.036797
v 4.934652 0.663799 -3.080199
v 5.082836 0.663799 -2.932015
vt 0.810109 0.494843
vt 0.007275 0.494843
vt 0.007275 0.009259
vt 0.810109 0.009259
vt 0.986594 0.981837
vt 0.986602 0.610264
vt 0.975974 0.612511
vt 0.975949 0.979637
vt 0.896774 0.983712
vt 0.896788 0.758211
vt 0.885846 0.761711
vt 0.885814 0.980243
vt 0.896799 0.758177
vt 0.896978 0.983757
vt 0.886101 0.980118
vt 0.885838 0.761656
vt 0.986762 0.610450
vt 0.986770 0.982023
vt 0.976143 0.979776
vt 0.976117 0.612650
vt 0.968826 0.986877
vt 0.968905 0.605199
vt 0.877814 0.986552
vt 0.877885 0.755335
vt 0.877826 0.755357
vt 0.878222 0.986638
vt 0.968994 0.605411
vt 0.969073 0.987088
vt 0.926410 0.986884
vt 0.926489 0.605188
vt 0.835388 0.986561
vt 0.835459 0.755315
vt 0.835387 0.755410
vt 0.835779 0.986699
vt 0.926578 0.605403
vt 0.926657 0.987098
vt 0.007275 0.507039
vt 0.810109 0.507039
vt 0.810109 0.992797
vt 0.007275 0.992797
vt 0.908717 0.610229
vt 0.908709 0.981818
vt 0.919338 0.979572
vt 0.919363 0.612429
vt 0.816808 0.983884
vt 0.816478 0.758314
vt 0.827429 0.761799
vt 0.827767 0.980398
vt 0.816492 0.758156
vt 0.816478 0.983685
vt 0.827422 0.980184
vt 0.827454 0.761626
vt 0.908885 0.982058
vt 0.908877 0.610469
vt 0.919506 0.612715
vt 0.919531 0.979858
vt 0.976743 0.608310
vt 0.969396 0.601078
vt 0.886773 0.984459
vt 0.878422 0.990628
vt 0.925921 0.601108
vt 0.834853 0.990694
vt 0.887480 0.984333
vt 0.878845 0.990835
vt 0.976864 0.983845
vt 0.969395 0.990945
vt 0.835174 0.990783
vt 0.925921 0.991015
vt 0.886694 0.757500
vt 0.878421 0.751219
vt 0.977033 0.608442
vt 0.969563 0.601342
vt 0.834853 0.751223
vt 0.926090 0.601272
vt 0.976912 0.983977
vt 0.969563 0.991208
vt 0.886793 0.757437
vt 0.878429 0.751277
vt 0.926090 0.991178
vt 0.834844 0.751277
vt 0.918447 0.608219
vt 0.826573 0.984398
vt 0.826812 0.984617
vt 0.918568 0.983775
vt 0.826492 0.757407
vt 0.918737 0.608512
vt 0.918614 0.984068
vt 0.826573 0.757586
vt 0.896978 0.983757
vn 0.000000 -1.000000 0.000000
vn 0.000000 -1.000000 0.000000
vn 0.000000 -1.000000 0.000000
vn 0.000000 -1.000000 0.000000
vn 0.466316 -0.287275 -0.836673
vn -0.466316 -0.287275 -0.836673
vn -0.001544 -0.176043 -0.984381
vn 0.001544 -0.176043 -0.984381
vn -0.466316 -0.287275 0.836673
vn -0.959151 -0.282887 0.002132
vn -0.959151 -0.282887 -0.002132
vn 0.466316 -0.287275 0.836673
vn 0.959151 -0.282887 -0.002132
vn 0.959151 -0.282887 0.002132
vn 0.001544 -0.176043 0.984381
vn -0.001544 -0.176043 0.984381
vn 0.000000 -1.000000 0.000000
vn 0.000000 -1.000000 0.000000
vn 0.000000 -1.000000 0.000000
vn 0.000000 -1.000000 0.000000
vn 0.000000 -1.000000 0.000000
vn 0.000000 -1.000000 0.000000
vn 0.000000 -1.000000 0.000000
vn 0.000000 -1.000000 0.000000
vn 0.000000 -1.000000 0.000000
vn 0.000000 -1.000000 0.000000
vn 0.000000 -1.000000 0.000000
vn 0.000000 -1.000000 0.000000
vn 0.000000 -1.000000 -0.000000
vn 0.000000 -1.000000 -0.000000
vn 0.000000 -1.000000 -0.000000
vn 0.000000 -1.000000 -0.000000
vn -0.004219 0.000000 0.999991
vn -0.004219 0.000000 0.999991
vn 0.004219 0.000000 0.999991
vn 0.004219 0.000000 0.999991
vn 0.999976 0.000000 0.006981
vn 0.999976 0.000000 0.006981
vn 0.999976 0.000000 -0.006981
vn 0.999976 0.000000 -0.006981
vn -0.999976 0.000000 -0.006981
vn -0.999976 0.000000 -0.006981
vn -0.999976 0.000000 0.006981
vn -0.999976 0.000000 0.006981
vn 0.004219 0.000000 -0.999991
vn 0.004219 0.000000 -0.999991
vn -0.004219 0.000000 -0.999991
vn -0.004219 0.000000 -0.999991
vn 0.000000 1.000000 0.000000
vn 0.000000 1.000000 0.000000
vn 0.000000 1.000000 0.000000
vn 0.000000 1.000000 0.000000
vn -0.466316 0.287275 -0.836673
vn 0.466316 0.287275 -0.836673
vn 0.001544 0.176043 -0.984381
vn -0.001544 0.176043 -0.984381
vn 0.466316 0.287275 0.836673
vn 0.959151 0.282888 0.002132
vn 0.959151 0.282888 -0.002132
vn -0.466316 0.287275 0.836673
vn -0.959151 0.282888 -0.002132
vn -0.959151 0.282888 0.002132
vn -0.001544 0.176043 0.984381
vn 0.001544 0.176043 0.984381
vn 0.000000 1.000000 0.000000
vn 0.000000 1.000000 0.000000
vn 0.000000 1.000000 0.000000
vn 0.000000 1.000000 0.000000
vn 0.000000 1.000000 0.000000
vn 0.000000 1.000000 0.000000
vn 0.000000 1.000000 0.000000
vn 0.000000 1.000000 0.000000
vn 0.000000 1.000000 0.000000
vn 0.000000 1.000000 0.000000
vn 0.000000 1.000000 0.000000
vn 0.000000 1.000000 0.000000
vn 0.000000 1.000000 0.000000
vn 0.000000 1.000000 0.000000
vn 0.000000 1.000000 0.000000
vn 0.000000 1.000000 0.000000
vn 0.000000 -1.000000 0.000000
vn 0.000000 -1.000000 0.000000
vn 0.000000 -1.000000 0.000000
vn 0.000000 -1.000000 0.000000
vn 0.000000 -1.000000 0.000000
vn 0.000000 -1.000000 0.000000
vn 0.000000 -1.000000 0.000000
vn 0.000000 -1.000000 0.000000
vn 0.705819 0.000000 0.708392
vn 0.705819 0.000000 0.708392
vn 0.000000 -1.000000 0.000000
vn 0.000000 -1.000000 0.000000
vn 0.000000 -1.000000 0.000000
vn 0.000000 -1.000000 0.000000
vn 0.000000 -1.000000 -0.000000
vn 0.000000 -1.000000 -0.000000
vn 0.000000 -1.000000 -0.000000
vn 0.000000 -1.000000 -0.000000
vn -0.705819 0.000000 0.708392
vn -0.705819 0.000000 0.708392
vn 0.000000 -1.000000 0.000000
vn 0.000000 -1.000000 0.000000
vn 0.000000 -1.000000 0.000000
vn 0.000000 -1.000000 0.000000
vn 0.000000 -1.000000 0.000000
vn 0.000000 -1.000000 0.000000
vn 0.000000 -1.000000 0.000000
vn 0.000000 -1.000000 0.000000
vn 0.705819 0.000000 -0.708392
vn 0.705819 0.000000 -0.708392
vn 0.000000 -1.000000 0.000000
vn 0.000000 -1.000000 0.000000
vn 0.000000 -1.000000 0.000000
vn 0.000000 -1.000000 0.000000
vn 0.000000 -1.000000 0.000000
vn 0.000000 -1.000000 0.000000
vn 0.000000 -1.000000 0.000000
vn 0.000000 -1.000000 0.000000
vn -0.705819 0.000000 -0.708392
vn -0.705819 0.000000 -0.708392
vn 0.000000 1.000000 0.000000
vn 0.000000 1.000000 0.000000
vn 0.000000 1.000000 0.000000
vn 0.000000 1.000000 0.000000
vn 0.000000 1.000000 0.000000
vn 0.000000 1.000000 0.000000
vn 0.000000 1.000000 0.000000
vn 0.000000 1.000000 0.000000
vn 0.000000 1.000000 0.000000
vn 0.000000 1.000000 0.000000
vn 0.000000 1.000000 0.000000
vn 0.000000 1.000000 0.000000
vn 0.000000 1.000000 0.000000
vn 0.000000 1.000000 0.000000
vn 0.000000 1.000000 0.000000
vn 0.000000 1.000000 0.000000
vn 0.000000 1.000000 0.000000
vn 0.000000 1.000000 0.000000
vn 0.000000 1.000000 0.000000
vn 0.000000 1.000000 0.000000
vn 0.000000 1.000000 0.000000
vn 0.000000 1.000000 0.000000
vn 0.000000 1.000000 0.000000
vn 0.000000 1.000000 0.000000
vn 0.000000 1.000000 0.000000
vn 0.000000 1.000000 0.000000
vn 0.000000 1.000000 0.000000
vn 0.000000 1.000000 0.000000
vn 0.000000 1.000000 0.000000
vn 0.000000 1.000000 0.000000
vn 0.000000 1.000000 0.000000
vn 0.000000 1.000000 0.000000
vn -0.716440 -0.117543 -0.687675
vn 0.716440 -0.117542 -0.687675
vn -0.716440 -0.117542 0.687675
vn 0.716440 -0.117543 0.687675
vn 0.716440 0.117543 -0.687675
vn -0.716440 0.117542 -0.687675
vn 0.716440 0.117542 0.687675
vn -0.716440 0.117543 0.687675
s off
g polySurface1
usemtl lambert4SG
f 1/1/1 2/2/2 4/3/3 3/4/4
s 1
f 2/5/5 1/6/6 10/7/7 17/8/8
f 1/9/6 3/10/9 22/11/10 11/12/11
f 4/13/12 2/14/5 16/15/13 29/16/14
f 3/17/9 4/18/12 28/19/15 23/20/16
s off
f 20/21/17 17/8/18 10/7/19 13/22/20
f 14/23/21 11/12/22 22/11/23 25/24/24
f 32/25/25 29/16/26 16/15/27 19/26/28
f 26/27/29 23/20/30 28/19/31 31/28/32
s 5
f 38/29/33 20/21/34 13/22/35 34/30/36
f 35/31/37 14/23/38 25/24/39 40/32/40
f 44/33/41 32/25/42 19/26/43 37/34/44
f 41/35/45 26/27/46 31/28/47 43/36/48
s off
f 5/37/49 6/38/50 8/39/51 7/40/52
s 9
f 6/41/53 5/42/54 46/43/55 50/44/56
f 5/45/54 7/46/57 52/47/58 47/48/59
f 8/49/60 6/50/53 49/51/61 56/52/62
f 7/53/57 8/54/60 55/55/63 53/56/64
s off
f 34/30/65 50/44/66 46/43/67 38/29/68
f 37/34/69 47/48/70 52/47/71 44/33/72
f 40/32/73 56/52/74 49/51/75 35/31/76
f 43/36/77 53/56/78 55/55/79 41/35/80
f 10/7/81 9/57/82 12/58/83 13/22/84
f 9/59/85 11/12/86 14/23/87 12/60/88
s 5
f 13/22/35 12/58/89 33/61/90 34/30/36
f 12/60/89 14/23/38 35/31/37 33/62/90
s off
f 16/15/91 15/63/92 18/64/93 19/26/94
f 15/65/95 17/8/96 20/21/97 18/66/98
s 5
f 19/26/43 18/64/99 36/67/100 37/34/44
f 18/66/99 20/21/34 38/29/33 36/68/100
s off
f 22/11/101 21/69/102 24/70/103 25/24/104
f 21/71/105 23/20/106 26/27/107 24/72/108
s 5
f 25/24/39 24/70/109 39/73/110 40/32/40
f 24/72/109 26/27/46 41/35/45 39/74/110
s off
f 28/19/111 27/75/112 30/76/113 31/28/114
f 27/77/115 29/16/116 32/25/117 30/78/118
s 5
f 31/28/47 30/76/119 42/79/120 43/36/48
f 30/78/119 32/25/42 44/33/41 42/80/120
s off
f 34/30/121 33/61/122 48/81/123 50/44/124
f 33/62/125 35/31/126 49/51/127 48/82/128
f 37/34/129 36/67/130 45/83/131 47/48/132
f 36/68/133 38/29/134 46/43/135 45/84/136
f 40/32/137 39/73/138 54/85/139 56/52/140
f 39/74/141 41/35/142 55/55/143 54/86/144
f 43/36/145 42/79/146 51/87/147 53/56/148
f 42/80/149 44/33/150 52/47/151 51/88/152
s 1
f 1/9/6 11/12/11 9/59/153
f 1/6/6 9/57/153 10/7/7
f 2/5/5 17/8/8 15/65/154
f 2/89/5 15/63/154 16/15/13
f 3/17/9 23/20/16 21/71/155
f 3/10/9 21/69/155 22/11/10
f 4/13/12 29/16/14 27/77/156
f 4/18/12 27/75/156 28/19/15
s 9
f 5/45/54 47/48/59 45/83/157
f 5/42/54 45/84/157 46/43/55
f 6/41/53 50/44/56 48/81/158
f 6/50/53 48/82/158 49/51/61
f 7/53/57 53/56/64 51/87/159
f 7/46/57 51/88/159 52/47/58
f 8/49/60 56/52/62 54/85/160
f 8/54/60 54/86/160 55/55/63