g default
v 1.057671 -0.234257 -0.610259
v 1.057671 0.234257 0.610259
v -1.057671 0.234257 0.610259
v -1.057671 -0.234257 -0.610259
v 0.000000 -0.231224 1.221677
v 0.000000 0.989295 0.753164
v 0.000000 0.231224 -1.221677
v 0.000000 -0.989295 -0.753164
v -0.653676 -0.987421 0.379035
v 0.653676 -0.987421 0.379035
v 0.653676 0.987421 -0.379035
v -0.653676 0.987421 -0.379035
vt 0.616516 0.176211
vt 0.718251 0.000000
vt 0.819987 0.176211
vt 0.614481 0.000000
vt 0.512746 0.176211
vt 0.411011 0.000000
vt 0.766956 0.588984
vt 0.970427 0.588984
vt 0.868691 0.765194
vt 0.561451 0.177973
vt 0.737662 0.279708
vt 0.561451 0.381444
vt 0.559689 0.381443
vt 0.383478 0.279708
vt 0.559689 0.177973
vt 0.000000 0.794489
vt 0.176211 0.896224
vt 0.000000 0.997959
vt 0.765194 0.690719
vt 0.588983 0.792454
vt 0.588983 0.588984
vt 0.690719 0.383478
vt 0.792454 0.559689
vt 0.588983 0.559689
vt 0.942894 0.177973
vt 0.841159 0.354184
vt 0.739424 0.177973
vt 0.000000 0.559689
vt 0.101735 0.383478
vt 0.203471 0.559689
vt 0.203471 0.588984
vt 0.101735 0.765194
vt 0.000000 0.588984
vt 0.205505 0.383478
vt 0.408976 0.383478
vt 0.307240 0.559689
vt 0.411011 0.586949
vt 0.411011 0.383478
vt 0.587221 0.485214
vt 0.205505 0.792454
vt 0.205505 0.588984
vt 0.381716 0.690719
vt 0.101735 0.000000
vt 0.203471 0.176211
vt 0.000000 0.176211
vt 0.307241 0.000000
vt 0.408976 0.176211
vt 0.205505 0.176211
vt 0.383478 0.765194
vt 0.485213 0.588984
vt 0.586949 0.765194
vt 0.970699 0.485214
vt 0.794488 0.586949
vt 0.794488 0.383478
vt 0.000000 0.354184
vt 0.101735 0.177973
vt 0.203471 0.354184
vt 0.381716 0.279708
vt 0.205505 0.381443
vt 0.205505 0.177973
vn 0.934172 -0.333122 0.127874
vn 0.934172 -0.333122 0.127874
vn 0.934172 -0.333122 0.127874
vn 0.934172 0.333122 -0.127874
vn 0.934172 0.333122 -0.127874
vn 0.934172 0.333122 -0.127874
vn 0.356822 -0.334777 -0.872125
vn 0.356822 -0.334777 -0.872125
vn 0.356822 -0.334777 -0.872125
vn 0.577350 0.332099 -0.745907
vn 0.577350 0.332099 -0.745907
vn 0.577350 0.332099 -0.745907
vn 0.577350 -0.745907 -0.332099
vn 0.577350 -0.745907 -0.332099
vn 0.577350 -0.745907 -0.332099
vn 0.356822 0.334777 0.872125
vn 0.356822 0.334777 0.872125
vn 0.356822 0.334777 0.872125
vn 0.577350 -0.332099 0.745907
vn 0.577350 -0.332099 0.745907
vn 0.577350 -0.332099 0.745907
vn 0.577350 0.745907 0.332099
vn 0.577350 0.745907 0.332099
vn 0.577350 0.745907 0.332099
vn -0.934172 -0.333122 0.127874
vn -0.934172 -0.333122 0.127874
vn -0.934172 -0.333122 0.127874
vn -0.934172 0.333122 -0.127874
vn -0.934172 0.333122 -0.127874
vn -0.934172 0.333122 -0.127874
vn -0.356822 0.334777 0.872125
vn -0.356822 0.334777 0.872125
vn -0.356822 0.334777 0.872125
vn -0.577350 -0.332099 0.745907
vn -0.577350 -0.332099 0.745907
vn -0.577350 -0.332099 0.745907
vn -0.577350 0.745907 0.332099
vn -0.577350 0.745907 0.332099
vn -0.577350 0.745907 0.332099
vn -0.356822 -0.334777 -0.872125
vn -0.356822 -0.334777 -0.872125
vn -0.356822 -0.334777 -0.872125
vn -0.577350 0.332099 -0.745907
vn -0.577350 0.332099 -0.745907
vn -0.577350 0.332099 -0.745907
vn -0.577350 -0.745907 -0.332099
vn -0.577350 -0.745907 -0.332099
vn -0.577350 -0.745907 -0.332099
vn 0.000000 -0.744251 0.667900
vn 0.000000 -0.744251 0.667900
vn 0.000000 -0.744251 0.667900
vn 0.000000 0.999999 -0.001655
vn 0.000000 0.999999 -0.001655
vn 0.000000 0.999999 -0.001655
vn 0.000000 0.744251 -0.667900
vn 0.000000 0.744251 -0.667900
vn 0.000000 0.744251 -0.667900
vn 0.000000 -0.999999 0.001655
vn 0.000000 -0.999999 0.001655
vn 0.000000 -0.999999 0.001655
s off
g pSolid6
usemtl Dice:lambert10SG
f 2/1/1 10/2/2 1/3/3
f 1/4/4 11/5/5 2/6/6
f 1/7/7 8/8/8 7/9/9
f 1/10/10 7/11/11 11/12/12
f 1/13/13 10/14/14 8/15/15
f 5/16/16 2/17/17 6/18/18
f 10/19/19 2/20/20 5/21/21
f 2/22/22 11/23/23 6/24/24
f 4/25/25 9/26/26 3/27/27
f 3/28/28 12/29/29 4/30/30
f 5/31/31 6/32/32 3/33/33
f 3/34/34 9/35/35 5/36/36
f 6/37/37 12/38/38 3/39/39
f 7/40/40 8/41/41 4/42/42
f 4/43/43 12/44/44 7/45/45
f 4/46/46 8/47/47 9/48/48
f 5/49/49 9/50/50 10/51/51
f 6/52/52 11/53/53 12/54/54
f 7/55/55 12/56/56 11/57/57
f 8/58/58 10/59/59 9/60/60