g default
v -0.522544 -0.520687 -0.905074
v -0.522544 -0.520687 0.905074
v 1.045090 -0.520687 0.000000
v 0.000000 0.957293 0.000000
vt 0.747517 0.928716
vt 0.499995 0.499995
vt 0.995040 0.499995
vt 0.495045 0.928716
vt 0.000000 0.928716
vt 0.247522 0.499995
vt 0.928716 0.495045
vt 0.499995 0.247522
vt 0.928716 0.000000
vt 0.000000 0.428721
vt 0.247522 0.000000
vt 0.495044 0.428721
vn 0.000000 -1.000000 0.000000
vn 0.000000 -1.000000 0.000000
vn 0.000000 -1.000000 0.000000
vn 0.471405 0.333333 0.816497
vn 0.471405 0.333333 0.816496
vn 0.471405 0.333333 0.816497
vn 0.471405 0.333333 -0.816496
vn 0.471405 0.333333 -0.816497
vn 0.471405 0.333333 -0.816496
vn -0.942809 0.333333 0.000000
vn -0.942809 0.333333 0.000000
vn -0.942809 0.333333 0.000000
s off
g Dice:Sided
usemtl Dice:lambert9SG
f 3/1/1 2/2/2 1/3/3
f 3/4/4 4/5/5 2/6/6
f 4/7/7 3/8/8 1/9/9
f 2/10/10 4/11/11 1/12/12