g default
v -0.112794 -0.082683 0.229517
v -0.112794 -0.050652 0.206245
v -0.112794 -0.011059 0.206245
v -0.112794 0.020972 0.229517
v -0.112794 0.033206 0.267171
v -0.112794 0.020972 0.304826
v -0.112794 -0.011059 0.328098
v -0.112794 -0.050652 0.328098
v -0.112794 -0.082683 0.304826
v -0.112794 -0.094917 0.267171
v -0.171779 -0.082683 0.229517
v -0.171779 -0.050652 0.206245
v -0.171779 -0.011059 0.206245
v -0.171779 0.020972 0.229517
v -0.171779 0.033206 0.267171
v -0.171779 0.020972 0.304826
v -0.171779 -0.011059 0.328098
v -0.171779 -0.050652 0.328098
v -0.171779 -0.082683 0.304826
v -0.171779 -0.094917 0.267171
v -0.112794 -0.082683 -0.380526
v -0.112794 -0.050652 -0.403798
v -0.112794 -0.011059 -0.403798
v -0.112794 0.020972 -0.380526
v -0.112794 0.033206 -0.342871
v -0.112794 0.020972 -0.305216
v -0.112794 -0.011059 -0.281944
v -0.112794 -0.050652 -0.281944
v -0.112794 -0.082683 -0.305216
v -0.112794 -0.094917 -0.342871
v -0.171779 -0.082683 -0.380526
v -0.171779 -0.050652 -0.403798
v -0.171779 -0.011059 -0.403798
v -0.171779 0.020972 -0.380526
v -0.171779 0.033206 -0.342871
v -0.171779 0.020972 -0.305216
v -0.171779 -0.011059 -0.281944
v -0.171779 -0.050652 -0.281944
v -0.171779 -0.082683 -0.305216
v -0.171779 -0.094917 -0.342871
v -0.021207 -0.078380 0.383242
v -0.017049 -0.084319 0.376204
v -0.020476 -0.081282 0.432665
v -0.109102 -0.089490 0.346758
v -0.074916 -0.089490 0.350690
v -0.062626 -0.084398 0.369194
v -0.109616 -0.083385 0.432665
v -0.124692 -0.069818 0.353338
v -0.125194 -0.087636 0.436450
v -0.136895 -0.089490 0.346496
v -0.062626 -0.087636 0.369194
v 0.000000 -0.087636 0.436437
v 0.000000 -0.084231 0.375641
v -0.000000 -0.087636 0.369194
v -0.016794 -0.027601 0.424595
v -0.023350 -0.015992 0.351454
v -0.012168 -0.036082 0.348004
v -0.085063 0.042115 -0.412386
v -0.087929 0.042115 -0.370472
v -0.083312 0.072246 -0.436220
v -0.021166 0.064033 -0.430731
v -0.023014 0.047585 -0.412386
v -0.021382 0.047614 -0.370758
v -0.087728 -0.025360 -0.370472
v -0.083282 -0.025360 -0.438137
v -0.088130 0.074278 -0.370472
v -0.089756 -0.025360 -0.438137
v -0.088310 0.072246 -0.436220
v -0.019341 0.047643 -0.412386
v -0.000000 0.048010 -0.412386
v -0.000000 0.048010 -0.370873
v -0.000000 0.064033 -0.430731
v -0.014146 -0.015435 -0.350007
v -0.017514 -0.028868 -0.380584
v -0.019056 -0.015435 -0.350007
v -0.019056 0.003670 -0.305422
v -0.109128 -0.082981 0.011312
v -0.109139 -0.038761 0.011407
v -0.112126 -0.038761 -0.000738
v -0.112115 -0.082981 -0.000794
v -0.058688 -0.082083 0.020767
v -0.050786 -0.025905 0.026331
v -0.046475 -0.018820 0.059202
v -0.117499 -0.033705 0.005046
v -0.048569 -0.090526 0.062289
v -0.117485 -0.091542 0.004923
v -0.023362 -0.028883 0.256272
v -0.023362 -0.017983 0.267171
v -0.023362 -0.028883 0.278071
v -0.023362 -0.039782 0.267171
v -0.113794 -0.030855 0.256272
v -0.113794 -0.019956 0.267171
v -0.113794 -0.030855 0.278071
v -0.113794 -0.041755 0.267171
v -0.017642 -0.023613 0.295706
v -0.018564 -0.018301 0.300936
v -0.019486 -0.023613 0.306167
v -0.018564 -0.028924 0.300936
v -0.119613 -0.030855 0.277725
v -0.120535 -0.025544 0.282956
v -0.121458 -0.030855 0.288187
v -0.120535 -0.036167 0.282956
v -0.019486 -0.023613 0.227932
v -0.018564 -0.018301 0.233162
v -0.017642 -0.023613 0.238393
v -0.018564 -0.028924 0.233162
v -0.121458 -0.030855 0.245912
v -0.120535 -0.025544 0.251143
v -0.119613 -0.030855 0.256373
v -0.120535 -0.036167 0.251143
v -0.035029 -0.055158 -0.360030
v -0.035029 -0.044258 -0.349131
v -0.035029 -0.055158 -0.338231
v -0.035029 -0.066057 -0.349131
v -0.113794 -0.030855 -0.353771
v -0.113794 -0.019956 -0.342871
v -0.113794 -0.030855 -0.331971
v -0.113794 -0.041755 -0.342871
v -0.030305 -0.045582 -0.381600
v -0.029383 -0.040270 -0.376369
v -0.028460 -0.045582 -0.371139
v -0.029383 -0.050893 -0.376369
v -0.121458 -0.036365 -0.366084
v -0.120535 -0.031054 -0.360853
v -0.119613 -0.036365 -0.355622
v -0.120535 -0.041676 -0.360853
v -0.025921 -0.020338 -0.337862
v -0.024999 -0.015027 -0.332632
v -0.024076 -0.020338 -0.327401
v -0.024999 -0.025649 -0.332632
v -0.121458 -0.013392 -0.344645
v -0.120535 -0.008081 -0.339414
v -0.119613 -0.013392 -0.334184
v -0.120535 -0.018703 -0.339414
v -0.071234 -0.048965 -0.328214
v -0.067164 -0.044814 -0.323457
v -0.069447 -0.049122 -0.317744
v -0.073516 -0.053274 -0.322500
v -0.121458 -0.045817 -0.334285
v -0.120535 -0.040506 -0.329054
v -0.119613 -0.045817 -0.323824
v -0.120535 -0.051128 -0.329054
v 0.085063 0.042115 -0.412386
v 0.087929 0.042115 -0.370472
v 0.083312 0.072246 -0.436220
v 0.021166 0.064033 -0.430731
v 0.023014 0.047585 -0.412386
v 0.021382 0.047614 -0.370758
v 0.112794 -0.082683 0.229517
v 0.112794 -0.050652 0.206245
v 0.112794 -0.011059 0.206245
v 0.112794 0.020972 0.229517
v 0.112794 0.033206 0.267171
v 0.112794 0.020972 0.304826
v 0.112794 -0.011059 0.328098
v 0.112794 -0.050652 0.328098
v 0.112794 -0.082683 0.304826
v 0.112794 -0.094917 0.267171
v 0.171779 -0.082683 0.229517
v 0.171779 -0.050652 0.206245
v 0.171779 -0.011059 0.206245
v 0.171779 0.020972 0.229517
v 0.171779 0.033206 0.267171
v 0.171779 0.020972 0.304826
v 0.171779 -0.011059 0.328098
v 0.171779 -0.050652 0.328098
v 0.171779 -0.082683 0.304826
v 0.171779 -0.094917 0.267171
v 0.112794 -0.082683 -0.380526
v 0.112794 -0.050652 -0.403798
v 0.112794 -0.011059 -0.403798
v 0.112794 0.020972 -0.380526
v 0.112794 0.033206 -0.342871
v 0.112794 0.020972 -0.305216
v 0.112794 -0.011059 -0.281944
v 0.112794 -0.050652 -0.281944
v 0.112794 -0.082683 -0.305216
v 0.112794 -0.094917 -0.342871
v 0.171779 -0.082683 -0.380526
v 0.171779 -0.050652 -0.403798
v 0.171779 -0.011059 -0.403798
v 0.171779 0.020972 -0.380526
v 0.171779 0.033206 -0.342871
v 0.171779 0.020972 -0.305216
v 0.171779 -0.011059 -0.281944
v 0.171779 -0.050652 -0.281944
v 0.171779 -0.082683 -0.305216
v 0.171779 -0.094917 -0.342871
v 0.000000 0.067877 -0.062238
v 0.000000 -0.040429 -0.406305
v 0.000000 -0.054585 0.239553
v -0.000610 -0.082951 0.199856
v 0.000000 0.018232 0.242953
v 0.000000 0.003319 0.094391
v 0.000000 0.018960 0.033875
v 0.000000 0.008389 0.031325
v 0.000000 0.012602 -0.025589
v 0.000000 0.056181 0.031920
v -0.000153 0.056553 -0.024374
v 0.000000 -0.033643 0.438138
v 0.000000 -0.018193 0.431417
v 0.000000 -0.091004 -0.407158
v 0.000000 0.030708 0.094391
v 0.000000 0.000558 0.351454
v 0.042352 -0.042453 -0.338312
v 0.041122 -0.026083 -0.335166
v 0.081328 -0.052718 -0.275773
v 0.046475 -0.018820 0.059202
v 0.117499 -0.033705 0.005046
v 0.115499 -0.052171 -0.215475
v 0.023350 -0.015992 0.351454
v 0.021207 -0.078380 0.383242
v 0.017049 -0.084319 0.376204
v 0.016794 -0.027601 0.424595
v 0.020476 -0.081282 0.432665
v 0.036197 0.016052 0.090230
v 0.036579 0.019215 -0.043718
v 0.077782 -0.055129 -0.330484
v 0.019056 0.003670 -0.305422
v 0.028362 -0.044199 0.220814
v 0.022573 -0.082951 0.188391
v 0.028326 0.004748 0.244327
v 0.012168 -0.036082 0.348004
v 0.109102 -0.089490 0.346758
v 0.074916 -0.089490 0.350690
v 0.062626 -0.084398 0.369194
v 0.109616 -0.083385 0.432665
v 0.048569 -0.090526 0.062289
v 0.117485 -0.091542 0.004923
v 0.115499 -0.090553 -0.215475
v 0.081328 -0.091004 -0.275773
v 0.077782 -0.091004 -0.330484
v 0.042352 -0.091004 -0.346590
v 0.024685 -0.091004 -0.405024
v 0.024685 -0.042758 -0.405024
v 0.028093 0.003991 0.089041
v 0.124692 -0.069818 0.353338
v 0.125194 -0.087636 0.436450
v 0.136895 -0.089490 0.346496
v 0.033411 -0.016608 0.229707
v 0.022298 0.009514 0.015990
v 0.021227 0.011836 -0.015664
v 0.023318 0.053709 -0.014650
v 0.024231 0.054082 0.014918
v 0.087728 -0.025360 -0.370472
v 0.083282 -0.025360 -0.438137
v 0.088130 0.074278 -0.370472
v 0.017514 -0.028868 -0.380584
v 0.109128 -0.082981 0.011312
v 0.109139 -0.038761 0.011407
v 0.050786 -0.025905 0.026331
v 0.112126 -0.038761 -0.000738
v 0.058688 -0.082083 0.020767
v 0.112115 -0.082981 -0.000794
v 0.023906 0.052461 -0.056111
v 0.062626 -0.087636 0.369194
v 0.000000 -0.044622 0.348004
v 0.089756 -0.025360 -0.438137
v 0.088310 0.072246 -0.436220
v 0.019341 0.047643 -0.412386
v 0.019056 -0.015435 -0.350007
v 0.014146 -0.015435 -0.350007
v 0.000000 0.006604 -0.305422
v 0.000000 -0.013499 -0.350007
v 0.057038 -0.015821 -0.032004
v 0.023362 -0.028883 0.256272
v 0.023362 -0.017983 0.267171
v 0.023362 -0.028883 0.278071
v 0.023362 -0.039782 0.267171
v 0.113794 -0.030855 0.256272
v 0.113794 -0.019956 0.267171
v 0.113794 -0.030855 0.278071
v 0.113794 -0.041755 0.267171
v 0.017642 -0.023613 0.295706
v 0.018564 -0.018301 0.300936
v 0.019486 -0.023613 0.306167
v 0.018564 -0.028924 0.300936
v 0.119613 -0.030855 0.277725
v 0.120535 -0.025544 0.282956
v 0.121458 -0.030855 0.288187
v 0.120535 -0.036167 0.282956
v 0.019486 -0.023613 0.227932
v 0.018564 -0.018301 0.233162
v 0.017642 -0.023613 0.238393
v 0.018564 -0.028924 0.233162
v 0.121458 -0.030855 0.245912
v 0.120535 -0.025544 0.251143
v 0.119613 -0.030855 0.256373
v 0.120535 -0.036167 0.251143
v 0.035029 -0.055158 -0.360030
v 0.035029 -0.044258 -0.349131
v 0.035029 -0.055158 -0.338231
v 0.035029 -0.066057 -0.349131
v 0.113794 -0.030855 -0.353771
v 0.113794 -0.019956 -0.342871
v 0.113794 -0.030855 -0.331971
v 0.113794 -0.041755 -0.342871
v 0.030305 -0.045582 -0.381600
v 0.029383 -0.040270 -0.376369
v 0.028460 -0.045582 -0.371139
v 0.029383 -0.050893 -0.376369
v 0.121458 -0.036365 -0.366084
v 0.120535 -0.031054 -0.360853
v 0.119613 -0.036365 -0.355622
v 0.120535 -0.041676 -0.360853
v 0.025921 -0.020338 -0.337862
v 0.024999 -0.015027 -0.332632
v 0.024076 -0.020338 -0.327401
v 0.024999 -0.025649 -0.332632
v 0.121458 -0.013392 -0.344645
v 0.120535 -0.008081 -0.339414
v 0.119613 -0.013392 -0.334184
v 0.120535 -0.018703 -0.339414
v 0.071234 -0.048965 -0.328214
v 0.067164 -0.044814 -0.323457
v 0.069447 -0.049122 -0.317744
v 0.073516 -0.053274 -0.322500
v 0.121458 -0.045817 -0.334285
v 0.120535 -0.040506 -0.329054
v 0.119613 -0.045817 -0.323824
v 0.120535 -0.051128 -0.329054
v 0.000000 0.041651 0.034850
v 0.026352 0.041944 0.015970
v 0.025660 0.029796 -0.018105
v 0.000000 0.028887 -0.029468
v 0.000000 0.067785 0.012001
v 0.013308 0.065271 0.012084
v 0.000000 0.067785 -0.010283
v 0.013308 0.065271 -0.010199
v 0.000000 0.044421 0.038816
v 0.015720 0.044023 0.032425
v 0.015763 0.054738 0.027009
v 0.014472 0.041581 0.029818
v 0.026550 0.029796 0.016266
v 0.014293 0.030744 0.030579
v 0.000000 0.031360 0.034733
v 0.013226 0.008679 0.027250
v 0.013690 0.019471 0.029227
v 0.024489 0.041581 -0.016378
v -0.000075 0.042839 -0.029951
v 0.000000 0.013791 -0.041716
v 0.032472 0.013791 -0.041716
v 0.000153 0.056553 -0.024374
v -0.042352 -0.042453 -0.338312
v -0.041122 -0.026083 -0.335166
v -0.081328 -0.052718 -0.275773
v -0.115499 -0.052171 -0.215475
v -0.036197 0.016052 0.090230
v -0.036579 0.019215 -0.043718
v -0.077782 -0.055129 -0.330484
v -0.028362 -0.044199 0.220814
v -0.023792 -0.082951 0.188391
v -0.028326 0.004748 0.244327
v -0.115499 -0.090553 -0.215475
v -0.081328 -0.091004 -0.275773
v -0.077782 -0.091004 -0.330484
v -0.042352 -0.091004 -0.346590
v -0.024685 -0.091004 -0.405024
v -0.024685 -0.042758 -0.405024
v -0.028093 0.003991 0.089041
v -0.033411 -0.016608 0.229707
v -0.022298 0.009514 0.015990
v -0.021227 0.011836 -0.015664
v -0.023318 0.053709 -0.014650
v -0.024231 0.054082 0.014918
v -0.023906 0.052461 -0.056111
v -0.057038 -0.015821 -0.032004
v -0.026352 0.041944 0.015970
v -0.025660 0.029796 -0.018105
v -0.013308 0.065271 0.012084
v -0.013308 0.065271 -0.010199
v -0.015720 0.044023 0.032425
v -0.015763 0.054738 0.027009
v -0.014472 0.041581 0.029818
v -0.026550 0.029796 0.016266
v -0.014293 0.030744 0.030579
v -0.013226 0.008679 0.027250
v -0.013690 0.019471 0.029227
v -0.024489 0.041581 -0.016378
v 0.000075 0.042839 -0.029951
v -0.032472 0.013791 -0.041716
vt 0.920533 0.428072
vt 0.983518 0.428072
vt 0.983518 0.470350
vt 0.920533 0.470350
vt 0.983518 0.512628
vt 0.920533 0.512628
vt 0.983518 0.554905
vt 0.920533 0.554905
vt 0.983518 0.597180
vt 0.920535 0.597181
vt 0.983519 0.639457
vt 0.920535 0.639459
vt 0.983521 0.681734
vt 0.920537 0.681735
vt 0.983521 0.724011
vt 0.920538 0.724012
vt 0.983522 0.766289
vt 0.920538 0.766290
vt 0.983522 0.808566
vt 0.920539 0.808566
vt 0.920533 0.385796
vt 0.983518 0.385796
vt 0.315918 0.833666
vt 0.380975 0.786400
vt 0.340768 0.799463
vt 0.315918 0.875944
vt 0.340768 0.910147
vt 0.380975 0.923210
vt 0.421183 0.910147
vt 0.446032 0.875944
vt 0.446032 0.833666
vt 0.421183 0.799463
vt 0.126559 0.829759
vt 0.086353 0.816696
vt 0.151409 0.863963
vt 0.151409 0.906240
vt 0.126559 0.940443
vt 0.086353 0.953506
vt 0.046144 0.940443
vt 0.021295 0.906240
vt 0.021295 0.863963
vt 0.046144 0.829759
vt 0.848908 0.429113
vt 0.911890 0.429113
vt 0.911890 0.471389
vt 0.848908 0.471389
vt 0.911890 0.513667
vt 0.848908 0.513667
vt 0.911890 0.555943
vt 0.848908 0.555943
vt 0.911892 0.598220
vt 0.848908 0.598220
vt 0.911892 0.640496
vt 0.848908 0.640498
vt 0.911894 0.682774
vt 0.848908 0.682775
vt 0.911894 0.725053
vt 0.848908 0.725053
vt 0.911894 0.767330
vt 0.848909 0.767330
vt 0.911894 0.809608
vt 0.848909 0.809608
vt 0.848908 0.386835
vt 0.911892 0.386837
vt 0.166359 0.787553
vt 0.231417 0.740287
vt 0.191210 0.753350
vt 0.166359 0.829831
vt 0.191210 0.864034
vt 0.231417 0.877097
vt 0.271626 0.864034
vt 0.296476 0.829831
vt 0.296476 0.787553
vt 0.271626 0.753350
vt 0.127233 0.668338
vt 0.087044 0.655217
vt 0.152033 0.702578
vt 0.151971 0.744855
vt 0.127070 0.779022
vt 0.086842 0.792026
vt 0.046654 0.778904
vt 0.021855 0.744664
vt 0.021917 0.702387
vt 0.046817 0.668220
vt 0.749395 0.809862
vt 0.759431 0.793171
vt 0.744201 0.777402
vt 0.763071 0.722386
vt 0.834957 0.770809
vt 0.832941 0.672153
vt 0.778421 0.671543
vt 0.743611 0.738971
vt 0.767756 0.663660
vt 0.768752 0.642013
vt 0.840361 0.648412
vt 0.840361 0.788201
vt 0.727624 0.736016
vt 0.707805 0.722831
vt 0.635996 0.789650
vt 0.731800 0.772521
vt 0.732063 0.802200
vt 0.707798 0.655960
vt 0.635996 0.655968
vt 0.759277 0.721287
vt 0.758820 0.639908
vt 0.229668 0.432186
vt 0.224224 0.352986
vt 0.166889 0.401027
vt 0.175501 0.453192
vt 0.199467 0.351150
vt 0.158233 0.394587
vt 0.121681 0.323862
vt 0.100120 0.377811
vt 0.740185 0.631922
vt 0.742264 0.527687
vt 0.669984 0.599736
vt 0.746934 0.455551
vt 0.749173 0.527927
vt 0.669979 0.527686
vt 0.669979 0.634081
vt 0.935768 0.851057
vt 0.935857 0.829876
vt 0.891336 0.829876
vt 0.891390 0.851057
vt 0.825024 0.829876
vt 0.825006 0.851057
vt 0.961872 0.829876
vt 0.961947 0.851057
vt 0.893173 0.924028
vt 0.937816 0.919668
vt 0.935865 0.851057
vt 0.815962 0.919043
vt 0.745519 0.632108
vt 0.772758 0.601377
vt 0.737915 0.702121
vt 0.817552 0.603829
vt 0.821474 0.531884
vt 0.876928 0.954282
vt 0.978484 0.914024
vt 0.961897 0.851057
vt 0.139257 0.440612
vt 0.046251 0.422372
vt 0.065125 0.392069
vt 0.165474 0.443578
vt 0.046506 0.509796
vt 0.018348 0.466008
vt 0.102462 0.465614
vt 0.139401 0.490437
vt 0.165474 0.486693
vt 0.066001 0.539874
vt 0.212469 0.958405
vt 0.259669 0.959719
vt 0.260406 0.898195
vt 0.200678 0.886467
vt 0.200626 0.952232
vt 0.167498 0.871995
vt 0.927482 0.106307
vt 0.906528 0.022070
vt 0.922037 0.117502
vt 0.259283 0.973027
vt 0.212082 0.971755
vt 0.270556 0.952054
vt 0.298843 0.871995
vt 0.974700 0.106551
vt 0.983795 0.117821
vt 0.983200 0.022069
vt 0.487690 0.867432
vt 0.487691 0.964018
vt 0.504147 0.963765
vt 0.504147 0.867178
vt 0.520604 0.964018
vt 0.520605 0.867432
vt 0.537062 0.964272
vt 0.537062 0.867686
vt 0.471233 0.867686
vt 0.471233 0.964272
vt 0.574863 0.709219
vt 0.574863 0.820054
vt 0.582874 0.819657
vt 0.582874 0.708823
vt 0.590885 0.820054
vt 0.590885 0.709218
vt 0.598897 0.820449
vt 0.598896 0.709615
vt 0.566853 0.709614
vt 0.566852 0.820449
vt 0.575342 0.851811
vt 0.575345 0.962646
vt 0.583356 0.962251
vt 0.583354 0.851415
vt 0.591366 0.962646
vt 0.591366 0.851812
vt 0.599376 0.963041
vt 0.599376 0.852207
vt 0.567332 0.852207
vt 0.567332 0.963042
vt 0.647121 0.869682
vt 0.647122 0.957953
vt 0.663009 0.962256
vt 0.663007 0.873985
vt 0.679271 0.959716
vt 0.679271 0.871445
vt 0.695158 0.955414
vt 0.695158 0.867142
vt 0.630860 0.867142
vt 0.630858 0.955414
vt 0.724373 0.856373
vt 0.724373 0.955597
vt 0.732377 0.956125
vt 0.732377 0.856903
vt 0.740376 0.955529
vt 0.740376 0.856307
vt 0.748379 0.954999
vt 0.748379 0.855779
vt 0.716375 0.855779
vt 0.716375 0.954999
vt 0.775246 0.856165
vt 0.775247 0.958705
vt 0.783209 0.957739
vt 0.783208 0.855200
vt 0.791027 0.955956
vt 0.791027 0.853415
vt 0.798990 0.956920
vt 0.798990 0.854380
vt 0.767425 0.854380
vt 0.767425 0.956920
vt 0.480818 0.832570
vt 0.534880 0.835186
vt 0.533969 0.827216
vt 0.476500 0.825811
vt 0.532150 0.819405
vt 0.478095 0.817951
vt 0.533638 0.811525
vt 0.482894 0.811525
vt 0.481833 0.840528
vt 0.532523 0.842852
vt 0.920498 0.766178
vt 0.920498 0.723901
vt 0.983484 0.723901
vt 0.983484 0.766178
vt 0.920498 0.681622
vt 0.983484 0.681622
vt 0.920498 0.639344
vt 0.983483 0.639344
vt 0.920498 0.597068
vt 0.983483 0.597068
vt 0.920498 0.554790
vt 0.983483 0.554790
vt 0.920500 0.512514
vt 0.983483 0.512514
vt 0.920500 0.470237
vt 0.983483 0.470237
vt 0.920500 0.427960
vt 0.983483 0.427960
vt 0.920500 0.385684
vt 0.983483 0.385684
vt 0.920498 0.808454
vt 0.983484 0.808454
vt 0.316138 0.833604
vt 0.340988 0.799401
vt 0.381195 0.786338
vt 0.316138 0.875882
vt 0.340988 0.910085
vt 0.381195 0.923148
vt 0.421403 0.910085
vt 0.446253 0.875882
vt 0.446253 0.833604
vt 0.421403 0.799401
vt 0.126614 0.829887
vt 0.151464 0.864090
vt 0.086408 0.816824
vt 0.151464 0.906367
vt 0.126614 0.940570
vt 0.086408 0.953633
vt 0.046199 0.940570
vt 0.021348 0.906367
vt 0.021348 0.864090
vt 0.046199 0.829887
vt 0.911902 0.429145
vt 0.911904 0.471422
vt 0.848921 0.471424
vt 0.848919 0.429147
vt 0.911905 0.513698
vt 0.848922 0.513700
vt 0.911907 0.555976
vt 0.848922 0.555977
vt 0.911908 0.598252
vt 0.848924 0.598253
vt 0.911908 0.640529
vt 0.848924 0.640529
vt 0.911908 0.682807
vt 0.848924 0.682807
vt 0.911908 0.725086
vt 0.848922 0.725086
vt 0.911908 0.767364
vt 0.848922 0.767364
vt 0.911908 0.809641
vt 0.848922 0.809641
vt 0.911901 0.386869
vt 0.848918 0.386871
vt 0.166387 0.787594
vt 0.191236 0.753392
vt 0.231445 0.740329
vt 0.166387 0.829872
vt 0.191236 0.864075
vt 0.231445 0.877138
vt 0.271653 0.864075
vt 0.296503 0.829872
vt 0.296503 0.787594
vt 0.271653 0.753392
vt 0.127087 0.668403
vt 0.151936 0.702606
vt 0.086878 0.655340
vt 0.151936 0.744884
vt 0.127087 0.779087
vt 0.086878 0.792149
vt 0.046670 0.779087
vt 0.021820 0.744884
vt 0.021820 0.702606
vt 0.046670 0.668403
vt 0.255918 0.243446
vt 0.121713 0.245998
vt 0.116982 0.211188
vt 0.251630 0.205784
vt 0.749395 0.809862
vt 0.744201 0.777402
vt 0.759431 0.793171
vt 0.763071 0.722386
vt 0.778421 0.671543
vt 0.832941 0.672153
vt 0.834957 0.770809
vt 0.743611 0.738971
vt 0.767756 0.663660
vt 0.768752 0.642013
vt 0.840361 0.648412
vt 0.840361 0.788201
vt 0.727680 0.736053
vt 0.731853 0.772560
vt 0.636048 0.789677
vt 0.707864 0.722867
vt 0.732113 0.802237
vt 0.636062 0.655995
vt 0.707863 0.655995
vt 0.759277 0.721287
vt 0.758820 0.639908
vt 0.026493 0.247810
vt 0.027071 0.225255
vt 0.229672 0.432234
vt 0.175506 0.453240
vt 0.166894 0.401075
vt 0.224229 0.353034
vt 0.008596 0.248153
vt 0.740185 0.631922
vt 0.669984 0.599736
vt 0.742264 0.527687
vt 0.746934 0.455551
vt 0.749173 0.527927
vt 0.669979 0.527686
vt 0.669979 0.634081
vt 0.402238 0.756879
vt 0.401262 0.772718
vt 0.318885 0.776583
vt 0.305312 0.756879
vt 0.199471 0.351199
vt 0.158238 0.394635
vt 0.121687 0.323910
vt 0.100124 0.377858
vt 0.264915 0.176412
vt 0.537403 0.789788
vt 0.518500 0.756880
vt 0.113684 0.182155
vt 0.269063 0.140594
vt 0.212478 0.958369
vt 0.200687 0.886431
vt 0.260414 0.898159
vt 0.259677 0.959681
vt 0.487686 0.867374
vt 0.504142 0.867121
vt 0.504142 0.963707
vt 0.487686 0.963961
vt 0.520600 0.867374
vt 0.520600 0.963961
vt 0.537058 0.867628
vt 0.537058 0.964214
vt 0.471229 0.867628
vt 0.471228 0.964214
vt 0.574771 0.709162
vt 0.582782 0.708766
vt 0.582782 0.819602
vt 0.574771 0.819998
vt 0.590794 0.709162
vt 0.590793 0.819998
vt 0.598804 0.709558
vt 0.598805 0.820392
vt 0.566761 0.709558
vt 0.566760 0.820392
vt 0.575352 0.851865
vt 0.583363 0.851469
vt 0.583364 0.962304
vt 0.575353 0.962700
vt 0.591374 0.851865
vt 0.591374 0.962700
vt 0.599385 0.852261
vt 0.599385 0.963096
vt 0.567342 0.852261
vt 0.567341 0.963096
vt 0.647211 0.869920
vt 0.663098 0.874223
vt 0.663100 0.962493
vt 0.647213 0.958192
vt 0.679362 0.871682
vt 0.679362 0.959953
vt 0.695248 0.867379
vt 0.695248 0.955651
vt 0.630951 0.867379
vt 0.630949 0.955651
vt 0.724259 0.856323
vt 0.732263 0.856853
vt 0.732262 0.956074
vt 0.724259 0.955545
vt 0.740262 0.856255
vt 0.740261 0.955479
vt 0.748265 0.855727
vt 0.748265 0.954949
vt 0.716261 0.855727
vt 0.716261 0.954949
vt 0.775245 0.856159
vt 0.783207 0.855195
vt 0.783208 0.957735
vt 0.775247 0.958699
vt 0.791027 0.853409
vt 0.791027 0.955950
vt 0.798989 0.854375
vt 0.798989 0.956914
vt 0.767426 0.854375
vt 0.767426 0.956914
vt 0.480818 0.832570
vt 0.476500 0.825811
vt 0.533969 0.827216
vt 0.534880 0.835186
vt 0.478095 0.817951
vt 0.532150 0.819405
vt 0.482894 0.811525
vt 0.533638 0.811525
vt 0.481833 0.840528
vt 0.532523 0.842852
vt 0.165830 0.095046
vt 0.184261 0.098554
vt 0.187310 0.114901
vt 0.157613 0.112459
vt 0.204644 0.091142
vt 0.213454 0.103597
vt 0.176869 0.084672
vt 0.154621 0.090031
vt 0.141774 0.104216
vt 0.228771 0.085180
vt 0.202610 0.076567
vt 0.203111 0.064787
vt 0.233755 0.067806
vt 0.203102 0.052732
vt 0.233553 0.050411
vt 0.129014 0.035263
vt 0.145636 0.035098
vt 0.145587 0.047972
vt 0.129012 0.048076
vt 0.168943 0.072030
vt 0.166947 0.058314
vt 0.145985 0.061006
vt 0.138837 0.098733
vt 0.152212 0.086601
vt 0.129010 0.062342
vt 0.147362 0.073711
vt 0.129009 0.074364
vt 0.578344 0.208129
vt 0.578344 0.240147
vt 0.562400 0.240147
vt 0.552585 0.219218
vt 0.791202 0.039332
vt 0.801479 0.023732
vt 0.838131 0.023732
vt 0.837594 0.058821
vt 0.436899 0.240016
vt 0.438982 0.190363
vt 0.469633 0.144729
vt 0.510154 0.227107
vt 0.443748 0.240147
vt 0.449058 0.212447
vt 0.521285 0.218162
vt 0.506126 0.240147
vt 0.201301 0.031784
vt 0.229868 0.030320
vt 0.163039 0.034550
vt 0.868117 0.136473
vt 0.882401 0.169559
vt 0.869042 0.181454
vt 0.661089 0.515355
vt 0.635561 0.533065
vt 0.674620 0.477467
vt 0.575612 0.185681
vt 0.441177 0.205301
vt 0.577224 0.178516
vt 0.566445 0.138593
vt 0.670234 0.471293
vt 0.635561 0.471293
vt 0.938430 0.207027
vt 0.832825 0.213183
vt 0.583677 0.211902
vt 0.831976 0.232263
vt 0.586669 0.237108
vt 0.253064 0.281242
vt 0.118309 0.280964
vt 0.027930 0.270327
vt 0.318885 0.737175
vt 0.401262 0.741040
vt 0.267455 0.310089
vt 0.537403 0.723971
vt 0.272962 0.345721
vt 0.116117 0.310098
vt 0.092179 0.095047
vt 0.100391 0.112468
vt 0.070686 0.114901
vt 0.073741 0.098551
vt 0.044540 0.103585
vt 0.053354 0.091132
vt 0.081140 0.084666
vt 0.103391 0.090035
vt 0.116238 0.104227
vt 0.029226 0.085158
vt 0.055394 0.076552
vt 0.054897 0.064770
vt 0.024244 0.067780
vt 0.024452 0.050380
vt 0.054911 0.052712
vt 0.112436 0.047967
vt 0.112390 0.035092
vt 0.089070 0.072023
vt 0.112035 0.061002
vt 0.091068 0.058305
vt 0.119177 0.098745
vt 0.105804 0.086604
vt 0.110655 0.073710
vt 0.578344 0.272163
vt 0.552585 0.261075
vt 0.884559 0.040757
vt 0.874765 0.024851
vt 0.440846 0.289550
vt 0.473202 0.333962
vt 0.510154 0.253186
vt 0.521285 0.262130
vt 0.449058 0.267845
vt 0.056718 0.031761
vt 0.028145 0.030288
vt 0.094985 0.034538
vt 0.871635 0.326689
vt 0.870836 0.281696
vt 0.884655 0.293091
vt 0.820531 0.340229
vt 0.570135 0.336334
vt 0.762926 0.379120
vt 0.538518 0.405039
vt 0.610031 0.515355
vt 0.596500 0.477467
vt 0.579337 0.296039
vt 0.577452 0.288947
vt 0.442460 0.274550
vt 0.600886 0.471293
vt 0.939294 0.253580
vt 0.230566 0.120721
vt 0.270148 0.076334
vt 0.299880 0.086808
vt 0.276684 0.409067
vt 0.235026 0.366633
vt 0.306151 0.397886
vt 0.200634 0.952194
vt 0.167506 0.871958
vt 0.927482 0.106307
vt 0.922037 0.117502
vt 0.906528 0.022070
vt 0.259291 0.972991
vt 0.212090 0.971717
vt 0.532169 0.071153
vt 0.974700 0.106551
vt 0.983795 0.117821
vt 0.008596 0.590310
vt 0.155233 0.644147
vt 0.020592 0.615185
vt 0.434218 0.049640
vt 0.473929 0.037169
vt 0.497333 0.102830
vt 0.298851 0.871958
vt 0.270565 0.952016
vt 0.983200 0.022069
vt 0.021038 0.565656
vt 0.156169 0.540427
vt 0.441415 0.429550
vt 0.502452 0.374370
vt 0.481552 0.440008
vt 0.816511 0.124926
vt 0.757432 0.088312
vt 0.550285 0.462892
vt 0.770654 0.417530
vt 0.541674 0.012879
vt 0.763658 0.049628
vt 0.215832 0.718285
vt 0.218093 0.467393
vt 0.451187 0.718285
vt 0.453409 0.471635
vt 0.916321 0.136648
vt 0.964167 0.169214
vt 0.890349 0.112531
vt 0.985441 0.205276
vt 0.986339 0.229418
vt 0.937522 0.230325
vt 0.591892 0.641443
vt 0.656971 0.596804
vt 0.654455 0.623142
vt 0.776133 0.057606
vt 0.831806 0.090952
vt 0.878089 0.106189
vt 0.515901 0.682378
vt 0.574353 0.679118
vt 0.517466 0.508700
vt 0.966400 0.290426
vt 0.919777 0.324726
vt 0.894729 0.349778
vt 0.986339 0.253580
vt 0.592706 0.551000
vt 0.654931 0.570426
vt 0.837137 0.373577
vt 0.782810 0.409071
vt 0.882775 0.356552
vt 0.575851 0.513014
vt 0.891384 0.829898
vt 0.935905 0.829898
vt 0.935817 0.851080
vt 0.891438 0.851080
vt 0.825055 0.851080
vt 0.825072 0.829898
vt 0.961920 0.829898
vt 0.961995 0.851080
vt 0.935913 0.851080
vt 0.937864 0.919690
vt 0.893222 0.924051
vt 0.816010 0.919066
vt 0.772758 0.601377
vt 0.745519 0.632108
vt 0.737915 0.702121
vt 0.821474 0.531884
vt 0.817552 0.603829
vt 0.876976 0.954304
vt 0.961946 0.851080
vt 0.978533 0.914046
vt 0.139401 0.490437
vt 0.165474 0.486693
vt 0.066001 0.539874
vt 0.046506 0.509796
vt 0.910868 0.212914
vt 0.878649 0.231457
vt 0.879057 0.217717
vt 0.046251 0.422372
vt 0.139257 0.440612
vt 0.102462 0.465614
vt 0.018348 0.466008
vt 0.879231 0.208633
vt 0.065125 0.392069
vt 0.165474 0.443578
vt 0.911531 0.248722
vt 0.879562 0.245184
vt 0.833382 0.251346
vt 0.880017 0.254127
vt 0.584459 0.262435
vn 0.000000 -0.809017 -0.587785
vn 0.000000 -0.809017 -0.587785
vn 0.000000 -0.309017 -0.951057
vn 0.000000 -0.309017 -0.951057
vn 0.000000 0.309017 -0.951056
vn 0.000000 0.309017 -0.951056
vn 0.000000 0.809017 -0.587785
vn 0.000000 0.809017 -0.587785
vn 0.000000 1.000000 0.000000
vn 0.000000 1.000000 0.000000
vn 0.000000 0.809017 0.587785
vn 0.000000 0.809017 0.587785
vn 0.000000 0.309017 0.951057
vn 0.000000 0.309017 0.951057
vn 0.000000 -0.309017 0.951057
vn 0.000000 -0.309017 0.951057
vn 0.000000 -0.809017 0.587785
vn 0.000000 -0.809017 0.587785
vn 0.000000 -1.000000 0.000000
vn 0.000000 -1.000000 0.000000
vn 1.000000 -0.000000 0.000000
vn 1.000000 -0.000000 0.000000
vn 1.000000 -0.000001 0.000000
vn 1.000000 0.000000 0.000000
vn 1.000000 0.000000 0.000000
vn 1.000000 0.000000 0.000000
vn 1.000000 0.000000 0.000000
vn 1.000000 0.000000 0.000000
vn 1.000000 -0.000000 0.000000
vn 1.000000 -0.000001 0.000000
vn -1.000000 0.000000 0.000000
vn -1.000000 0.000000 0.000000
vn -1.000000 0.000000 0.000000
vn -1.000000 0.000000 0.000000
vn -1.000000 0.000000 0.000000
vn -1.000000 0.000000 0.000000
vn -1.000000 0.000000 0.000000
vn -1.000000 0.000000 0.000000
vn -1.000000 0.000000 0.000000
vn -1.000000 0.000000 0.000000
vn 0.000000 -0.809017 -0.587785
vn 0.000000 -0.809017 -0.587785
vn 0.000000 -0.309017 -0.951057
vn 0.000000 -0.309017 -0.951057
vn 0.000000 0.309017 -0.951057
vn 0.000000 0.309017 -0.951057
vn 0.000000 0.809017 -0.587785
vn 0.000000 0.809017 -0.587785
vn 0.000000 1.000000 0.000000
vn 0.000000 1.000000 0.000000
vn 0.000000 0.809017 0.587785
vn 0.000000 0.809017 0.587785
vn 0.000000 0.309017 0.951057
vn 0.000000 0.309017 0.951057
vn 0.000000 -0.309017 0.951057
vn 0.000000 -0.309017 0.951057
vn 0.000000 -0.809017 0.587785
vn 0.000000 -0.809017 0.587785
vn 0.000000 -1.000000 0.000000
vn 0.000000 -1.000000 0.000000
vn 1.000000 -0.000000 0.000000
vn 1.000000 0.000000 0.000000
vn 1.000000 -0.000001 0.000000
vn 1.000000 0.000000 0.000000
vn 1.000000 0.000000 0.000000
vn 1.000000 0.000000 0.000000
vn 1.000000 0.000000 0.000000
vn 1.000000 0.000000 0.000000
vn 1.000000 -0.000000 0.000000
vn 1.000000 -0.000001 0.000000
vn -1.000000 0.000000 0.000000
vn -1.000000 0.000000 0.000000
vn -1.000000 0.000000 0.000000
vn -1.000000 0.000000 0.000000
vn -1.000000 0.000000 0.000000
vn -1.000000 0.000000 0.000000
vn -1.000000 0.000000 0.000000
vn -1.000000 0.000000 0.000000
vn -1.000000 0.000000 0.000000
vn -1.000000 0.000000 0.000000
vn 0.008953 0.323585 -0.946157
vn 0.008953 0.323585 -0.946157
vn 0.008953 0.323585 -0.946157
vn -0.058922 0.996564 -0.058211
vn -0.064728 0.997595 -0.024787
vn -0.061183 0.998092 -0.008369
vn -0.054372 0.997817 -0.037491
vn -0.069903 0.994271 -0.080859
vn 0.032827 0.957846 -0.285402
vn 0.776525 0.628813 -0.040035
vn 0.776525 0.628813 -0.040035
vn 0.776525 0.628813 -0.040035
vn 0.131357 0.964683 -0.228323
vn 0.155093 0.987733 -0.018172
vn 0.164064 0.986418 0.007899
vn 0.164064 0.986418 0.007899
vn -0.654389 0.740158 0.154732
vn -0.654389 0.740158 0.154732
vn -0.654389 0.740158 0.154732
vn -0.654389 0.740158 0.154732
vn -0.005631 0.578570 0.815613
vn -0.005631 0.578570 0.815613
vn -0.005631 0.578570 0.815613
vn -0.005631 0.578570 0.815613
vn 0.022927 -0.999123 0.035031
vn 0.022927 -0.999123 0.035031
vn 0.022927 -0.999123 0.035031
vn 0.022927 -0.999123 0.035031
vn -0.000195 -0.999787 0.020622
vn -0.000195 -0.999787 0.020622
vn -0.000195 -0.999787 0.020622
vn 0.000000 -1.000000 0.000000
vn 0.000000 -1.000000 0.000000
vn 0.000000 -1.000000 0.000000
vn 0.000000 -1.000000 0.000000
vn 0.832993 0.000000 -0.553283
vn 0.832993 0.000000 -0.553283
vn 0.832993 0.000000 -0.553283
vn 0.040166 0.776639 -0.628664
vn 0.017937 0.820419 -0.571481
vn -0.997371 0.035010 0.063443
vn -0.997371 0.035010 0.063443
vn -0.997371 0.035010 0.063443
vn -0.997371 0.035010 0.063443
vn -0.808595 -0.264879 -0.525369
vn -0.808595 -0.264879 -0.525369
vn -0.808595 -0.264879 -0.525369
vn -0.808595 -0.264879 -0.525369
vn 0.996024 -0.060371 0.065511
vn 0.996024 -0.060371 0.065511
vn 0.996024 -0.060371 0.065511
vn 0.996024 -0.060371 0.065511
vn -0.999816 0.014567 0.012460
vn -0.999816 0.014567 0.012460
vn -0.999816 0.014567 0.012460
vn 0.000000 -1.000000 0.000000
vn 0.000000 -1.000000 0.000000
vn 0.000000 -1.000000 0.000000
vn -0.999547 -0.002978 0.029948
vn -0.999547 -0.002978 0.029948
vn -0.999547 -0.002978 0.029948
vn -0.999976 -0.006249 0.002921
vn -0.999976 -0.006249 0.002921
vn -0.999976 -0.006249 0.002921
vn 0.018716 -0.999825 0.000110
vn 0.018716 -0.999825 0.000110
vn 0.018716 -0.999825 0.000110
vn 0.018716 -0.999825 0.000110
vn -0.008268 0.965220 0.261307
vn -0.008268 0.965220 0.261307
vn 0.002626 0.944487 0.328539
vn 0.002524 0.944703 0.327919
vn 0.006782 -0.749243 -0.662261
vn 0.006782 -0.749243 -0.662261
vn 0.006782 -0.749243 -0.662261
vn 0.006782 -0.749243 -0.662261
vn 0.084989 -0.996381 0.001601
vn 0.084989 -0.996381 0.001601
vn 0.084989 -0.996381 0.001601
vn 0.084989 -0.996381 0.001601
vn 0.005732 0.937693 0.347419
vn 0.005732 0.937693 0.347419
vn 0.997412 -0.001100 0.071891
vn 0.997412 -0.001100 0.071891
vn 0.997412 -0.001100 0.071891
vn 0.000000 0.019636 -0.999807
vn 0.000000 0.019636 -0.999807
vn 0.000000 0.019636 -0.999807
vn 0.000000 0.019636 -0.999807
vn 0.000000 0.999523 -0.030892
vn 0.000000 0.999523 -0.030892
vn 0.000000 0.999523 -0.030892
vn 0.997779 0.001953 0.066588
vn 0.997779 0.001953 0.066588
vn 0.997779 0.001953 0.066588
vn 0.997779 0.001953 0.066588
vn 0.997320 0.006233 0.072895
vn 0.997320 0.006233 0.072895
vn 0.997320 0.006233 0.072895
vn 0.017884 -0.671875 -0.740449
vn 0.017884 -0.671875 -0.740449
vn 0.017884 -0.671875 -0.740449
vn 0.017884 -0.671875 -0.740449
vn 0.997868 0.023808 -0.060771
vn 0.996032 0.088723 0.007032
vn 0.994068 -0.020655 -0.106778
vn 0.994068 -0.020655 -0.106778
vn -0.998774 -0.049421 -0.002923
vn -0.999273 -0.028548 0.025260
vn -0.999273 -0.028548 0.025260
vn -0.995678 -0.080909 -0.045589
vn 0.990148 0.130412 0.050979
vn 0.990148 0.130412 0.050979
vn -0.991888 -0.102583 -0.075062
vn -0.991888 -0.102583 -0.075062
vn -0.387916 -0.021082 0.921453
vn -0.387917 -0.021082 0.921453
vn -0.387916 -0.021082 0.921453
vn -0.387917 -0.021082 0.921453
vn 0.183189 -0.975251 0.123807
vn 0.183189 -0.975251 0.123807
vn 0.183189 -0.975251 0.123807
vn 0.183189 -0.975251 0.123807
vn -0.606113 -0.001704 0.795377
vn -0.606113 -0.001704 0.795377
vn -0.606113 -0.001704 0.795377
vn 0.970966 0.000647 -0.239219
vn 0.970965 0.000647 -0.239219
vn 0.970966 0.000647 -0.239219
vn 0.970966 0.000647 -0.239219
vn -0.048828 0.984754 0.166959
vn -0.048828 0.984754 0.166959
vn -0.048828 0.984754 0.166959
vn -0.048828 0.984754 0.166959
vn -0.606170 -0.001855 0.795333
vn -0.606170 -0.001855 0.795333
vn -0.606170 -0.001855 0.795333
vn -0.606170 -0.001855 0.795333
vn -0.639362 0.051569 0.767175
vn -0.639362 0.051569 0.767175
vn -0.639362 0.051569 0.767175
vn -0.000214 0.009819 -0.999952
vn 0.000214 -0.009818 -0.999952
vn -0.021812 0.999762 -0.000000
vn -0.021812 0.999762 -0.000000
vn 0.000214 -0.009819 0.999952
vn -0.000214 0.009819 0.999952
vn 0.021812 -0.999762 0.000000
vn 0.021812 -0.999762 0.000000
vn 0.171398 0.031409 -0.984701
vn 0.175726 -0.031409 -0.983938
vn -0.068719 0.997563 -0.012117
vn -0.068720 0.997562 -0.012117
vn -0.171399 -0.031409 0.984701
vn -0.175726 0.031409 0.983938
vn 0.068719 -0.997562 0.012117
vn 0.068719 -0.997563 0.012117
vn -0.175726 0.031409 -0.983938
vn -0.171398 -0.031409 -0.984701
vn -0.068719 0.997563 0.012117
vn -0.068720 0.997562 0.012117
vn 0.175726 -0.031409 0.983938
vn 0.171399 0.031409 0.984701
vn 0.068720 -0.997562 -0.012117
vn 0.068719 -0.997563 -0.012117
vn -0.120127 -0.136039 -0.983393
vn -0.039310 0.127855 -0.991014
vn 0.297395 0.953983 0.038389
vn 0.292566 0.955793 -0.029402
vn 0.120127 0.136039 0.983394
vn 0.039311 -0.127855 0.991014
vn -0.292566 -0.955793 0.029402
vn -0.297395 -0.953983 -0.038389
vn -0.172017 -0.044524 -0.984087
vn -0.163242 0.044759 -0.985570
vn 0.097216 0.995063 -0.019956
vn 0.098107 0.995067 -0.014725
vn 0.172017 0.044524 0.984087
vn 0.163242 -0.044759 0.985570
vn -0.098107 -0.995067 0.014725
vn -0.097216 -0.995063 0.019956
vn 0.068696 -0.028905 -0.997219
vn 0.073374 0.035983 -0.996655
vn 0.080967 0.988435 -0.128220
vn 0.065425 0.993264 0.095634
vn -0.068695 0.028905 0.997219
vn -0.073373 -0.035983 0.996655
vn -0.065425 -0.993264 -0.095634
vn -0.080966 -0.988435 0.128220
vn 0.135833 0.172653 -0.975572
vn 0.127527 -0.018855 -0.991656
vn 0.086218 0.987995 -0.128189
vn 0.054149 0.986085 0.157178
vn -0.100226 0.148980 0.983748
vn -0.074791 0.391613 0.917085
vn -0.038402 -0.991376 -0.125299
vn -0.069849 -0.990864 0.115365
vn 0.000000 -0.809017 -0.587785
vn 0.000000 -0.309017 -0.951057
vn 0.000000 -0.309017 -0.951057
vn 0.000000 -0.809017 -0.587785
vn 0.000000 0.309017 -0.951056
vn 0.000000 0.309017 -0.951056
vn 0.000000 0.809017 -0.587785
vn 0.000000 0.809017 -0.587785
vn 0.000000 1.000000 0.000000
vn 0.000000 1.000000 0.000000
vn 0.000000 0.809017 0.587785
vn 0.000000 0.809017 0.587785
vn 0.000000 0.309017 0.951057
vn 0.000000 0.309017 0.951057
vn 0.000000 -0.309017 0.951057
vn 0.000000 -0.309017 0.951057
vn 0.000000 -0.809017 0.587785
vn 0.000000 -0.809017 0.587785
vn 0.000000 -1.000000 0.000000
vn 0.000000 -1.000000 0.000000
vn -1.000000 0.000000 0.000000
vn -1.000000 0.000000 0.000000
vn -1.000000 -0.000000 0.000000
vn -1.000000 0.000000 0.000000
vn -1.000000 0.000000 0.000000
vn -1.000000 0.000000 0.000000
vn -1.000000 0.000000 0.000000
vn -1.000000 0.000000 0.000000
vn -1.000000 -0.000000 0.000000
vn -1.000000 -0.000001 0.000000
vn 1.000000 0.000000 0.000000
vn 1.000000 0.000000 0.000000
vn 1.000000 0.000000 0.000000
vn 1.000000 0.000000 0.000000
vn 1.000000 0.000000 0.000000
vn 1.000000 0.000000 0.000000
vn 1.000000 0.000000 0.000000
vn 1.000000 0.000000 0.000000
vn 1.000000 0.000000 0.000000
vn 1.000000 0.000000 0.000000
vn 0.000000 -0.809017 -0.587785
vn 0.000000 -0.309017 -0.951057
vn 0.000000 -0.309017 -0.951057
vn 0.000000 -0.809017 -0.587785
vn 0.000000 0.309017 -0.951057
vn 0.000000 0.309017 -0.951057
vn 0.000000 0.809017 -0.587785
vn 0.000000 0.809017 -0.587785
vn 0.000000 1.000000 0.000000
vn 0.000000 1.000000 0.000000
vn 0.000000 0.809017 0.587785
vn 0.000000 0.809017 0.587785
vn 0.000000 0.309017 0.951057
vn 0.000000 0.309017 0.951057
vn 0.000000 -0.309017 0.951057
vn 0.000000 -0.309017 0.951057
vn 0.000000 -0.809017 0.587785
vn 0.000000 -0.809017 0.587785
vn 0.000000 -1.000000 0.000000
vn 0.000000 -1.000000 0.000000
vn -1.000000 0.000000 0.000000
vn -1.000000 0.000000 0.000000
vn -1.000000 0.000000 0.000000
vn -1.000000 0.000000 0.000000
vn -1.000000 0.000000 0.000000
vn -1.000000 0.000000 0.000000
vn -1.000000 0.000000 0.000000
vn -1.000000 0.000000 0.000000
vn -1.000000 -0.000000 0.000000
vn -1.000000 -0.000001 0.000000
vn 1.000000 0.000000 0.000000
vn 1.000000 0.000000 0.000000
vn 1.000000 0.000000 0.000000
vn 1.000000 0.000000 0.000000
vn 1.000000 0.000000 0.000000
vn 1.000000 0.000000 0.000000
vn 1.000000 0.000000 0.000000
vn 1.000000 0.000000 0.000000
vn 1.000000 0.000000 0.000000
vn 1.000000 0.000000 0.000000
vn 0.000000 0.992393 0.123107
vn -0.000000 0.979998 0.199007
vn 0.847468 0.497555 0.185032
vn 0.696413 0.709194 0.109784
vn -0.008953 0.323586 -0.946157
vn -0.008953 0.323586 -0.946157
vn -0.008953 0.323586 -0.946157
vn 0.058922 0.996564 -0.058211
vn 0.054372 0.997817 -0.037491
vn 0.061183 0.998092 -0.008370
vn 0.064728 0.997595 -0.024787
vn 0.069903 0.994271 -0.080859
vn -0.032827 0.957846 -0.285402
vn -0.776525 0.628814 -0.040035
vn -0.776525 0.628814 -0.040035
vn -0.776525 0.628814 -0.040035
vn -0.131357 0.964683 -0.228323
vn -0.155093 0.987733 -0.018172
vn -0.164064 0.986418 0.007899
vn -0.164064 0.986418 0.007899
vn 0.654389 0.740158 0.154732
vn 0.654389 0.740158 0.154732
vn 0.654389 0.740158 0.154732
vn 0.654389 0.740158 0.154732
vn 0.005631 0.578570 0.815613
vn 0.005631 0.578570 0.815613
vn 0.005631 0.578570 0.815613
vn 0.005631 0.578570 0.815613
vn -0.022927 -0.999123 0.035031
vn -0.022927 -0.999123 0.035031
vn -0.022927 -0.999123 0.035031
vn -0.022927 -0.999123 0.035031
vn 0.000195 -0.999787 0.020622
vn 0.000195 -0.999787 0.020622
vn 0.000195 -0.999787 0.020622
vn 0.000000 -1.000000 0.000000
vn 0.000000 -1.000000 0.000000
vn 0.000000 -1.000000 0.000000
vn 0.000000 -1.000000 0.000000
vn -0.832993 0.000000 -0.553283
vn -0.832993 0.000000 -0.553283
vn -0.832993 0.000000 -0.553283
vn -0.040166 0.776639 -0.628664
vn -0.017937 0.820419 -0.571481
vn -0.000000 0.958419 0.285365
vn 0.559657 0.802167 0.208116
vn 0.997371 0.035010 0.063443
vn 0.997371 0.035010 0.063443
vn 0.997371 0.035010 0.063443
vn 0.997371 0.035010 0.063443
vn 0.000000 0.398880 0.917003
vn 0.999816 0.014567 0.012460
vn 0.999816 0.014567 0.012460
vn 0.999816 0.014567 0.012460
vn 0.000000 -1.000000 0.000000
vn 0.000000 -1.000000 0.000000
vn 0.000000 -1.000000 0.000000
vn 0.999547 -0.002978 0.029948
vn 0.999547 -0.002978 0.029948
vn 0.999547 -0.002978 0.029948
vn 0.999976 -0.006249 0.002921
vn 0.999976 -0.006249 0.002921
vn 0.999976 -0.006249 0.002921
vn 0.000000 -0.994134 0.108155
vn 0.721287 -0.683981 0.109155
vn 0.480651 -0.872435 0.088495
vn 0.000000 -0.994895 0.100917
vn 0.808595 -0.264879 -0.525370
vn 0.808595 -0.264879 -0.525370
vn 0.808595 -0.264879 -0.525370
vn 0.808595 -0.264879 -0.525370
vn -0.996024 -0.060371 0.065511
vn -0.996024 -0.060371 0.065511
vn -0.996024 -0.060371 0.065511
vn -0.996024 -0.060371 0.065511
vn 0.995586 0.000914 0.093848
vn 0.974471 -0.191033 0.117949
vn 0.000000 -0.993743 0.111690
vn 0.387917 -0.021082 0.921453
vn 0.387916 -0.021082 0.921453
vn 0.387917 -0.021082 0.921453
vn 0.387916 -0.021082 0.921453
vn 0.000214 0.009819 -0.999952
vn 0.021811 0.999762 -0.000000
vn 0.021811 0.999762 -0.000000
vn -0.000214 -0.009818 -0.999952
vn 0.000214 0.009819 0.999952
vn -0.000214 -0.009819 0.999952
vn -0.021811 -0.999762 0.000000
vn -0.021811 -0.999762 0.000000
vn -0.171398 0.031409 -0.984701
vn 0.068720 0.997562 -0.012117
vn 0.068720 0.997562 -0.012117
vn -0.175726 -0.031409 -0.983938
vn 0.175726 0.031409 0.983938
vn 0.171398 -0.031409 0.984701
vn -0.068720 -0.997562 0.012117
vn -0.068720 -0.997562 0.012117
vn 0.175726 0.031409 -0.983938
vn 0.068720 0.997562 0.012117
vn 0.068719 0.997563 0.012117
vn 0.171399 -0.031409 -0.984701
vn -0.171399 0.031409 0.984701
vn -0.175726 -0.031409 0.983938
vn -0.068720 -0.997562 -0.012117
vn -0.068720 -0.997562 -0.012117
vn 0.120128 -0.136039 -0.983393
vn -0.292566 0.955793 -0.029402
vn -0.297395 0.953983 0.038389
vn 0.039310 0.127855 -0.991014
vn -0.039311 -0.127855 0.991014
vn -0.120127 0.136039 0.983394
vn 0.297395 -0.953983 -0.038389
vn 0.292566 -0.955793 0.029402
vn 0.172017 -0.044524 -0.984087
vn -0.098107 0.995067 -0.014726
vn -0.097216 0.995063 -0.019956
vn 0.163242 0.044759 -0.985570
vn -0.163242 -0.044759 0.985570
vn -0.172017 0.044524 0.984087
vn 0.097216 -0.995063 0.019956
vn 0.098107 -0.995067 0.014725
vn -0.068695 -0.028905 -0.997219
vn -0.065425 0.993264 0.095634
vn -0.080966 0.988435 -0.128220
vn -0.073373 0.035983 -0.996655
vn 0.073373 -0.035983 0.996655
vn 0.068695 0.028905 0.997219
vn 0.080966 -0.988435 0.128220
vn 0.065425 -0.993264 -0.095634
vn -0.135834 0.172653 -0.975572
vn -0.054150 0.986085 0.157178
vn -0.086218 0.987995 -0.128189
vn -0.127528 -0.018855 -0.991656
vn 0.074791 0.391613 0.917085
vn 0.100226 0.148981 0.983748
vn 0.069849 -0.990864 0.115365
vn 0.038402 -0.991376 -0.125299
vn 0.485930 0.598697 0.636737
vn 0.457463 0.869740 0.185146
vn 0.199455 0.944566 0.260792
vn 0.264986 0.682347 0.681311
vn 0.478628 0.831635 -0.281600
vn 0.248550 0.904082 -0.347649
vn 0.902155 0.412458 0.126475
vn 0.575444 0.180210 0.797739
vn 0.351391 0.213146 0.911643
vn 0.386290 0.440422 -0.810438
vn 0.781084 0.450831 -0.432040
vn 0.845363 0.145272 -0.514060
vn 0.443944 0.162567 -0.881184
vn 0.865189 -0.118724 -0.487189
vn 0.426552 -0.090061 -0.899968
vn 0.307325 -0.203695 0.929548
vn 0.619152 -0.183921 0.763429
vn 0.640538 -0.181373 0.746201
vn 0.307325 -0.203696 0.929548
vn 0.989930 0.121219 0.073112
vn 0.445543 -0.105973 0.888967
vn 0.758951 0.007200 0.651107
vn 0.541793 -0.029186 0.840005
vn 0.208436 -0.785239 0.583056
vn 0.326412 -0.777490 0.537554
vn 0.302056 -0.035620 0.952624
vn 0.298333 -0.096214 0.949600
vn 0.594699 0.029943 0.803390
vn 0.759229 0.030525 0.650107
vn 0.304707 0.026425 0.952079
vn 0.990967 -0.125780 0.046521
vn 0.001256 0.997221 0.074489
vn 0.000448 0.997222 0.074483
vn 0.000448 0.997222 0.074483
vn 0.002402 0.997218 0.074498
vn -0.133864 0.057318 -0.989341
vn -0.133864 0.057318 -0.989341
vn 0.000000 0.057838 -0.998326
vn 0.000000 0.057838 -0.998326
vn 0.000000 0.995974 0.089648
vn 0.841737 0.534195 0.078189
vn 0.968941 0.227313 0.097375
vn -0.005954 0.997007 0.077082
vn -0.005954 0.997007 0.077082
vn -0.005954 0.997007 0.077082
vn -0.005954 0.997007 0.077082
vn 0.003307 0.997215 0.074504
vn 0.003307 0.997215 0.074504
vn 0.002814 0.996781 0.080127
vn 0.002814 0.996781 0.080127
vn 0.002814 0.996781 0.080127
vn 0.861682 -0.255050 -0.438695
vn 0.404192 -0.216337 -0.888722
vn 0.960420 -0.215438 0.176579
vn 0.279515 0.201466 -0.938767
vn 0.279515 0.201466 -0.938767
vn 0.279515 0.201466 -0.938767
vn -0.019826 0.342557 0.939288
vn -0.003832 0.352512 0.935800
vn -0.001983 0.353654 0.935374
vn -0.819491 0.572937 0.013319
vn -0.819491 0.572937 0.013319
vn -0.819491 0.572937 0.013319
vn -0.819491 0.572937 0.013319
vn 0.813559 0.578912 -0.054608
vn 0.569118 0.820259 -0.057266
vn -0.001286 0.354084 0.935213
vn -0.001286 0.354084 0.935213
vn 0.959433 0.121031 -0.254637
vn 0.959433 0.121031 -0.254637
vn 0.959433 0.121031 -0.254637
vn 0.782266 0.617241 -0.084105
vn 0.740375 0.657264 -0.140886
vn 0.736910 0.662775 -0.133014
vn 0.000000 0.969331 -0.245761
vn 0.000000 0.974978 -0.222302
vn -0.696413 0.709194 0.109784
vn -0.847468 0.497555 0.185032
vn -0.559657 0.802167 0.208116
vn -0.480651 -0.872435 0.088495
vn -0.721287 -0.683981 0.109155
vn -0.995586 0.000914 0.093848
vn -0.975053 -0.188512 0.117198
vn -0.485930 0.598697 0.636737
vn -0.264986 0.682347 0.681311
vn -0.199455 0.944566 0.260792
vn -0.457463 0.869740 0.185146
vn -0.248550 0.904082 -0.347649
vn -0.478628 0.831635 -0.281600
vn -0.902155 0.412458 0.126475
vn -0.575444 0.180210 0.797739
vn -0.351390 0.213146 0.911643
vn -0.386290 0.440422 -0.810437
vn -0.781084 0.450831 -0.432040
vn -0.845363 0.145272 -0.514060
vn -0.443944 0.162567 -0.881184
vn -0.426552 -0.090061 -0.899968
vn -0.865189 -0.118724 -0.487189
vn -0.307325 -0.203696 0.929548
vn -0.307325 -0.203696 0.929548
vn -0.640538 -0.181373 0.746201
vn -0.619152 -0.183921 0.763429
vn -0.989930 0.121219 0.073112
vn -0.445543 -0.105973 0.888967
vn -0.541793 -0.029186 0.840005
vn -0.758951 0.007200 0.651107
vn -0.208436 -0.785239 0.583056
vn -0.326412 -0.777490 0.537554
vn -0.298333 -0.096214 0.949600
vn -0.302056 -0.035620 0.952624
vn -0.594699 0.029943 0.803390
vn -0.759229 0.030525 0.650107
vn -0.304707 0.026425 0.952080
vn -0.990967 -0.125780 0.046521
vn -0.001256 0.997221 0.074489
vn -0.002402 0.997218 0.074498
vn -0.000448 0.997222 0.074483
vn -0.000448 0.997222 0.074483
vn 0.133864 0.057318 -0.989341
vn 0.133864 0.057318 -0.989341
vn -0.841737 0.534195 0.078189
vn -0.968941 0.227313 0.097375
vn 0.005954 0.997007 0.077082
vn 0.005954 0.997007 0.077082
vn 0.005954 0.997007 0.077082
vn 0.005954 0.997007 0.077082
vn -0.003307 0.997215 0.074504
vn -0.003307 0.997215 0.074504
vn -0.002814 0.996781 0.080127
vn -0.002814 0.996781 0.080127
vn -0.002814 0.996781 0.080127
vn -0.861682 -0.255050 -0.438695
vn -0.404192 -0.216337 -0.888722
vn -0.960420 -0.215438 0.176579
vn -0.279515 0.201466 -0.938767
vn -0.279515 0.201466 -0.938767
vn -0.279515 0.201466 -0.938767
vn -0.782266 0.617241 -0.084105
vn -0.625131 0.776931 -0.074759
vn -0.667111 0.741532 -0.071362
vn -0.569118 0.820259 -0.057266
vn -0.278405 0.955188 -0.100531
vn -0.272531 0.959929 -0.065289
vn 0.019826 0.342557 0.939288
vn 0.001983 0.353654 0.935374
vn 0.003832 0.352512 0.935800
vn -0.813559 0.578912 -0.054608
vn 0.819491 0.572937 0.013319
vn 0.819491 0.572937 0.013319
vn 0.819491 0.572937 0.013319
vn 0.819491 0.572937 0.013319
vn 0.001286 0.354084 0.935213
vn 0.001286 0.354084 0.935213
vn -0.959433 0.121031 -0.254637
vn -0.959433 0.121031 -0.254637
vn -0.959433 0.121031 -0.254637
vn 0.472566 -0.665658 0.577564
vn 0.472566 -0.665658 0.577564
vn 0.472566 -0.665658 0.577564
vn 0.472566 -0.665658 0.577564
vn -0.475316 -0.656919 0.585262
vn -0.475316 -0.656919 0.585262
vn -0.475316 -0.656919 0.585262
vn -0.475316 -0.656919 0.585262
vn -0.183189 -0.975251 0.123807
vn -0.183189 -0.975251 0.123807
vn -0.183189 -0.975251 0.123807
vn -0.183189 -0.975251 0.123807
vn 0.606113 -0.001704 0.795377
vn 0.606113 -0.001704 0.795377
vn 0.606113 -0.001704 0.795377
vn -0.970966 0.000647 -0.239219
vn -0.970966 0.000647 -0.239219
vn -0.970966 0.000647 -0.239219
vn -0.970965 0.000647 -0.239219
vn 0.272531 0.959929 -0.065289
vn 0.606170 -0.001855 0.795333
vn 0.606170 -0.001855 0.795333
vn 0.606170 -0.001855 0.795333
vn 0.606170 -0.001855 0.795333
vn -0.000052 -0.998283 0.058572
vn 0.000192 -0.999618 0.027652
vn 0.032991 -0.997227 0.066701
vn 0.991327 -0.022917 0.129405
vn 0.926024 -0.313823 0.209751
vn 0.978850 0.072811 0.191186
vn 0.978850 0.072811 0.191186
vn 0.048828 0.984754 0.166959
vn 0.048828 0.984754 0.166959
vn 0.048828 0.984754 0.166959
vn 0.048828 0.984754 0.166959
vn 0.639362 0.051569 0.767175
vn 0.639362 0.051569 0.767175
vn 0.639362 0.051569 0.767175
vn -0.032817 -0.997257 0.066350
vn -0.000193 -0.999616 0.027698
vn -0.991427 -0.021235 0.128925
vn -0.938940 -0.279090 0.201247
vn -0.978850 0.072811 0.191186
vn -0.978850 0.072811 0.191186
vn 0.667111 0.741532 -0.071362
vn 0.625131 0.776931 -0.074759
vn 0.278405 0.955188 -0.100531
vn -0.999959 -0.000137 -0.009035
vn -0.999959 -0.000137 -0.009035
vn -0.999959 -0.000137 -0.009035
vn -0.999959 -0.000137 -0.009035
vn 0.999959 -0.000137 -0.009035
vn 0.999959 -0.000137 -0.009035
vn 0.999959 -0.000137 -0.009035
vn 0.999959 -0.000137 -0.009035
vn 0.000000 -0.999996 -0.002796
vn 0.000000 -0.999996 -0.002796
vn 0.000000 -0.999996 -0.002887
vn 0.000000 -0.999996 -0.002887
vn 0.962101 0.023236 -0.271701
vn 0.962101 0.023236 -0.271701
vn 0.962101 0.023236 -0.271701
vn 0.962101 0.023236 -0.271701
vn 0.333405 0.091999 -0.938284
vn 0.333405 0.091999 -0.938284
vn 0.333405 0.091999 -0.938284
vn 0.333405 0.091999 -0.938284
vn 0.069410 0.008611 -0.997551
vn 0.069410 0.008611 -0.997551
vn 0.000000 0.008632 -0.999963
vn 0.000000 0.008632 -0.999963
vn 0.000000 -1.000000 0.000000
vn 0.000000 -1.000000 0.000000
vn 0.000000 -1.000000 0.000000
vn 0.870008 0.000000 -0.493037
vn 0.870008 0.000000 -0.493037
vn 0.870008 0.000000 -0.493037
vn 0.870008 0.000000 -0.493037
vn 0.997906 0.000000 -0.064685
vn 0.997906 0.000000 -0.064685
vn 0.997906 0.000000 -0.064685
vn 0.997906 0.000000 -0.064685
vn 0.000000 -0.999986 0.005364
vn 0.000000 -1.000000 0.000000
vn 0.000000 -0.999986 0.005364
vn -0.962101 0.023236 -0.271701
vn -0.962101 0.023236 -0.271701
vn -0.962101 0.023236 -0.271701
vn -0.962101 0.023236 -0.271701
vn -0.333405 0.091999 -0.938284
vn -0.333405 0.091999 -0.938284
vn -0.333405 0.091999 -0.938284
vn -0.333405 0.091999 -0.938284
vn -0.069410 0.008611 -0.997551
vn -0.069410 0.008611 -0.997551
vn 0.000000 -1.000000 0.000000
vn 0.000000 -1.000000 0.000000
vn -0.870008 0.000000 -0.493037
vn -0.870008 0.000000 -0.493037
vn -0.870008 0.000000 -0.493037
vn -0.870008 0.000000 -0.493037
vn -0.997906 0.000000 -0.064685
vn -0.997906 0.000000 -0.064685
vn -0.997906 0.000000 -0.064685
vn -0.997906 0.000000 -0.064685
vn 0.000000 -1.000000 0.000000
vn -0.018716 -0.999825 0.000110
vn -0.018716 -0.999825 0.000110
vn -0.018716 -0.999825 0.000110
vn -0.018716 -0.999825 0.000110
vn 0.008268 0.965220 0.261307
vn -0.002524 0.944703 0.327919
vn -0.002626 0.944487 0.328539
vn 0.008268 0.965220 0.261307
vn -0.006782 -0.749243 -0.662261
vn -0.006782 -0.749243 -0.662261
vn -0.006782 -0.749243 -0.662261
vn -0.006782 -0.749243 -0.662261
vn -0.084990 -0.996381 0.001601
vn -0.084990 -0.996381 0.001601
vn -0.084990 -0.996381 0.001601
vn -0.084990 -0.996381 0.001601
vn -0.005732 0.937693 0.347419
vn -0.005732 0.937693 0.347419
vn -0.997412 -0.001100 0.071891
vn -0.997412 -0.001100 0.071891
vn -0.997412 -0.001100 0.071891
vn 0.000000 0.019636 -0.999807
vn 0.000000 0.019636 -0.999807
vn 0.000000 0.019636 -0.999807
vn 0.000000 0.019636 -0.999807
vn 0.000000 0.999523 -0.030892
vn 0.000000 0.999523 -0.030892
vn 0.000000 0.999523 -0.030892
vn -0.997779 0.001953 0.066588
vn -0.997779 0.001953 0.066588
vn -0.997779 0.001953 0.066588
vn -0.997779 0.001953 0.066588
vn -0.997320 0.006233 0.072895
vn -0.997320 0.006233 0.072895
vn -0.997320 0.006233 0.072895
vn -0.017884 -0.671875 -0.740449
vn -0.017884 -0.671875 -0.740449
vn -0.017884 -0.671875 -0.740449
vn -0.017884 -0.671875 -0.740449
vn -0.997868 0.023808 -0.060771
vn -0.994068 -0.020655 -0.106778
vn -0.994068 -0.020655 -0.106778
vn -0.996032 0.088723 0.007032
vn 0.344888 0.856998 -0.382893
vn 0.353740 0.844141 -0.402857
vn 0.000000 0.896958 -0.442115
vn 0.000000 0.910412 -0.413702
vn 0.098314 0.905837 -0.412060
vn 0.998774 -0.049421 -0.002923
vn 0.995678 -0.080909 -0.045589
vn 0.999273 -0.028548 0.025260
vn 0.999273 -0.028548 0.025260
vn -0.990148 0.130412 0.050979
vn -0.990148 0.130412 0.050979
vn 0.578066 0.750032 -0.321391
vn 0.541403 0.773774 -0.328873
vn 0.541403 0.773774 -0.328873
vn 0.991888 -0.102583 -0.075062
vn 0.991888 -0.102583 -0.075062
vn -0.344888 0.856998 -0.382893
vn -0.353740 0.844141 -0.402857
vn -0.098314 0.905837 -0.412060
vn -0.740375 0.657264 -0.140886
vn -0.578066 0.750032 -0.321391
vn -0.541403 0.773774 -0.328873
vn -0.541403 0.773774 -0.328873
vn -0.736910 0.662775 -0.133014
s 1
g F1:polySurface23
usemtl F1:lambert2SG
f 1/1/1 11/2/2 12/3/3 2/4/4
f 2/4/4 12/3/3 13/5/5 3/6/6
f 3/6/6 13/5/5 14/7/7 4/8/8
f 4/8/8 14/7/7 15/9/9 5/10/10
f 5/10/10 15/9/9 16/11/11 6/12/12
f 6/12/12 16/11/11 17/13/13 7/14/14
f 7/14/14 17/13/13 18/15/15 8/16/16
f 8/16/16 18/15/15 19/17/17 9/18/18
f 9/18/18 19/17/17 20/19/19 10/20/20
f 10/21/20 20/22/19 11/2/2 1/1/1
s 2
f 2/23/21 10/24/22 1/25/23
f 3/26/24 10/24/22 2/23/21
f 4/27/25 10/24/22 3/26/24
f 5/28/26 10/24/22 4/27/25
f 6/29/27 10/24/22 5/28/26
f 7/30/28 10/24/22 6/29/27
f 8/31/29 10/24/22 7/30/28
f 9/32/30 10/24/22 8/31/29
s 3
f 11/33/31 20/34/32 12/35/33
f 12/35/33 20/34/32 13/36/34
f 13/36/34 20/34/32 14/37/35
f 14/37/35 20/34/32 15/38/36
f 15/38/36 20/34/32 16/39/37
f 16/39/37 20/34/32 17/40/38
f 17/40/38 20/34/32 18/41/39
f 18/41/39 20/34/32 19/42/40
s 4
f 21/43/41 31/44/42 32/45/43 22/46/44
f 22/46/44 32/45/43 33/47/45 23/48/46
f 23/48/46 33/47/45 34/49/47 24/50/48
f 24/50/48 34/49/47 35/51/49 25/52/50
f 25/52/50 35/51/49 36/53/51 26/54/52
f 26/54/52 36/53/51 37/55/53 27/56/54
f 27/56/54 37/55/53 38/57/55 28/58/56
f 28/58/56 38/57/55 39/59/57 29/60/58
f 29/60/58 39/59/57 40/61/59 30/62/60
f 30/63/60 40/64/59 31/44/42 21/43/41
s 5
f 22/65/61 30/66/62 21/67/63
f 23/68/64 30/66/62 22/65/61
f 24/69/65 30/66/62 23/68/64
f 25/70/66 30/66/62 24/69/65
f 26/71/67 30/66/62 25/70/66
f 27/72/68 30/66/62 26/71/67
f 28/73/69 30/66/62 27/72/68
f 29/74/70 30/66/62 28/73/69
s 6
f 31/75/71 40/76/72 32/77/73
f 32/77/73 40/76/72 33/78/74
f 33/78/74 40/76/72 34/79/75
f 34/79/75 40/76/72 35/80/76
f 35/80/76 40/76/72 36/81/77
f 36/81/77 40/76/72 37/82/78
f 37/82/78 40/76/72 38/83/79
f 38/83/79 40/76/72 39/84/80
s off
f 50/85/81 48/86/82 44/87/83
s 7
f 46/88/84 47/89/85 43/90/86 41/91/87
f 44/87/88 46/88/84 45/92/89
s off
f 47/89/90 44/87/91 48/86/92
s 7
f 44/87/88 47/89/85 46/88/84
f 42/93/93 46/88/84 41/91/87
f 53/94/94 42/93/93 43/90/95 52/95/96
s off
f 49/96/97 47/89/98 48/86/99 50/85/100
f 49/96/101 52/95/102 43/90/103 47/89/104
f 45/97/105 51/98/106 49/99/107 44/100/108
f 49/99/109 50/101/110 44/100/111
f 51/98/112 54/102/113 52/103/114 49/99/115
f 45/92/116 46/88/117 51/104/118
s 7
f 51/104/119 46/88/84 42/93/93 54/105/120
f 53/94/94 54/105/120 42/93/93
s off
f 55/106/121 56/107/122 41/108/123 43/109/124
f 57/110/125 42/111/126 41/108/127 56/107/128
f 55/112/129 43/113/130 42/111/131 57/110/132
f 68/114/133 67/115/134 59/116/135
f 64/117/136 67/115/137 65/118/138
f 67/115/139 64/119/140 59/116/141
f 59/116/142 66/120/143 68/114/144
f 69/121/145 70/122/146 71/123/147 63/124/148
s 9
f 71/123/149 72/125/150 61/126/151 63/124/152
s off
f 72/127/153 70/122/154 69/121/155 61/128/156
f 63/124/157 59/129/158 58/130/159 62/131/160
s 9
f 61/126/151 60/132/161 59/129/162 63/124/152
s off
f 65/118/163 60/133/164 58/134/165
f 65/118/166 67/115/167 68/114/168 60/133/169
f 60/133/170 68/114/171 66/135/172
f 58/134/173 59/136/174 64/137/175 65/118/176
f 59/129/177 60/132/178 66/138/179
f 58/130/180 60/139/181 61/140/182 62/131/183
s 10
f 69/141/184 73/142/185 74/143/186 61/144/187
s 11
f 75/145/188 76/146/189 63/147/190 62/148/191
s 10
f 63/147/192 76/146/193 73/142/185 69/141/184
s 11
f 62/148/191 61/149/194 74/150/195 75/145/188
s off
f 79/151/196 80/152/197 81/153/198 82/154/199
f 78/155/200 79/151/201 82/154/202 83/156/203
f 78/157/204 83/158/205 84/159/206
f 77/160/207 80/152/208 79/151/209 78/161/210
f 81/153/211 80/152/212 77/162/213 85/163/214
f 77/164/215 78/157/216 84/159/217 86/165/218
f 85/166/219 77/164/220 86/165/221
s 12
f 87/167/222 91/168/223 92/169/224 88/170/225
f 88/170/225 92/169/224 93/171/226 89/172/227
f 89/172/227 93/171/226 94/173/228 90/174/229
f 90/175/229 94/176/228 91/168/223 87/167/222
s 13
f 95/177/230 99/178/231 100/179/232 96/180/233
f 96/180/233 100/179/232 101/181/234 97/182/235
f 97/182/235 101/181/234 102/183/236 98/184/237
f 98/185/237 102/186/236 99/178/231 95/177/230
s 14
f 103/187/238 107/188/239 108/189/240 104/190/241
f 104/190/241 108/189/240 109/191/242 105/192/243
f 105/192/243 109/191/242 110/193/244 106/194/245
f 106/195/245 110/196/244 107/188/239 103/187/238
s 15
f 111/197/246 115/198/247 116/199/248 112/200/249
f 112/200/249 116/199/248 117/201/250 113/202/251
f 113/202/251 117/201/250 118/203/252 114/204/253
f 114/205/253 118/206/252 115/198/247 111/197/246
s 16
f 119/207/254 123/208/255 124/209/256 120/210/257
f 120/210/257 124/209/256 125/211/258 121/212/259
f 121/212/259 125/211/258 126/213/260 122/214/261
f 122/215/261 126/216/260 123/208/255 119/207/254
s 17
f 127/217/262 131/218/263 132/219/264 128/220/265
f 128/220/265 132/219/264 133/221/266 129/222/267
f 129/222/267 133/221/266 134/223/268 130/224/269
f 130/225/269 134/226/268 131/218/263 127/217/262
s 18
f 135/227/270 139/228/271 140/229/272 136/230/273
f 136/230/273 140/229/272 141/231/274 137/232/275
f 137/232/275 141/231/274 142/233/276 138/234/277
f 138/235/277 142/236/276 139/228/271 135/227/270
s 19
f 149/237/278 150/238/279 160/239/280 159/240/281
f 150/238/279 151/241/282 161/242/283 160/239/280
f 151/241/282 152/243/284 162/244/285 161/242/283
f 152/243/284 153/245/286 163/246/287 162/244/285
f 153/245/286 154/247/288 164/248/289 163/246/287
f 154/247/288 155/249/290 165/250/291 164/248/289
f 155/249/290 156/251/292 166/252/293 165/250/291
f 156/251/292 157/253/294 167/254/295 166/252/293
f 157/253/294 158/255/296 168/256/297 167/254/295
f 158/257/296 149/237/278 159/240/281 168/258/297
s 20
f 150/259/298 149/260/299 158/261/300
f 151/262/301 150/259/298 158/261/300
f 152/263/302 151/262/301 158/261/300
f 153/264/303 152/263/302 158/261/300
f 154/265/304 153/264/303 158/261/300
f 155/266/305 154/265/304 158/261/300
f 156/267/306 155/266/305 158/261/300
f 157/268/307 156/267/306 158/261/300
s 21
f 159/269/308 160/270/309 168/271/310
f 160/270/309 161/272/311 168/271/310
f 161/272/311 162/273/312 168/271/310
f 162/273/312 163/274/313 168/271/310
f 163/274/313 164/275/314 168/271/310
f 164/275/314 165/276/315 168/271/310
f 165/276/315 166/277/316 168/271/310
f 166/277/316 167/278/317 168/271/310
s 22
f 169/279/318 170/280/319 180/281/320 179/282/321
f 170/280/319 171/283/322 181/284/323 180/281/320
f 171/283/322 172/285/324 182/286/325 181/284/323
f 172/285/324 173/287/326 183/288/327 182/286/325
f 173/287/326 174/289/328 184/290/329 183/288/327
f 174/289/328 175/291/330 185/292/331 184/290/329
f 175/291/330 176/293/332 186/294/333 185/292/331
f 176/293/332 177/295/334 187/296/335 186/294/333
f 177/295/334 178/297/336 188/298/337 187/296/335
f 178/299/336 169/279/318 179/282/321 188/300/337
s 23
f 170/301/338 169/302/339 178/303/340
f 171/304/341 170/301/338 178/303/340
f 172/305/342 171/304/341 178/303/340
f 173/306/343 172/305/342 178/303/340
f 174/307/344 173/306/343 178/303/340
f 175/308/345 174/307/344 178/303/340
f 176/309/346 175/308/345 178/303/340
f 177/310/347 176/309/346 178/303/340
s 24
f 179/311/348 180/312/349 188/313/350
f 180/312/349 181/314/351 188/313/350
f 181/314/351 182/315/352 188/313/350
f 182/315/352 183/316/353 188/313/350
f 183/316/353 184/317/354 188/313/350
f 184/317/354 185/318/355 188/313/350
f 185/318/355 186/319/356 188/313/350
f 186/319/356 187/320/357 188/313/350
s 25
f 193/321/358 204/322/359 211/323/360 222/324/361
s off
f 239/325/362 224/326/363 237/327/364
s 26
f 226/328/365 212/329/366 215/330/367 227/331/368
f 224/326/369 225/332/370 226/328/365
s off
f 227/331/371 237/327/372 224/326/373
s 26
f 224/326/369 226/328/365 227/331/368
f 213/333/374 212/329/366 226/328/365
f 53/334/375 52/335/376 215/330/377 213/333/374
s off
f 238/336/378 239/325/379 237/327/380 227/331/381
f 238/336/382 227/331/383 215/330/384 52/335/385
f 225/337/386 224/338/387 238/339/388 256/340/389
f 238/339/390 224/338/391 239/341/392
f 256/340/393 238/339/394 52/342/395 54/343/396
f 225/332/397 256/344/398 226/328/399
s 26
f 256/344/400 54/345/401 213/333/374 226/328/365
f 53/334/375 213/333/374 54/345/401
s 25
f 204/322/359 201/346/402 214/347/403 211/323/360
s off
f 214/348/404 215/349/405 212/350/406 211/351/407
s 25
f 214/347/403 201/346/402 200/352/408
s off
f 259/353/409 144/354/410 258/355/411
f 245/356/412 246/357/413 258/355/414
f 258/355/415 144/354/416 245/358/417
f 144/354/418 259/353/419 247/359/420
s 25
f 257/360/421 223/361/422 214/362/423 200/363/424
s off
f 223/364/425 211/351/426 212/350/427 213/365/428
f 214/366/429 223/364/430 213/365/431 215/367/432
s 25
f 240/368/433 222/324/361 211/323/360
f 220/369/434 223/361/422 257/360/421 191/370/435
f 240/368/433 211/323/360 223/371/422 220/372/434
s off
f 252/373/436 251/374/437 253/375/438 254/376/439
s 29
f 266/377/440 267/378/441 271/379/442 270/380/443
f 267/378/441 268/381/444 272/382/445 271/379/442
f 268/381/444 269/383/446 273/384/447 272/382/445
f 269/385/446 266/377/440 270/380/443 273/386/447
s 30
f 274/387/448 275/388/449 279/389/450 278/390/451
f 275/388/449 276/391/452 280/392/453 279/389/450
f 276/391/452 277/393/454 281/394/455 280/392/453
f 277/395/454 274/387/448 278/390/451 281/396/455
s 31
f 282/397/456 283/398/457 287/399/458 286/400/459
f 283/398/457 284/401/460 288/402/461 287/399/458
f 284/401/460 285/403/462 289/404/463 288/402/461
f 285/405/462 282/397/456 286/400/459 289/406/463
s 32
f 290/407/464 291/408/465 295/409/466 294/410/467
f 291/408/465 292/411/468 296/412/469 295/409/466
f 292/411/468 293/413/470 297/414/471 296/412/469
f 293/415/470 290/407/464 294/410/467 297/416/471
s 33
f 298/417/472 299/418/473 303/419/474 302/420/475
f 299/418/473 300/421/476 304/422/477 303/419/474
f 300/421/476 301/423/478 305/424/479 304/422/477
f 301/425/478 298/417/472 302/420/475 305/426/479
s 34
f 306/427/480 307/428/481 311/429/482 310/430/483
f 307/428/481 308/431/484 312/432/485 311/429/482
f 308/431/484 309/433/486 313/434/487 312/432/485
f 309/435/486 306/427/480 310/430/483 313/436/487
s 35
f 314/437/488 315/438/489 319/439/490 318/440/491
f 315/438/489 316/441/492 320/442/493 319/439/490
f 316/441/492 317/443/494 321/444/495 320/442/493
f 317/445/494 314/437/488 318/440/491 321/446/495
s 36
f 332/447/496 327/448/497 326/449/498 198/450/499
f 326/449/498 327/448/497 329/451/500 328/452/501
f 327/448/497 332/447/496 244/453/502
f 331/454/503 332/447/496 198/450/499 330/455/504
f 199/456/505 328/452/501 329/451/500 243/457/506
f 329/451/500 327/448/497 244/453/502 243/457/506
f 339/458/507 340/459/508 199/456/505 243/457/506
f 340/459/508 339/458/507 324/460/509 325/461/510
f 196/462/511 337/463/512 338/464/513 195/465/514
f 323/466/515 339/458/507 243/457/506 244/453/502
s 38
f 338/464/516 334/467/517 335/468/518
s 36
f 322/469/519 333/470/520 331/454/503 330/455/504
s 38
f 335/468/518 336/471/521 195/465/522 338/464/516
s 36
f 331/454/503 333/470/520 323/466/515
f 332/447/496 331/454/503 323/466/515 244/453/502
s 38
f 333/472/523 335/468/518 334/467/517 323/466/524
f 336/471/521 335/468/518 333/472/523 322/473/525
s 36
f 334/467/526 324/460/509 339/458/507 323/466/515
s 39
f 342/474/527 341/475/528 197/476/529 242/477/530
s 40
f 216/478/531 236/479/532 194/480/533 203/481/534
s 25
f 203/482/535 193/321/358 222/324/361 216/483/536
f 240/368/433 208/484/537 216/483/536 222/324/361
s off
f 337/485/538 194/486/539 236/487/540 241/488/541
s 39
f 236/487/542 342/474/527 242/477/530 241/488/543
s off
f 194/486/544 337/485/545 196/489/546
s 36
f 242/490/547 197/491/548 325/461/510 324/460/509
f 338/464/513 337/463/512 241/492/549 334/467/526
f 334/467/526 241/492/549 242/490/547 324/460/509
s off
f 218/493/550 205/494/551 206/495/552
s 41
f 255/496/553 189/497/554 217/498/555
s off
f 342/499/556 236/500/557 216/483/558 217/501/559
s 25
f 217/501/560 216/483/536 208/484/537 265/502/561
s 41
f 342/503/562 217/498/555 189/497/554 341/504/563
s off
f 205/494/564 235/505/565 206/495/566
s 25
f 217/501/560 206/495/567 219/506/568 255/507/569
f 255/507/569 219/506/568 263/508/570 189/509/571
f 193/321/358 353/510/572 56/511/573 204/322/359
f 204/322/359 56/511/573 55/512/574 201/346/402
f 55/512/574 200/352/408 201/346/402
f 257/360/421 200/363/424 55/513/575 57/514/576
f 361/515/577 56/511/573 353/510/572
f 351/516/578 191/370/435 257/360/421 57/514/576
f 361/515/577 351/517/578 57/518/576 56/511/573
s 42
f 373/519/579 198/520/580 326/521/581 370/522/582
f 326/521/581 328/523/583 371/524/584 370/522/582
f 370/522/582 365/525/585 373/519/579
f 372/526/586 330/527/587 198/520/580 373/519/579
f 343/528/588 364/529/589 371/524/584 328/523/583
f 371/524/584 364/529/589 365/525/585 370/522/582
f 379/530/590 364/529/589 343/528/588 380/531/591
f 380/531/591 325/532/592 369/533/593 379/530/590
f 196/462/594 195/465/595 378/534/596 377/535/597
f 368/536/598 365/525/585 364/529/589 379/530/590
s 44
f 378/534/599 376/537/600 375/538/601
s 42
f 322/539/602 330/527/587 372/526/586 374/540/603
s 44
f 376/537/600 378/534/599 195/465/604 336/471/605
s 42
f 372/526/586 368/536/598 374/540/603
f 373/519/579 365/525/585 368/536/598 372/526/586
s 44
f 374/541/606 368/536/607 375/538/601 376/537/600
f 336/471/605 322/473/608 374/541/606 376/537/600
s 42
f 375/538/609 368/536/598 379/530/590 369/533/593
s 45
f 381/542/610 363/543/611 197/476/612 341/475/613
s 40
f 348/544/614 203/481/534 194/480/533 360/545/615
s 25
f 203/482/535 348/546/616 353/510/572 193/321/358
f 361/515/577 353/510/572 348/546/616 83/547/617
s off
f 377/548/618 362/549/619 360/550/620 194/486/621
s 45
f 360/550/622 362/549/623 363/543/611 381/542/610
s off
f 194/486/624 196/489/625 377/548/626
s 42
f 363/551/627 369/533/593 325/532/592 197/552/628
f 378/534/596 375/538/609 362/553/629 377/535/597
f 375/538/609 369/533/593 363/551/627 362/553/629
s off
f 350/554/630 345/555/631 344/556/632
s 25
f 345/555/633 350/554/634 346/557/635
f 367/558/636 346/557/635 347/559/637 84/560/638
f 84/560/638 83/547/617 367/558/636
s 47
f 366/561/639 349/562/640 189/497/641
s 25
f 349/563/642 345/555/633 346/557/635 367/558/636
s off
f 381/564/643 349/563/644 348/546/645 360/565/646
s 25
f 349/563/642 367/558/636 83/547/617 348/546/616
s 47
f 381/566/647 341/504/648 189/497/641 349/562/640
s off
f 344/556/649 345/555/650 359/567/651
f 220/372/652 191/568/653 192/569/654 221/570/655
f 192/571/656 191/572/657 351/517/658 352/573/659
f 250/574/660 208/575/661 251/374/662 252/373/663
f 250/576/664 209/577/665 208/578/666
f 249/579/667 250/580/668 252/373/669 254/376/670
s 25
f 209/581/671 265/502/561 208/484/537
s off
f 249/582/672 229/583/673 209/577/674 250/576/675
s 48
f 192/584/676 228/585/677 221/586/678
s 25
f 228/587/679 220/372/434 221/570/680
f 228/587/679 253/588/681 251/589/682 208/484/537
s off
f 253/375/683 228/590/684 249/591/685 254/376/686
s 25
f 208/484/537 240/368/433 220/372/434 228/587/679
s off
f 228/592/687 229/583/688 249/582/689
s 48
f 192/584/676 352/593/690 85/594/691
s 25
f 85/595/692 352/573/693 351/517/578
f 85/595/692 83/547/617 82/596/694 81/597/695
f 83/547/617 85/595/692 351/517/578 361/515/577
s 48
f 228/585/677 192/584/676 85/594/691
s 25
f 206/495/567 207/598/696 218/493/697
f 217/501/560 265/502/561 207/598/696 206/495/567
f 265/502/561 209/581/671 210/599/698 207/598/696
s off
f 86/600/699 84/560/700 347/559/701 354/601/702
f 229/602/703 230/603/704 210/599/705 209/581/706
s 48
f 229/604/707 228/585/677 85/594/691 86/605/708
f 230/606/709 229/604/707 86/605/708 354/607/710
s off
f 235/505/711 205/494/712 233/608/713 234/609/714
f 233/608/715 205/494/716 218/493/717 232/610/718
s 49
f 235/505/719 234/611/720 202/612/721 190/613/722
s 48
f 233/614/723 202/615/724 234/616/725
s off
f 207/598/726 210/599/727 230/617/728 231/618/729
f 218/493/730 207/598/731 231/618/732 232/619/733
s 48
f 231/620/734 233/614/723 232/621/735
f 355/622/736 231/620/734 230/606/709 354/607/710
s off
f 359/567/737 358/623/738 357/624/739 344/556/740
f 357/624/741 356/625/742 350/554/743 344/556/744
s 49
f 359/567/745 190/613/722 202/612/721 358/626/746
s 48
f 357/627/747 358/628/748 202/615/724
s off
f 346/557/749 355/629/750 354/630/751 347/559/752
f 350/554/753 356/631/754 355/629/755 346/557/756
s 48
f 355/622/736 356/632/757 357/627/747
f 355/622/736 357/627/747 233/614/723 231/620/734
f 233/614/723 357/627/747 202/615/724
s off
f 71/633/758 70/634/759 260/635/760 148/636/761
s 52
f 71/633/762 148/636/763 146/637/764 72/638/765
s off
f 72/639/766 146/640/767 260/635/768 70/634/769
f 148/636/770 147/641/771 143/642/772 144/643/773
s 52
f 146/637/764 148/636/763 144/643/774 145/644/775
s off
f 246/357/776 143/645/777 145/646/778
f 246/357/779 145/646/780 259/353/781 258/355/782
f 145/646/783 247/647/784 259/353/785
f 245/648/786 144/649/787 143/645/788 246/357/789
f 144/643/790 247/650/791 145/644/792
f 146/651/793 145/652/794 143/642/795 147/641/796
s 53
f 260/653/797 146/654/798 248/655/799 262/656/800
s 25
f 248/657/801 235/505/802 190/613/803
f 264/658/804 262/659/805 248/657/801 190/613/803
s 55
f 261/660/806 147/661/807 148/662/808 219/663/809
s 53
f 148/662/810 260/653/797 262/656/800 219/663/811
s 25
f 219/506/568 262/659/805 264/658/804 263/508/570
f 206/495/567 261/664/812 219/506/568
f 206/495/813 235/505/802 248/657/801 261/664/814
s 55
f 248/665/815 146/666/816 147/661/807 261/660/806
s 25
f 74/667/817 190/613/803 359/567/818
f 264/658/804 190/613/803 74/667/817 73/668/819
f 76/669/820 263/508/570 264/658/804 73/668/819
f 345/555/633 76/669/820 75/670/821
f 345/555/822 75/670/823 74/667/817 359/567/818
f 349/563/642 366/671/824 76/669/820 345/555/633
f 76/669/820 366/671/824 189/509/571 263/508/570