g default
v 0.863563 -0.174795 0.279730
v 0.863563 0.174795 -0.279730
v 0.329852 -0.732343 -0.457618
v 0.533711 -0.169789 -0.735436
v 0.533711 -0.735436 0.169789
v 0.329852 0.732343 0.457618
v 0.533711 0.169789 0.735436
v 0.533711 0.735436 -0.169789
v -0.863563 -0.174795 0.279730
v -0.863563 0.174795 -0.279730
v -0.329852 0.732343 0.457618
v -0.533711 0.169789 0.735436
v -0.533711 0.735436 -0.169789
v -0.329852 -0.732343 -0.457618
v -0.533711 -0.169789 -0.735436
v -0.533711 -0.735436 0.169789
v 0.000000 -0.177889 0.907137
v 0.000000 0.737348 -0.557548
v 0.000000 0.177888 -0.907137
v 0.000000 -0.737349 0.557548
vt 0.756269 0.561000
vt 0.905410 0.512541
vt 0.997584 0.639408
vt 0.905410 0.766275
vt 0.756269 0.717816
vt 0.579630 0.510004
vt 0.487456 0.383137
vt 0.579630 0.256271
vt 0.728770 0.304729
vt 0.728770 0.461545
vt 0.626865 0.753856
vt 0.499998 0.661682
vt 0.548457 0.512541
vt 0.705273 0.512541
vt 0.753732 0.661682
vt 0.743726 0.126867
vt 0.835900 0.000000
vt 0.985041 0.048459
vt 0.985041 0.205275
vt 0.835900 0.253733
vt 0.292186 0.753856
vt 0.243728 0.604715
vt 0.370595 0.512541
vt 0.497461 0.604715
vt 0.449002 0.753856
vt 0.592173 0.253733
vt 0.499998 0.126867
vt 0.592173 0.000000
vt 0.741313 0.048459
vt 0.741313 0.205275
vt 0.000000 0.717816
vt 0.000000 0.561000
vt 0.149141 0.512541
vt 0.241315 0.639408
vt 0.149141 0.766275
vt 0.858050 0.256271
vt 0.984917 0.348445
vt 0.936458 0.497585
vt 0.779642 0.497585
vt 0.731184 0.348445
vt 0.000000 0.205274
vt 0.000000 0.048459
vt 0.149141 0.000000
vt 0.241315 0.126867
vt 0.149141 0.253733
vt 0.000000 0.304729
vt 0.149141 0.256271
vt 0.241315 0.383137
vt 0.149141 0.510004
vt 0.000000 0.461545
vt 0.370594 0.241315
vt 0.243728 0.149141
vt 0.292186 0.000000
vt 0.449003 0.000000
vt 0.497461 0.149141
vt 0.485043 0.383137
vt 0.392869 0.510004
vt 0.243728 0.461545
vt 0.243728 0.304730
vt 0.392868 0.256271
vn 0.000000 0.999988 0.004931
vn 0.000000 0.999988 0.004931
vn 0.000000 0.999988 0.004931
vn 0.525731 0.450776 -0.721393
vn 0.525731 0.450776 -0.721393
vn 0.525731 0.450776 -0.721393
vn 0.000000 0.999988 0.004931
vn 0.000000 0.999988 0.004931
vn 0.000000 0.999988 0.004931
vn 0.000000 0.999988 0.004931
vn 0.000000 0.999988 0.004931
vn 0.000000 0.999988 0.004931
vn -0.525731 0.450776 -0.721393
vn -0.525731 0.450776 -0.721393
vn -0.525731 0.450776 -0.721393
vn -0.525731 0.450776 -0.721393
vn -0.525731 0.450776 -0.721393
vn -0.525731 0.450776 -0.721393
vn 0.525731 0.450776 -0.721393
vn 0.525731 0.450776 -0.721393
vn 0.525731 0.450776 -0.721393
vn -0.850651 0.445845 0.278595
vn -0.850651 0.445845 0.278595
vn -0.850651 0.445845 0.278595
vn 0.000000 -0.442798 -0.896622
vn 0.000000 -0.442798 -0.896622
vn 0.000000 -0.442798 -0.896622
vn 0.850651 0.445845 0.278595
vn 0.850651 0.445845 0.278595
vn 0.850651 0.445845 0.278595
vn 0.525731 0.450776 -0.721393
vn 0.525731 0.450776 -0.721393
vn 0.525731 0.450776 -0.721393
vn 0.850651 0.445845 0.278595
vn 0.850651 0.445845 0.278595
vn 0.850651 0.445845 0.278595
vn 0.000000 0.442798 0.896622
vn 0.000000 0.442798 0.896622
vn 0.000000 0.442798 0.896622
vn 0.850651 -0.445845 -0.278595
vn 0.850651 -0.445845 -0.278595
vn 0.850651 -0.445845 -0.278595
vn -0.525731 0.450776 -0.721393
vn -0.525731 0.450776 -0.721393
vn -0.525731 0.450776 -0.721393
vn -0.850651 0.445845 0.278595
vn -0.850651 0.445845 0.278595
vn -0.850651 0.445845 0.278595
vn 0.000000 -0.442798 -0.896622
vn 0.000000 -0.442798 -0.896622
vn 0.000000 -0.442798 -0.896622
vn 0.000000 -0.442798 -0.896622
vn 0.000000 -0.442798 -0.896622
vn 0.000000 -0.442798 -0.896622
vn -0.850651 -0.445845 -0.278595
vn -0.850651 -0.445845 -0.278595
vn -0.850651 -0.445845 -0.278595
vn 0.850651 0.445845 0.278595
vn 0.850651 0.445845 0.278595
vn 0.850651 0.445845 0.278595
vn 0.850651 -0.445845 -0.278595
vn 0.850651 -0.445845 -0.278595
vn 0.850651 -0.445845 -0.278595
vn 0.000000 0.442798 0.896622
vn 0.000000 0.442798 0.896622
vn 0.000000 0.442798 0.896622
vn 0.000000 0.442798 0.896622
vn 0.000000 0.442798 0.896622
vn 0.000000 0.442798 0.896622
vn -0.850651 0.445845 0.278595
vn -0.850651 0.445845 0.278595
vn -0.850651 0.445845 0.278595
vn 0.000000 -0.999988 -0.004931
vn 0.000000 -0.999988 -0.004931
vn 0.000000 -0.999988 -0.004931
vn -0.850651 -0.445845 -0.278595
vn -0.850651 -0.445845 -0.278595
vn -0.850651 -0.445845 -0.278595
vn 0.525731 -0.450776 0.721393
vn 0.525731 -0.450776 0.721393
vn 0.525731 -0.450776 0.721393
vn -0.525731 -0.450776 0.721393
vn -0.525731 -0.450776 0.721393
vn -0.525731 -0.450776 0.721393
vn 0.850651 -0.445845 -0.278595
vn 0.850651 -0.445845 -0.278595
vn 0.850651 -0.445845 -0.278595
vn -0.850651 -0.445845 -0.278595
vn -0.850651 -0.445845 -0.278595
vn -0.850651 -0.445845 -0.278595
vn -0.525731 -0.450776 0.721393
vn -0.525731 -0.450776 0.721393
vn -0.525731 -0.450776 0.721393
vn -0.525731 -0.450776 0.721393
vn -0.525731 -0.450776 0.721393
vn -0.525731 -0.450776 0.721393
vn 0.525731 -0.450776 0.721393
vn 0.525731 -0.450776 0.721393
vn 0.525731 -0.450776 0.721393
vn 0.525731 -0.450776 0.721393
vn 0.525731 -0.450776 0.721393
vn 0.525731 -0.450776 0.721393
vn 0.000000 -0.999988 -0.004931
vn 0.000000 -0.999988 -0.004931
vn 0.000000 -0.999988 -0.004931
vn 0.000000 -0.999988 -0.004931
vn 0.000000 -0.999988 -0.004931
vn 0.000000 -0.999988 -0.004931
s off
g Dice:pSolid5
usemtl Dice:lambert6SG
f 8/41/1 11/44/2 6/45/3
f 4/37/4 18/39/5 8/40/6
f 8/41/7 13/43/8 11/44/9
f 13/43/10 8/41/11 18/42/12
f 15/55/13 13/52/14 18/53/15
f 15/55/16 18/53/17 19/54/18
f 18/39/19 4/37/20 19/38/21
f 13/49/22 9/46/23 11/48/24
f 3/31/25 19/34/26 4/35/27
f 1/9/28 8/6/29 6/7/30
f 4/37/31 8/40/32 2/36/33
f 8/6/34 1/9/35 2/10/36
f 17/19/37 6/16/38 11/17/39
f 2/5/40 3/3/41 4/4/42
f 13/52/43 15/55/44 10/51/45
f 9/46/46 13/49/47 10/50/48
f 19/34/49 14/32/50 15/33/51
f 14/32/52 19/34/53 3/31/54
f 14/58/55 10/56/56 15/57/57
f 1/9/58 6/7/59 7/8/60
f 5/2/61 2/5/62 1/1/63
f 17/19/64 11/17/65 12/18/66
f 6/16/67 17/19/68 7/20/69
f 11/48/70 9/46/71 12/47/72
f 16/28/73 5/26/74 20/27/75
f 10/56/76 16/59/77 9/60/78
f 20/14/79 7/12/80 17/13/81
f 16/24/82 12/22/83 9/23/84
f 2/5/85 5/2/86 3/3/87
f 10/56/88 14/58/89 16/59/90
f 12/22/91 16/24/92 20/25/93
f 12/22/94 20/25/95 17/21/96
f 7/12/97 20/14/98 5/15/99
f 7/12/100 5/15/101 1/11/102
f 14/29/103 5/26/104 16/28/105
f 5/26/106 14/29/107 3/30/108