g default
v 0.095304 1.215503 -0.069242
v 0.036403 1.215503 -0.112036
v -0.036403 1.215503 -0.112036
v -0.095304 1.215503 -0.069242
v -0.117802 1.215503 0.000000
v -0.095304 1.215503 0.069242
v -0.036403 1.215503 0.112036
v 0.036403 1.215503 0.112036
v 0.095304 1.215503 0.069242
v 0.117802 1.215503 0.000000
v 0.131175 1.259841 -0.095304
v 0.050104 1.259841 -0.154205
v -0.050104 1.259841 -0.154205
v -0.131175 1.259841 -0.095304
v -0.162140 1.259841 0.000000
v -0.131175 1.259841 0.095304
v -0.050104 1.259841 0.154205
v 0.050104 1.259841 0.154205
v 0.131175 1.259841 0.095304
v 0.162140 1.259841 0.000000
v 0.154205 1.315711 -0.112036
v 0.058901 1.315711 -0.181279
v -0.058901 1.315711 -0.181279
v -0.154205 1.315711 -0.112036
v -0.190608 1.315711 0.000000
v -0.154205 1.315711 0.112036
v -0.058901 1.315711 0.181279
v 0.058901 1.315711 0.181279
v 0.154205 1.315711 0.112036
v 0.190608 1.315711 0.000000
v 0.162140 1.377644 -0.117802
v 0.061932 1.377644 -0.190608
v -0.061932 1.377644 -0.190608
v -0.162140 1.377644 -0.117802
v -0.200417 1.377644 0.000000
v -0.162140 1.377644 0.117802
v -0.061932 1.377644 0.190608
v 0.061932 1.377644 0.190608
v 0.162140 1.377644 0.117802
v 0.200417 1.377644 0.000000
v 0.154205 1.439575 -0.112036
v 0.058901 1.439575 -0.181279
v -0.058901 1.439575 -0.181279
v -0.154205 1.439575 -0.112036
v -0.190608 1.439575 0.000000
v -0.154205 1.439575 0.112036
v -0.058901 1.439575 0.181279
v 0.058901 1.439575 0.181279
v 0.154205 1.439575 0.112036
v 0.190608 1.439575 0.000000
v 0.131175 1.495445 -0.095304
v 0.050104 1.495445 -0.154205
v -0.050104 1.495445 -0.154205
v -0.131175 1.495445 -0.095304
v -0.162140 1.495445 0.000000
v -0.131175 1.495445 0.095304
v -0.050104 1.495445 0.154205
v 0.050104 1.495445 0.154205
v 0.131175 1.495445 0.095304
v 0.162140 1.495445 0.000000
v 0.095304 1.539784 -0.069242
v 0.036403 1.539784 -0.112036
v -0.036403 1.539784 -0.112036
v -0.095304 1.539784 -0.069242
v -0.117802 1.539784 0.000000
v -0.095304 1.539784 0.069242
v -0.036403 1.539784 0.112036
v 0.036403 1.539784 0.112036
v 0.095304 1.539784 0.069242
v 0.117802 1.539784 0.000000
v 0.050104 1.568251 -0.036403
v 0.019138 1.568251 -0.058901
v -0.019138 1.568251 -0.058901
v -0.050104 1.568251 -0.036403
v -0.061932 1.568251 0.000000
v -0.050104 1.568251 0.036403
v -0.019138 1.568251 0.058901
v 0.019138 1.568251 0.058901
v 0.050104 1.568251 0.036403
v 0.061932 1.568251 0.000000
v 0.000000 1.578060 0.000000
v 0.285275 0.000000 -0.207264
v 0.108965 0.000000 -0.335360
v -0.108965 0.000000 -0.335360
v -0.285275 0.000000 -0.207264
v -0.352619 0.000000 0.000000
v -0.285275 0.000000 0.207264
v -0.108965 0.000000 0.335360
v 0.108965 0.000000 0.335360
v 0.285275 0.000000 0.207264
v 0.352619 0.000000 0.000000
v 0.285275 0.289225 -0.207264
v 0.108965 0.289225 -0.335360
v -0.108965 0.289225 -0.335360
v -0.285275 0.289225 -0.207264
v -0.352619 0.289225 0.000000
v -0.285275 0.289225 0.207264
v -0.108965 0.289225 0.335360
v 0.108965 0.289225 0.335360
v 0.285275 0.289225 0.207264
v 0.352619 0.289225 0.000000
v 0.000000 0.000000 0.000000
v 0.149457 0.378708 -0.108586
v 0.057087 0.378708 -0.175696
v -0.057087 0.378708 -0.175696
v -0.149456 0.378708 -0.108586
v -0.184738 0.378708 0.000000
v -0.149456 0.378708 0.108586
v -0.057087 0.378708 0.175696
v 0.057087 0.378708 0.175696
v 0.149456 0.378708 0.108586
v 0.184738 0.378708 0.000000
v 0.149457 0.601113 -0.108586
v 0.057087 0.601113 -0.175696
v -0.057087 0.601113 -0.175696
v -0.149456 0.601113 -0.108586
v -0.184738 0.601113 0.000000
v -0.149456 0.601113 0.108586
v -0.057087 0.601113 0.175696
v 0.057087 0.601113 0.175696
v 0.149456 0.601113 0.108586
v 0.184738 0.601113 0.000000
v 0.100713 0.643689 -0.073172
v 0.038469 0.643689 -0.118395
v -0.038469 0.643689 -0.118395
v -0.100713 0.643689 -0.073172
v -0.124488 0.643689 0.000000
v -0.100713 0.643689 0.073172
v -0.038469 0.643689 0.118395
v 0.038469 0.643689 0.118395
v 0.100713 0.643689 0.073172
v 0.124488 0.643689 0.000000
v 0.073762 0.643689 -0.053591
v 0.028175 0.643689 -0.086712
v -0.028175 0.643689 -0.086712
v -0.073762 0.643689 -0.053591
v -0.091175 0.643689 0.000000
v -0.073762 0.643689 0.053591
v -0.028175 0.643689 0.086712
v 0.028175 0.643689 0.086712
v 0.073762 0.643689 0.053591
v 0.091175 0.643689 0.000000
v 0.073762 1.163933 -0.053591
v 0.028175 1.163933 -0.086712
v -0.028175 1.163933 -0.086712
v -0.073762 1.163933 -0.053591
v -0.091175 1.163933 0.000000
v -0.073762 1.163933 0.053591
v -0.028175 1.163933 0.086712
v 0.028175 1.163933 0.086712
v 0.073762 1.163933 0.053591
v 0.091175 1.163933 0.000000
v 0.107498 1.183424 -0.078102
v 0.041061 1.183424 -0.126372
v -0.041061 1.183424 -0.126372
v -0.107498 1.183424 -0.078102
v -0.132875 1.183424 0.000000
v -0.107498 1.183424 0.078102
v -0.041061 1.183424 0.126372
v 0.041061 1.183424 0.126371
v 0.107498 1.183424 0.078102
v 0.132875 1.183424 0.000000
vt 0.904300 0.169825
vt 0.914219 0.168310
vt 0.917248 0.176473
vt 0.904176 0.178047
vt 0.894167 0.167955
vt 0.904232 0.169720
vt 0.904001 0.177928
vt 0.890915 0.176033
vt 0.914069 0.168454
vt 0.916984 0.176484
vt 0.894316 0.168291
vt 0.904309 0.169806
vt 0.904185 0.178028
vt 0.891186 0.176266
vt 0.914228 0.168291
vt 0.917256 0.176454
vt 0.894330 0.168345
vt 0.904323 0.169860
vt 0.904198 0.178082
vt 0.891199 0.176320
vt 0.914241 0.168345
vt 0.917270 0.176508
vt 0.894162 0.168020
vt 0.904221 0.169821
vt 0.903961 0.178027
vt 0.890882 0.176087
vt 0.914063 0.168590
vt 0.916950 0.176629
vt 0.894308 0.168310
vt 0.891177 0.176285
vt 0.919120 0.184923
vt 0.904068 0.185732
vt 0.903860 0.185609
vt 0.888817 0.184376
vt 0.918828 0.184828
vt 0.904077 0.185713
vt 0.889121 0.184512
vt 0.919128 0.184904
vt 0.904090 0.185767
vt 0.889134 0.184566
vt 0.919141 0.184958
vt 0.903793 0.185708
vt 0.888754 0.184423
vt 0.918764 0.184980
vt 0.889112 0.184531
vt 0.919658 0.193497
vt 0.903945 0.193189
vt 0.903748 0.193067
vt 0.888044 0.192907
vt 0.919393 0.193317
vt 0.903954 0.193170
vt 0.888326 0.192956
vt 0.919666 0.193478
vt 0.903967 0.193225
vt 0.888339 0.193010
vt 0.919680 0.193532
vt 0.903655 0.193166
vt 0.887952 0.192951
vt 0.919300 0.193471
vt 0.888317 0.192975
vt 0.918810 0.202029
vt 0.903804 0.200624
vt 0.903650 0.200503
vt 0.888658 0.201475
vt 0.918614 0.201788
vt 0.903813 0.200604
vt 0.888872 0.201456
vt 0.918820 0.202010
vt 0.903826 0.200658
vt 0.888885 0.201510
vt 0.918833 0.202064
vt 0.903532 0.200602
vt 0.888535 0.201521
vt 0.918491 0.201939
vt 0.888863 0.201475
vt 0.916612 0.210366
vt 0.903642 0.208214
vt 0.903564 0.208098
vt 0.890630 0.209916
vt 0.916517 0.210092
vt 0.903651 0.208194
vt 0.890740 0.209856
vt 0.916621 0.210346
vt 0.903665 0.208249
vt 0.890753 0.209910
vt 0.916634 0.210401
vt 0.903418 0.208197
vt 0.890478 0.209969
vt 0.916365 0.210236
vt 0.890731 0.209875
vt 0.913166 0.218409
vt 0.903461 0.216141
vt 0.903491 0.216032
vt 0.893856 0.218108
vt 0.913205 0.218137
vt 0.903470 0.216122
vt 0.893828 0.218038
vt 0.913175 0.218390
vt 0.903483 0.216176
vt 0.893842 0.218092
vt 0.913189 0.218444
vt 0.903318 0.216130
vt 0.893675 0.218172
vt 0.913025 0.218269
vt 0.893819 0.218057
vt 0.908624 0.226163
vt 0.903266 0.224590
vt 0.903452 0.224488
vt 0.898175 0.226015
vt 0.908831 0.225936
vt 0.903275 0.224571
vt 0.897970 0.225976
vt 0.908633 0.226144
vt 0.903288 0.224626
vt 0.897983 0.226030
vt 0.908647 0.226198
vt 0.903249 0.224586
vt 0.897966 0.226094
vt 0.908623 0.226052
vt 0.897961 0.225995
vt 0.903124 0.233796
vt 0.903560 0.233688
vt 0.903133 0.233777
vt 0.903146 0.233831
vt 0.903325 0.233786
vt 0.840348 0.208693
vt 0.878253 0.208693
vt 0.878253 0.237254
vt 0.840348 0.237254
vt 0.878253 0.265816
vt 0.840348 0.265816
vt 0.878253 0.294377
vt 0.840348 0.294377
vt 0.840348 0.008766
vt 0.878253 0.008766
vt 0.878253 0.037327
vt 0.840348 0.037327
vt 0.878253 0.065888
vt 0.840348 0.065888
vt 0.878253 0.094449
vt 0.840348 0.094449
vt 0.878253 0.123010
vt 0.840348 0.123010
vt 0.878253 0.151571
vt 0.840348 0.151571
vt 0.878253 0.180132
vt 0.840348 0.180132
vt 0.993784 0.136677
vt 0.980894 0.154420
vt 0.960036 0.125712
vt 0.993784 0.114746
vt 0.980894 0.097004
vt 0.960036 0.090227
vt 0.939178 0.097004
vt 0.926288 0.114746
vt 0.926288 0.136677
vt 0.939178 0.154420
vt 0.960036 0.161197
vt 0.816361 0.215492
vt 0.816361 0.230455
vt 0.816361 0.244053
vt 0.816361 0.259017
vt 0.816361 0.272615
vt 0.816361 0.287578
vt 0.816361 0.015565
vt 0.816361 0.030528
vt 0.816361 0.044126
vt 0.816361 0.059089
vt 0.816361 0.072687
vt 0.816361 0.087650
vt 0.816361 0.101248
vt 0.816361 0.116211
vt 0.816361 0.129809
vt 0.816361 0.144772
vt 0.816361 0.158370
vt 0.816361 0.173333
vt 0.816361 0.186931
vt 0.816361 0.201894
vt 0.892398 0.115013
vt 0.921546 0.115013
vt 0.921546 0.129976
vt 0.892398 0.129976
vt 0.921546 0.144939
vt 0.892398 0.144939
vt 0.921546 0.159903
vt 0.892398 0.159903
vt 0.892398 0.010270
vt 0.921546 0.010270
vt 0.921546 0.025234
vt 0.892398 0.025233
vt 0.921546 0.040197
vt 0.892398 0.040196
vt 0.921546 0.055160
vt 0.892398 0.055160
vt 0.921546 0.070123
vt 0.892398 0.070123
vt 0.921546 0.085086
vt 0.892398 0.085086
vt 0.921546 0.100050
vt 0.892398 0.100049
vt 0.883042 0.117453
vt 0.883042 0.127536
vt 0.883042 0.132416
vt 0.883042 0.142499
vt 0.883043 0.147379
vt 0.883042 0.157463
vt 0.883043 0.012710
vt 0.883043 0.022793
vt 0.883043 0.027673
vt 0.883043 0.037756
vt 0.883043 0.042637
vt 0.883043 0.052720
vt 0.883043 0.057600
vt 0.883043 0.067683
vt 0.883043 0.072563
vt 0.883043 0.082646
vt 0.883042 0.087526
vt 0.883042 0.097610
vt 0.883042 0.102489
vt 0.883042 0.112573
vt 0.928224 0.234248
vt 0.925658 0.237780
vt 0.919731 0.229623
vt 0.923884 0.228274
vt 0.919731 0.219540
vt 0.923884 0.220889
vt 0.925658 0.211382
vt 0.928224 0.214915
vt 0.935248 0.208267
vt 0.935248 0.212633
vt 0.944838 0.211382
vt 0.942272 0.214915
vt 0.950764 0.219540
vt 0.946612 0.220889
vt 0.950764 0.229623
vt 0.946612 0.228274
vt 0.944838 0.237780
vt 0.942272 0.234248
vt 0.935248 0.240896
vt 0.935248 0.236530
vt 0.926269 0.062138
vt 0.994450 0.062138
vt 0.994450 0.069524
vt 0.926269 0.069524
vt 0.994450 0.076908
vt 0.926269 0.076908
vt 0.994450 0.084294
vt 0.926269 0.084294
vt 0.926269 0.010444
vt 0.994450 0.010445
vt 0.994450 0.017829
vt 0.926269 0.017829
vt 0.994450 0.025214
vt 0.926269 0.025214
vt 0.994450 0.032599
vt 0.926269 0.032599
vt 0.994450 0.039984
vt 0.926269 0.039984
vt 0.994450 0.047368
vt 0.926269 0.047368
vt 0.994450 0.054754
vt 0.926269 0.054754
vt 0.986600 0.225359
vt 0.983029 0.220404
vt 0.987305 0.214480
vt 0.993103 0.216391
vt 0.987287 0.207174
vt 0.993103 0.205316
vt 0.982982 0.201269
vt 0.986600 0.196347
vt 0.976027 0.199021
vt 0.976057 0.192903
vt 0.969085 0.201303
vt 0.965513 0.196346
vt 0.964808 0.207227
vt 0.959009 0.205316
vt 0.964825 0.214534
vt 0.959010 0.216392
vt 0.969132 0.220438
vt 0.965514 0.225360
vt 0.976086 0.222683
vt 0.976057 0.228801
vt 0.936185 0.195669
vt 0.933284 0.199534
vt 0.926205 0.189518
vt 0.930794 0.188101
vt 0.926202 0.177298
vt 0.930761 0.178799
vt 0.933272 0.167290
vt 0.936133 0.171196
vt 0.945012 0.163163
vt 0.944955 0.168174
vt 0.956738 0.167321
vt 0.953796 0.171168
vt 0.963798 0.177329
vt 0.959211 0.178741
vt 0.963800 0.189546
vt 0.959242 0.188046
vt 0.956732 0.199555
vt 0.953862 0.195652
vt 0.945012 0.203715
vt 0.945019 0.198680
vn 0.572061 -0.707106 -0.415628
vn 0.218507 -0.707107 -0.672498
vn 0.256443 -0.557963 -0.789249
vn 0.671376 -0.557962 -0.487783
vn -0.218508 -0.707107 -0.672498
vn -0.256444 -0.557962 -0.789249
vn -0.572061 -0.707107 -0.415628
vn -0.671376 -0.557962 -0.487783
vn -0.707108 -0.707106 0.000000
vn -0.829867 -0.557961 -0.000000
vn -0.572061 -0.707107 0.415628
vn -0.671376 -0.557962 0.487783
vn -0.218507 -0.707108 0.672497
vn -0.256443 -0.557963 0.789249
vn 0.218507 -0.707108 0.672498
vn 0.256443 -0.557963 0.789249
vn 0.572061 -0.707107 0.415628
vn 0.671376 -0.557962 0.487783
vn 0.707108 -0.707106 -0.000000
vn 0.829867 -0.557961 0.000000
vn 0.295556 -0.291929 -0.909629
vn 0.773776 -0.291929 -0.562181
vn -0.295557 -0.291929 -0.909628
vn -0.773776 -0.291929 -0.562181
vn -0.956440 -0.291929 -0.000000
vn -0.773776 -0.291929 0.562182
vn -0.295556 -0.291929 0.909629
vn 0.295557 -0.291929 0.909628
vn 0.773776 -0.291929 0.562181
vn 0.956440 -0.291929 0.000000
vn 0.309017 -0.000000 -0.951056
vn 0.809017 0.000000 -0.587786
vn -0.309018 -0.000000 -0.951056
vn -0.809017 -0.000000 -0.587786
vn -1.000000 -0.000000 -0.000000
vn -0.809017 0.000000 0.587785
vn -0.309018 -0.000000 0.951056
vn 0.309018 -0.000000 0.951056
vn 0.809017 -0.000000 0.587786
vn 1.000000 -0.000000 0.000000
vn 0.295556 0.291930 -0.909628
vn 0.773776 0.291930 -0.562181
vn -0.295556 0.291930 -0.909628
vn -0.773776 0.291930 -0.562181
vn -0.956440 0.291930 0.000000
vn -0.773776 0.291930 0.562181
vn -0.295556 0.291930 0.909628
vn 0.295556 0.291930 0.909628
vn 0.773776 0.291930 0.562181
vn 0.956440 0.291930 -0.000000
vn 0.256443 0.557962 -0.789250
vn 0.671377 0.557961 -0.487784
vn -0.256444 0.557962 -0.789250
vn -0.671377 0.557961 -0.487784
vn -0.829867 0.557961 0.000000
vn -0.671376 0.557962 0.487784
vn -0.256443 0.557962 0.789250
vn 0.256443 0.557962 0.789250
vn 0.671377 0.557961 0.487784
vn 0.829867 0.557961 -0.000000
vn 0.195836 0.773547 -0.602721
vn 0.512705 0.773547 -0.372503
vn -0.195836 0.773547 -0.602721
vn -0.512705 0.773547 -0.372503
vn -0.633739 0.773547 0.000001
vn -0.512705 0.773547 0.372503
vn -0.195836 0.773548 0.602721
vn 0.195836 0.773547 0.602721
vn 0.512705 0.773547 0.372503
vn 0.633739 0.773547 -0.000001
vn 0.123740 0.916327 -0.380832
vn 0.323954 0.916327 -0.235368
vn -0.123740 0.916327 -0.380832
vn -0.323954 0.916328 -0.235367
vn -0.400429 0.916328 0.000001
vn -0.323954 0.916327 0.235368
vn -0.123740 0.916327 0.380832
vn 0.123740 0.916327 0.380833
vn 0.323954 0.916328 0.235367
vn 0.400429 0.916328 -0.000001
vn 0.000000 1.000000 -0.000000
vn 0.773780 0.291916 -0.562183
vn 0.809017 0.000000 -0.587785
vn 0.309017 0.000000 -0.951057
vn 0.295557 0.291916 -0.909632
vn -0.309017 0.000000 -0.951057
vn -0.295557 0.291916 -0.909633
vn -0.809017 0.000000 -0.587785
vn -0.773780 0.291916 -0.562183
vn -1.000000 0.000000 0.000000
vn -0.956444 0.291916 0.000000
vn -0.809017 0.000000 0.587785
vn -0.773780 0.291916 0.562183
vn -0.309017 0.000000 0.951057
vn -0.295558 0.291916 0.909632
vn 0.309017 0.000000 0.951057
vn 0.295558 0.291916 0.909632
vn 0.809017 0.000000 0.587785
vn 0.773780 0.291916 0.562183
vn 1.000000 0.000000 0.000000
vn 0.956444 0.291916 0.000000
vn 0.000000 -1.000000 0.000000
vn 0.000000 -1.000000 0.000000
vn 0.000000 -1.000000 0.000000
vn 0.000000 -1.000000 0.000000
vn 0.000000 -1.000000 0.000000
vn 0.000000 -1.000000 0.000000
vn 0.000000 -1.000000 0.000000
vn 0.000000 -1.000000 0.000000
vn 0.000000 -1.000000 0.000000
vn 0.000000 -1.000000 0.000000
vn 0.000000 -1.000000 0.000000
vn 0.380536 0.882470 -0.276475
vn 0.145352 0.882470 -0.447347
vn -0.145352 0.882470 -0.447347
vn -0.380536 0.882470 -0.276475
vn -0.470368 0.882470 -0.000000
vn -0.380536 0.882470 0.276475
vn -0.145352 0.882470 0.447347
vn 0.145352 0.882470 0.447347
vn 0.380536 0.882470 0.276475
vn 0.470368 0.882470 0.000000
vn 0.797910 0.165136 -0.579715
vn 0.809017 0.000000 -0.587785
vn 0.309017 0.000000 -0.951057
vn 0.304774 0.165135 -0.937999
vn -0.309017 0.000000 -0.951056
vn -0.304775 0.165135 -0.937999
vn -0.809017 0.000000 -0.587785
vn -0.797910 0.165135 -0.579715
vn -1.000000 0.000000 0.000000
vn -0.986271 0.165135 0.000000
vn -0.809017 0.000000 0.587785
vn -0.797910 0.165135 0.579715
vn -0.309017 0.000000 0.951056
vn -0.304775 0.165135 0.937999
vn 0.309017 0.000000 0.951056
vn 0.304775 0.165135 0.937999
vn 0.809017 0.000000 0.587785
vn 0.797910 0.165135 0.579715
vn 1.000000 0.000000 0.000002
vn 0.986271 0.165135 0.000002
vn 0.394449 0.873086 -0.286584
vn 0.150666 0.873086 -0.463703
vn -0.150666 0.873086 -0.463703
vn -0.394450 0.873086 -0.286584
vn -0.487567 0.873086 -0.000000
vn -0.394450 0.873086 0.286584
vn -0.150666 0.873086 0.463703
vn 0.150666 0.873086 0.463703
vn 0.394450 0.873086 0.286584
vn 0.487566 0.873086 0.000001
vn 0.000000 1.000000 0.000000
vn 0.000000 1.000000 0.000000
vn 0.000000 1.000000 -0.000000
vn 0.000000 1.000000 -0.000001
vn 0.000000 1.000000 -0.000000
vn 0.000000 1.000000 0.000000
vn 0.000000 1.000000 0.000000
vn 0.000000 1.000000 0.000000
vn 0.000000 1.000000 0.000001
vn 0.000000 1.000000 0.000000
vn 0.809019 0.000000 -0.587782
vn 0.809019 0.000000 -0.587782
vn 0.309018 0.000000 -0.951056
vn 0.309018 0.000000 -0.951056
vn -0.309018 0.000000 -0.951056
vn -0.309018 0.000000 -0.951056
vn -0.809019 0.000000 -0.587782
vn -0.809019 0.000000 -0.587782
vn -1.000000 0.000000 0.000000
vn -1.000000 0.000000 0.000000
vn -0.809018 0.000000 0.587783
vn -0.809018 0.000000 0.587783
vn -0.309016 0.000000 0.951057
vn -0.309016 0.000000 0.951057
vn 0.309016 0.000000 0.951057
vn 0.309016 0.000000 0.951057
vn 0.809018 0.000000 0.587783
vn 0.809018 0.000000 0.587783
vn 1.000000 0.000000 0.000000
vn 1.000000 0.000000 0.000000
vn 0.342563 -0.905928 -0.248887
vn 0.342564 -0.905928 -0.248886
vn 0.130848 -0.905928 -0.402707
vn 0.130847 -0.905928 -0.402707
vn -0.130848 -0.905929 -0.402706
vn -0.130847 -0.905929 -0.402706
vn -0.342564 -0.905928 -0.248886
vn -0.342563 -0.905928 -0.248886
vn -0.423431 -0.905929 -0.000001
vn -0.423431 -0.905928 -0.000001
vn -0.342563 -0.905928 0.248886
vn -0.342563 -0.905928 0.248886
vn -0.130847 -0.905929 0.402707
vn -0.130846 -0.905929 0.402707
vn 0.130847 -0.905929 0.402706
vn 0.130847 -0.905929 0.402706
vn 0.342563 -0.905928 0.248886
vn 0.342563 -0.905928 0.248886
vn 0.423431 -0.905929 0.000001
vn 0.423431 -0.905928 0.000001
vn 0.732219 0.425259 -0.531987
vn 0.732219 0.425259 -0.531987
vn 0.279684 0.425261 -0.860773
vn 0.279680 0.425261 -0.860774
vn -0.279684 0.425262 -0.860773
vn -0.279681 0.425262 -0.860774
vn -0.732218 0.425260 -0.531987
vn -0.732218 0.425260 -0.531987
vn -0.905073 0.425257 0.000000
vn -0.905073 0.425257 0.000000
vn -0.732218 0.425260 0.531987
vn -0.732218 0.425260 0.531987
vn -0.279683 0.425262 0.860773
vn -0.279680 0.425262 0.860774
vn 0.279684 0.425260 0.860773
vn 0.279680 0.425260 0.860775
vn 0.732218 0.425259 0.531988
vn 0.732219 0.425259 0.531987
vn 0.905073 0.425257 -0.000000
vn 0.905073 0.425257 -0.000000
s 1
g polySurface2
usemtl lambert4SG
f 1/1/1 2/2/2 12/3/3 11/4/4
f 2/5/2 3/6/5 13/7/6 12/8/3
f 3/6/5 4/9/7 14/10/8 13/7/6
f 4/11/7 5/12/9 15/13/10 14/14/8
f 5/12/9 6/15/11 16/16/12 15/13/10
f 6/17/11 7/18/13 17/19/14 16/20/12
f 7/18/13 8/21/15 18/22/16 17/19/14
f 8/23/15 9/24/17 19/25/18 18/26/16
f 9/24/17 10/27/19 20/28/20 19/25/18
f 10/29/19 1/1/1 11/4/4 20/30/20
f 11/4/4 12/3/3 22/31/21 21/32/22
f 12/8/3 13/7/6 23/33/23 22/34/21
f 13/7/6 14/10/8 24/35/24 23/33/23
f 14/14/8 15/13/10 25/36/25 24/37/24
f 15/13/10 16/16/12 26/38/26 25/36/25
f 16/20/12 17/19/14 27/39/27 26/40/26
f 17/19/14 18/22/16 28/41/28 27/39/27
f 18/26/16 19/25/18 29/42/29 28/43/28
f 19/25/18 20/28/20 30/44/30 29/42/29
f 20/30/20 11/4/4 21/32/22 30/45/30
f 21/32/22 22/31/21 32/46/31 31/47/32
f 22/34/21 23/33/23 33/48/33 32/49/31
f 23/33/23 24/35/24 34/50/34 33/48/33
f 24/37/24 25/36/25 35/51/35 34/52/34
f 25/36/25 26/38/26 36/53/36 35/51/35
f 26/40/26 27/39/27 37/54/37 36/55/36
f 27/39/27 28/41/28 38/56/38 37/54/37
f 28/43/28 29/42/29 39/57/39 38/58/38
f 29/42/29 30/44/30 40/59/40 39/57/39
f 30/45/30 21/32/22 31/47/32 40/60/40
f 31/47/32 32/46/31 42/61/41 41/62/42
f 32/49/31 33/48/33 43/63/43 42/64/41
f 33/48/33 34/50/34 44/65/44 43/63/43
f 34/52/34 35/51/35 45/66/45 44/67/44
f 35/51/35 36/53/36 46/68/46 45/66/45
f 36/55/36 37/54/37 47/69/47 46/70/46
f 37/54/37 38/56/38 48/71/48 47/69/47
f 38/58/38 39/57/39 49/72/49 48/73/48
f 39/57/39 40/59/40 50/74/50 49/72/49
f 40/60/40 31/47/32 41/62/42 50/75/50
f 41/62/42 42/61/41 52/76/51 51/77/52
f 42/64/41 43/63/43 53/78/53 52/79/51
f 43/63/43 44/65/44 54/80/54 53/78/53
f 44/67/44 45/66/45 55/81/55 54/82/54
f 45/66/45 46/68/46 56/83/56 55/81/55
f 46/70/46 47/69/47 57/84/57 56/85/56
f 47/69/47 48/71/48 58/86/58 57/84/57
f 48/73/48 49/72/49 59/87/59 58/88/58
f 49/72/49 50/74/50 60/89/60 59/87/59
f 50/75/50 41/62/42 51/77/52 60/90/60
f 51/77/52 52/76/51 62/91/61 61/92/62
f 52/79/51 53/78/53 63/93/63 62/94/61
f 53/78/53 54/80/54 64/95/64 63/93/63
f 54/82/54 55/81/55 65/96/65 64/97/64
f 55/81/55 56/83/56 66/98/66 65/96/65
f 56/85/56 57/84/57 67/99/67 66/100/66
f 57/84/57 58/86/58 68/101/68 67/99/67
f 58/88/58 59/87/59 69/102/69 68/103/68
f 59/87/59 60/89/60 70/104/70 69/102/69
f 60/90/60 51/77/52 61/92/62 70/105/70
f 61/92/62 62/91/61 72/106/71 71/107/72
f 62/94/61 63/93/63 73/108/73 72/109/71
f 63/93/63 64/95/64 74/110/74 73/108/73
f 64/97/64 65/96/65 75/111/75 74/112/74
f 65/96/65 66/98/66 76/113/76 75/111/75
f 66/100/66 67/99/67 77/114/77 76/115/76
f 67/99/67 68/101/68 78/116/78 77/114/77
f 68/103/68 69/102/69 79/117/79 78/118/78
f 69/102/69 70/104/70 80/119/80 79/117/79
f 70/105/70 61/92/62 71/107/72 80/120/80
f 71/107/72 72/106/71 81/121/81
f 72/109/71 73/108/73 81/122/81
f 73/108/73 74/110/74 81/122/81
f 74/112/74 75/111/75 81/123/81
f 75/111/75 76/113/76 81/123/81
f 76/115/76 77/114/77 81/124/81
f 77/114/77 78/116/78 81/124/81
f 78/118/78 79/117/79 81/125/81
f 79/117/79 80/119/80 81/125/81
f 80/120/80 71/107/72 81/121/81
s 2
f 92/126/82 82/127/83 83/128/84 93/129/85
f 93/129/85 83/128/84 84/130/86 94/131/87
f 94/131/87 84/130/86 85/132/88 95/133/89
f 95/134/89 85/135/88 86/136/90 96/137/91
f 96/137/91 86/136/90 87/138/92 97/139/93
f 97/139/93 87/138/92 88/140/94 98/141/95
f 98/141/95 88/140/94 89/142/96 99/143/97
f 99/143/97 89/142/96 90/144/98 100/145/99
f 100/145/99 90/144/98 91/146/100 101/147/101
f 101/147/101 91/146/100 82/127/83 92/126/82
s 3
f 83/148/102 82/149/103 102/150/104
f 84/151/105 83/148/102 102/150/104
f 85/152/106 84/151/105 102/150/104
f 86/153/107 85/152/106 102/150/104
f 87/154/108 86/153/107 102/150/104
f 88/155/109 87/154/108 102/150/104
f 89/156/110 88/155/109 102/150/104
f 90/157/111 89/156/110 102/150/104
f 91/158/112 90/157/111 102/150/104
f 82/149/103 91/158/112 102/150/104
s 2
f 103/159/113 92/126/82 93/129/85 104/160/114
f 104/161/114 93/129/85 94/131/87 105/162/115
f 105/163/115 94/131/87 95/133/89 106/164/116
f 106/165/116 95/134/89 96/137/91 107/166/117
f 107/167/117 96/137/91 97/139/93 108/168/118
f 108/169/118 97/139/93 98/141/95 109/170/119
f 109/171/119 98/141/95 99/143/97 110/172/120
f 110/173/120 99/143/97 100/145/99 111/174/121
f 111/175/121 100/145/99 101/147/101 112/176/122
f 112/177/122 101/147/101 92/126/82 103/178/113
s 4
f 113/179/123 103/180/124 104/181/125 114/182/126
f 114/182/126 104/181/125 105/183/127 115/184/128
f 115/184/128 105/183/127 106/185/129 116/186/130
f 116/187/130 106/188/129 107/189/131 117/190/132
f 117/190/132 107/189/131 108/191/133 118/192/134
f 118/192/134 108/191/133 109/193/135 119/194/136
f 119/194/136 109/193/135 110/195/137 120/196/138
f 120/196/138 110/195/137 111/197/139 121/198/140
f 121/198/140 111/197/139 112/199/141 122/200/142
f 122/200/142 112/199/141 103/180/124 113/179/123
f 123/201/143 113/179/123 114/182/126 124/202/144
f 124/203/144 114/182/126 115/184/128 125/204/145
f 125/205/145 115/184/128 116/186/130 126/206/146
f 126/207/146 116/187/130 117/190/132 127/208/147
f 127/209/147 117/190/132 118/192/134 128/210/148
f 128/211/148 118/192/134 119/194/136 129/212/149
f 129/213/149 119/194/136 120/196/138 130/214/150
f 130/215/150 120/196/138 121/198/140 131/216/151
f 131/217/151 121/198/140 122/200/142 132/218/152
f 132/219/152 122/200/142 113/179/123 123/220/143
f 133/221/153 123/222/143 124/223/144 134/224/154
f 134/224/154 124/223/144 125/225/145 135/226/155
f 135/226/155 125/225/145 126/227/146 136/228/156
f 136/228/156 126/227/146 127/229/147 137/230/157
f 137/230/157 127/229/147 128/231/148 138/232/158
f 138/232/158 128/231/148 129/233/149 139/234/159
f 139/234/159 129/233/149 130/235/150 140/236/160
f 140/236/160 130/235/150 131/237/151 141/238/161
f 141/238/161 131/237/151 132/239/152 142/240/162
f 142/240/162 132/239/152 123/222/143 133/221/153
s 5
f 143/241/163 133/242/164 134/243/165 144/244/166
f 144/244/166 134/243/165 135/245/167 145/246/168
f 145/246/168 135/245/167 136/247/169 146/248/170
f 146/249/170 136/250/169 137/251/171 147/252/172
f 147/252/172 137/251/171 138/253/173 148/254/174
f 148/254/174 138/253/173 139/255/175 149/256/176
f 149/256/176 139/255/175 140/257/177 150/258/178
f 150/258/178 140/257/177 141/259/179 151/260/180
f 151/260/180 141/259/179 142/261/181 152/262/182
f 152/262/182 142/261/181 133/242/164 143/241/163
s 6
f 153/263/183 143/264/184 144/265/185 154/266/186
f 154/266/186 144/265/185 145/267/187 155/268/188
f 155/268/188 145/267/187 146/269/189 156/270/190
f 156/270/190 146/269/189 147/271/191 157/272/192
f 157/272/192 147/271/191 148/273/193 158/274/194
f 158/274/194 148/273/193 149/275/195 159/276/196
f 159/276/196 149/275/195 150/277/197 160/278/198
f 160/278/198 150/277/197 151/279/199 161/280/200
f 161/280/200 151/279/199 152/281/201 162/282/202
f 162/282/202 152/281/201 143/264/184 153/263/183
s 7
f 1/283/203 153/284/204 154/285/205 2/286/206
f 2/286/206 154/285/205 155/287/207 3/288/208
f 3/288/208 155/287/207 156/289/209 4/290/210
f 4/290/210 156/289/209 157/291/211 5/292/212
f 5/292/212 157/291/211 158/293/213 6/294/214
f 6/294/214 158/293/213 159/295/215 7/296/216
f 7/296/216 159/295/215 160/297/217 8/298/218
f 8/298/218 160/297/217 161/299/219 9/300/220
f 9/300/220 161/299/219 162/301/221 10/302/222
f 1/283/203 10/302/222 162/301/221 153/284/204