g default
v -2.428075 -0.040939 3.445243
v 2.428076 -0.040939 3.445243
v -2.428075 0.040939 3.445243
v 2.428076 0.040939 3.445243
v -2.428075 0.040939 -3.445243
v 2.428076 0.040939 -3.445243
v -2.428075 -0.040939 -3.445243
v 2.428076 -0.040939 -3.445243
vt 0.314068 0.187365
vt 0.720547 0.187365
vt 0.720547 0.194218
vt 0.314068 0.194218
vt 0.016832 0.312843
vt 0.487381 0.312843
vt 0.487381 0.980514
vt 0.016832 0.980514
vt 0.314068 0.180443
vt 0.720546 0.180443
vt 0.720546 0.187296
vt 0.314068 0.187296
vt 0.513734 0.312843
vt 0.984283 0.312843
vt 0.984283 0.980514
vt 0.513734 0.980514
vt 0.224615 0.138051
vt 0.801281 0.138051
vt 0.801281 0.144905
vt 0.224615 0.144905
vt 0.801282 0.151828
vt 0.224615 0.151828
vt 0.224615 0.144974
vt 0.801282 0.144974
vn 0.000000 0.000000 1.000000
vn 0.000000 0.000000 1.000000
vn 0.000000 0.000000 1.000000
vn 0.000000 0.000000 1.000000
vn 0.000000 1.000000 0.000000
vn 0.000000 1.000000 0.000000
vn 0.000000 1.000000 0.000000
vn 0.000000 1.000000 0.000000
vn 0.000000 0.000000 -1.000000
vn 0.000000 0.000000 -1.000000
vn 0.000000 0.000000 -1.000000
vn 0.000000 0.000000 -1.000000
vn 0.000000 -1.000000 -0.000000
vn 0.000000 -1.000000 -0.000000
vn 0.000000 -1.000000 -0.000000
vn 0.000000 -1.000000 -0.000000
vn 1.000000 0.000000 0.000000
vn 1.000000 0.000000 0.000000
vn 1.000000 0.000000 0.000000
vn 1.000000 0.000000 0.000000
vn -1.000000 0.000000 0.000000
vn -1.000000 0.000000 0.000000
vn -1.000000 0.000000 0.000000
vn -1.000000 0.000000 0.000000
s off
g pCube3
usemtl lambert8SG
f 1/1/1 2/2/2 4/3/3 3/4/4
f 3/5/5 4/6/6 6/7/7 5/8/8
f 5/9/9 6/10/10 8/11/11 7/12/12
f 7/13/13 8/14/14 2/15/15 1/16/16
f 2/17/17 8/18/18 6/19/19 4/20/20
f 7/21/21 1/22/22 3/23/23 5/24/24