g default
v 0.456058 0.539901 0.710325
v 0.456058 0.710326 0.539900
v 0.310425 0.710325 0.624160
v 0.310425 0.624160 0.710325
v 0.157147 0.710325 0.675560
v 0.157147 0.675560 0.710325
v 0.000001 0.710325 0.692836
v 0.000001 0.692836 0.710325
v 0.710326 0.539901 0.456057
v 0.539901 0.710326 0.456057
v 0.624160 0.710325 0.310423
v 0.710326 0.624160 0.310423
v 0.675561 0.710325 0.157146
v 0.710326 0.675560 0.157146
v 0.692836 0.710325 -0.000001
v 0.710326 0.692836 -0.000001
v 0.539901 0.456057 0.710325
v 0.710326 0.456058 0.539900
v 0.624160 0.310424 0.710325
v 0.710326 0.310424 0.624160
v 0.675561 0.157147 0.710325
v 0.710326 0.157147 0.675560
v 0.692836 0.000000 0.710325
v 0.710325 0.000000 0.692836
v 0.632258 0.632258 0.463201
v 0.463202 0.632258 0.632258
v 0.632258 0.463202 0.632258
v -0.710326 0.539901 0.456058
v -0.539900 0.710326 0.456058
v -0.624160 0.710325 0.310425
v -0.710325 0.624160 0.310425
v -0.675560 0.710325 0.157147
v -0.710325 0.675560 0.157147
v -0.692835 0.710325 0.000001
v -0.710325 0.692836 0.000001
v -0.456057 0.539901 0.710325
v -0.456057 0.710326 0.539900
v -0.310423 0.710325 0.624160
v -0.310423 0.624160 0.710325
v -0.157146 0.710325 0.675560
v -0.157146 0.675560 0.710325
v -0.710325 0.456057 0.539900
v -0.539900 0.456058 0.710325
v -0.710325 0.310424 0.624160
v -0.624160 0.310424 0.710325
v -0.710325 0.157147 0.675560
v -0.675560 0.157147 0.710325
v -0.710325 0.000000 0.692836
v -0.692836 0.000000 0.710325
v -0.463201 0.632258 0.632258
v -0.632258 0.632258 0.463202
v -0.632258 0.463202 0.632258
v -0.456058 0.539901 -0.710325
v -0.456058 0.710326 -0.539900
v -0.310425 0.710325 -0.624160
v -0.310425 0.624160 -0.710325
v -0.157147 0.710325 -0.675560
v -0.157147 0.675560 -0.710325
v 0.000000 0.710325 -0.692836
v 0.000000 0.692836 -0.710325
v -0.710325 0.539901 -0.456057
v -0.539900 0.710326 -0.456057
v -0.624160 0.710325 -0.310423
v -0.710325 0.624160 -0.310423
v -0.675560 0.710325 -0.157146
v -0.710325 0.675560 -0.157146
v -0.539900 0.456057 -0.710325
v -0.710325 0.456058 -0.539900
v -0.624160 0.310424 -0.710325
v -0.710325 0.310424 -0.624160
v -0.675560 0.157147 -0.710325
v -0.710325 0.157147 -0.675560
v -0.692835 0.000000 -0.710325
v -0.710325 0.000000 -0.692836
v -0.632258 0.632258 -0.463201
v -0.463202 0.632258 -0.632258
v -0.632258 0.463202 -0.632258
v 0.710326 0.539901 -0.456058
v 0.539901 0.710326 -0.456058
v 0.624160 0.710325 -0.310425
v 0.710326 0.624160 -0.310425
v 0.675561 0.710325 -0.157147
v 0.710326 0.675560 -0.157147
v 0.456057 0.539901 -0.710325
v 0.456057 0.710326 -0.539900
v 0.310424 0.710325 -0.624160
v 0.310424 0.624160 -0.710325
v 0.157147 0.710325 -0.675560
v 0.157147 0.675560 -0.710325
v 0.710326 0.456057 -0.539900
v 0.539901 0.456058 -0.710325
v 0.710326 0.310424 -0.624160
v 0.624160 0.310424 -0.710325
v 0.710326 0.157147 -0.675560
v 0.675561 0.157147 -0.710325
v 0.710325 0.000000 -0.692836
v 0.692836 0.000000 -0.710325
v 0.463201 0.632258 -0.632258
v 0.632258 0.632258 -0.463202
v 0.632258 0.463202 -0.632258
v 0.456058 -0.539901 -0.710326
v 0.456058 -0.710326 -0.539900
v 0.310425 -0.710325 -0.624160
v 0.310425 -0.624160 -0.710325
v 0.157147 -0.710325 -0.675560
v 0.157147 -0.675560 -0.710325
v 0.000001 -0.710325 -0.692836
v 0.000001 -0.692836 -0.710325
v 0.710325 -0.539901 -0.456057
v 0.539900 -0.710326 -0.456057
v 0.624160 -0.710325 -0.310424
v 0.710325 -0.624160 -0.310424
v 0.675560 -0.710325 -0.157146
v 0.710325 -0.675560 -0.157146
v 0.692835 -0.710325 0.000000
v 0.710325 -0.692836 0.000000
v 0.539900 -0.456057 -0.710325
v 0.710325 -0.456058 -0.539900
v 0.624160 -0.310424 -0.710325
v 0.710325 -0.310424 -0.624160
v 0.675560 -0.157147 -0.710325
v 0.710325 -0.157147 -0.675560
v 0.632258 -0.632258 -0.463201
v 0.463202 -0.632258 -0.632258
v 0.632258 -0.463202 -0.632258
v 0.710326 -0.539901 0.456058
v 0.539900 -0.710326 0.456058
v 0.624160 -0.710325 0.310425
v 0.710325 -0.624160 0.310425
v 0.675560 -0.710325 0.157147
v 0.710325 -0.675560 0.157147
v 0.456057 -0.539901 0.710325
v 0.456057 -0.710326 0.539900
v 0.310423 -0.710325 0.624160
v 0.310423 -0.624160 0.710325
v 0.157146 -0.710325 0.675560
v 0.157146 -0.675560 0.710325
v -0.000001 -0.710325 0.692836
v -0.000001 -0.692836 0.710325
v 0.710325 -0.456057 0.539900
v 0.539900 -0.456058 0.710325
v 0.710325 -0.310424 0.624160
v 0.624160 -0.310424 0.710325
v 0.710325 -0.157147 0.675560
v 0.675560 -0.157147 0.710325
v 0.463201 -0.632258 0.632258
v 0.632258 -0.632258 0.463202
v 0.632258 -0.463202 0.632258
v -0.456058 -0.539901 0.710326
v -0.456058 -0.710326 0.539900
v -0.310425 -0.710325 0.624160
v -0.310425 -0.624160 0.710325
v -0.157147 -0.710325 0.675560
v -0.157147 -0.675560 0.710325
v -0.710326 -0.539901 0.456057
v -0.539901 -0.710326 0.456057
v -0.624160 -0.710325 0.310424
v -0.710326 -0.624160 0.310424
v -0.675561 -0.710325 0.157146
v -0.710326 -0.675560 0.157146
v -0.692835 -0.710325 0.000000
v -0.710325 -0.692836 0.000000
v -0.539901 -0.456057 0.710325
v -0.710326 -0.456058 0.539900
v -0.624160 -0.310424 0.710325
v -0.710326 -0.310424 0.624160
v -0.675561 -0.157147 0.710325
v -0.710326 -0.157147 0.675560
v -0.632258 -0.632258 0.463201
v -0.463202 -0.632258 0.632258
v -0.632258 -0.463202 0.632258
v -0.710325 -0.539901 -0.456058
v -0.539900 -0.710326 -0.456058
v -0.624159 -0.710325 -0.310425
v -0.710325 -0.624160 -0.310425
v -0.675560 -0.710325 -0.157147
v -0.710325 -0.675560 -0.157147
v -0.456057 -0.539901 -0.710325
v -0.456057 -0.710326 -0.539900
v -0.310423 -0.710325 -0.624160
v -0.310423 -0.624160 -0.710325
v -0.157146 -0.710325 -0.675560
v -0.157146 -0.675560 -0.710325
v -0.710325 -0.456057 -0.539900
v -0.539900 -0.456058 -0.710325
v -0.710325 -0.310424 -0.624160
v -0.624159 -0.310424 -0.710325
v -0.710325 -0.157147 -0.675560
v -0.675560 -0.157147 -0.710325
v -0.463201 -0.632258 -0.632258
v -0.632257 -0.632258 -0.463202
v -0.632257 -0.463202 -0.632258
v 0.000001 0.710326 0.000000
v 0.710324 0.000000 0.000000
v 0.000001 0.000000 0.710325
v -0.710326 0.000000 0.000000
v 0.000001 0.000000 -0.710325
v 0.000001 -0.710326 0.000000
vt 0.495065 0.591237
vt 0.509256 0.591253
vt 0.505687 0.636832
vt 0.498533 0.636830
vt 0.393027 0.389567
vt 0.385954 0.401799
vt 0.348501 0.376083
vt 0.352059 0.369931
vt 0.437443 0.403190
vt 0.419911 0.433503
vt 0.655991 0.376083
vt 0.618540 0.401820
vt 0.611461 0.389589
vt 0.652430 0.369931
vt 0.584588 0.433546
vt 0.567040 0.403231
vt 0.519728 0.545875
vt 0.484648 0.545849
vt 0.536178 0.441329
vt 0.553963 0.470993
vt 0.519317 0.411136
vt 0.468330 0.441277
vt 0.450530 0.470938
vt 0.485158 0.411059
vt 0.502220 0.500046
vt 0.536806 0.500562
vt 0.467638 0.500516
vt 0.618540 0.401820
vt 0.611461 0.389589
vt 0.652430 0.369931
vt 0.655991 0.376083
vt 0.495065 0.591237
vt 0.509256 0.591253
vt 0.505687 0.636832
vt 0.498533 0.636830
vt 0.484648 0.545849
vt 0.519728 0.545875
vt 0.352059 0.369931
vt 0.393027 0.389567
vt 0.385954 0.401799
vt 0.348501 0.376083
vt 0.437442 0.403190
vt 0.419911 0.433503
vt 0.567040 0.403231
vt 0.584588 0.433546
vt 0.468330 0.441277
vt 0.485158 0.411059
vt 0.450530 0.470938
vt 0.502220 0.500046
vt 0.536806 0.500562
vt 0.467638 0.500516
vt 0.536178 0.441329
vt 0.519318 0.411136
vt 0.553963 0.470993
vt 0.618540 0.401820
vt 0.611461 0.389589
vt 0.652430 0.369931
vt 0.655991 0.376083
vt 0.495065 0.591237
vt 0.509256 0.591253
vt 0.505687 0.636832
vt 0.498533 0.636830
vt 0.484648 0.545849
vt 0.519728 0.545875
vt 0.352059 0.369931
vt 0.393027 0.389567
vt 0.385954 0.401799
vt 0.348501 0.376083
vt 0.437443 0.403189
vt 0.419911 0.433503
vt 0.567040 0.403231
vt 0.584588 0.433546
vt 0.468330 0.441277
vt 0.485158 0.411058
vt 0.450530 0.470938
vt 0.502220 0.500046
vt 0.536806 0.500562
vt 0.467638 0.500516
vt 0.536178 0.441329
vt 0.519317 0.411136
vt 0.553963 0.470993
vt 0.495065 0.591237
vt 0.509256 0.591253
vt 0.505687 0.636832
vt 0.498533 0.636830
vt 0.393027 0.389567
vt 0.385954 0.401799
vt 0.348501 0.376083
vt 0.352059 0.369931
vt 0.437443 0.403190
vt 0.419911 0.433503
vt 0.655991 0.376083
vt 0.618540 0.401820
vt 0.611461 0.389589
vt 0.652430 0.369931
vt 0.584588 0.433546
vt 0.567040 0.403231
vt 0.519728 0.545875
vt 0.484648 0.545849
vt 0.536178 0.441329
vt 0.553963 0.470993
vt 0.519318 0.411136
vt 0.468330 0.441277
vt 0.450530 0.470938
vt 0.485158 0.411059
vt 0.502220 0.500046
vt 0.536806 0.500562
vt 0.467638 0.500516
vt 0.618540 0.401820
vt 0.611461 0.389589
vt 0.652430 0.369931
vt 0.655991 0.376083
vt 0.495065 0.591237
vt 0.509256 0.591253
vt 0.505687 0.636832
vt 0.498533 0.636830
vt 0.484648 0.545849
vt 0.519728 0.545875
vt 0.352059 0.369931
vt 0.393027 0.389568
vt 0.385954 0.401799
vt 0.348502 0.376084
vt 0.437442 0.403190
vt 0.419911 0.433503
vt 0.567040 0.403231
vt 0.584588 0.433546
vt 0.468330 0.441277
vt 0.485158 0.411059
vt 0.450530 0.470938
vt 0.502220 0.500046
vt 0.536806 0.500562
vt 0.467638 0.500516
vt 0.536178 0.441329
vt 0.519318 0.411136
vt 0.553963 0.470993
vt 0.495065 0.591237
vt 0.509256 0.591253
vt 0.505687 0.636832
vt 0.498533 0.636830
vt 0.393027 0.389567
vt 0.385954 0.401799
vt 0.348501 0.376083
vt 0.352059 0.369931
vt 0.437443 0.403189
vt 0.419911 0.433503
vt 0.655991 0.376083
vt 0.618540 0.401820
vt 0.611461 0.389589
vt 0.652430 0.369931
vt 0.584588 0.433546
vt 0.567040 0.403231
vt 0.519728 0.545875
vt 0.484648 0.545849
vt 0.536178 0.441329
vt 0.553963 0.470993
vt 0.519317 0.411136
vt 0.468330 0.441277
vt 0.450530 0.470938
vt 0.485158 0.411059
vt 0.502220 0.500046
vt 0.536806 0.500562
vt 0.467638 0.500516
vt 0.495065 0.591237
vt 0.509256 0.591253
vt 0.505687 0.636832
vt 0.498533 0.636830
vt 0.393027 0.389568
vt 0.385954 0.401799
vt 0.348501 0.376083
vt 0.352059 0.369931
vt 0.437442 0.403190
vt 0.419911 0.433503
vt 0.655991 0.376083
vt 0.618540 0.401820
vt 0.611461 0.389589
vt 0.652430 0.369931
vt 0.584588 0.433546
vt 0.567040 0.403231
vt 0.519728 0.545875
vt 0.484648 0.545849
vt 0.536178 0.441329
vt 0.553963 0.470993
vt 0.519317 0.411136
vt 0.468330 0.441277
vt 0.450530 0.470938
vt 0.485158 0.411059
vt 0.502220 0.500046
vt 0.536806 0.500562
vt 0.467638 0.500516
vt 0.495065 0.591237
vt 0.509256 0.591253
vt 0.505687 0.636832
vt 0.498533 0.636830
vt 0.393027 0.389567
vt 0.385954 0.401799
vt 0.348501 0.376083
vt 0.352059 0.369931
vt 0.437443 0.403190
vt 0.419911 0.433503
vt 0.655991 0.376083
vt 0.618540 0.401820
vt 0.611461 0.389589
vt 0.652430 0.369931
vt 0.584588 0.433546
vt 0.567040 0.403231
vt 0.519728 0.545875
vt 0.484648 0.545849
vt 0.536178 0.441329
vt 0.553963 0.470993
vt 0.519318 0.411136
vt 0.468330 0.441277
vt 0.450530 0.470938
vt 0.485158 0.411059
vt 0.502220 0.500046
vt 0.536806 0.500562
vt 0.467638 0.500516
vt 0.105362 0.825265
vt 0.071832 0.805864
vt 0.176834 0.681555
vt 0.140654 0.837099
vt 0.052526 0.786560
vt 0.033126 0.753029
vt 0.021291 0.717738
vt 0.017314 0.681557
vt 0.176835 0.841076
vt 0.320543 0.753029
vt 0.301144 0.786559
vt 0.332379 0.717737
vt 0.281840 0.805864
vt 0.248308 0.825264
vt 0.213018 0.837098
vt 0.336355 0.681555
vt 0.248307 0.537847
vt 0.281839 0.557247
vt 0.213017 0.526013
vt 0.301143 0.576552
vt 0.320543 0.610082
vt 0.332378 0.645374
vt 0.176835 0.522035
vt 0.033126 0.610082
vt 0.052526 0.576551
vt 0.021291 0.645373
vt 0.071830 0.557247
vt 0.105361 0.537848
vt 0.140652 0.526013
vt 0.968439 0.392441
vt 0.949039 0.425972
vt 0.824731 0.320968
vt 0.929734 0.445276
vt 0.860912 0.476511
vt 0.824731 0.480488
vt 0.984251 0.320968
vt 0.980273 0.357150
vt 0.896203 0.464676
vt 0.949039 0.215963
vt 0.968440 0.249495
vt 0.929734 0.196660
vt 0.824730 0.161447
vt 0.860912 0.165425
vt 0.980274 0.284787
vt 0.896204 0.177259
vt 0.681022 0.249495
vt 0.700422 0.215964
vt 0.719727 0.196659
vt 0.788549 0.165424
vt 0.665210 0.320967
vt 0.669187 0.284786
vt 0.753257 0.177259
vt 0.700422 0.425972
vt 0.681022 0.392441
vt 0.719726 0.445276
vt 0.788549 0.476510
vt 0.669188 0.357149
vt 0.753257 0.464676
vt 0.070393 0.195222
vt 0.103925 0.175822
vt 0.175397 0.319531
vt 0.051089 0.214526
vt 0.015876 0.319531
vt 0.019854 0.283348
vt 0.139215 0.163987
vt 0.175397 0.160009
vt 0.031689 0.248057
vt 0.246870 0.175822
vt 0.280402 0.195222
vt 0.299706 0.214526
vt 0.330941 0.283348
vt 0.334919 0.319531
vt 0.211580 0.163987
vt 0.319106 0.248057
vt 0.103925 0.463240
vt 0.070393 0.443839
vt 0.051089 0.424535
vt 0.019854 0.355713
vt 0.175398 0.479052
vt 0.139215 0.475074
vt 0.031689 0.391003
vt 0.280402 0.443839
vt 0.246871 0.463239
vt 0.299706 0.424535
vt 0.330941 0.355713
vt 0.211580 0.475074
vt 0.319107 0.391003
vt 0.375756 0.277974
vt 0.356356 0.244443
vt 0.500064 0.172970
vt 0.395060 0.297278
vt 0.500064 0.332491
vt 0.463882 0.328513
vt 0.344521 0.209152
vt 0.340544 0.172970
vt 0.428592 0.316678
vt 0.356355 0.101497
vt 0.375756 0.067965
vt 0.395060 0.048661
vt 0.463882 0.017426
vt 0.500064 0.013448
vt 0.344522 0.136788
vt 0.428591 0.029261
vt 0.643772 0.244443
vt 0.624373 0.277974
vt 0.605069 0.297278
vt 0.536246 0.328513
vt 0.659585 0.172970
vt 0.655607 0.209152
vt 0.571537 0.316679
vt 0.624373 0.067965
vt 0.643773 0.101497
vt 0.605068 0.048661
vt 0.536246 0.017426
vt 0.655607 0.136787
vt 0.571538 0.029261
vt 0.605067 0.950989
vt 0.571536 0.970389
vt 0.500064 0.826680
vt 0.624372 0.931685
vt 0.659584 0.826680
vt 0.655606 0.862863
vt 0.536245 0.982224
vt 0.500062 0.986201
vt 0.643771 0.898154
vt 0.428590 0.970389
vt 0.395059 0.950988
vt 0.375755 0.931683
vt 0.344520 0.862861
vt 0.340543 0.826679
vt 0.463881 0.982224
vt 0.356355 0.898152
vt 0.395060 0.702370
vt 0.428591 0.682971
vt 0.375756 0.721674
vt 0.344521 0.790497
vt 0.463883 0.671136
vt 0.500065 0.667159
vt 0.356356 0.755206
vt 0.571538 0.682972
vt 0.605069 0.702372
vt 0.624372 0.721677
vt 0.655607 0.790499
vt 0.536247 0.671137
vt 0.643772 0.755208
vt 0.896203 0.537847
vt 0.929734 0.557247
vt 0.824731 0.681555
vt 0.860912 0.526012
vt 0.949038 0.576551
vt 0.968440 0.610082
vt 0.980273 0.645373
vt 0.984251 0.681555
vt 0.824730 0.522034
vt 0.968440 0.753029
vt 0.949039 0.786559
vt 0.980274 0.717737
vt 0.929735 0.805863
vt 0.896204 0.825264
vt 0.860914 0.837099
vt 0.824732 0.841076
vt 0.753258 0.825265
vt 0.719727 0.805864
vt 0.788549 0.837099
vt 0.700422 0.786561
vt 0.681023 0.753030
vt 0.669187 0.717739
vt 0.665210 0.681556
vt 0.681023 0.610083
vt 0.700422 0.576552
vt 0.669188 0.645374
vt 0.719727 0.557248
vt 0.753256 0.537847
vt 0.788548 0.526013
vn 0.694134 0.190677 0.694133
vn 0.694134 0.190677 0.694133
vn 0.704982 0.077499 0.704978
vn 0.704982 0.077499 0.704978
vn 0.694132 0.694134 0.190677
vn 0.694132 0.694134 0.190677
vn 0.704976 0.704984 0.077501
vn 0.704976 0.704984 0.077501
vn 0.694132 0.694134 0.190677
vn 0.666029 0.692535 0.277129
vn 0.692535 0.666029 0.277129
vn 0.694132 0.694134 0.190677
vn 0.077501 0.704981 0.704979
vn 0.190677 0.694134 0.694133
vn 0.190677 0.694134 0.694133
vn 0.077501 0.704981 0.704979
vn 0.277129 0.666029 0.692535
vn 0.277129 0.692535 0.666029
vn 0.190677 0.694134 0.694133
vn 0.190677 0.694134 0.694133
vn 0.666029 0.277130 0.692535
vn 0.694134 0.190677 0.694133
vn 0.694134 0.190677 0.694133
vn 0.692535 0.277130 0.666029
vn 0.484266 0.618663 0.618662
vn 0.277129 0.666029 0.692535
vn 0.484566 0.542537 0.686184
vn 0.277129 0.692535 0.666029
vn 0.484266 0.618663 0.618662
vn 0.484565 0.686186 0.542537
vn 0.484266 0.618663 0.618662
vn 0.277129 0.692535 0.666029
vn 0.277129 0.666029 0.692535
vn 0.692535 0.666029 0.277129
vn 0.618664 0.618663 0.484263
vn 0.686185 0.542539 0.484564
vn 0.618664 0.618663 0.484263
vn 0.666029 0.692535 0.277129
vn 0.542540 0.686185 0.484562
vn 0.618664 0.618663 0.484263
vn 0.692535 0.666029 0.277129
vn 0.666029 0.692535 0.277129
vn 0.666029 0.277130 0.692535
vn 0.618664 0.484263 0.618663
vn 0.542541 0.484562 0.686184
vn 0.618664 0.484263 0.618663
vn 0.692535 0.277130 0.666029
vn 0.686184 0.484564 0.542539
vn 0.618664 0.484263 0.618663
vn 0.666029 0.277130 0.692535
vn 0.692535 0.277130 0.666029
vn 0.618664 0.618663 0.484263
vn 0.484266 0.618663 0.618662
vn 0.618664 0.484263 0.618663
vn 0.484565 0.686186 0.542537
vn 0.484266 0.618663 0.618662
vn 0.618664 0.618663 0.484263
vn 0.542540 0.686185 0.484562
vn 0.542541 0.484562 0.686184
vn 0.618664 0.484263 0.618663
vn 0.484266 0.618663 0.618662
vn 0.484566 0.542537 0.686184
vn 0.618664 0.618663 0.484263
vn 0.618664 0.484263 0.618663
vn 0.686184 0.484564 0.542539
vn 0.686185 0.542539 0.484564
vn -0.694134 0.190677 0.694133
vn -0.694134 0.190677 0.694133
vn -0.704982 0.077501 0.704978
vn -0.704982 0.077501 0.704978
vn -0.190677 0.694134 0.694133
vn -0.190678 0.694134 0.694133
vn -0.077500 0.704982 0.704979
vn -0.077500 0.704982 0.704979
vn -0.190677 0.694134 0.694133
vn -0.277129 0.692535 0.666029
vn -0.277129 0.666029 0.692535
vn -0.190678 0.694134 0.694133
vn -0.704976 0.704984 0.077501
vn -0.694132 0.694134 0.190677
vn -0.694132 0.694134 0.190677
vn -0.704976 0.704984 0.077501
vn -0.692535 0.666029 0.277129
vn -0.666029 0.692535 0.277129
vn -0.694132 0.694134 0.190677
vn -0.694132 0.694134 0.190677
vn -0.692535 0.277130 0.666029
vn -0.694134 0.190677 0.694133
vn -0.694134 0.190677 0.694133
vn -0.666029 0.277130 0.692535
vn -0.618662 0.618663 0.484266
vn -0.692535 0.666029 0.277129
vn -0.686184 0.542538 0.484566
vn -0.666029 0.692535 0.277129
vn -0.618662 0.618663 0.484266
vn -0.542537 0.686185 0.484565
vn -0.618662 0.618663 0.484266
vn -0.666029 0.692535 0.277129
vn -0.692535 0.666029 0.277129
vn -0.277129 0.666029 0.692535
vn -0.484263 0.618663 0.618665
vn -0.484563 0.542539 0.686185
vn -0.484263 0.618663 0.618665
vn -0.277129 0.692535 0.666029
vn -0.484561 0.686185 0.542540
vn -0.484263 0.618663 0.618665
vn -0.277129 0.666029 0.692535
vn -0.277129 0.692535 0.666029
vn -0.692535 0.277130 0.666029
vn -0.618663 0.484263 0.618664
vn -0.686184 0.484562 0.542541
vn -0.618663 0.484263 0.618664
vn -0.666029 0.277130 0.692535
vn -0.542539 0.484564 0.686185
vn -0.618663 0.484263 0.618664
vn -0.692535 0.277130 0.666029
vn -0.666029 0.277130 0.692535
vn -0.484263 0.618663 0.618665
vn -0.618662 0.618663 0.484266
vn -0.618663 0.484263 0.618664
vn -0.542537 0.686185 0.484565
vn -0.618662 0.618663 0.484266
vn -0.484263 0.618663 0.618665
vn -0.484561 0.686185 0.542540
vn -0.686184 0.484562 0.542541
vn -0.618663 0.484263 0.618664
vn -0.618662 0.618663 0.484266
vn -0.686184 0.542538 0.484566
vn -0.484263 0.618663 0.618665
vn -0.618663 0.484263 0.618664
vn -0.542539 0.484564 0.686185
vn -0.484563 0.542539 0.686185
vn -0.694133 0.190677 -0.694134
vn -0.694133 0.190677 -0.694134
vn -0.704979 0.077500 -0.704981
vn -0.704979 0.077500 -0.704981
vn -0.694132 0.694134 -0.190677
vn -0.694132 0.694134 -0.190677
vn -0.704976 0.704984 -0.077501
vn -0.704976 0.704984 -0.077501
vn -0.694132 0.694134 -0.190677
vn -0.666029 0.692535 -0.277129
vn -0.692535 0.666029 -0.277129
vn -0.694132 0.694134 -0.190677
vn -0.077502 0.704982 -0.704978
vn -0.190677 0.694134 -0.694133
vn -0.190677 0.694134 -0.694133
vn -0.077502 0.704982 -0.704978
vn -0.277129 0.666029 -0.692535
vn -0.277129 0.692535 -0.666029
vn -0.190677 0.694134 -0.694133
vn -0.190677 0.694134 -0.694133
vn -0.666029 0.277130 -0.692535
vn -0.694133 0.190677 -0.694134
vn -0.694133 0.190677 -0.694134
vn -0.692535 0.277130 -0.666029
vn -0.484266 0.618663 -0.618662
vn -0.277129 0.666029 -0.692535
vn -0.484566 0.542537 -0.686184
vn -0.277129 0.692535 -0.666029
vn -0.484266 0.618663 -0.618662
vn -0.484565 0.686186 -0.542537
vn -0.484266 0.618663 -0.618662
vn -0.277129 0.692535 -0.666029
vn -0.277129 0.666029 -0.692535
vn -0.692535 0.666029 -0.277129
vn -0.618664 0.618663 -0.484263
vn -0.686185 0.542539 -0.484564
vn -0.618664 0.618663 -0.484263
vn -0.666029 0.692535 -0.277129
vn -0.542540 0.686185 -0.484562
vn -0.618664 0.618663 -0.484263
vn -0.692535 0.666029 -0.277129
vn -0.666029 0.692535 -0.277129
vn -0.666029 0.277130 -0.692535
vn -0.618664 0.484263 -0.618663
vn -0.542541 0.484562 -0.686184
vn -0.618664 0.484263 -0.618663
vn -0.692535 0.277130 -0.666029
vn -0.686184 0.484564 -0.542539
vn -0.618664 0.484263 -0.618663
vn -0.666029 0.277130 -0.692535
vn -0.692535 0.277130 -0.666029
vn -0.618664 0.618663 -0.484263
vn -0.484266 0.618663 -0.618662
vn -0.618664 0.484263 -0.618663
vn -0.484565 0.686186 -0.542537
vn -0.484266 0.618663 -0.618662
vn -0.618664 0.618663 -0.484263
vn -0.542540 0.686185 -0.484562
vn -0.542541 0.484562 -0.686184
vn -0.618664 0.484263 -0.618663
vn -0.484266 0.618663 -0.618662
vn -0.484566 0.542537 -0.686184
vn -0.618664 0.618663 -0.484263
vn -0.618664 0.484263 -0.618663
vn -0.686184 0.484564 -0.542539
vn -0.686185 0.542539 -0.484564
vn 0.694134 0.190677 -0.694133
vn 0.694134 0.190677 -0.694133
vn 0.704982 0.077499 -0.704978
vn 0.704982 0.077499 -0.704978
vn 0.190677 0.694134 -0.694133
vn 0.190678 0.694134 -0.694133
vn 0.077500 0.704982 -0.704978
vn 0.077500 0.704982 -0.704978
vn 0.190677 0.694134 -0.694133
vn 0.277129 0.692535 -0.666029
vn 0.277129 0.666029 -0.692535
vn 0.190678 0.694134 -0.694133
vn 0.704976 0.704984 -0.077501
vn 0.694132 0.694134 -0.190677
vn 0.694132 0.694134 -0.190677
vn 0.704976 0.704984 -0.077501
vn 0.692535 0.666029 -0.277129
vn 0.666029 0.692535 -0.277129
vn 0.694132 0.694134 -0.190677
vn 0.694132 0.694134 -0.190677
vn 0.692535 0.277130 -0.666029
vn 0.694134 0.190677 -0.694133
vn 0.694134 0.190677 -0.694133
vn 0.666029 0.277130 -0.692535
vn 0.618662 0.618663 -0.484266
vn 0.692535 0.666029 -0.277129
vn 0.686184 0.542538 -0.484566
vn 0.666029 0.692535 -0.277129
vn 0.618662 0.618663 -0.484266
vn 0.542537 0.686185 -0.484565
vn 0.618662 0.618663 -0.484266
vn 0.666029 0.692535 -0.277129
vn 0.692535 0.666029 -0.277129
vn 0.277129 0.666029 -0.692535
vn 0.484263 0.618663 -0.618665
vn 0.484563 0.542539 -0.686185
vn 0.484263 0.618663 -0.618665
vn 0.277129 0.692535 -0.666029
vn 0.484561 0.686185 -0.542540
vn 0.484263 0.618663 -0.618665
vn 0.277129 0.666029 -0.692535
vn 0.277129 0.692535 -0.666029
vn 0.692535 0.277130 -0.666029
vn 0.618663 0.484263 -0.618664
vn 0.686184 0.484562 -0.542541
vn 0.618663 0.484263 -0.618664
vn 0.666029 0.277130 -0.692535
vn 0.542539 0.484564 -0.686185
vn 0.618663 0.484263 -0.618664
vn 0.692535 0.277130 -0.666029
vn 0.666029 0.277130 -0.692535
vn 0.484263 0.618663 -0.618665
vn 0.618662 0.618663 -0.484266
vn 0.618663 0.484263 -0.618664
vn 0.542537 0.686185 -0.484565
vn 0.618662 0.618663 -0.484266
vn 0.484263 0.618663 -0.618665
vn 0.484561 0.686185 -0.542540
vn 0.686184 0.484562 -0.542541
vn 0.618663 0.484263 -0.618664
vn 0.618662 0.618663 -0.484266
vn 0.686184 0.542538 -0.484566
vn 0.484263 0.618663 -0.618665
vn 0.618663 0.484263 -0.618664
vn 0.542539 0.484564 -0.686185
vn 0.484563 0.542539 -0.686185
vn 0.694134 -0.190677 -0.694133
vn 0.694134 -0.190677 -0.694133
vn 0.704982 -0.077501 -0.704978
vn 0.704982 -0.077501 -0.704978
vn 0.694132 -0.694134 -0.190677
vn 0.694132 -0.694134 -0.190677
vn 0.704976 -0.704984 -0.077501
vn 0.704976 -0.704984 -0.077501
vn 0.694132 -0.694134 -0.190677
vn 0.666029 -0.692535 -0.277129
vn 0.692535 -0.666029 -0.277129
vn 0.694132 -0.694134 -0.190677
vn 0.077501 -0.704983 -0.704977
vn 0.190678 -0.694134 -0.694133
vn 0.190677 -0.694134 -0.694133
vn 0.077501 -0.704983 -0.704977
vn 0.277129 -0.666029 -0.692535
vn 0.277129 -0.692535 -0.666029
vn 0.190677 -0.694134 -0.694133
vn 0.190678 -0.694134 -0.694133
vn 0.666029 -0.277130 -0.692535
vn 0.694134 -0.190677 -0.694133
vn 0.694134 -0.190677 -0.694133
vn 0.692535 -0.277130 -0.666029
vn 0.484265 -0.618663 -0.618662
vn 0.277129 -0.666029 -0.692535
vn 0.484566 -0.542537 -0.686184
vn 0.277129 -0.692535 -0.666029
vn 0.484265 -0.618663 -0.618662
vn 0.484565 -0.686185 -0.542537
vn 0.484265 -0.618663 -0.618662
vn 0.277129 -0.692535 -0.666029
vn 0.277129 -0.666029 -0.692535
vn 0.692535 -0.666029 -0.277129
vn 0.618664 -0.618663 -0.484263
vn 0.686185 -0.542539 -0.484564
vn 0.618664 -0.618663 -0.484263
vn 0.666029 -0.692535 -0.277129
vn 0.542540 -0.686185 -0.484562
vn 0.618664 -0.618663 -0.484263
vn 0.692535 -0.666029 -0.277129
vn 0.666029 -0.692535 -0.277129
vn 0.666029 -0.277130 -0.692535
vn 0.618664 -0.484263 -0.618663
vn 0.542541 -0.484562 -0.686184
vn 0.618664 -0.484263 -0.618663
vn 0.692535 -0.277130 -0.666029
vn 0.686184 -0.484564 -0.542539
vn 0.618664 -0.484263 -0.618663
vn 0.666029 -0.277130 -0.692535
vn 0.692535 -0.277130 -0.666029
vn 0.618664 -0.618663 -0.484263
vn 0.484265 -0.618663 -0.618662
vn 0.618664 -0.484263 -0.618663
vn 0.484565 -0.686185 -0.542537
vn 0.484265 -0.618663 -0.618662
vn 0.618664 -0.618663 -0.484263
vn 0.542540 -0.686185 -0.484562
vn 0.542541 -0.484562 -0.686184
vn 0.618664 -0.484263 -0.618663
vn 0.484265 -0.618663 -0.618662
vn 0.484566 -0.542537 -0.686184
vn 0.618664 -0.618663 -0.484263
vn 0.618664 -0.484263 -0.618663
vn 0.686184 -0.484564 -0.542539
vn 0.686185 -0.542539 -0.484564
vn 0.694134 -0.190677 0.694133
vn 0.694134 -0.190677 0.694133
vn 0.704982 -0.077501 0.704978
vn 0.704982 -0.077501 0.704978
vn 0.190678 -0.694134 0.694133
vn 0.190678 -0.694134 0.694133
vn 0.077501 -0.704982 0.704979
vn 0.077501 -0.704982 0.704979
vn 0.190678 -0.694134 0.694133
vn 0.277129 -0.692535 0.666029
vn 0.277129 -0.666029 0.692535
vn 0.190678 -0.694134 0.694133
vn 0.704976 -0.704984 0.077501
vn 0.694132 -0.694134 0.190677
vn 0.694132 -0.694134 0.190677
vn 0.704976 -0.704984 0.077501
vn 0.692535 -0.666029 0.277129
vn 0.666029 -0.692535 0.277129
vn 0.694132 -0.694134 0.190677
vn 0.694132 -0.694134 0.190677
vn 0.692535 -0.277130 0.666029
vn 0.694134 -0.190677 0.694133
vn 0.694134 -0.190677 0.694133
vn 0.666029 -0.277130 0.692535
vn 0.618662 -0.618663 0.484266
vn 0.692535 -0.666029 0.277129
vn 0.686184 -0.542538 0.484566
vn 0.666029 -0.692535 0.277129
vn 0.618662 -0.618663 0.484266
vn 0.542537 -0.686185 0.484565
vn 0.618662 -0.618663 0.484266
vn 0.666029 -0.692535 0.277129
vn 0.692535 -0.666029 0.277129
vn 0.277129 -0.666029 0.692535
vn 0.484262 -0.618663 0.618664
vn 0.484563 -0.542539 0.686185
vn 0.484262 -0.618663 0.618664
vn 0.277129 -0.692535 0.666029
vn 0.484562 -0.686185 0.542540
vn 0.484262 -0.618663 0.618664
vn 0.277129 -0.666029 0.692535
vn 0.277129 -0.692535 0.666029
vn 0.692535 -0.277130 0.666029
vn 0.618663 -0.484263 0.618664
vn 0.686184 -0.484562 0.542541
vn 0.618663 -0.484263 0.618664
vn 0.666029 -0.277130 0.692535
vn 0.542539 -0.484564 0.686185
vn 0.618663 -0.484263 0.618664
vn 0.692535 -0.277130 0.666029
vn 0.666029 -0.277130 0.692535
vn 0.484262 -0.618663 0.618664
vn 0.618662 -0.618663 0.484266
vn 0.618663 -0.484263 0.618664
vn 0.542537 -0.686185 0.484565
vn 0.618662 -0.618663 0.484266
vn 0.484262 -0.618663 0.618664
vn 0.484562 -0.686185 0.542540
vn 0.686184 -0.484562 0.542541
vn 0.618663 -0.484263 0.618664
vn 0.618662 -0.618663 0.484266
vn 0.686184 -0.542538 0.484566
vn 0.484262 -0.618663 0.618664
vn 0.618663 -0.484263 0.618664
vn 0.542539 -0.484564 0.686185
vn 0.484563 -0.542539 0.686185
vn -0.694134 -0.190677 0.694133
vn -0.694134 -0.190677 0.694133
vn -0.704982 -0.077499 0.704978
vn -0.704982 -0.077499 0.704978
vn -0.694132 -0.694134 0.190677
vn -0.694132 -0.694134 0.190677
vn -0.704976 -0.704984 0.077498
vn -0.704976 -0.704984 0.077498
vn -0.694132 -0.694134 0.190677
vn -0.666029 -0.692535 0.277129
vn -0.692535 -0.666029 0.277129
vn -0.694132 -0.694134 0.190677
vn -0.077500 -0.704981 0.704979
vn -0.190677 -0.694134 0.694133
vn -0.190677 -0.694134 0.694133
vn -0.077500 -0.704981 0.704979
vn -0.277129 -0.666029 0.692535
vn -0.277129 -0.692535 0.666029
vn -0.190677 -0.694134 0.694133
vn -0.190677 -0.694134 0.694133
vn -0.666029 -0.277130 0.692535
vn -0.694134 -0.190677 0.694133
vn -0.694134 -0.190677 0.694133
vn -0.692535 -0.277130 0.666029
vn -0.484266 -0.618663 0.618662
vn -0.277129 -0.666029 0.692535
vn -0.484566 -0.542538 0.686184
vn -0.277129 -0.692535 0.666029
vn -0.484266 -0.618663 0.618662
vn -0.484565 -0.686185 0.542537
vn -0.484266 -0.618663 0.618662
vn -0.277129 -0.692535 0.666029
vn -0.277129 -0.666029 0.692535
vn -0.692535 -0.666029 0.277129
vn -0.618664 -0.618663 0.484263
vn -0.686185 -0.542539 0.484564
vn -0.618664 -0.618663 0.484263
vn -0.666029 -0.692535 0.277129
vn -0.542540 -0.686185 0.484562
vn -0.618664 -0.618663 0.484263
vn -0.692535 -0.666029 0.277129
vn -0.666029 -0.692535 0.277129
vn -0.666029 -0.277130 0.692535
vn -0.618664 -0.484263 0.618663
vn -0.542541 -0.484562 0.686184
vn -0.618664 -0.484263 0.618663
vn -0.692535 -0.277130 0.666029
vn -0.686185 -0.484564 0.542539
vn -0.618664 -0.484263 0.618663
vn -0.666029 -0.277130 0.692535
vn -0.692535 -0.277130 0.666029
vn -0.618664 -0.618663 0.484263
vn -0.484266 -0.618663 0.618662
vn -0.618664 -0.484263 0.618663
vn -0.484565 -0.686185 0.542537
vn -0.484266 -0.618663 0.618662
vn -0.618664 -0.618663 0.484263
vn -0.542540 -0.686185 0.484562
vn -0.542541 -0.484562 0.686184
vn -0.618664 -0.484263 0.618663
vn -0.484266 -0.618663 0.618662
vn -0.484566 -0.542538 0.686184
vn -0.618664 -0.618663 0.484263
vn -0.618664 -0.484263 0.618663
vn -0.686185 -0.484564 0.542539
vn -0.686185 -0.542539 0.484564
vn -0.694133 -0.190678 -0.694134
vn -0.694133 -0.190678 -0.694134
vn -0.704979 -0.077503 -0.704981
vn -0.704979 -0.077503 -0.704981
vn -0.190678 -0.694134 -0.694133
vn -0.190678 -0.694134 -0.694133
vn -0.077502 -0.704982 -0.704978
vn -0.077502 -0.704982 -0.704978
vn -0.190678 -0.694134 -0.694133
vn -0.277129 -0.692535 -0.666029
vn -0.277129 -0.666029 -0.692535
vn -0.190678 -0.694134 -0.694133
vn -0.704976 -0.704984 -0.077503
vn -0.694132 -0.694134 -0.190678
vn -0.694132 -0.694134 -0.190678
vn -0.704976 -0.704984 -0.077503
vn -0.692535 -0.666029 -0.277129
vn -0.666029 -0.692535 -0.277129
vn -0.694132 -0.694134 -0.190678
vn -0.694132 -0.694134 -0.190678
vn -0.692535 -0.277130 -0.666029
vn -0.694133 -0.190678 -0.694134
vn -0.694133 -0.190678 -0.694134
vn -0.666029 -0.277130 -0.692535
vn -0.618662 -0.618663 -0.484266
vn -0.692535 -0.666029 -0.277129
vn -0.686184 -0.542538 -0.484566
vn -0.666029 -0.692535 -0.277129
vn -0.618662 -0.618663 -0.484266
vn -0.542537 -0.686185 -0.484565
vn -0.618662 -0.618663 -0.484266
vn -0.666029 -0.692535 -0.277129
vn -0.692535 -0.666029 -0.277129
vn -0.277129 -0.666029 -0.692535
vn -0.484262 -0.618663 -0.618665
vn -0.484563 -0.542539 -0.686185
vn -0.484262 -0.618663 -0.618665
vn -0.277129 -0.692535 -0.666029
vn -0.484562 -0.686185 -0.542540
vn -0.484262 -0.618663 -0.618665
vn -0.277129 -0.666029 -0.692535
vn -0.277129 -0.692535 -0.666029
vn -0.692535 -0.277130 -0.666029
vn -0.618663 -0.484263 -0.618664
vn -0.686184 -0.484562 -0.542541
vn -0.618663 -0.484263 -0.618664
vn -0.666029 -0.277130 -0.692535
vn -0.542539 -0.484564 -0.686185
vn -0.618663 -0.484263 -0.618664
vn -0.692535 -0.277130 -0.666029
vn -0.666029 -0.277130 -0.692535
vn -0.484262 -0.618663 -0.618665
vn -0.618662 -0.618663 -0.484266
vn -0.618663 -0.484263 -0.618664
vn -0.542537 -0.686185 -0.484565
vn -0.618662 -0.618663 -0.484266
vn -0.484262 -0.618663 -0.618665
vn -0.484562 -0.686185 -0.542540
vn -0.686184 -0.484562 -0.542541
vn -0.618663 -0.484263 -0.618664
vn -0.618662 -0.618663 -0.484266
vn -0.686184 -0.542538 -0.484566
vn -0.484262 -0.618663 -0.618665
vn -0.618663 -0.484263 -0.618664
vn -0.542539 -0.484564 -0.686185
vn -0.484563 -0.542539 -0.686185
vn -0.000001 1.000000 0.000001
vn -0.000001 1.000000 0.000001
vn -0.000001 1.000000 0.000001
vn 0.000000 1.000000 0.000001
vn 0.000000 1.000000 0.000001
vn 0.000000 1.000000 0.000001
vn 0.000001 1.000000 -0.000002
vn 0.000001 1.000000 -0.000002
vn 0.000001 1.000000 -0.000002
vn 0.000001 1.000000 0.000000
vn 0.000001 1.000000 0.000000
vn 0.000001 1.000000 0.000000
vn 0.000000 1.000000 0.000000
vn 0.000000 1.000000 0.000000
vn 0.000000 1.000000 0.000000
vn 0.000000 1.000000 0.000001
vn 0.000000 1.000000 0.000001
vn 0.000000 1.000000 0.000001
vn 0.000000 1.000000 0.000000
vn 0.000000 1.000000 0.000000
vn 0.000000 1.000000 0.000000
vn -0.000001 1.000000 -0.000002
vn -0.000001 1.000000 -0.000002
vn -0.000001 1.000000 -0.000002
vn 0.000000 1.000000 0.000001
vn 0.000000 1.000000 0.000001
vn 0.000000 1.000000 0.000001
vn 0.000001 1.000000 0.000001
vn 0.000001 1.000000 0.000001
vn 0.000001 1.000000 0.000001
vn 0.000000 1.000000 0.000001
vn 0.000000 1.000000 0.000001
vn 0.000000 1.000000 0.000001
vn 0.000000 1.000000 0.000001
vn 0.000000 1.000000 0.000001
vn 0.000000 1.000000 0.000001
vn 0.000000 1.000000 0.000001
vn 0.000000 1.000000 0.000001
vn 0.000000 1.000000 0.000001
vn -0.000001 1.000000 0.000000
vn -0.000001 1.000000 0.000000
vn -0.000001 1.000000 0.000000
vn 0.000001 1.000000 -0.000001
vn 0.000001 1.000000 -0.000001
vn 0.000001 1.000000 -0.000001
vn 0.000000 1.000000 -0.000001
vn 0.000000 1.000000 -0.000001
vn 0.000000 1.000000 -0.000001
vn -0.000001 1.000000 0.000002
vn -0.000001 1.000000 0.000002
vn -0.000001 1.000000 0.000002
vn -0.000001 1.000000 0.000000
vn -0.000001 1.000000 0.000000
vn -0.000001 1.000000 0.000000
vn 0.000000 1.000000 0.000000
vn 0.000000 1.000000 0.000000
vn 0.000000 1.000000 0.000000
vn 0.000000 1.000000 -0.000001
vn 0.000000 1.000000 -0.000001
vn 0.000000 1.000000 -0.000001
vn 0.000000 1.000000 0.000000
vn 0.000000 1.000000 0.000000
vn 0.000000 1.000000 0.000000
vn 0.000001 1.000000 0.000002
vn 0.000001 1.000000 0.000002
vn 0.000001 1.000000 0.000002
vn 0.000000 1.000000 -0.000001
vn 0.000000 1.000000 -0.000001
vn 0.000000 1.000000 -0.000001
vn -0.000001 1.000000 -0.000001
vn -0.000001 1.000000 -0.000001
vn -0.000001 1.000000 -0.000001
vn 0.000000 1.000000 -0.000001
vn 0.000000 1.000000 -0.000001
vn 0.000000 1.000000 -0.000001
vn 0.000000 1.000000 -0.000001
vn 0.000000 1.000000 -0.000001
vn 0.000000 1.000000 -0.000001
vn 0.000000 1.000000 -0.000001
vn 0.000000 1.000000 -0.000001
vn 0.000000 1.000000 -0.000001
vn 0.000001 1.000000 0.000000
vn 0.000001 1.000000 0.000000
vn 0.000001 1.000000 0.000000
vn 1.000000 -0.000002 -0.000001
vn 1.000000 -0.000002 -0.000001
vn 1.000000 -0.000002 -0.000001
vn 1.000000 -0.000001 -0.000001
vn 1.000000 -0.000001 -0.000001
vn 1.000000 -0.000001 -0.000001
vn 1.000000 -0.000003 -0.000001
vn 1.000000 -0.000003 -0.000001
vn 1.000000 -0.000003 -0.000001
vn 1.000000 -0.000002 0.000000
vn 1.000000 -0.000002 0.000000
vn 1.000000 -0.000002 0.000000
vn 1.000000 -0.000002 -0.000001
vn 1.000000 -0.000002 -0.000001
vn 1.000000 -0.000002 -0.000001
vn 1.000000 -0.000001 -0.000002
vn 1.000000 -0.000001 -0.000002
vn 1.000000 -0.000001 -0.000002
vn 1.000000 -0.000001 -0.000002
vn 1.000000 -0.000001 -0.000002
vn 1.000000 -0.000001 -0.000002
vn 1.000000 -0.000001 0.000004
vn 1.000000 -0.000001 0.000004
vn 1.000000 -0.000001 0.000004
vn 1.000000 -0.000004 -0.000001
vn 1.000000 -0.000004 -0.000001
vn 1.000000 -0.000004 -0.000001
vn 1.000000 -0.000003 0.000001
vn 1.000000 -0.000003 0.000001
vn 1.000000 -0.000003 0.000001
vn 1.000000 -0.000002 0.000000
vn 1.000000 -0.000002 0.000000
vn 1.000000 -0.000002 0.000000
vn 1.000000 -0.000002 0.000001
vn 1.000000 -0.000002 0.000001
vn 1.000000 -0.000002 0.000001
vn 1.000000 0.000000 0.000002
vn 1.000000 0.000000 0.000002
vn 1.000000 0.000000 0.000002
vn 1.000000 -0.000001 0.000002
vn 1.000000 -0.000001 0.000002
vn 1.000000 -0.000001 0.000002
vn 1.000000 0.000001 0.000001
vn 1.000000 0.000001 0.000001
vn 1.000000 0.000001 0.000001
vn 1.000000 0.000001 0.000001
vn 1.000000 0.000001 0.000001
vn 1.000000 0.000001 0.000001
vn 1.000000 0.000000 0.000001
vn 1.000000 0.000000 0.000001
vn 1.000000 0.000000 0.000001
vn 1.000000 0.000001 0.000000
vn 1.000000 0.000001 0.000000
vn 1.000000 0.000001 0.000000
vn 1.000000 0.000001 0.000000
vn 1.000000 0.000001 0.000000
vn 1.000000 0.000001 0.000000
vn 1.000000 0.000001 0.000001
vn 1.000000 0.000001 0.000001
vn 1.000000 0.000001 0.000001
vn 1.000000 0.000001 0.000001
vn 1.000000 0.000001 0.000001
vn 1.000000 0.000001 0.000001
vn 1.000000 0.000000 -0.000003
vn 1.000000 0.000000 -0.000003
vn 1.000000 0.000000 -0.000003
vn 1.000000 0.000004 0.000002
vn 1.000000 0.000004 0.000002
vn 1.000000 0.000004 0.000002
vn 1.000000 0.000000 -0.000001
vn 1.000000 0.000000 -0.000001
vn 1.000000 0.000000 -0.000001
vn 1.000000 0.000002 0.000000
vn 1.000000 0.000002 0.000000
vn 1.000000 0.000002 0.000000
vn 1.000000 0.000001 0.000000
vn 1.000000 0.000001 0.000000
vn 1.000000 0.000001 0.000000
vn 1.000000 0.000001 -0.000001
vn 1.000000 0.000001 -0.000001
vn 1.000000 0.000001 -0.000001
vn 1.000000 0.000001 -0.000001
vn 1.000000 0.000001 -0.000001
vn 1.000000 0.000001 -0.000001
vn -0.000002 0.000001 1.000000
vn -0.000002 0.000001 1.000000
vn -0.000002 0.000001 1.000000
vn 0.000001 -0.000001 1.000000
vn 0.000001 -0.000001 1.000000
vn 0.000001 -0.000001 1.000000
vn 0.000000 0.000000 1.000000
vn 0.000000 0.000000 1.000000
vn 0.000000 0.000000 1.000000
vn 0.000000 0.000000 1.000000
vn 0.000000 0.000000 1.000000
vn 0.000000 0.000000 1.000000
vn 0.000000 0.000000 1.000000
vn 0.000000 0.000000 1.000000
vn 0.000000 0.000000 1.000000
vn 0.000000 0.000000 1.000000
vn 0.000000 0.000000 1.000000
vn 0.000000 0.000000 1.000000
vn 0.000000 0.000000 1.000000
vn 0.000000 0.000000 1.000000
vn 0.000000 0.000000 1.000000
vn -0.000001 0.000000 1.000000
vn -0.000001 0.000000 1.000000
vn -0.000001 0.000000 1.000000
vn 0.000000 0.000000 1.000000
vn 0.000000 0.000000 1.000000
vn 0.000000 0.000000 1.000000
vn 0.000000 0.000000 1.000000
vn 0.000000 0.000000 1.000000
vn 0.000000 0.000000 1.000000
vn 0.000002 0.000000 1.000000
vn 0.000002 0.000000 1.000000
vn 0.000002 0.000000 1.000000
vn 0.000000 0.000000 1.000000
vn 0.000000 0.000000 1.000000
vn 0.000000 0.000000 1.000000
vn 0.000000 0.000000 1.000000
vn 0.000000 0.000000 1.000000
vn 0.000000 0.000000 1.000000
vn 0.000000 0.000000 1.000000
vn 0.000000 0.000000 1.000000
vn 0.000000 0.000000 1.000000
vn 0.000000 0.000000 1.000000
vn 0.000000 0.000000 1.000000
vn 0.000000 0.000000 1.000000
vn 0.000000 0.000000 1.000000
vn 0.000000 0.000000 1.000000
vn 0.000000 0.000000 1.000000
vn 0.000000 0.000000 1.000000
vn 0.000000 0.000000 1.000000
vn 0.000000 0.000000 1.000000
vn 0.000000 0.000000 1.000000
vn 0.000000 0.000000 1.000000
vn 0.000000 0.000000 1.000000
vn 0.000000 0.000000 1.000000
vn 0.000000 0.000000 1.000000
vn 0.000000 0.000000 1.000000
vn 0.000001 0.000000 1.000000
vn 0.000001 0.000000 1.000000
vn 0.000001 0.000000 1.000000
vn 0.000000 0.000000 1.000000
vn 0.000000 0.000000 1.000000
vn 0.000000 0.000000 1.000000
vn 0.000001 -0.000001 1.000000
vn 0.000001 -0.000001 1.000000
vn 0.000001 -0.000001 1.000000
vn -0.000001 0.000002 1.000000
vn -0.000001 0.000002 1.000000
vn -0.000001 0.000002 1.000000
vn 0.000000 0.000000 1.000000
vn 0.000000 0.000000 1.000000
vn 0.000000 0.000000 1.000000
vn 0.000002 0.000000 1.000000
vn 0.000002 0.000000 1.000000
vn 0.000002 0.000000 1.000000
vn 0.000000 0.000000 1.000000
vn 0.000000 0.000000 1.000000
vn 0.000000 0.000000 1.000000
vn 0.000000 0.000000 1.000000
vn 0.000000 0.000000 1.000000
vn 0.000000 0.000000 1.000000
vn 0.000000 0.000000 1.000000
vn 0.000000 0.000000 1.000000
vn 0.000000 0.000000 1.000000
vn -1.000000 0.000003 -0.000002
vn -1.000000 0.000003 -0.000002
vn -1.000000 0.000003 -0.000002
vn -1.000000 -0.000002 0.000004
vn -1.000000 -0.000002 0.000004
vn -1.000000 -0.000002 0.000004
vn -1.000000 0.000001 0.000001
vn -1.000000 0.000001 0.000001
vn -1.000000 0.000001 0.000001
vn -1.000000 0.000001 0.000000
vn -1.000000 0.000001 0.000000
vn -1.000000 0.000001 0.000000
vn -1.000000 0.000001 0.000000
vn -1.000000 0.000001 0.000000
vn -1.000000 0.000001 0.000000
vn -1.000000 0.000000 0.000001
vn -1.000000 0.000000 0.000001
vn -1.000000 0.000000 0.000001
vn -1.000000 0.000001 0.000001
vn -1.000000 0.000001 0.000001
vn -1.000000 0.000001 0.000001
vn -1.000000 0.000001 -0.000001
vn -1.000000 0.000001 -0.000001
vn -1.000000 0.000001 -0.000001
vn -1.000000 0.000001 -0.000001
vn -1.000000 0.000001 -0.000001
vn -1.000000 0.000001 -0.000001
vn -1.000000 0.000001 -0.000001
vn -1.000000 0.000001 -0.000001
vn -1.000000 0.000001 -0.000001
vn -1.000000 0.000001 0.000000
vn -1.000000 0.000001 0.000000
vn -1.000000 0.000001 0.000000
vn -1.000000 0.000001 0.000000
vn -1.000000 0.000001 0.000000
vn -1.000000 0.000001 0.000000
vn -1.000000 0.000000 -0.000001
vn -1.000000 0.000000 -0.000001
vn -1.000000 0.000000 -0.000001
vn -1.000000 0.000001 -0.000001
vn -1.000000 0.000001 -0.000001
vn -1.000000 0.000001 -0.000001
vn -1.000000 -0.000001 0.000000
vn -1.000000 -0.000001 0.000000
vn -1.000000 -0.000001 0.000000
vn -1.000000 -0.000001 0.000000
vn -1.000000 -0.000001 0.000000
vn -1.000000 -0.000001 0.000000
vn -1.000000 0.000003 0.000001
vn -1.000000 0.000003 0.000001
vn -1.000000 0.000003 0.000001
vn -1.000000 -0.000001 -0.000003
vn -1.000000 -0.000001 -0.000003
vn -1.000000 -0.000001 -0.000003
vn -1.000000 -0.000001 0.000000
vn -1.000000 -0.000001 0.000000
vn -1.000000 -0.000001 0.000000
vn -1.000000 -0.000001 0.000001
vn -1.000000 -0.000001 0.000001
vn -1.000000 -0.000001 0.000001
vn -1.000000 -0.000001 0.000001
vn -1.000000 -0.000001 0.000001
vn -1.000000 -0.000001 0.000001
vn -1.000000 -0.000003 0.000002
vn -1.000000 -0.000003 0.000002
vn -1.000000 -0.000003 0.000002
vn -1.000000 0.000002 -0.000004
vn -1.000000 0.000002 -0.000004
vn -1.000000 0.000002 -0.000004
vn -1.000000 -0.000003 -0.000001
vn -1.000000 -0.000003 -0.000001
vn -1.000000 -0.000003 -0.000001
vn -1.000000 -0.000001 -0.000003
vn -1.000000 -0.000001 -0.000003
vn -1.000000 -0.000001 -0.000003
vn -1.000000 -0.000002 -0.000001
vn -1.000000 -0.000002 -0.000001
vn -1.000000 -0.000002 -0.000001
vn -1.000000 -0.000001 -0.000002
vn -1.000000 -0.000001 -0.000002
vn -1.000000 -0.000001 -0.000002
vn -1.000000 -0.000002 -0.000002
vn -1.000000 -0.000002 -0.000002
vn -1.000000 -0.000002 -0.000002
vn 0.000002 0.000001 -1.000000
vn 0.000002 0.000001 -1.000000
vn 0.000002 0.000001 -1.000000
vn -0.000001 -0.000002 -1.000000
vn -0.000001 -0.000002 -1.000000
vn -0.000001 -0.000002 -1.000000
vn 0.000000 0.000000 -1.000000
vn 0.000000 0.000000 -1.000000
vn 0.000000 0.000000 -1.000000
vn -0.000001 0.000000 -1.000000
vn -0.000001 0.000000 -1.000000
vn -0.000001 0.000000 -1.000000
vn 0.000001 0.000000 -1.000000
vn 0.000001 0.000000 -1.000000
vn 0.000001 0.000000 -1.000000
vn 0.000000 0.000000 -1.000000
vn 0.000000 0.000000 -1.000000
vn 0.000000 0.000000 -1.000000
vn 0.000000 0.000000 -1.000000
vn 0.000000 0.000000 -1.000000
vn 0.000000 0.000000 -1.000000
vn 0.000000 0.000000 -1.000000
vn 0.000000 0.000000 -1.000000
vn 0.000000 0.000000 -1.000000
vn 0.000000 0.000000 -1.000000
vn 0.000000 0.000000 -1.000000
vn 0.000000 0.000000 -1.000000
vn 0.000000 0.000000 -1.000000
vn 0.000000 0.000000 -1.000000
vn 0.000000 0.000000 -1.000000
vn -0.000001 0.000000 -1.000000
vn -0.000001 0.000000 -1.000000
vn -0.000001 0.000000 -1.000000
vn 0.000000 0.000000 -1.000000
vn 0.000000 0.000000 -1.000000
vn 0.000000 0.000000 -1.000000
vn 0.000000 0.000000 -1.000000
vn 0.000000 0.000000 -1.000000
vn 0.000000 0.000000 -1.000000
vn -0.000001 0.000000 -1.000000
vn -0.000001 0.000000 -1.000000
vn -0.000001 0.000000 -1.000000
vn -0.000002 0.000000 -1.000000
vn -0.000002 0.000000 -1.000000
vn -0.000002 0.000000 -1.000000
vn 0.000001 0.000002 -1.000000
vn 0.000001 0.000002 -1.000000
vn 0.000001 0.000002 -1.000000
vn 0.000000 0.000000 -1.000000
vn 0.000000 0.000000 -1.000000
vn 0.000000 0.000000 -1.000000
vn -0.000001 0.000000 -1.000000
vn -0.000001 0.000000 -1.000000
vn -0.000001 0.000000 -1.000000
vn 0.000000 0.000000 -1.000000
vn 0.000000 0.000000 -1.000000
vn 0.000000 0.000000 -1.000000
vn 0.000000 0.000000 -1.000000
vn 0.000000 0.000000 -1.000000
vn 0.000000 0.000000 -1.000000
vn 0.000000 0.000000 -1.000000
vn 0.000000 0.000000 -1.000000
vn 0.000000 0.000000 -1.000000
vn 0.000000 0.000000 -1.000000
vn 0.000000 0.000000 -1.000000
vn 0.000000 0.000000 -1.000000
vn 0.000000 0.000000 -1.000000
vn 0.000000 0.000000 -1.000000
vn 0.000000 0.000000 -1.000000
vn 0.000000 0.000000 -1.000000
vn 0.000000 0.000000 -1.000000
vn 0.000000 0.000000 -1.000000
vn -0.000001 0.000000 -1.000000
vn -0.000001 0.000000 -1.000000
vn -0.000001 0.000000 -1.000000
vn 0.000001 0.000000 -1.000000
vn 0.000001 0.000000 -1.000000
vn 0.000001 0.000000 -1.000000
vn 0.000000 0.000000 -1.000000
vn 0.000000 0.000000 -1.000000
vn 0.000000 0.000000 -1.000000
vn 0.000001 0.000000 -1.000000
vn 0.000001 0.000000 -1.000000
vn 0.000001 0.000000 -1.000000
vn -0.000001 -1.000000 -0.000001
vn -0.000001 -1.000000 -0.000001
vn -0.000001 -1.000000 -0.000001
vn 0.000000 -1.000000 0.000000
vn 0.000000 -1.000000 0.000000
vn 0.000000 -1.000000 0.000000
vn 0.000001 -1.000000 0.000002
vn 0.000001 -1.000000 0.000002
vn 0.000001 -1.000000 0.000002
vn 0.000000 -1.000000 0.000000
vn 0.000000 -1.000000 0.000000
vn 0.000000 -1.000000 0.000000
vn -0.000001 -1.000000 0.000000
vn -0.000001 -1.000000 0.000000
vn -0.000001 -1.000000 0.000000
vn 0.000000 -1.000000 0.000000
vn 0.000000 -1.000000 0.000000
vn 0.000000 -1.000000 0.000000
vn 0.000000 -1.000000 0.000000
vn 0.000000 -1.000000 0.000000
vn 0.000000 -1.000000 0.000000
vn 0.000001 -1.000000 -0.000001
vn 0.000001 -1.000000 -0.000001
vn 0.000001 -1.000000 -0.000001
vn 0.000000 -1.000000 0.000000
vn 0.000000 -1.000000 0.000000
vn 0.000000 -1.000000 0.000000
vn -0.000001 -1.000000 0.000001
vn -0.000001 -1.000000 0.000001
vn -0.000001 -1.000000 0.000001
vn 0.000000 -1.000000 0.000000
vn 0.000000 -1.000000 0.000000
vn 0.000000 -1.000000 0.000000
vn 0.000000 -1.000000 0.000000
vn 0.000000 -1.000000 0.000000
vn 0.000000 -1.000000 0.000000
vn 0.000000 -1.000000 0.000000
vn 0.000000 -1.000000 0.000000
vn 0.000000 -1.000000 0.000000
vn 0.000000 -1.000000 0.000000
vn 0.000000 -1.000000 0.000000
vn 0.000000 -1.000000 0.000000
vn 0.000001 -1.000000 0.000001
vn 0.000001 -1.000000 0.000001
vn 0.000001 -1.000000 0.000001
vn 0.000000 -1.000000 0.000000
vn 0.000000 -1.000000 0.000000
vn 0.000000 -1.000000 0.000000
vn -0.000001 -1.000000 -0.000002
vn -0.000001 -1.000000 -0.000002
vn -0.000001 -1.000000 -0.000002
vn 0.000000 -1.000000 0.000000
vn 0.000000 -1.000000 0.000000
vn 0.000000 -1.000000 0.000000
vn 0.000000 -1.000000 0.000000
vn 0.000000 -1.000000 0.000000
vn 0.000000 -1.000000 0.000000
vn 0.000000 -1.000000 0.000001
vn 0.000000 -1.000000 0.000001
vn 0.000000 -1.000000 0.000001
vn 0.000000 -1.000000 0.000000
vn 0.000000 -1.000000 0.000000
vn 0.000000 -1.000000 0.000000
vn -0.000001 -1.000000 0.000001
vn -0.000001 -1.000000 0.000001
vn -0.000001 -1.000000 0.000001
vn 0.000000 -1.000000 0.000000
vn 0.000000 -1.000000 0.000000
vn 0.000000 -1.000000 0.000000
vn 0.000001 -1.000000 -0.000001
vn 0.000001 -1.000000 -0.000001
vn 0.000001 -1.000000 -0.000001
vn 0.000000 -1.000000 0.000000
vn 0.000000 -1.000000 0.000000
vn 0.000000 -1.000000 0.000000
vn 0.000000 -1.000000 0.000000
vn 0.000000 -1.000000 0.000000
vn 0.000000 -1.000000 0.000000
vn 0.000000 -1.000000 0.000000
vn 0.000000 -1.000000 0.000000
vn 0.000000 -1.000000 0.000000
vn 0.000000 -1.000000 0.000000
vn 0.000000 -1.000000 0.000000
vn 0.000000 -1.000000 0.000000
s off
g Dice1:polySurface33
usemtl Dice:lambert8SG
f 22/1/1 21/2/2 23/3/3 24/4/4
f 13/5/5 14/6/6 16/7/7 15/8/8
f 13/5/9 11/9/10 12/10/11 14/6/12
f 8/11/13 6/12/14 5/13/15 7/14/16
f 4/15/17 3/16/18 5/13/19 6/12/20
f 19/17/21 21/2/22 22/1/23 20/18/24
f 26/19/25 4/15/26 1/20/27
f 3/16/28 26/19/29 2/21/30
f 26/19/31 3/16/32 4/15/33
f 12/10/34 25/22/35 9/23/36
f 25/22/37 11/9/38 10/24/39
f 25/22/40 12/10/41 11/9/42
f 19/17/43 27/25/44 17/26/45
f 27/25/46 20/18/47 18/27/48
f 27/25/49 19/17/50 20/18/51
f 25/22/52 26/19/53 27/25/54
f 2/21/55 26/19/56 25/22/57 10/24/58
f 17/26/59 27/25/60 26/19/61 1/20/62
f 25/22/63 27/25/64 18/27/65 9/23/66
f 47/28/67 46/29/68 48/30/69 49/31/70
f 40/32/71 41/33/72 8/34/73 7/35/74
f 40/32/75 38/36/76 39/37/77 41/33/78
f 35/38/79 33/39/80 32/40/81 34/41/82
f 31/42/83 30/43/84 32/40/85 33/39/86
f 44/44/87 46/29/88 47/28/89 45/45/90
f 51/46/91 31/42/92 28/47/93
f 30/43/94 51/46/95 29/48/96
f 51/46/97 30/43/98 31/42/99
f 39/37/100 50/49/101 36/50/102
f 50/49/103 38/36/104 37/51/105
f 50/49/106 39/37/107 38/36/108
f 44/44/109 52/52/110 42/53/111
f 52/52/112 45/45/113 43/54/114
f 52/52/115 44/44/116 45/45/117
f 50/49/118 51/46/119 52/52/120
f 29/48/121 51/46/122 50/49/123 37/51/124
f 42/53/125 52/52/126 51/46/127 28/47/128
f 50/49/129 52/52/130 43/54/131 36/50/132
f 72/55/133 71/56/134 73/57/135 74/58/136
f 65/59/137 66/60/138 35/61/139 34/62/140
f 65/59/141 63/63/142 64/64/143 66/60/144
f 60/65/145 58/66/146 57/67/147 59/68/148
f 56/69/149 55/70/150 57/67/151 58/66/152
f 69/71/153 71/56/154 72/55/155 70/72/156
f 76/73/157 56/69/158 53/74/159
f 55/70/160 76/73/161 54/75/162
f 76/73/163 55/70/164 56/69/165
f 64/64/166 75/76/167 61/77/168
f 75/76/169 63/63/170 62/78/171
f 75/76/172 64/64/173 63/63/174
f 69/71/175 77/79/176 67/80/177
f 77/79/178 70/72/179 68/81/180
f 77/79/181 69/71/182 70/72/183
f 75/76/184 76/73/185 77/79/186
f 54/75/187 76/73/188 75/76/189 62/78/190
f 67/80/191 77/79/192 76/73/193 53/74/194
f 75/76/195 77/79/196 68/81/197 61/77/198
f 95/82/199 94/83/200 96/84/201 97/85/202
f 88/86/203 89/87/204 60/88/205 59/89/206
f 88/86/207 86/90/208 87/91/209 89/87/210
f 16/92/211 83/93/212 82/94/213 15/95/214
f 81/96/215 80/97/216 82/94/217 83/93/218
f 92/98/219 94/83/220 95/82/221 93/99/222
f 99/100/223 81/96/224 78/101/225
f 80/97/226 99/100/227 79/102/228
f 99/100/229 80/97/230 81/96/231
f 87/91/232 98/103/233 84/104/234
f 98/103/235 86/90/236 85/105/237
f 98/103/238 87/91/239 86/90/240
f 92/98/241 100/106/242 90/107/243
f 100/106/244 93/99/245 91/108/246
f 100/106/247 92/98/248 93/99/249
f 98/103/250 99/100/251 100/106/252
f 79/102/253 99/100/254 98/103/255 85/105/256
f 90/107/257 100/106/258 99/100/259 78/101/260
f 98/103/261 100/106/262 91/108/263 84/104/264
f 122/109/265 121/110/266 97/111/267 96/112/268
f 113/113/269 114/114/270 116/115/271 115/116/272
f 113/113/273 111/117/274 112/118/275 114/114/276
f 108/119/277 106/120/278 105/121/279 107/122/280
f 104/123/281 103/124/282 105/121/283 106/120/284
f 119/125/285 121/110/286 122/109/287 120/126/288
f 124/127/289 104/123/290 101/128/291
f 103/124/292 124/127/293 102/129/294
f 124/127/295 103/124/296 104/123/297
f 112/118/298 123/130/299 109/131/300
f 123/130/301 111/117/302 110/132/303
f 123/130/304 112/118/305 111/117/306
f 119/125/307 125/133/308 117/134/309
f 125/133/310 120/126/311 118/135/312
f 125/133/313 119/125/314 120/126/315
f 123/130/316 124/127/317 125/133/318
f 102/129/319 124/127/320 123/130/321 110/132/322
f 117/134/323 125/133/324 124/127/325 101/128/326
f 123/130/327 125/133/328 118/135/329 109/131/330
f 145/136/331 144/137/332 24/138/333 23/139/334
f 136/140/335 137/141/336 139/142/337 138/143/338
f 136/140/339 134/144/340 135/145/341 137/141/342
f 116/146/343 131/147/344 130/148/345 115/149/346
f 129/150/347 128/151/348 130/148/349 131/147/350
f 142/152/351 144/137/352 145/136/353 143/153/354
f 147/154/355 129/150/356 126/155/357
f 128/151/358 147/154/359 127/156/360
f 147/154/361 128/151/362 129/150/363
f 135/145/364 146/157/365 132/158/366
f 146/157/367 134/144/368 133/159/369
f 146/157/370 135/145/371 134/144/372
f 142/152/373 148/160/374 140/161/375
f 148/160/376 143/153/377 141/162/378
f 148/160/379 142/152/380 143/153/381
f 146/157/382 147/154/383 148/160/384
f 127/156/385 147/154/386 146/157/387 133/159/388
f 140/161/389 148/160/390 147/154/391 126/155/392
f 146/157/393 148/160/394 141/162/395 132/158/396
f 168/163/397 167/164/398 49/165/399 48/166/400
f 159/167/401 160/168/402 162/169/403 161/170/404
f 159/167/405 157/171/406 158/172/407 160/168/408
f 139/173/409 154/174/410 153/175/411 138/176/412
f 152/177/413 151/178/414 153/175/415 154/174/416
f 165/179/417 167/164/418 168/163/419 166/180/420
f 170/181/421 152/177/422 149/182/423
f 151/178/424 170/181/425 150/183/426
f 170/181/427 151/178/428 152/177/429
f 158/172/430 169/184/431 155/185/432
f 169/184/433 157/171/434 156/186/435
f 169/184/436 158/172/437 157/171/438
f 165/179/439 171/187/440 163/188/441
f 171/187/442 166/180/443 164/189/444
f 171/187/445 165/179/446 166/180/447
f 169/184/448 170/181/449 171/187/450
f 150/183/451 170/181/452 169/184/453 156/186/454
f 163/188/455 171/187/456 170/181/457 149/182/458
f 169/184/459 171/187/460 164/189/461 155/185/462
f 189/190/463 188/191/464 74/192/465 73/193/466
f 182/194/467 183/195/468 108/196/469 107/197/470
f 182/194/471 180/198/472 181/199/473 183/195/474
f 162/200/475 177/201/476 176/202/477 161/203/478
f 175/204/479 174/205/480 176/202/481 177/201/482
f 186/206/483 188/191/484 189/190/485 187/207/486
f 191/208/487 175/204/488 172/209/489
f 174/205/490 191/208/491 173/210/492
f 191/208/493 174/205/494 175/204/495
f 181/199/496 190/211/497 178/212/498
f 190/211/499 180/198/500 179/213/501
f 190/211/502 181/199/503 180/198/504
f 186/206/505 192/214/506 184/215/507
f 192/214/508 187/207/509 185/216/510
f 192/214/511 186/206/512 187/207/513
f 190/211/514 191/208/515 192/214/516
f 173/210/517 191/208/518 190/211/519 179/213/520
f 184/215/521 192/214/522 191/208/523 172/209/524
f 190/211/525 192/214/526 185/216/527 178/212/528
f 3/217/529 2/218/530 193/219/531
f 5/220/532 3/217/533 193/219/534
f 10/221/535 11/222/536 193/219/537
f 13/223/538 15/224/539 193/219/540
f 2/218/541 10/221/542 193/219/543
f 11/222/544 13/223/545 193/219/546
f 7/225/547 5/220/548 193/219/549
f 30/226/550 29/227/551 193/219/552
f 32/228/553 30/226/554 193/219/555
f 37/229/556 38/230/557 193/219/558
f 40/231/559 7/225/560 193/219/561
f 29/227/562 37/229/563 193/219/564
f 38/230/565 40/231/566 193/219/567
f 34/232/568 32/228/569 193/219/570
f 55/233/571 54/234/572 193/219/573
f 57/235/574 55/233/575 193/219/576
f 62/236/577 63/237/578 193/219/579
f 65/238/580 34/232/581 193/219/582
f 54/234/583 62/236/584 193/219/585
f 63/237/586 65/238/587 193/219/588
f 59/239/589 57/235/590 193/219/591
f 80/240/592 79/241/593 193/219/594
f 82/242/595 80/240/596 193/219/597
f 85/243/598 86/244/599 193/219/600
f 88/245/601 59/239/602 193/219/603
f 79/241/604 85/243/605 193/219/606
f 86/244/607 88/245/608 193/219/609
f 15/224/610 82/242/611 193/219/612
f 12/246/613 9/247/614 194/248/615
f 9/247/616 18/249/617 194/248/618
f 22/250/619 24/251/620 194/248/621
f 16/252/622 14/253/623 194/248/624
f 14/253/625 12/246/626 194/248/627
f 20/254/628 22/250/629 194/248/630
f 18/249/631 20/254/632 194/248/633
f 78/255/634 81/256/635 194/248/636
f 90/257/637 78/255/638 194/248/639
f 96/258/640 94/259/641 194/248/642
f 83/260/643 16/252/644 194/248/645
f 81/256/646 83/260/647 194/248/648
f 94/259/649 92/261/650 194/248/651
f 92/261/652 90/257/653 194/248/654
f 112/262/655 109/263/656 194/248/657
f 109/263/658 118/264/659 194/248/660
f 122/265/661 96/258/662 194/248/663
f 116/266/664 114/267/665 194/248/666
f 114/267/667 112/262/668 194/248/669
f 120/268/670 122/265/671 194/248/672
f 118/264/673 120/268/674 194/248/675
f 126/269/676 129/270/677 194/248/678
f 140/271/679 126/269/680 194/248/681
f 24/251/682 144/272/683 194/248/684
f 131/273/685 116/266/686 194/248/687
f 129/270/688 131/273/689 194/248/690
f 144/272/691 142/274/692 194/248/693
f 142/274/694 140/271/695 194/248/696
f 1/275/697 4/276/698 195/277/699
f 17/278/700 1/275/701 195/277/702
f 23/279/703 21/280/704 195/277/705
f 6/281/706 8/282/707 195/277/708
f 4/276/709 6/281/710 195/277/711
f 21/280/712 19/283/713 195/277/714
f 19/283/715 17/278/716 195/277/717
f 39/284/718 36/285/719 195/277/720
f 36/285/721 43/286/722 195/277/723
f 47/287/724 49/288/725 195/277/726
f 8/282/727 41/289/728 195/277/729
f 41/289/730 39/284/731 195/277/732
f 45/290/733 47/287/734 195/277/735
f 43/286/736 45/290/737 195/277/738
f 135/291/739 132/292/740 195/277/741
f 132/292/742 141/293/743 195/277/744
f 145/294/745 23/279/746 195/277/747
f 139/295/748 137/296/749 195/277/750
f 137/296/751 135/291/752 195/277/753
f 143/297/754 145/294/755 195/277/756
f 141/293/757 143/297/758 195/277/759
f 149/298/760 152/299/761 195/277/762
f 163/300/763 149/298/764 195/277/765
f 49/288/766 167/301/767 195/277/768
f 154/302/769 139/295/770 195/277/771
f 152/299/772 154/302/773 195/277/774
f 167/301/775 165/303/776 195/277/777
f 165/303/778 163/300/779 195/277/780
f 28/304/781 31/305/782 196/306/783
f 42/307/784 28/304/785 196/306/786
f 48/308/787 46/309/788 196/306/789
f 33/310/790 35/311/791 196/306/792
f 31/305/793 33/310/794 196/306/795
f 46/309/796 44/312/797 196/306/798
f 44/312/799 42/307/800 196/306/801
f 64/313/802 61/314/803 196/306/804
f 61/314/805 68/315/806 196/306/807
f 72/316/808 74/317/809 196/306/810
f 35/311/811 66/318/812 196/306/813
f 66/318/814 64/313/815 196/306/816
f 70/319/817 72/316/818 196/306/819
f 68/315/820 70/319/821 196/306/822
f 158/320/823 155/321/824 196/306/825
f 155/321/826 164/322/827 196/306/828
f 168/323/829 48/308/830 196/306/831
f 162/324/832 160/325/833 196/306/834
f 160/325/835 158/320/836 196/306/837
f 166/326/838 168/323/839 196/306/840
f 164/322/841 166/326/842 196/306/843
f 172/327/844 175/328/845 196/306/846
f 184/329/847 172/327/848 196/306/849
f 74/317/850 188/330/851 196/306/852
f 177/331/853 162/324/854 196/306/855
f 175/328/856 177/331/857 196/306/858
f 188/330/859 186/332/860 196/306/861
f 186/332/862 184/329/863 196/306/864
f 53/333/865 56/334/866 197/335/867
f 67/336/868 53/333/869 197/335/870
f 73/337/871 71/338/872 197/335/873
f 58/339/874 60/340/875 197/335/876
f 56/334/877 58/339/878 197/335/879
f 71/338/880 69/341/881 197/335/882
f 69/341/883 67/336/884 197/335/885
f 87/342/886 84/343/887 197/335/888
f 84/343/889 91/344/890 197/335/891
f 95/345/892 97/346/893 197/335/894
f 60/340/895 89/347/896 197/335/897
f 89/347/898 87/342/899 197/335/900
f 93/348/901 95/345/902 197/335/903
f 91/344/904 93/348/905 197/335/906
f 101/349/907 104/350/908 197/335/909
f 117/351/910 101/349/911 197/335/912
f 97/346/913 121/352/914 197/335/915
f 106/353/916 108/354/917 197/335/918
f 104/350/919 106/353/920 197/335/921
f 121/352/922 119/355/923 197/335/924
f 119/355/925 117/351/926 197/335/927
f 181/356/928 178/357/929 197/335/930
f 178/357/931 185/358/932 197/335/933
f 189/359/934 73/337/935 197/335/936
f 108/354/937 183/360/938 197/335/939
f 183/360/940 181/356/941 197/335/942
f 187/361/943 189/359/944 197/335/945
f 185/358/946 187/361/947 197/335/948
f 103/362/949 102/363/950 198/364/951
f 105/365/952 103/362/953 198/364/954
f 110/366/955 111/367/956 198/364/957
f 113/368/958 115/369/959 198/364/960
f 102/363/961 110/366/962 198/364/963
f 111/367/964 113/368/965 198/364/966
f 107/370/967 105/365/968 198/364/969
f 128/371/970 127/372/971 198/364/972
f 130/373/973 128/371/974 198/364/975
f 133/374/976 134/375/977 198/364/978
f 136/376/979 138/377/980 198/364/981
f 127/372/982 133/374/983 198/364/984
f 134/375/985 136/376/986 198/364/987
f 115/369/988 130/373/989 198/364/990
f 151/378/991 150/379/992 198/364/993
f 153/380/994 151/378/995 198/364/996
f 156/381/997 157/382/998 198/364/999
f 159/383/1000 161/384/1001 198/364/1002
f 150/379/1003 156/381/1004 198/364/1005
f 157/382/1006 159/383/1007 198/364/1008
f 138/377/1009 153/380/1010 198/364/1011
f 174/385/1012 173/386/1013 198/364/1014
f 176/387/1015 174/385/1016 198/364/1017
f 179/388/1018 180/389/1019 198/364/1020
f 182/390/1021 107/370/1022 198/364/1023
f 173/386/1024 179/388/1025 198/364/1026
f 180/389/1027 182/390/1028 198/364/1029
f 161/384/1030 176/387/1031 198/364/1032