g default
v -0.000000 0.706130 1.142543
v 0.725111 0.725113 0.725112
v 0.706130 1.142542 0.000000
v 0.000000 1.173255 0.448145
v -0.725112 0.725111 0.725113
v -1.142545 -0.000001 0.706131
v -0.448145 0.000001 1.173256
v -0.000001 0.706130 -1.142542
v 0.000000 1.173255 -0.448144
v 0.725111 0.725113 -0.725111
v -0.706131 1.142544 0.000001
v -0.725113 0.725112 -0.725110
v -1.142543 -0.000000 -0.706130
v -1.173256 0.448144 -0.000001
v -0.000001 -0.706130 -1.142542
v -0.448143 -0.000000 -1.173256
v 0.448142 -0.000000 -1.173255
v 1.142543 -0.000000 -0.706132
v 1.173256 0.448143 0.000001
v 1.142541 0.000001 0.706131
v 1.173256 -0.448143 0.000000
v -0.000001 -0.706130 1.142543
v 0.725111 -0.725111 0.725113
v 0.448144 -0.000001 1.173255
v -0.725111 -0.725113 0.725112
v -0.706130 -1.142543 -0.000000
v -0.000001 -1.173255 0.448145
v -0.725113 -0.725112 -0.725111
v -1.173256 -0.448144 -0.000001
v 0.706131 -1.142544 0.000001
v 0.000000 -1.173255 -0.448144
v 0.725111 -0.725113 -0.725112
vt 0.127227 0.799998
vt 0.253194 0.858942
vt 0.253194 0.998017
vt 0.127227 0.939074
vt 0.654452 0.325967
vt 0.713396 0.200000
vt 0.852471 0.200000
vt 0.793528 0.325967
vt 0.454452 0.798018
vt 0.454452 0.658942
vt 0.580419 0.599998
vt 0.580419 0.739074
vt 0.580420 0.598018
vt 0.454453 0.539075
vt 0.454453 0.399999
vt 0.580420 0.458942
vt 0.127227 0.599998
vt 0.266302 0.599999
vt 0.325245 0.725966
vt 0.186170 0.725966
vt 0.125967 0.200000
vt 0.125967 0.339075
vt 0.000000 0.398018
vt 0.000000 0.258943
vt 0.579699 0.799998
vt 0.520756 0.925965
vt 0.381680 0.925965
vt 0.440624 0.799998
vt 0.453194 0.200000
vt 0.453193 0.339075
vt 0.327226 0.398019
vt 0.327226 0.258943
vt 0.327226 0.399999
vt 0.453193 0.458942
vt 0.453193 0.598018
vt 0.327226 0.539075
vt 0.581680 0.000000
vt 0.720756 0.000001
vt 0.779699 0.125968
vt 0.640623 0.125967
vt 0.000000 0.998017
vt 0.000000 0.858942
vt 0.125967 0.799998
vt 0.125967 0.939074
vt 0.125967 0.198019
vt 0.000000 0.139076
vt 0.000000 0.000000
vt 0.125967 0.058943
vt 0.779699 0.399999
vt 0.720756 0.525966
vt 0.581680 0.525966
vt 0.640623 0.399999
vt 0.380420 0.799998
vt 0.380420 0.939074
vt 0.254453 0.998017
vt 0.254453 0.858942
vt 0.652472 0.325967
vt 0.513396 0.325967
vt 0.454453 0.200000
vt 0.593529 0.200000
vt 0.000000 0.598018
vt 0.000000 0.458942
vt 0.125967 0.399999
vt 0.125967 0.539075
vt 0.253194 0.198019
vt 0.127227 0.139076
vt 0.127227 0.000000
vt 0.253194 0.058943
vt 0.779699 0.725965
vt 0.640623 0.725965
vt 0.581679 0.599998
vt 0.720755 0.599998
vt 0.980419 0.200000
vt 0.980419 0.339075
vt 0.854452 0.398019
vt 0.854452 0.258943
vt 0.707647 0.799998
vt 0.707646 0.939074
vt 0.581680 0.998017
vt 0.581680 0.858942
vt 0.781679 0.000000
vt 0.920755 0.000000
vt 0.979698 0.125967
vt 0.840622 0.125967
vt 0.781679 0.725965
vt 0.840622 0.599998
vt 0.979698 0.599998
vt 0.920754 0.725965
vt 0.325246 0.525966
vt 0.186170 0.525966
vt 0.127227 0.399999
vt 0.266303 0.399999
vt 0.579700 0.000000
vt 0.520757 0.125967
vt 0.381681 0.125967
vt 0.440624 0.000000
vt 0.325246 0.325967
vt 0.186170 0.325967
vt 0.127227 0.200000
vt 0.266303 0.200000
vt 0.906925 0.925965
vt 0.767850 0.925965
vt 0.708906 0.799998
vt 0.847982 0.799998
vt 0.781679 0.399999
vt 0.920755 0.399999
vt 0.979698 0.525966
vt 0.840622 0.525966
vt 0.000000 0.599998
vt 0.125967 0.658942
vt 0.125967 0.798017
vt 0.000000 0.739074
vt 0.327226 0.798018
vt 0.327226 0.658942
vt 0.453193 0.599998
vt 0.453193 0.739074
vt 0.254454 0.198019
vt 0.254454 0.058943
vt 0.380421 0.000000
vt 0.380421 0.139076
vn 0.309017 0.809017 0.500000
vn 0.309017 0.809017 0.500000
vn 0.309017 0.809017 0.500000
vn 0.309017 0.809017 0.500000
vn -0.309016 0.809017 0.500001
vn -0.309016 0.809017 0.500001
vn -0.309016 0.809017 0.500001
vn -0.309016 0.809017 0.500001
vn -0.500000 0.309017 0.809017
vn -0.500000 0.309017 0.809017
vn -0.500000 0.309017 0.809017
vn -0.500000 0.309017 0.809017
vn -0.000000 0.000000 1.000000
vn -0.000000 0.000000 1.000000
vn -0.000000 0.000000 1.000000
vn -0.000000 0.000000 1.000000
vn 0.500000 0.309017 0.809017
vn 0.500000 0.309017 0.809017
vn 0.500000 0.309017 0.809017
vn 0.500000 0.309017 0.809017
vn 0.000002 1.000000 0.000000
vn 0.000002 1.000000 0.000000
vn 0.000002 1.000000 0.000000
vn 0.000002 1.000000 0.000000
vn 0.309017 0.809017 -0.500000
vn 0.309017 0.809017 -0.500000
vn 0.309017 0.809017 -0.500000
vn 0.309017 0.809017 -0.500000
vn 0.809017 0.500001 -0.309017
vn 0.809017 0.500001 -0.309017
vn 0.809017 0.500001 -0.309017
vn 0.809017 0.500001 -0.309017
vn 0.809017 0.500000 0.309018
vn 0.809017 0.500000 0.309018
vn 0.809017 0.500000 0.309018
vn 0.809017 0.500000 0.309018
vn -0.309017 0.809017 -0.500001
vn -0.309017 0.809017 -0.500001
vn -0.309017 0.809017 -0.500001
vn -0.309017 0.809017 -0.500001
vn -0.809017 0.500000 -0.309017
vn -0.809017 0.500000 -0.309017
vn -0.809017 0.500000 -0.309017
vn -0.809017 0.500000 -0.309017
vn -0.809017 0.500000 0.309017
vn -0.809017 0.500000 0.309017
vn -0.809017 0.500000 0.309017
vn -0.809017 0.500000 0.309017
vn -0.500000 0.309017 -0.809017
vn -0.500000 0.309017 -0.809017
vn -0.500000 0.309017 -0.809017
vn -0.500000 0.309017 -0.809017
vn 0.000000 -0.000000 -1.000000
vn 0.000000 -0.000000 -1.000000
vn 0.000000 -0.000000 -1.000000
vn 0.000000 -0.000000 -1.000000
vn 0.499999 0.309018 -0.809017
vn 0.499999 0.309018 -0.809018
vn 0.499999 0.309018 -0.809018
vn 0.499999 0.309018 -0.809018
vn 0.499999 -0.309018 -0.809018
vn 0.499999 -0.309018 -0.809018
vn 0.499999 -0.309018 -0.809018
vn 0.499999 -0.309018 -0.809018
vn 0.809017 -0.500000 -0.309017
vn 0.809017 -0.500000 -0.309017
vn 0.809017 -0.500000 -0.309017
vn 0.809017 -0.500000 -0.309017
vn 1.000000 -0.000000 0.000001
vn 1.000000 -0.000000 0.000001
vn 1.000000 -0.000000 0.000001
vn 1.000000 -0.000000 0.000001
vn 0.809018 -0.499998 0.309018
vn 0.809018 -0.499998 0.309018
vn 0.809018 -0.499998 0.309018
vn 0.809018 -0.499998 0.309018
vn 0.500000 -0.309016 0.809017
vn 0.500000 -0.309016 0.809017
vn 0.500000 -0.309016 0.809017
vn 0.500000 -0.309016 0.809017
vn 0.309016 -0.809017 0.500001
vn 0.309016 -0.809016 0.500001
vn 0.309016 -0.809016 0.500001
vn 0.309016 -0.809016 0.500001
vn -0.309017 -0.809017 0.500000
vn -0.309017 -0.809017 0.500000
vn -0.309017 -0.809017 0.500000
vn -0.309017 -0.809017 0.500000
vn -0.500000 -0.309017 0.809017
vn -0.500000 -0.309017 0.809017
vn -0.500000 -0.309017 0.809017
vn -0.500000 -0.309017 0.809017
vn -0.809016 -0.500001 0.309017
vn -0.809016 -0.500001 0.309017
vn -0.809016 -0.500001 0.309017
vn -0.809016 -0.500001 0.309017
vn -1.000000 -0.000000 -0.000001
vn -1.000000 -0.000000 -0.000001
vn -1.000000 -0.000000 -0.000001
vn -1.000000 -0.000000 -0.000001
vn -0.809017 -0.500000 -0.309017
vn -0.809017 -0.500000 -0.309017
vn -0.809017 -0.500000 -0.309017
vn -0.809017 -0.500000 -0.309017
vn -0.500000 -0.309017 -0.809017
vn -0.500000 -0.309017 -0.809017
vn -0.500000 -0.309017 -0.809017
vn -0.500000 -0.309017 -0.809017
vn -0.309017 -0.809017 -0.500000
vn -0.309017 -0.809017 -0.500000
vn -0.309017 -0.809017 -0.500000
vn -0.309017 -0.809017 -0.500000
vn 0.309017 -0.809017 -0.500001
vn 0.309017 -0.809017 -0.500000
vn 0.309017 -0.809017 -0.500000
vn 0.309017 -0.809017 -0.500001
vn -0.000001 -1.000000 -0.000000
vn -0.000001 -1.000000 -0.000000
vn -0.000001 -1.000000 -0.000000
vn -0.000001 -1.000000 -0.000000
s off
g Dice_3
usemtl lambert2SG
f 1/1/1 2/2/2 3/3/3 4/4/4
f 1/5/5 4/6/6 11/7/7 5/8/8
f 1/9/9 5/10/10 6/11/11 7/12/12
f 1/13/13 7/14/14 22/15/15 24/16/16
f 1/17/17 24/18/18 20/19/19 2/20/20
f 11/21/21 4/22/22 3/23/23 9/24/24
f 8/25/25 9/26/26 3/27/27 10/28/28
f 18/29/29 10/30/30 3/31/31 19/32/32
f 20/33/33 19/34/34 3/35/35 2/36/36
f 11/37/37 9/38/38 8/39/39 12/40/40
f 11/41/41 12/42/42 13/43/43 14/44/44
f 11/45/45 14/46/46 6/47/47 5/48/48
f 13/49/49 12/50/50 8/51/51 16/52/52
f 15/53/53 16/54/54 8/55/55 17/56/56
f 18/57/57 17/58/58 8/59/59 10/60/60
f 18/61/61 32/62/62 15/63/63 17/64/64
f 18/65/65 21/66/66 30/67/67 32/68/68
f 18/69/69 19/70/70 20/71/71 21/72/72
f 30/73/73 21/74/74 20/75/75 23/76/76
f 22/77/77 23/78/78 20/79/79 24/80/80
f 22/81/81 27/82/82 30/83/83 23/84/84
f 22/85/85 25/86/86 26/87/87 27/88/88
f 22/89/89 7/90/90 6/91/91 25/92/92
f 26/93/93 25/94/94 6/95/95 29/96/96
f 13/97/97 29/98/98 6/99/99 14/100/100
f 13/101/101 28/102/102 26/103/103 29/104/104
f 13/105/105 16/106/106 15/107/107 28/108/108
f 26/109/109 28/110/110 15/111/111 31/112/112
f 30/113/113 31/114/114 15/115/115 32/116/116
f 30/117/117 27/118/118 26/119/119 31/120/120