g default
v 0.176146 -0.098607 0.406177
v 0.176146 -0.137236 0.367548
v 0.176146 -0.137236 0.312919
v 0.176146 -0.098607 0.274291
v 0.236798 -0.005350 0.312919
v 0.236798 -0.005350 0.367548
v 0.236798 -0.043978 0.406177
v 0.236798 -0.098607 0.406177
v 0.236798 -0.137236 0.367548
v 0.236798 -0.137236 0.312919
v 0.236798 -0.098607 0.274291
v 0.236798 -0.043978 0.274291
v 0.222883 -0.005350 0.367548
v 0.222883 -0.005350 0.312919
v 0.222883 -0.043978 0.274291
v 0.222883 -0.098607 0.274291
v 0.222883 -0.137236 0.312919
v 0.222883 -0.137236 0.367548
v 0.222883 -0.098607 0.406177
v 0.222883 -0.043978 0.406177
v 0.244761 -0.012351 0.315819
v 0.244761 -0.012351 0.364648
v 0.244761 -0.071293 0.340234
v 0.244761 -0.046879 0.399175
v 0.244761 -0.095707 0.399175
v 0.244761 -0.130235 0.364648
v 0.244761 -0.130235 0.315819
v 0.244761 -0.095707 0.281292
v 0.244761 -0.046879 0.281292
v 0.176146 -0.098607 -0.162681
v 0.176146 -0.137236 -0.201309
v 0.176146 -0.137236 -0.255938
v 0.176146 -0.098607 -0.294567
v 0.236798 -0.005350 -0.255938
v 0.236798 -0.005350 -0.201309
v 0.236798 -0.043978 -0.162681
v 0.236798 -0.098607 -0.162681
v 0.236798 -0.137236 -0.201309
v 0.236798 -0.137236 -0.255938
v 0.236798 -0.098607 -0.294567
v 0.236798 -0.043978 -0.294567
v 0.222883 -0.005350 -0.201309
v 0.222883 -0.005350 -0.255938
v 0.222883 -0.043978 -0.294567
v 0.222883 -0.098607 -0.294567
v 0.222883 -0.137236 -0.255938
v 0.222883 -0.137236 -0.201309
v 0.222883 -0.098607 -0.162681
v 0.222883 -0.043978 -0.162681
v 0.244761 -0.012351 -0.253038
v 0.244761 -0.012351 -0.204209
v 0.244761 -0.071293 -0.228624
v 0.244761 -0.046879 -0.169682
v 0.244761 -0.095707 -0.169682
v 0.244761 -0.130235 -0.204209
v 0.244761 -0.130235 -0.253038
v 0.244761 -0.095707 -0.287565
v 0.244761 -0.046879 -0.287565
v 0.222883 -0.098607 0.076370
v 0.000000 0.120601 -0.094108
v 0.000000 -0.098607 0.408351
v 0.000000 -0.098607 0.076370
v 0.000000 -0.098607 -0.294567
v 0.000000 -0.068795 -0.531566
v 0.000000 0.057573 -0.359655
v 0.000000 0.075516 -0.222924
v 0.107646 -0.068795 -0.525303
v 0.187541 -0.070366 -0.501884
v 0.205080 -0.074160 -0.483035
v 0.176146 -0.098607 0.076370
v 0.134195 0.137232 0.128792
v 0.111289 0.122953 -0.062363
v 0.162446 0.068898 -0.184285
v 0.171466 0.057573 -0.359655
v 0.189251 0.078139 0.076370
v 0.189251 0.068898 -0.033808
v 0.121773 0.084706 0.426396
v 0.000000 0.084706 0.453607
v 0.168140 0.083931 0.270866
v 0.123599 0.124408 0.264988
v 0.000000 0.124408 0.264988
v 0.000000 -0.098607 0.242360
v 0.000000 -0.079818 0.526849
v 0.121655 -0.079767 0.521767
v 0.198652 0.070007 0.481644
v 0.212055 0.050784 0.498543
v 0.212055 -0.079864 0.506241
v 0.000000 0.050784 0.526849
v 0.000000 0.070007 0.509949
v 0.118738 0.070007 0.504867
v 0.121655 0.050784 0.521767
v 0.000000 -0.001933 -0.513693
v 0.000000 -0.017949 -0.531566
v 0.107646 -0.017951 -0.525303
v 0.112379 0.000510 -0.507429
v 0.212834 0.040760 -0.354839
v 0.200891 0.051896 -0.359655
v 0.205080 -0.007022 -0.484402
v 0.188252 0.000510 -0.486807
v 0.187541 -0.014909 -0.502273
v 0.218961 0.050955 -0.184285
v 0.207041 0.063222 -0.184285
v 0.222883 0.057205 -0.033808
v 0.210963 0.068898 -0.033808
v 0.210963 0.075249 0.259592
v 0.222883 0.062678 0.252618
v 0.210963 0.072162 0.076370
v 0.222883 0.060229 0.076370
v 0.000000 -0.098607 -0.162681
v 0.210221 0.076232 0.426413
v 0.222883 0.060335 0.426378
v 0.222883 -0.098607 -0.043156
v 0.176146 -0.098607 -0.043155
v 0.000000 -0.098607 -0.043155
v 0.084223 0.072603 -0.215395
v 0.058233 0.120568 -0.089623
v 0.054404 0.124408 0.264988
v 0.053601 0.084706 0.441630
v 0.052264 0.070007 0.507712
v 0.053548 0.050784 0.524612
v 0.053548 -0.079796 0.524612
v 0.077534 -0.098607 0.407394
v 0.077534 -0.098607 0.256415
v 0.077534 -0.098607 0.076370
v 0.077534 -0.098607 -0.043155
v 0.077534 -0.098607 -0.162681
v 0.077534 -0.098607 -0.294567
v 0.047382 -0.068795 -0.528809
v 0.047382 -0.017950 -0.528809
v 0.049465 -0.000858 -0.510936
v 0.075474 0.057573 -0.359655
v 0.000000 -0.098607 0.012811
v 0.077534 -0.098607 0.012811
v 0.176146 -0.098607 0.012811
v 0.222883 -0.098607 0.012811
v 0.222883 0.058621 0.017782
v 0.210963 0.070427 0.017782
v 0.194088 0.073225 0.017782
v 0.129756 0.135557 0.023722
v 0.056012 0.137227 0.128741
v 0.000000 0.137236 0.128843
v 0.000000 0.135557 0.023722
v 0.056979 0.135557 0.023722
v 0.222883 -0.043978 0.076370
v 0.222883 -0.043978 0.015219
v 0.222883 -0.043978 -0.038597
v 0.053548 -0.014506 0.530764
v 0.121655 -0.011501 0.527919
v 0.212055 -0.014540 0.508544
v -0.176146 -0.098607 0.406177
v -0.176146 -0.137236 0.367548
v -0.176146 -0.137236 0.312919
v -0.176146 -0.098607 0.274291
v -0.236798 -0.005350 0.312919
v -0.236798 -0.005350 0.367548
v -0.236798 -0.043978 0.406177
v -0.236798 -0.098607 0.406177
v -0.236798 -0.137236 0.367548
v -0.236798 -0.137236 0.312919
v -0.236798 -0.098607 0.274291
v -0.236798 -0.043978 0.274291
v -0.222883 -0.005350 0.367548
v -0.222883 -0.005350 0.312919
v -0.222883 -0.043978 0.274291
v -0.222883 -0.098607 0.274291
v -0.222883 -0.137236 0.312919
v -0.222883 -0.137236 0.367548
v -0.222883 -0.098607 0.406177
v -0.222883 -0.043978 0.406177
v -0.244761 -0.012351 0.315819
v -0.244761 -0.012351 0.364648
v -0.244761 -0.071293 0.340234
v -0.244761 -0.046879 0.399175
v -0.244761 -0.095707 0.399175
v -0.244761 -0.130235 0.364648
v -0.244761 -0.130235 0.315819
v -0.244761 -0.095707 0.281292
v -0.244761 -0.046879 0.281292
v -0.176146 -0.098607 -0.162681
v -0.176146 -0.137236 -0.201309
v -0.176146 -0.137236 -0.255938
v -0.176146 -0.098607 -0.294567
v -0.236798 -0.005350 -0.255938
v -0.236798 -0.005350 -0.201309
v -0.236798 -0.043978 -0.162681
v -0.236798 -0.098607 -0.162681
v -0.236798 -0.137236 -0.201309
v -0.236798 -0.137236 -0.255938
v -0.236798 -0.098607 -0.294567
v -0.236798 -0.043978 -0.294567
v -0.222883 -0.005350 -0.201309
v -0.222883 -0.005350 -0.255938
v -0.222883 -0.043978 -0.294567
v -0.222883 -0.098607 -0.294567
v -0.222883 -0.137236 -0.255938
v -0.222883 -0.137236 -0.201309
v -0.222883 -0.098607 -0.162681
v -0.222883 -0.043978 -0.162681
v -0.244761 -0.012351 -0.253038
v -0.244761 -0.012351 -0.204209
v -0.244761 -0.071293 -0.228624
v -0.244761 -0.046879 -0.169682
v -0.244761 -0.095707 -0.169682
v -0.244761 -0.130235 -0.204209
v -0.244761 -0.130235 -0.253038
v -0.244761 -0.095707 -0.287565
v -0.244761 -0.046879 -0.287565
v -0.222883 -0.098607 0.076370
v -0.107646 -0.068795 -0.525303
v -0.187541 -0.070366 -0.501884
v -0.205080 -0.074160 -0.483035
v -0.176146 -0.098607 0.076370
v -0.134195 0.137232 0.128792
v -0.111289 0.122953 -0.062363
v -0.162446 0.068898 -0.184285
v -0.171466 0.057573 -0.359655
v -0.189251 0.078139 0.076370
v -0.189251 0.068898 -0.033808
v -0.121773 0.084706 0.426396
v -0.168140 0.083931 0.270866
v -0.123599 0.124408 0.264988
v -0.121655 -0.079767 0.521767
v -0.198652 0.070007 0.481644
v -0.212055 0.050784 0.498543
v -0.212055 -0.079864 0.506241
v -0.118738 0.070007 0.504867
v -0.121655 0.050784 0.521767
v -0.107646 -0.017951 -0.525303
v -0.112379 0.000510 -0.507429
v -0.212834 0.040760 -0.354839
v -0.200891 0.051896 -0.359655
v -0.205080 -0.007022 -0.484402
v -0.188252 0.000510 -0.486807
v -0.187541 -0.014909 -0.502273
v -0.218961 0.050955 -0.184285
v -0.207041 0.063222 -0.184285
v -0.222883 0.057205 -0.033808
v -0.210963 0.068898 -0.033808
v -0.210963 0.075249 0.259592
v -0.222883 0.062678 0.252618
v -0.210963 0.072162 0.076370
v -0.222883 0.060229 0.076370
v -0.210221 0.076232 0.426413
v -0.222883 0.060335 0.426378
v -0.222883 -0.098607 -0.043156
v -0.176146 -0.098607 -0.043155
v -0.084223 0.072603 -0.215395
v -0.058233 0.120568 -0.089623
v -0.054404 0.124408 0.264988
v -0.053601 0.084706 0.441630
v -0.052264 0.070007 0.507712
v -0.053548 0.050784 0.524612
v -0.053548 -0.079796 0.524612
v -0.077534 -0.098607 0.407394
v -0.077534 -0.098607 0.256415
v -0.077534 -0.098607 0.076370
v -0.077534 -0.098607 -0.043155
v -0.077534 -0.098607 -0.162681
v -0.077534 -0.098607 -0.294567
v -0.047382 -0.068795 -0.528809
v -0.047382 -0.017950 -0.528809
v -0.049465 -0.000858 -0.510936
v -0.075474 0.057573 -0.359655
v -0.077534 -0.098607 0.012811
v -0.176146 -0.098607 0.012811
v -0.222883 -0.098607 0.012811
v -0.222883 0.058621 0.017782
v -0.210963 0.070427 0.017782
v -0.194088 0.073225 0.017782
v -0.129756 0.135557 0.023722
v -0.056012 0.137227 0.128741
v -0.056979 0.135557 0.023722
v -0.222883 -0.043978 0.076370
v -0.222883 -0.043978 0.015219
v -0.222883 -0.043978 -0.038597
v -0.053548 -0.014506 0.530764
v -0.121655 -0.011501 0.527919
v -0.212055 -0.014540 0.508544
v 0.000000 -0.013911 0.531566
vt 0.279812 0.107713
vt 0.241515 0.107713
vt 0.260663 0.061483
vt 0.214435 0.080632
vt 0.214434 0.042335
vt 0.241515 0.015255
vt 0.279812 0.015255
vt 0.306892 0.042336
vt 0.306892 0.080632
vt 0.729978 0.954965
vt 0.700000 0.942584
vt 0.704290 0.935433
vt 0.732278 0.946950
vt 0.762105 0.959182
vt 0.762257 0.950853
vt 0.794196 0.954968
vt 0.792195 0.946890
vt 0.824081 0.942628
vt 0.820063 0.935343
vt 0.849790 0.922993
vt 0.843883 0.916901
vt 0.870459 0.896567
vt 0.863191 0.891063
vt 0.674232 0.922906
vt 0.653150 0.896866
vt 0.659783 0.891496
vt 0.680037 0.917135
vt 0.890097 0.955539
vt 0.890097 0.928012
vt 0.922272 0.928012
vt 0.922273 0.955539
vt 0.954447 0.928012
vt 0.954447 0.955539
vt 0.986622 0.928012
vt 0.986622 0.955539
vt 0.956856 0.689626
vt 0.911354 0.689626
vt 0.918017 0.666874
vt 0.950192 0.666874
vt 0.707429 0.929889
vt 0.733878 0.940797
vt 0.684612 0.912480
vt 0.666441 0.888676
vt 0.839441 0.912555
vt 0.856965 0.888676
vt 0.816867 0.929877
vt 0.790518 0.940773
vt 0.762216 0.944503
vt 0.762684 0.122749
vt 0.724386 0.122749
vt 0.743534 0.076520
vt 0.697305 0.095668
vt 0.697305 0.057372
vt 0.724386 0.030291
vt 0.762684 0.030291
vt 0.789763 0.057372
vt 0.789763 0.095668
vt 0.734545 0.808587
vt 0.704555 0.796202
vt 0.708847 0.789048
vt 0.736844 0.800569
vt 0.766675 0.812800
vt 0.766825 0.804472
vt 0.798759 0.808574
vt 0.796755 0.800501
vt 0.828627 0.796222
vt 0.824606 0.788942
vt 0.854312 0.776576
vt 0.848403 0.770490
vt 0.874955 0.750145
vt 0.867685 0.744649
vt 0.678775 0.776514
vt 0.657684 0.750461
vt 0.664320 0.745089
vt 0.684583 0.770741
vt 0.889848 0.869144
vt 0.889848 0.841617
vt 0.922023 0.841617
vt 0.922023 0.869144
vt 0.954198 0.841617
vt 0.954198 0.869144
vt 0.986373 0.841617
vt 0.986373 0.869144
vt 0.957189 0.727159
vt 0.911686 0.727159
vt 0.918350 0.704406
vt 0.950525 0.704406
vt 0.711987 0.783503
vt 0.738445 0.794416
vt 0.689160 0.766084
vt 0.670981 0.742266
vt 0.843960 0.766149
vt 0.861460 0.742266
vt 0.821408 0.783480
vt 0.795076 0.794387
vt 0.766783 0.798122
vt 0.679836 0.233375
vt 0.808712 0.239984
vt 0.807781 0.306752
vt 0.701245 0.295981
vt 0.921169 0.276980
vt 0.928155 0.323256
vt 0.990502 0.318692
vt 0.947606 0.323675
vt 0.940678 0.277546
vt 0.979980 0.266095
vt 0.916952 0.223792
vt 0.953191 0.197947
vt 0.173362 0.899621
vt 0.162788 0.957843
vt 0.084915 0.957817
vt 0.084217 0.899592
vt 0.636056 0.917545
vt 0.498671 0.957947
vt 0.498690 0.899722
vt 0.638121 0.881962
vt 0.193328 0.318463
vt 0.140245 0.319656
vt 0.142707 0.267963
vt 0.205053 0.264378
vt 0.202692 0.194490
vt 0.333599 0.186876
vt 0.326230 0.221292
vt 0.334625 0.266625
vt 0.333466 0.319202
vt 0.474376 0.200219
vt 0.474339 0.181877
vt 0.156552 0.201581
vt 0.279652 0.957879
vt 0.279670 0.899654
vt 0.683631 0.198154
vt 0.563854 0.202343
vt 0.565058 0.185279
vt 0.522447 0.196937
vt 0.523005 0.182941
vt 0.420799 0.957923
vt 0.420817 0.899697
vt 0.350225 0.957901
vt 0.350243 0.899676
vt 0.317198 0.899666
vt 0.317180 0.957891
vt 0.333204 0.360673
vt 0.184167 0.360495
vt 0.138757 0.360440
vt 0.181675 0.853844
vt 0.083669 0.853813
vt 0.279684 0.853874
vt 0.317212 0.853885
vt 0.350257 0.853895
vt 0.420831 0.853917
vt 0.498704 0.853941
vt 0.639745 0.853984
vt 0.993459 0.361198
vt 0.949904 0.361167
vt 0.931149 0.361154
vt 0.807371 0.361065
vt 0.705973 0.360989
vt 0.577628 0.277305
vt 0.436257 0.262438
vt 0.598802 0.317003
vt 0.435764 0.319535
vt 0.512571 0.265248
vt 0.513131 0.318684
vt 0.602132 0.360909
vt 0.435531 0.360769
vt 0.513275 0.360837
vt 0.901912 0.213741
vt 0.941329 0.176867
vt 0.622454 0.964555
vt 0.610881 0.975067
vt 0.902066 0.226372
vt 0.810714 0.219209
vt 0.162780 0.985439
vt 0.279643 0.985475
vt 0.317610 0.081713
vt 0.480236 0.082098
vt 0.474829 0.166526
vt 0.340150 0.168914
vt 0.523799 0.168983
vt 0.317500 0.036325
vt 0.481880 0.036325
vt 0.531541 0.084872
vt 0.317171 0.985487
vt 0.350216 0.985497
vt 0.536588 0.038745
vt 0.576714 0.088347
vt 0.566357 0.170878
vt 0.810242 0.204997
vt 0.498663 0.985544
vt 0.789084 0.126576
vt 0.810067 0.085988
vt 0.686001 0.181905
vt 0.420790 0.985519
vt 0.584913 0.042707
vt 0.686702 0.055155
vt 0.680836 0.101676
vt 0.707690 0.139002
vt 0.747678 0.150044
vt 0.084919 0.985414
vt 0.024806 0.979029
vt 0.015769 0.925628
vt 0.201358 0.177738
vt 0.140370 0.182962
vt 0.121662 0.129656
vt 0.205541 0.090770
vt 0.114876 0.073622
vt 0.198231 0.044166
vt 0.242327 0.119190
vt 0.287148 0.116144
vt 0.073183 0.261416
vt 0.078917 0.185259
vt 0.134728 0.190386
vt 0.122760 0.265272
vt 0.016272 0.256606
vt 0.023942 0.179406
vt 0.278684 0.619251
vt 0.259537 0.665480
vt 0.240388 0.619251
vt 0.213307 0.646331
vt 0.213307 0.684628
vt 0.240388 0.711709
vt 0.278684 0.711709
vt 0.305765 0.684628
vt 0.305765 0.646331
vt 0.794775 0.859363
vt 0.792475 0.851348
vt 0.820462 0.839827
vt 0.824752 0.846978
vt 0.762650 0.863583
vt 0.762498 0.855255
vt 0.730559 0.859370
vt 0.732561 0.851292
vt 0.700675 0.847025
vt 0.704695 0.839740
vt 0.674970 0.827384
vt 0.680879 0.821293
vt 0.654307 0.800952
vt 0.661577 0.795450
vt 0.850519 0.827296
vt 0.844713 0.821526
vt 0.864965 0.795884
vt 0.871598 0.801253
vt 0.889972 0.886311
vt 0.922147 0.886311
vt 0.922147 0.913838
vt 0.889972 0.913838
vt 0.954322 0.886311
vt 0.954322 0.913838
vt 0.986497 0.886311
vt 0.986497 0.913838
vt 0.912715 0.652867
vt 0.919379 0.630114
vt 0.951553 0.630114
vt 0.958217 0.652867
vt 0.790874 0.845196
vt 0.817321 0.834284
vt 0.840138 0.816871
vt 0.858307 0.793064
vt 0.667804 0.793064
vt 0.685322 0.816948
vt 0.707892 0.834275
vt 0.734239 0.845175
vt 0.762538 0.848904
vt 0.762720 0.593662
vt 0.743570 0.639891
vt 0.724422 0.593662
vt 0.697341 0.620743
vt 0.697341 0.659040
vt 0.724422 0.686121
vt 0.762720 0.686121
vt 0.789799 0.659040
vt 0.789799 0.620743
vt 0.795375 0.911220
vt 0.793073 0.903207
vt 0.821052 0.891684
vt 0.825344 0.898832
vt 0.763255 0.915445
vt 0.763101 0.907117
vt 0.731161 0.911237
vt 0.733161 0.903158
vt 0.701270 0.898895
vt 0.705288 0.891608
vt 0.675554 0.879252
vt 0.681464 0.873159
vt 0.654881 0.852815
vt 0.662151 0.847310
vt 0.851098 0.879148
vt 0.845293 0.873381
vt 0.865532 0.847740
vt 0.872165 0.853107
vt 0.889722 0.800017
vt 0.921898 0.800017
vt 0.921898 0.827544
vt 0.889722 0.827544
vt 0.954072 0.800017
vt 0.954072 0.827544
vt 0.986247 0.800017
vt 0.986247 0.827544
vt 0.912371 0.617879
vt 0.919035 0.595127
vt 0.951210 0.595127
vt 0.957873 0.617879
vt 0.791472 0.897056
vt 0.817912 0.886142
vt 0.840717 0.868728
vt 0.858876 0.844923
vt 0.668380 0.844923
vt 0.685908 0.868812
vt 0.708486 0.886142
vt 0.734837 0.897040
vt 0.763140 0.900767
vt 0.679643 0.488569
vt 0.701146 0.425989
vt 0.807702 0.415377
vt 0.808536 0.482149
vt 0.921049 0.445315
vt 0.928102 0.399047
vt 0.990442 0.403698
vt 0.979847 0.456282
vt 0.940560 0.444775
vt 0.947552 0.398655
vt 0.952959 0.524394
vt 0.916756 0.498497
vt 0.173390 0.808061
vt 0.084245 0.808036
vt 0.084979 0.749810
vt 0.162852 0.749833
vt 0.636095 0.790422
vt 0.638138 0.826007
vt 0.498718 0.808162
vt 0.498735 0.749935
vt 0.193233 0.402558
vt 0.204823 0.456714
vt 0.142445 0.452955
vt 0.140171 0.401207
vt 0.325959 0.500069
vt 0.333268 0.534516
vt 0.202301 0.526670
vt 0.334442 0.454738
vt 0.333384 0.402147
vt 0.474106 0.521407
vt 0.474038 0.539753
vt 0.156117 0.519490
vt 0.279716 0.749868
vt 0.279698 0.808094
vt 0.683386 0.523800
vt 0.564780 0.536495
vt 0.563601 0.519427
vt 0.522180 0.524768
vt 0.522715 0.538767
vt 0.420845 0.808137
vt 0.420863 0.749911
vt 0.350271 0.808115
vt 0.350289 0.749890
vt 0.317244 0.749880
vt 0.317226 0.808106
vt 0.577495 0.444477
vt 0.436085 0.459108
vt 0.598732 0.404810
vt 0.435692 0.402004
vt 0.513061 0.402990
vt 0.512413 0.456430
vt 0.941067 0.545458
vt 0.901701 0.508527
vt 0.610955 0.732884
vt 0.622522 0.743403
vt 0.901873 0.495896
vt 0.810508 0.502928
vt 0.162861 0.722237
vt 0.279724 0.722272
vt 0.317102 0.639698
vt 0.339790 0.552496
vt 0.474503 0.555107
vt 0.479779 0.639565
vt 0.523487 0.552729
vt 0.481354 0.685354
vt 0.316923 0.685099
vt 0.531100 0.636869
vt 0.317252 0.722284
vt 0.350298 0.722294
vt 0.536080 0.683015
vt 0.566056 0.550899
vt 0.576290 0.633462
vt 0.810015 0.517140
vt 0.498744 0.722339
vt 0.809670 0.636156
vt 0.788743 0.595536
vt 0.685732 0.540054
vt 0.420872 0.722315
vt 0.680448 0.620284
vt 0.686246 0.666822
vt 0.584422 0.679124
vt 0.747368 0.572007
vt 0.707361 0.582993
vt 0.015813 0.781957
vt 0.024883 0.728562
vt 0.085000 0.722214
vt 0.200935 0.543434
vt 0.139890 0.538105
vt 0.121083 0.591432
vt 0.204979 0.630478
vt 0.197595 0.677113
vt 0.114206 0.647507
vt 0.286680 0.605207
vt 0.241840 0.602089
vt 0.014142 0.822173
vt 0.072706 0.459260
vt 0.122461 0.455581
vt 0.134208 0.530654
vt 0.078206 0.535634
vt 0.023036 0.541313
vt 0.015613 0.463841
vt 0.120035 0.318395
vt 0.067651 0.316644
vt 0.014123 0.885412
vt 0.118813 0.360425
vt 0.013120 0.314598
vt 0.067150 0.360220
vt 0.012437 0.360057
vt 0.012830 0.853792
vt 0.119982 0.402404
vt 0.067349 0.403911
vt 0.012759 0.405625
vn 0.958820 0.262394 -0.108687
vn 0.958820 0.262394 0.108688
vn 1.000000 0.000000 0.000000
vn 0.958820 0.262394 0.108688
vn 0.958820 0.108687 0.262395
vn 1.000000 0.000000 0.000000
vn 0.958820 0.108687 0.262395
vn 0.958820 -0.108687 0.262395
vn 1.000000 0.000000 0.000000
vn 0.958820 -0.108687 0.262395
vn 0.958820 -0.262394 0.108687
vn 1.000000 0.000000 0.000000
vn 0.958820 -0.262394 0.108687
vn 0.958820 -0.262394 -0.108687
vn 1.000000 0.000000 0.000000
vn 0.958820 -0.262394 -0.108687
vn 0.958820 -0.108687 -0.262395
vn 1.000000 0.000000 0.000000
vn 0.958820 -0.108687 -0.262395
vn 0.958820 0.108687 -0.262395
vn 1.000000 0.000000 0.000000
vn 0.958820 0.108687 -0.262395
vn 0.958820 0.262394 -0.108687
vn 1.000000 0.000000 0.000000
vn 0.000001 0.923880 -0.382683
vn 0.000000 0.923880 0.382682
vn 0.283169 0.886065 0.367021
vn 0.283169 0.886065 -0.367021
vn 0.000000 0.382684 -0.923879
vn 0.000001 0.923880 -0.382683
vn 0.283169 0.886065 -0.367021
vn 0.283169 0.367020 -0.886065
vn 0.000000 -0.602566 -0.798069
vn 0.000000 0.382684 -0.923879
vn 0.283169 0.367020 -0.886065
vn 0.283169 -0.367021 -0.886065
vn 0.000000 -0.923879 -0.382684
vn 0.000000 -0.602566 -0.798069
vn 0.283169 -0.367021 -0.886065
vn 0.283169 -0.886065 -0.367020
vn 0.000000 -0.923880 0.382683
vn 0.000000 -0.923879 -0.382684
vn 0.283169 -0.886065 -0.367020
vn 0.283168 -0.886065 0.367021
vn 0.000000 -0.602566 0.798069
vn 0.000000 -0.923880 0.382683
vn 0.283168 -0.886065 0.367021
vn 0.283168 -0.367021 0.886065
vn -0.000001 0.382684 0.923879
vn 0.000000 -0.602566 0.798069
vn 0.283168 -0.367021 0.886065
vn 0.283169 0.367021 0.886065
vn 0.000000 0.923880 0.382682
vn -0.000001 0.382684 0.923879
vn 0.283169 0.367021 0.886065
vn 0.283169 0.886065 0.367021
vn 0.000000 -0.602566 0.798069
vn 0.000000 -0.707107 0.707106
vn 0.000000 -0.923879 0.382684
vn 0.000000 -0.923880 0.382683
vn 0.000000 -0.923880 0.382683
vn 0.000000 -0.923879 0.382684
vn 0.000000 -0.923879 -0.382684
vn 0.000000 -0.923879 -0.382684
vn 0.000000 -0.923879 -0.382684
vn 0.000000 -0.923879 -0.382684
vn 0.000000 -0.707107 -0.707107
vn 0.000000 -0.602566 -0.798069
vn -1.000000 0.000000 0.000000
vn -1.000000 0.000000 0.000000
vn -1.000000 0.000000 0.000000
vn -1.000000 0.000000 0.000000
vn 0.283169 0.886065 -0.367021
vn 0.283169 0.886065 0.367021
vn 0.958820 0.262394 0.108688
vn 0.958820 0.262394 -0.108687
vn 0.283169 0.886065 0.367021
vn 0.283169 0.367021 0.886065
vn 0.958820 0.108687 0.262395
vn 0.958820 0.262394 0.108688
vn 0.283169 0.367021 0.886065
vn 0.283168 -0.367021 0.886065
vn 0.958820 -0.108687 0.262395
vn 0.958820 0.108687 0.262395
vn 0.283168 -0.367021 0.886065
vn 0.283168 -0.886065 0.367021
vn 0.958820 -0.262394 0.108687
vn 0.958820 -0.108687 0.262395
vn 0.283168 -0.886065 0.367021
vn 0.283169 -0.886065 -0.367020
vn 0.958820 -0.262394 -0.108687
vn 0.958820 -0.262394 0.108687
vn 0.283169 -0.886065 -0.367020
vn 0.283169 -0.367021 -0.886065
vn 0.958820 -0.108687 -0.262395
vn 0.958820 -0.262394 -0.108687
vn 0.283169 -0.367021 -0.886065
vn 0.283169 0.367020 -0.886065
vn 0.958820 0.108687 -0.262395
vn 0.958820 -0.108687 -0.262395
vn 0.283169 0.367020 -0.886065
vn 0.283169 0.886065 -0.367021
vn 0.958820 0.262394 -0.108687
vn 0.958820 0.108687 -0.262395
vn 0.958820 0.262394 -0.108687
vn 0.958820 0.262394 0.108687
vn 1.000000 -0.000000 0.000000
vn 0.958820 0.262394 0.108687
vn 0.958820 0.108687 0.262395
vn 1.000000 -0.000000 0.000000
vn 0.958820 0.108687 0.262395
vn 0.958820 -0.108687 0.262395
vn 1.000000 -0.000000 0.000000
vn 0.958820 -0.108687 0.262395
vn 0.958820 -0.262394 0.108687
vn 1.000000 -0.000000 0.000000
vn 0.958820 -0.262394 0.108687
vn 0.958820 -0.262394 -0.108687
vn 1.000000 -0.000000 0.000000
vn 0.958820 -0.262394 -0.108687
vn 0.958820 -0.108687 -0.262395
vn 1.000000 -0.000000 0.000000
vn 0.958820 -0.108687 -0.262395
vn 0.958820 0.108687 -0.262394
vn 1.000000 -0.000000 0.000000
vn 0.958820 0.108687 -0.262394
vn 0.958820 0.262394 -0.108687
vn 1.000000 -0.000000 0.000000
vn -0.000001 0.923879 -0.382684
vn -0.000001 0.923880 0.382682
vn 0.283169 0.886065 0.367021
vn 0.283169 0.886065 -0.367021
vn -0.000001 0.382684 -0.923879
vn -0.000001 0.923879 -0.382684
vn 0.283169 0.886065 -0.367021
vn 0.283169 0.367020 -0.886065
vn 0.000000 -0.602566 -0.798069
vn -0.000001 0.382684 -0.923879
vn 0.283169 0.367020 -0.886065
vn 0.283169 -0.367021 -0.886065
vn 0.000000 -0.923879 -0.382684
vn 0.000000 -0.602566 -0.798069
vn 0.283169 -0.367021 -0.886065
vn 0.283169 -0.886065 -0.367021
vn 0.000000 -0.923880 0.382683
vn 0.000000 -0.923879 -0.382684
vn 0.283169 -0.886065 -0.367021
vn 0.283168 -0.886065 0.367021
vn 0.000000 -0.602566 0.798069
vn 0.000000 -0.923880 0.382683
vn 0.283168 -0.886065 0.367021
vn 0.283168 -0.367021 0.886065
vn -0.000001 0.382684 0.923879
vn 0.000000 -0.602566 0.798069
vn 0.283168 -0.367021 0.886065
vn 0.283168 0.367020 0.886065
vn -0.000001 0.923880 0.382682
vn -0.000001 0.382684 0.923879
vn 0.283168 0.367020 0.886065
vn 0.283169 0.886065 0.367021
vn 0.000000 -0.602566 0.798069
vn 0.000001 -0.707107 0.707106
vn 0.000000 -0.923879 0.382684
vn 0.000000 -0.923880 0.382683
vn 0.000000 -0.923880 0.382683
vn 0.000000 -0.923879 0.382684
vn 0.000000 -0.923879 -0.382684
vn 0.000000 -0.923879 -0.382684
vn 0.000000 -0.923879 -0.382684
vn 0.000000 -0.923879 -0.382684
vn 0.000000 -0.707107 -0.707107
vn 0.000000 -0.602566 -0.798069
vn -1.000000 0.000000 0.000000
vn -1.000000 0.000000 0.000000
vn -1.000000 0.000000 0.000000
vn -1.000000 0.000000 0.000000
vn 0.283169 0.886065 -0.367021
vn 0.283169 0.886065 0.367021
vn 0.958820 0.262394 0.108687
vn 0.958820 0.262394 -0.108687
vn 0.283169 0.886065 0.367021
vn 0.283168 0.367020 0.886065
vn 0.958820 0.108687 0.262395
vn 0.958820 0.262394 0.108687
vn 0.283168 0.367020 0.886065
vn 0.283168 -0.367021 0.886065
vn 0.958820 -0.108687 0.262395
vn 0.958820 0.108687 0.262395
vn 0.283168 -0.367021 0.886065
vn 0.283168 -0.886065 0.367021
vn 0.958820 -0.262394 0.108687
vn 0.958820 -0.108687 0.262395
vn 0.283168 -0.886065 0.367021
vn 0.283169 -0.886065 -0.367021
vn 0.958820 -0.262394 -0.108687
vn 0.958820 -0.262394 0.108687
vn 0.283169 -0.886065 -0.367021
vn 0.283169 -0.367021 -0.886065
vn 0.958820 -0.108687 -0.262395
vn 0.958820 -0.262394 -0.108687
vn 0.283169 -0.367021 -0.886065
vn 0.283169 0.367020 -0.886065
vn 0.958820 0.108687 -0.262394
vn 0.958820 -0.108687 -0.262395
vn 0.283169 0.367020 -0.886065
vn 0.283169 0.886065 -0.367021
vn 0.958820 0.262394 -0.108687
vn 0.958820 0.108687 -0.262394
vn 0.148388 0.977906 -0.147243
vn 0.068554 0.972616 -0.222077
vn 0.015830 0.974022 -0.225901
vn 0.059884 0.979783 -0.190890
vn 0.043941 0.904539 -0.424121
vn 0.003416 0.916450 -0.400135
vn 0.015830 0.974022 -0.225901
vn 0.068554 0.972616 -0.222077
vn 0.058088 0.000000 -0.998312
vn 0.053061 0.254246 -0.965683
vn 0.175044 0.214457 -0.960920
vn 0.190386 -0.002098 -0.981707
vn 0.175044 0.214457 -0.960920
vn 0.384225 0.189107 -0.903665
vn 0.415711 -0.005458 -0.909480
vn 0.190386 -0.002098 -0.981707
vn 0.000000 -1.000000 0.000000
vn 0.000000 -1.000000 0.000000
vn 0.006896 -0.995768 0.091643
vn 0.001650 -0.997893 0.064866
vn 0.053061 0.254246 -0.965683
vn 0.003416 0.916450 -0.400135
vn 0.043941 0.904539 -0.424121
vn 0.175044 0.214457 -0.960920
vn 0.002820 -0.991799 -0.127779
vn 0.001521 -0.997622 -0.068908
vn 0.001661 -0.997164 -0.075240
vn 0.002797 -0.991933 -0.126734
vn 0.025525 0.975696 0.217638
vn 0.030761 0.926615 0.374751
vn 0.073851 0.929166 0.362212
vn 0.083209 0.983850 0.158476
vn 0.083209 0.983850 0.158476
vn 0.273234 0.959673 0.066111
vn 0.347657 0.937620 0.001707
vn 0.427013 0.902304 0.059222
vn 0.427013 0.902304 0.059222
vn 0.328827 0.931876 0.153231
vn 0.083209 0.983850 0.158476
vn 0.083209 0.983850 0.158476
vn 0.328827 0.931876 0.153231
vn 0.013680 0.986207 0.164951
vn 0.025525 0.975696 0.217638
vn 0.577483 0.816372 0.007129
vn 0.427013 0.902304 0.059222
vn 0.347657 0.937620 0.001707
vn 0.410945 0.911525 -0.015713
vn 0.220810 0.923776 0.312858
vn 0.273234 0.959673 0.066111
vn 0.083209 0.983850 0.158476
vn 0.073851 0.929166 0.362212
vn 0.000000 -1.000000 0.000000
vn 0.000000 -1.000000 0.000000
vn 0.000000 -1.000000 0.000000
vn 0.000000 -1.000000 0.000000
vn 0.324609 0.944351 -0.053204
vn 0.148388 0.977906 -0.147243
vn 0.457928 0.880343 -0.123687
vn 0.329287 0.943484 -0.037531
vn 0.608682 0.785746 -0.110041
vn 0.577483 0.816372 0.007129
vn 0.410945 0.911525 -0.015713
vn 0.428183 0.902824 -0.039614
vn 0.001661 -0.997164 -0.075240
vn 0.001521 -0.997622 -0.068908
vn 0.000000 -1.000000 0.000000
vn 0.000000 -1.000000 0.000000
vn 0.000000 -1.000000 0.000000
vn 0.000000 -1.000000 0.000000
vn 0.000000 -1.000000 0.000000
vn 0.000000 -1.000000 0.000000
vn 0.000000 -1.000000 0.000000
vn 0.000000 -1.000000 0.000000
vn 0.000000 -1.000000 0.000000
vn 0.000000 -1.000000 0.000000
vn 0.025525 0.975696 0.217638
vn 0.013680 0.986207 0.164951
vn 0.000000 0.986801 0.161937
vn 0.000000 0.975737 0.218946
vn 0.000000 0.975737 0.218946
vn 0.000000 0.914843 0.403809
vn 0.030761 0.926615 0.374751
vn 0.025525 0.975696 0.217638
vn 0.000000 -1.000000 0.000000
vn 0.000000 -1.000000 0.000000
vn 0.001650 -0.997893 0.064866
vn 0.000000 -0.998069 0.062110
vn 0.000000 -1.000000 0.000000
vn 0.000000 -1.000000 0.000000
vn 0.000000 -1.000000 0.000000
vn 0.000000 -1.000000 0.000000
vn 0.000000 -1.000000 0.000000
vn 0.000000 -1.000000 0.000000
vn 0.000000 -1.000000 0.000000
vn 0.000000 -1.000000 0.000000
vn 0.000000 -1.000000 0.000000
vn 0.000000 -1.000000 0.000000
vn 0.000000 -1.000000 0.000000
vn 0.000000 -1.000000 0.000000
vn 0.001644 -0.997219 -0.074509
vn 0.001661 -0.997164 -0.075240
vn 0.000000 -1.000000 0.000000
vn 0.000000 -1.000000 0.000000
vn 0.002797 -0.991933 -0.126734
vn 0.001661 -0.997164 -0.075240
vn 0.001644 -0.997219 -0.074509
vn 0.002774 -0.992064 -0.125702
vn 0.058087 0.000000 -0.998312
vn 0.053076 0.254109 -0.965718
vn 0.053061 0.254246 -0.965683
vn 0.058088 0.000000 -0.998312
vn 0.053076 0.254109 -0.965718
vn -0.000000 0.917173 -0.398490
vn 0.003416 0.916450 -0.400135
vn 0.053061 0.254246 -0.965683
vn 0.015830 0.974022 -0.225901
vn 0.003416 0.916450 -0.400135
vn -0.000000 0.917173 -0.398490
vn -0.000000 0.972103 -0.234556
vn 0.059884 0.979783 -0.190890
vn 0.015830 0.974022 -0.225901
vn -0.000000 0.972103 -0.234556
vn 0.000000 0.976435 -0.215813
vn 0.000000 -1.000000 0.000000
vn 0.000000 -1.000000 0.000000
vn 0.000000 -1.000000 0.000000
vn 0.000000 -1.000000 0.000000
vn 0.000000 -1.000000 0.000000
vn 0.000000 -1.000000 0.000000
vn 0.000000 -1.000000 0.000000
vn 0.000000 -1.000000 0.000000
vn 0.457928 0.880343 -0.123687
vn 0.608682 0.785746 -0.110041
vn 0.428183 0.902824 -0.039614
vn 0.329287 0.943484 -0.037531
vn 0.148388 0.977906 -0.147243
vn 0.293487 0.931527 -0.214763
vn 0.457928 0.880343 -0.123687
vn 0.328827 0.931876 0.153231
vn 0.427013 0.902304 0.059222
vn 0.577483 0.816372 0.007129
vn 0.419848 0.905788 0.057237
vn 0.072952 0.960460 -0.268690
vn 0.293487 0.931527 -0.214763
vn 0.148388 0.977906 -0.147243
vn 0.059884 0.979783 -0.190890
vn 0.000026 0.998963 0.045535
vn 0.419848 0.905788 0.057237
vn 0.364689 0.926470 -0.093034
vn 0.003908 0.997359 -0.072526
vn 0.577483 0.816372 0.007129
vn 0.608682 0.785746 -0.110041
vn 0.364689 0.926470 -0.093034
vn 0.419848 0.905788 0.057237
vn 0.000026 0.998963 0.045535
vn 0.013680 0.986207 0.164951
vn 0.328827 0.931876 0.153231
vn 0.419848 0.905788 0.057237
vn 0.000000 0.976435 -0.215813
vn 0.000000 0.965836 -0.259154
vn 0.072952 0.960460 -0.268690
vn 0.059884 0.979783 -0.190890
vn 0.000000 0.998960 0.045600
vn 0.000000 0.986801 0.161937
vn 0.013680 0.986207 0.164951
vn 0.000026 0.998963 0.045535
vn 0.457928 0.880343 -0.123687
vn 0.293487 0.931527 -0.214763
vn 0.364689 0.926470 -0.093034
vn 0.608682 0.785746 -0.110041
vn 0.364689 0.926470 -0.093034
vn 0.293487 0.931527 -0.214763
vn 0.072952 0.960460 -0.268690
vn 0.003908 0.997359 -0.072526
vn 0.003908 0.997359 -0.072526
vn 0.000000 0.997126 -0.075765
vn 0.000000 0.998960 0.045600
vn 0.000026 0.998963 0.045535
vn 0.000000 0.997126 -0.075765
vn 0.003908 0.997359 -0.072526
vn 0.072952 0.960460 -0.268690
vn 0.000000 0.965836 -0.259154
vn 0.384225 0.189107 -0.903665
vn 0.971921 0.135175 -0.192608
vn 0.987708 -0.001971 -0.156297
vn 0.415711 -0.005458 -0.909480
vn 0.001075 -0.991619 -0.129193
vn 0.052370 -0.968450 -0.243643
vn 0.001187 -0.991586 -0.129446
vn 0.220652 0.872789 -0.435375
vn 0.043941 0.904539 -0.424121
vn 0.068554 0.972616 -0.222077
vn 0.279336 0.930069 -0.238629
vn 0.384225 0.189107 -0.903665
vn 0.175044 0.214457 -0.960920
vn 0.043941 0.904539 -0.424121
vn 0.220652 0.872789 -0.435375
vn 0.220652 0.872789 -0.435375
vn 0.971921 0.135175 -0.192608
vn 0.384225 0.189107 -0.903665
vn 0.324609 0.944351 -0.053204
vn 0.279336 0.930069 -0.238629
vn 0.068554 0.972616 -0.222077
vn 0.148388 0.977906 -0.147243
vn 0.000000 -1.000000 0.000000
vn 0.000000 -1.000000 0.000000
vn 0.000000 -1.000000 0.000000
vn 0.000000 -1.000000 0.000000
vn 1.000000 0.000000 0.000000
vn 1.000000 0.000000 0.000000
vn 0.995210 0.097746 -0.001825
vn 0.990948 0.134246 -0.000969
vn 0.410945 0.911525 -0.015713
vn 0.347657 0.937620 0.001707
vn 0.990948 0.134246 -0.000969
vn 0.995210 0.097746 -0.001825
vn 0.995210 0.097746 -0.001825
vn 0.994849 0.101328 -0.002891
vn 0.428183 0.902824 -0.039614
vn 0.410945 0.911525 -0.015713
vn 1.000000 0.000000 0.000000
vn 1.000000 0.000000 0.000000
vn 1.000000 0.000000 0.000000
vn 1.000000 0.000000 0.000000
vn 1.000000 0.000000 0.000000
vn 1.000000 0.000000 0.000000
vn 0.994849 0.101328 -0.002891
vn 0.995210 0.097746 -0.001825
vn 0.000000 -1.000000 0.000000
vn 0.000000 -1.000000 0.000000
vn 0.000000 -1.000000 0.000000
vn 0.000000 -1.000000 0.000000
vn 0.000000 -1.000000 0.000000
vn 0.000000 -1.000000 0.000000
vn 0.000000 -1.000000 0.000000
vn 0.000000 -1.000000 0.000000
vn 1.000000 0.000000 0.000000
vn 1.000000 0.000000 0.000000
vn 1.000000 0.000000 0.000000
vn 1.000000 0.000000 0.000000
vn 1.000000 0.000000 0.000000
vn 0.999850 0.013629 -0.010701
vn 0.991825 0.126671 -0.015450
vn 0.994849 0.101328 -0.002891
vn 0.329287 0.943484 -0.037531
vn 0.428183 0.902824 -0.039614
vn 0.994849 0.101328 -0.002891
vn 0.991825 0.126671 -0.015450
vn 0.279336 0.930069 -0.238629
vn 0.942249 0.314391 -0.115436
vn 0.971921 0.135175 -0.192608
vn 0.220652 0.872789 -0.435375
vn 0.001187 -0.991586 -0.129446
vn 0.000777 -0.991706 -0.128524
vn 0.000777 -0.991706 -0.128524
vn 0.001075 -0.991619 -0.129193
vn 0.987708 -0.001971 -0.156297
vn 0.971921 0.135175 -0.192608
vn 0.995583 -0.001054 -0.093877
vn 0.995583 -0.001054 -0.093877
vn 0.324609 0.944351 -0.053204
vn 0.976047 0.215627 -0.028955
vn 0.942249 0.314391 -0.115436
vn 0.279336 0.930069 -0.238629
vn 0.991825 0.126671 -0.015450
vn 0.976047 0.215627 -0.028955
vn 0.324609 0.944351 -0.053204
vn 0.329287 0.943484 -0.037531
vn 0.000000 -1.000000 0.000000
vn 0.000000 -1.000000 0.000000
vn 0.000000 -1.000000 0.000000
vn 0.000000 -1.000000 0.000000
vn 1.000000 -0.000000 0.000000
vn 1.000000 -0.000000 0.000000
vn 1.000000 -0.000000 0.000000
vn 1.000000 -0.000000 0.000000
vn 0.995049 0.063798 -0.076211
vn 0.971921 0.135175 -0.192608
vn 0.942249 0.314391 -0.115436
vn 1.000000 -0.000000 0.000000
vn 1.000000 0.000000 0.000000
vn 1.000000 0.000000 0.000000
vn 1.000000 -0.000000 0.000000
vn 0.999850 0.013629 -0.010701
vn 0.999725 0.019841 -0.012534
vn 0.976047 0.215627 -0.028955
vn 0.991825 0.126671 -0.015450
vn 0.942249 0.314391 -0.115436
vn 0.976047 0.215627 -0.028955
vn 0.995054 0.098298 -0.014343
vn 0.993959 0.102785 -0.038489
vn 0.942249 0.314391 -0.115436
vn 0.993959 0.102785 -0.038489
vn 0.995049 0.063798 -0.076211
vn 0.976047 0.215627 -0.028955
vn 0.999725 0.019841 -0.012534
vn 0.995054 0.098298 -0.014343
vn 0.006896 -0.995768 0.091643
vn 0.019379 -0.983957 0.177352
vn 0.019379 -0.983957 0.177352
vn 0.008071 -0.986217 0.165263
vn 0.347657 0.937620 0.001707
vn 0.273234 0.959673 0.066111
vn 0.980602 0.180110 0.077334
vn 0.990948 0.134246 -0.000969
vn 0.980602 0.180110 0.077334
vn 0.273234 0.959673 0.066111
vn 0.220810 0.923776 0.312858
vn 0.788150 0.179898 0.588606
vn 0.751410 0.013130 0.659705
vn 0.994796 -0.003861 0.101812
vn 0.980602 0.180110 0.077334
vn 0.788150 0.179898 0.588606
vn 0.994796 -0.003861 0.101812
vn 0.751410 0.013130 0.659705
vn 0.765260 -0.037562 0.642625
vn 0.994272 -0.002051 0.106859
vn 0.990948 0.134246 -0.000969
vn 0.980602 0.180110 0.077334
vn 1.000000 0.000000 0.000000
vn 1.000000 0.000000 0.000000
vn 0.990948 0.134246 -0.000969
vn 1.000000 0.000000 0.000000
vn 1.000000 0.000000 0.000000
vn 1.000000 0.000000 0.000000
vn 0.980602 0.180110 0.077334
vn 0.994796 -0.003861 0.101812
vn 0.138432 0.018762 0.990194
vn 0.751410 0.013130 0.659705
vn 0.788150 0.179898 0.588606
vn 0.149477 0.278403 0.948762
vn 0.149477 0.278403 0.948762
vn 0.788150 0.179898 0.588606
vn 0.220810 0.923776 0.312858
vn 0.073851 0.929166 0.362212
vn 0.751410 0.013130 0.659705
vn 0.138432 0.018762 0.990194
vn 0.127347 -0.074755 0.989037
vn 0.765260 -0.037562 0.642625
vn -0.958820 0.262394 -0.108687
vn -1.000000 0.000000 0.000000
vn -0.958820 0.262394 0.108687
vn -0.958820 0.262394 0.108687
vn -1.000000 0.000000 0.000000
vn -0.958820 0.108687 0.262394
vn -0.958820 0.108687 0.262394
vn -1.000000 0.000000 0.000000
vn -0.958820 -0.108687 0.262394
vn -0.958820 -0.108687 0.262394
vn -1.000000 0.000000 0.000000
vn -0.958820 -0.262394 0.108687
vn -0.958820 -0.262394 0.108687
vn -1.000000 0.000000 0.000000
vn -0.958820 -0.262394 -0.108687
vn -0.958820 -0.262394 -0.108687
vn -1.000000 0.000000 0.000000
vn -0.958820 -0.108687 -0.262395
vn -0.958820 -0.108687 -0.262395
vn -1.000000 0.000000 0.000000
vn -0.958820 0.108687 -0.262395
vn -0.958820 0.108687 -0.262395
vn -1.000000 0.000000 0.000000
vn -0.958820 0.262394 -0.108687
vn -0.000001 0.923880 -0.382683
vn -0.283169 0.886065 -0.367021
vn -0.283169 0.886065 0.367021
vn 0.000000 0.923880 0.382682
vn 0.000000 0.382684 -0.923879
vn -0.283169 0.367020 -0.886065
vn -0.283169 0.886065 -0.367021
vn -0.000001 0.923880 -0.382683
vn 0.000000 -0.602566 -0.798069
vn -0.283169 -0.367021 -0.886065
vn -0.283169 0.367020 -0.886065
vn 0.000000 0.382684 -0.923879
vn 0.000000 -0.923879 -0.382684
vn -0.283169 -0.886065 -0.367020
vn -0.283169 -0.367021 -0.886065
vn 0.000000 -0.602566 -0.798069
vn 0.000000 -0.923880 0.382683
vn -0.283168 -0.886065 0.367021
vn -0.283169 -0.886065 -0.367020
vn 0.000000 -0.923879 -0.382684
vn 0.000000 -0.602566 0.798069
vn -0.283169 -0.367021 0.886065
vn -0.283168 -0.886065 0.367021
vn 0.000000 -0.923880 0.382683
vn 0.000001 0.382684 0.923879
vn -0.283169 0.367021 0.886065
vn -0.283169 -0.367021 0.886065
vn 0.000000 -0.602566 0.798069
vn 0.000000 0.923880 0.382682
vn -0.283169 0.886065 0.367021
vn -0.283169 0.367021 0.886065
vn 0.000001 0.382684 0.923879
vn 0.000000 -0.602566 0.798069
vn 0.000000 -0.923880 0.382683
vn 0.000000 -0.923879 0.382684
vn 0.000000 -0.707107 0.707106
vn 0.000000 -0.923880 0.382683
vn 0.000000 -0.923879 -0.382684
vn 0.000000 -0.923879 -0.382684
vn 0.000000 -0.923879 0.382684
vn 0.000000 -0.923879 -0.382684
vn 0.000000 -0.602566 -0.798069
vn 0.000000 -0.707107 -0.707107
vn 0.000000 -0.923879 -0.382684
vn 1.000000 0.000001 0.000000
vn 1.000000 0.000001 0.000000
vn 1.000000 0.000001 0.000000
vn 1.000000 0.000001 0.000000
vn -0.283169 0.886065 -0.367021
vn -0.958820 0.262394 -0.108687
vn -0.958820 0.262394 0.108687
vn -0.283169 0.886065 0.367021
vn -0.283169 0.886065 0.367021
vn -0.958820 0.262394 0.108687
vn -0.958820 0.108687 0.262394
vn -0.283169 0.367021 0.886065
vn -0.283169 0.367021 0.886065
vn -0.958820 0.108687 0.262394
vn -0.958820 -0.108687 0.262394
vn -0.283169 -0.367021 0.886065
vn -0.283169 -0.367021 0.886065
vn -0.958820 -0.108687 0.262394
vn -0.958820 -0.262394 0.108687
vn -0.283168 -0.886065 0.367021
vn -0.283168 -0.886065 0.367021
vn -0.958820 -0.262394 0.108687
vn -0.958820 -0.262394 -0.108687
vn -0.283169 -0.886065 -0.367020
vn -0.283169 -0.886065 -0.367020
vn -0.958820 -0.262394 -0.108687
vn -0.958820 -0.108687 -0.262395
vn -0.283169 -0.367021 -0.886065
vn -0.283169 -0.367021 -0.886065
vn -0.958820 -0.108687 -0.262395
vn -0.958820 0.108687 -0.262395
vn -0.283169 0.367020 -0.886065
vn -0.283169 0.367020 -0.886065
vn -0.958820 0.108687 -0.262395
vn -0.958820 0.262394 -0.108687
vn -0.283169 0.886065 -0.367021
vn -0.958820 0.262394 -0.108687
vn -1.000000 0.000000 0.000000
vn -0.958820 0.262394 0.108687
vn -0.958820 0.262394 0.108687
vn -1.000000 0.000000 0.000000
vn -0.958820 0.108688 0.262395
vn -0.958820 0.108688 0.262395
vn -1.000000 0.000000 0.000000
vn -0.958820 -0.108687 0.262395
vn -0.958820 -0.108687 0.262395
vn -1.000000 0.000000 0.000000
vn -0.958820 -0.262394 0.108687
vn -0.958820 -0.262394 0.108687
vn -1.000000 0.000000 0.000000
vn -0.958820 -0.262394 -0.108687
vn -0.958820 -0.262394 -0.108687
vn -1.000000 0.000000 0.000000
vn -0.958820 -0.108687 -0.262394
vn -0.958820 -0.108687 -0.262394
vn -1.000000 0.000000 0.000000
vn -0.958820 0.108687 -0.262394
vn -0.958820 0.108687 -0.262394
vn -1.000000 0.000000 0.000000
vn -0.958820 0.262394 -0.108687
vn 0.000001 0.923880 -0.382683
vn -0.283169 0.886065 -0.367020
vn -0.283169 0.886065 0.367021
vn 0.000001 0.923880 0.382682
vn 0.000001 0.382684 -0.923879
vn -0.283169 0.367020 -0.886065
vn -0.283169 0.886065 -0.367020
vn 0.000001 0.923880 -0.382683
vn 0.000000 -0.602566 -0.798069
vn -0.283169 -0.367021 -0.886065
vn -0.283169 0.367020 -0.886065
vn 0.000001 0.382684 -0.923879
vn 0.000000 -0.923879 -0.382684
vn -0.283169 -0.886065 -0.367020
vn -0.283169 -0.367021 -0.886065
vn 0.000000 -0.602566 -0.798069
vn 0.000000 -0.923880 0.382683
vn -0.283168 -0.886065 0.367021
vn -0.283169 -0.886065 -0.367020
vn 0.000000 -0.923879 -0.382684
vn 0.000000 -0.602566 0.798069
vn -0.283168 -0.367021 0.886065
vn -0.283168 -0.886065 0.367021
vn 0.000000 -0.923880 0.382683
vn 0.000001 0.382684 0.923879
vn -0.283168 0.367021 0.886065
vn -0.283168 -0.367021 0.886065
vn 0.000000 -0.602566 0.798069
vn 0.000001 0.923880 0.382682
vn -0.283169 0.886065 0.367021
vn -0.283168 0.367021 0.886065
vn 0.000001 0.382684 0.923879
vn 0.000000 -0.602566 0.798069
vn 0.000000 -0.923880 0.382683
vn 0.000000 -0.923879 0.382684
vn -0.000001 -0.707107 0.707107
vn 0.000000 -0.923880 0.382683
vn 0.000000 -0.923879 -0.382684
vn 0.000000 -0.923879 -0.382684
vn 0.000000 -0.923879 0.382684
vn 0.000000 -0.923879 -0.382684
vn 0.000000 -0.602566 -0.798069
vn 0.000000 -0.707107 -0.707107
vn 0.000000 -0.923879 -0.382684
vn 1.000000 0.000001 0.000000
vn 1.000000 0.000001 0.000000
vn 1.000000 0.000001 0.000000
vn 1.000000 0.000001 0.000000
vn -0.283169 0.886065 -0.367020
vn -0.958820 0.262394 -0.108687
vn -0.958820 0.262394 0.108687
vn -0.283169 0.886065 0.367021
vn -0.283169 0.886065 0.367021
vn -0.958820 0.262394 0.108687
vn -0.958820 0.108688 0.262395
vn -0.283168 0.367021 0.886065
vn -0.283168 0.367021 0.886065
vn -0.958820 0.108688 0.262395
vn -0.958820 -0.108687 0.262395
vn -0.283168 -0.367021 0.886065
vn -0.283168 -0.367021 0.886065
vn -0.958820 -0.108687 0.262395
vn -0.958820 -0.262394 0.108687
vn -0.283168 -0.886065 0.367021
vn -0.283168 -0.886065 0.367021
vn -0.958820 -0.262394 0.108687
vn -0.958820 -0.262394 -0.108687
vn -0.283169 -0.886065 -0.367020
vn -0.283169 -0.886065 -0.367020
vn -0.958820 -0.262394 -0.108687
vn -0.958820 -0.108687 -0.262394
vn -0.283169 -0.367021 -0.886065
vn -0.283169 -0.367021 -0.886065
vn -0.958820 -0.108687 -0.262394
vn -0.958820 0.108687 -0.262394
vn -0.283169 0.367020 -0.886065
vn -0.283169 0.367020 -0.886065
vn -0.958820 0.108687 -0.262394
vn -0.958820 0.262394 -0.108687
vn -0.283169 0.886065 -0.367020
vn -0.148388 0.977906 -0.147243
vn -0.059884 0.979783 -0.190890
vn -0.015830 0.974022 -0.225901
vn -0.068554 0.972616 -0.222077
vn -0.043941 0.904539 -0.424121
vn -0.068554 0.972616 -0.222077
vn -0.015830 0.974022 -0.225901
vn -0.003416 0.916450 -0.400135
vn -0.058088 0.000000 -0.998312
vn -0.190386 -0.002098 -0.981707
vn -0.175044 0.214457 -0.960920
vn -0.053061 0.254246 -0.965683
vn -0.175044 0.214457 -0.960920
vn -0.190386 -0.002098 -0.981707
vn -0.415711 -0.005458 -0.909480
vn -0.384225 0.189107 -0.903665
vn 0.000000 -1.000000 0.000000
vn -0.001650 -0.997893 0.064866
vn -0.006896 -0.995768 0.091643
vn 0.000000 -1.000000 0.000000
vn -0.053061 0.254246 -0.965683
vn -0.175044 0.214457 -0.960920
vn -0.043941 0.904539 -0.424121
vn -0.003416 0.916450 -0.400135
vn -0.002820 -0.991799 -0.127779
vn -0.002797 -0.991933 -0.126734
vn -0.001661 -0.997164 -0.075240
vn -0.001521 -0.997622 -0.068908
vn -0.025525 0.975696 0.217638
vn -0.083209 0.983850 0.158476
vn -0.073851 0.929166 0.362212
vn -0.030761 0.926615 0.374751
vn -0.083209 0.983850 0.158476
vn -0.427013 0.902304 0.059222
vn -0.347657 0.937620 0.001707
vn -0.273234 0.959673 0.066111
vn -0.427013 0.902304 0.059222
vn -0.083209 0.983850 0.158476
vn -0.328827 0.931876 0.153231
vn -0.083209 0.983850 0.158476
vn -0.025525 0.975696 0.217638
vn -0.013680 0.986207 0.164951
vn -0.328827 0.931876 0.153231
vn -0.577483 0.816372 0.007129
vn -0.410945 0.911525 -0.015713
vn -0.347657 0.937620 0.001707
vn -0.427013 0.902304 0.059222
vn -0.220810 0.923776 0.312858
vn -0.073851 0.929166 0.362212
vn -0.083209 0.983850 0.158476
vn -0.273234 0.959673 0.066111
vn 0.000000 -1.000000 0.000000
vn 0.000000 -1.000000 0.000000
vn 0.000000 -1.000000 0.000000
vn 0.000000 -1.000000 0.000000
vn -0.324609 0.944351 -0.053204
vn -0.329287 0.943484 -0.037531
vn -0.457928 0.880343 -0.123687
vn -0.148388 0.977906 -0.147243
vn -0.608682 0.785746 -0.110041
vn -0.428183 0.902824 -0.039614
vn -0.410945 0.911525 -0.015713
vn -0.577483 0.816372 0.007129
vn -0.001661 -0.997164 -0.075240
vn 0.000000 -1.000000 0.000000
vn 0.000000 -1.000000 0.000000
vn -0.001521 -0.997622 -0.068908
vn 0.000000 -1.000000 0.000000
vn 0.000000 -1.000000 0.000000
vn 0.000000 -1.000000 0.000000
vn 0.000000 -1.000000 0.000000
vn 0.000000 -1.000000 0.000000
vn 0.000000 -1.000000 0.000000
vn 0.000000 -1.000000 0.000000
vn 0.000000 -1.000000 0.000000
vn -0.025525 0.975696 0.217638
vn 0.000000 0.975737 0.218946
vn 0.000000 0.986801 0.161937
vn -0.013680 0.986207 0.164951
vn 0.000000 0.975737 0.218946
vn -0.025525 0.975696 0.217638
vn -0.030761 0.926615 0.374751
vn 0.000000 0.914843 0.403809
vn 0.000000 -1.000000 0.000000
vn 0.000000 -0.998069 0.062110
vn -0.001650 -0.997893 0.064866
vn 0.000000 -1.000000 0.000000
vn 0.000000 -1.000000 0.000000
vn 0.000000 -1.000000 0.000000
vn 0.000000 -1.000000 0.000000
vn 0.000000 -1.000000 0.000000
vn 0.000000 -1.000000 0.000000
vn 0.000000 -1.000000 0.000000
vn 0.000000 -1.000000 0.000000
vn 0.000000 -1.000000 0.000000
vn 0.000000 -1.000000 0.000000
vn 0.000000 -1.000000 0.000000
vn 0.000000 -1.000000 0.000000
vn 0.000000 -1.000000 0.000000
vn -0.001644 -0.997219 -0.074509
vn 0.000000 -1.000000 0.000000
vn 0.000000 -1.000000 0.000000
vn -0.001661 -0.997164 -0.075240
vn -0.002797 -0.991933 -0.126734
vn -0.002774 -0.992064 -0.125702
vn -0.001644 -0.997219 -0.074509
vn -0.001661 -0.997164 -0.075240
vn -0.058087 0.000000 -0.998312
vn -0.058088 0.000000 -0.998312
vn -0.053061 0.254246 -0.965683
vn -0.053076 0.254109 -0.965718
vn -0.053076 0.254109 -0.965718
vn -0.053061 0.254246 -0.965683
vn -0.003416 0.916450 -0.400135
vn -0.000000 0.917173 -0.398490
vn -0.015830 0.974022 -0.225901
vn -0.000000 0.972103 -0.234556
vn -0.000000 0.917173 -0.398490
vn -0.003416 0.916450 -0.400135
vn -0.059884 0.979783 -0.190890
vn 0.000000 0.976435 -0.215813
vn -0.000000 0.972103 -0.234556
vn -0.015830 0.974022 -0.225901
vn 0.000000 -1.000000 0.000000
vn 0.000000 -1.000000 0.000000
vn 0.000000 -1.000000 0.000000
vn 0.000000 -1.000000 0.000000
vn 0.000000 -1.000000 0.000000
vn 0.000000 -1.000000 0.000000
vn 0.000000 -1.000000 0.000000
vn 0.000000 -1.000000 0.000000
vn -0.457928 0.880343 -0.123687
vn -0.329287 0.943484 -0.037531
vn -0.428183 0.902824 -0.039614
vn -0.608682 0.785746 -0.110041
vn -0.148388 0.977906 -0.147243
vn -0.457928 0.880343 -0.123687
vn -0.293487 0.931527 -0.214763
vn -0.328827 0.931876 0.153231
vn -0.419848 0.905788 0.057237
vn -0.577483 0.816372 0.007129
vn -0.427013 0.902304 0.059222
vn -0.072952 0.960460 -0.268690
vn -0.059884 0.979783 -0.190890
vn -0.148388 0.977906 -0.147243
vn -0.293487 0.931527 -0.214763
vn -0.000026 0.998963 0.045535
vn -0.003908 0.997359 -0.072526
vn -0.364689 0.926470 -0.093034
vn -0.419848 0.905788 0.057237
vn -0.577483 0.816372 0.007129
vn -0.419848 0.905788 0.057237
vn -0.364689 0.926470 -0.093034
vn -0.608682 0.785746 -0.110041
vn -0.000026 0.998963 0.045535
vn -0.419848 0.905788 0.057237
vn -0.328827 0.931876 0.153231
vn -0.013680 0.986207 0.164951
vn 0.000000 0.976435 -0.215813
vn -0.059884 0.979783 -0.190890
vn -0.072952 0.960460 -0.268690
vn 0.000000 0.965836 -0.259154
vn 0.000000 0.998960 0.045600
vn -0.000026 0.998963 0.045535
vn -0.013680 0.986207 0.164951
vn 0.000000 0.986801 0.161937
vn -0.457928 0.880343 -0.123687
vn -0.608682 0.785746 -0.110041
vn -0.364689 0.926470 -0.093034
vn -0.293487 0.931527 -0.214763
vn -0.364689 0.926470 -0.093034
vn -0.003908 0.997359 -0.072526
vn -0.072952 0.960460 -0.268690
vn -0.293487 0.931527 -0.214763
vn -0.003908 0.997359 -0.072526
vn -0.000026 0.998963 0.045535
vn 0.000000 0.998960 0.045600
vn 0.000000 0.997126 -0.075765
vn 0.000000 0.997126 -0.075765
vn 0.000000 0.965836 -0.259154
vn -0.072952 0.960460 -0.268690
vn -0.003908 0.997359 -0.072526
vn -0.384225 0.189107 -0.903665
vn -0.415711 -0.005458 -0.909480
vn -0.987708 -0.001971 -0.156297
vn -0.971921 0.135175 -0.192608
vn -0.001075 -0.991619 -0.129193
vn -0.001187 -0.991586 -0.129446
vn -0.052370 -0.968450 -0.243643
vn -0.220652 0.872789 -0.435375
vn -0.279336 0.930069 -0.238629
vn -0.068554 0.972616 -0.222077
vn -0.043941 0.904539 -0.424121
vn -0.384225 0.189107 -0.903665
vn -0.220652 0.872789 -0.435375
vn -0.043941 0.904539 -0.424121
vn -0.175044 0.214457 -0.960920
vn -0.220652 0.872789 -0.435375
vn -0.384225 0.189107 -0.903665
vn -0.971921 0.135175 -0.192608
vn -0.324609 0.944351 -0.053204
vn -0.148388 0.977906 -0.147243
vn -0.068554 0.972616 -0.222077
vn -0.279336 0.930069 -0.238629
vn 0.000000 -1.000000 0.000000
vn 0.000000 -1.000000 0.000000
vn 0.000000 -1.000000 0.000000
vn 0.000000 -1.000000 0.000000
vn -1.000000 0.000000 -0.000000
vn -0.990948 0.134246 -0.000969
vn -0.995210 0.097746 -0.001825
vn -1.000000 0.000000 -0.000000
vn -0.410945 0.911525 -0.015713
vn -0.995210 0.097746 -0.001825
vn -0.990948 0.134246 -0.000969
vn -0.347657 0.937620 0.001707
vn -0.995210 0.097746 -0.001825
vn -0.410945 0.911525 -0.015713
vn -0.428183 0.902824 -0.039614
vn -0.994849 0.101328 -0.002891
vn -1.000000 0.000000 0.000000
vn -1.000000 0.000000 0.000000
vn -1.000000 0.000000 0.000000
vn -1.000000 0.000000 0.000000
vn -1.000000 0.000000 -0.000000
vn -0.995210 0.097746 -0.001825
vn -0.994849 0.101328 -0.002891
vn -1.000000 0.000000 0.000000
vn 0.000000 -1.000000 0.000000
vn 0.000000 -1.000000 0.000000
vn 0.000000 -1.000000 0.000000
vn 0.000000 -1.000000 0.000000
vn 0.000000 -1.000000 0.000000
vn 0.000000 -1.000000 0.000000
vn 0.000000 -1.000000 0.000000
vn 0.000000 -1.000000 0.000000
vn -1.000000 0.000000 0.000000
vn -1.000000 0.000000 0.000000
vn -1.000000 0.000000 0.000000
vn -1.000000 0.000000 0.000000
vn -1.000000 0.000000 0.000000
vn -0.994849 0.101328 -0.002891
vn -0.991825 0.126671 -0.015450
vn -0.999850 0.013629 -0.010701
vn -0.329287 0.943484 -0.037531
vn -0.991825 0.126671 -0.015450
vn -0.994849 0.101328 -0.002891
vn -0.428183 0.902824 -0.039614
vn -0.279336 0.930069 -0.238629
vn -0.220652 0.872789 -0.435375
vn -0.971921 0.135175 -0.192608
vn -0.942249 0.314391 -0.115436
vn -0.001187 -0.991586 -0.129446
vn -0.001075 -0.991619 -0.129193
vn -0.000777 -0.991706 -0.128524
vn -0.000777 -0.991706 -0.128524
vn -0.987708 -0.001971 -0.156297
vn -0.995583 -0.001054 -0.093877
vn -0.995583 -0.001054 -0.093877
vn -0.971921 0.135175 -0.192608
vn -0.324609 0.944351 -0.053204
vn -0.279336 0.930069 -0.238629
vn -0.942249 0.314391 -0.115436
vn -0.976047 0.215627 -0.028955
vn -0.991825 0.126671 -0.015450
vn -0.329287 0.943484 -0.037531
vn -0.324609 0.944351 -0.053204
vn -0.976047 0.215627 -0.028955
vn 0.000000 -1.000000 0.000000
vn 0.000000 -1.000000 0.000000
vn 0.000000 -1.000000 0.000000
vn 0.000000 -1.000000 0.000000
vn -1.000000 0.000000 0.000000
vn -1.000000 0.000000 0.000000
vn -1.000000 0.000000 0.000000
vn -1.000000 0.000000 0.000000
vn -0.995049 0.063798 -0.076211
vn -0.942249 0.314391 -0.115436
vn -0.971921 0.135175 -0.192608
vn -1.000000 0.000000 0.000000
vn -1.000000 0.000000 0.000000
vn -1.000000 0.000000 0.000000
vn -1.000000 0.000000 0.000000
vn -0.999850 0.013629 -0.010701
vn -0.991825 0.126671 -0.015450
vn -0.976047 0.215627 -0.028955
vn -0.999725 0.019841 -0.012534
vn -0.942249 0.314391 -0.115436
vn -0.993959 0.102785 -0.038489
vn -0.995054 0.098298 -0.014343
vn -0.976047 0.215627 -0.028955
vn -0.942249 0.314391 -0.115436
vn -0.995049 0.063798 -0.076211
vn -0.993959 0.102785 -0.038489
vn -0.976047 0.215627 -0.028955
vn -0.995054 0.098298 -0.014343
vn -0.999725 0.019841 -0.012534
vn -0.006896 -0.995768 0.091643
vn -0.008071 -0.986217 0.165263
vn -0.019379 -0.983957 0.177352
vn -0.019379 -0.983957 0.177352
vn -0.347657 0.937620 0.001707
vn -0.990948 0.134246 -0.000969
vn -0.980602 0.180110 0.077334
vn -0.273234 0.959673 0.066111
vn -0.980602 0.180110 0.077334
vn -0.788150 0.179898 0.588606
vn -0.220810 0.923776 0.312858
vn -0.273234 0.959673 0.066111
vn -0.751410 0.013130 0.659705
vn -0.788150 0.179898 0.588606
vn -0.980602 0.180110 0.077334
vn -0.994796 -0.003861 0.101812
vn -0.994796 -0.003861 0.101812
vn -0.994272 -0.002051 0.106859
vn -0.765260 -0.037562 0.642625
vn -0.751410 0.013130 0.659705
vn -0.990948 0.134246 -0.000969
vn -1.000000 0.000000 -0.000000
vn -1.000000 0.000000 0.000000
vn -0.980602 0.180110 0.077334
vn -0.990948 0.134246 -0.000969
vn -1.000000 0.000000 -0.000000
vn -1.000000 0.000000 -0.000000
vn -1.000000 0.000000 0.000000
vn -0.994796 -0.003861 0.101812
vn -0.980602 0.180110 0.077334
vn -0.008071 -0.986217 0.165263
vn -0.006896 -0.995768 0.091643
vn -0.001650 -0.997893 0.064866
vn -0.004055 -0.987206 0.159396
vn -0.138432 0.018762 0.990194
vn -0.149477 0.278403 0.948762
vn -0.788150 0.179898 0.588606
vn -0.751410 0.013130 0.659705
vn -0.149477 0.278403 0.948762
vn -0.073851 0.929166 0.362212
vn -0.220810 0.923776 0.312858
vn -0.788150 0.179898 0.588606
vn -0.751410 0.013130 0.659705
vn -0.765260 -0.037562 0.642625
vn -0.127347 -0.074755 0.989037
vn -0.138432 0.018762 0.990194
vn 0.035252 0.261789 0.964481
vn 0.035886 -0.001731 0.999354
vn 0.138432 0.018762 0.990194
vn 0.149477 0.278403 0.948762
vn 0.008071 -0.986217 0.165263
vn 0.004055 -0.987206 0.159396
vn 0.001650 -0.997893 0.064866
vn 0.006896 -0.995768 0.091643
vn 0.073851 0.929166 0.362212
vn 0.030761 0.926615 0.374751
vn 0.035252 0.261789 0.964481
vn 0.149477 0.278403 0.948762
vn 0.035252 0.261789 0.964481
vn 0.030761 0.926615 0.374751
vn 0.000000 0.914843 0.403809
vn 0.000000 0.252652 0.967557
vn 0.036752 -0.087686 0.995470
vn 0.035886 -0.001731 0.999354
vn 0.000000 0.000587 1.000000
vn 0.000000 -0.082557 0.996586
vn 0.000000 -0.998069 0.062110
vn 0.001650 -0.997893 0.064866
vn 0.004055 -0.987206 0.159396
vn 0.004020 -0.987443 0.157924
vn 0.127347 -0.074755 0.989037
vn 0.138432 0.018762 0.990194
vn 0.035886 -0.001731 0.999354
vn 0.036752 -0.087686 0.995470
vn -0.035252 0.261789 0.964481
vn -0.149477 0.278403 0.948762
vn -0.138432 0.018762 0.990194
vn -0.035886 -0.001731 0.999354
vn -0.073851 0.929166 0.362212
vn -0.149477 0.278403 0.948762
vn -0.035252 0.261789 0.964481
vn -0.030761 0.926615 0.374751
vn -0.035252 0.261789 0.964481
vn 0.000000 0.252652 0.967557
vn 0.000000 0.914843 0.403809
vn -0.030761 0.926615 0.374751
vn -0.004055 -0.987206 0.159396
vn -0.001650 -0.997893 0.064866
vn 0.000000 -0.998069 0.062110
vn -0.004020 -0.987443 0.157924
vn -0.127347 -0.074755 0.989037
vn -0.036752 -0.087686 0.995470
vn -0.035886 -0.001731 0.999354
vn -0.138432 0.018762 0.990194
vn -0.035886 -0.001731 0.999354
vn 0.000000 0.000587 1.000000
vn 0.000000 0.252652 0.967557
vn -0.035252 0.261789 0.964481
vn 0.000000 0.000587 1.000000
vn 0.035886 -0.001731 0.999354
vn 0.035252 0.261789 0.964481
vn 0.000000 0.252652 0.967557
vn -0.036752 -0.087686 0.995470
vn 0.000000 -0.082557 0.996586
vn 0.000000 0.000587 1.000000
vn -0.035886 -0.001731 0.999354
s off
g Car001:polySurface4
usemtl lambert2SG
f 21/1/1 22/2/2 23/3/3
f 22/2/4 24/4/5 23/3/6
f 24/4/7 25/5/8 23/3/9
f 25/5/10 26/6/11 23/3/12
f 26/6/13 27/7/14 23/3/15
f 27/7/16 28/8/17 23/3/18
f 28/8/19 29/9/20 23/3/21
f 29/9/22 21/1/23 23/3/24
f 14/10/25 13/11/26 6/12/27 5/13/28
f 15/14/29 14/10/30 5/13/31 12/15/32
f 16/16/33 15/14/34 12/15/35 11/17/36
f 17/18/37 16/16/38 11/17/39 10/19/40
f 18/20/41 17/18/42 10/19/43 9/21/44
f 19/22/45 18/20/46 9/21/47 8/23/48
f 20/24/49 19/25/50 8/26/51 7/27/52
f 13/11/53 20/24/54 7/27/55 6/12/56
f 19/28/57 1/29/58 2/30/59 18/31/60
f 18/31/61 2/30/62 3/32/63 17/33/64
f 17/33/65 3/32/66 4/34/67 16/35/68
f 1/36/69 4/37/70 3/38/71 2/39/72
f 5/13/73 6/12/74 22/40/75 21/41/76
f 6/12/77 7/27/78 24/42/79 22/40/80
f 7/27/81 8/26/82 25/43/83 24/42/84
f 8/23/85 9/21/86 26/44/87 25/45/88
f 9/21/89 10/19/90 27/46/91 26/44/92
f 10/19/93 11/17/94 28/47/95 27/46/96
f 11/17/97 12/15/98 29/48/99 28/47/100
f 12/15/101 5/13/102 21/41/103 29/48/104
f 50/49/105 51/50/106 52/51/107
f 51/50/108 53/52/109 52/51/110
f 53/52/111 54/53/112 52/51/113
f 54/53/114 55/54/115 52/51/116
f 55/54/117 56/55/118 52/51/119
f 56/55/120 57/56/121 52/51/122
f 57/56/123 58/57/124 52/51/125
f 58/57/126 50/49/127 52/51/128
f 43/58/129 42/59/130 35/60/131 34/61/132
f 44/62/133 43/58/134 34/61/135 41/63/136
f 45/64/137 44/62/138 41/63/139 40/65/140
f 46/66/141 45/64/142 40/65/143 39/67/144
f 47/68/145 46/66/146 39/67/147 38/69/148
f 48/70/149 47/68/150 38/69/151 37/71/152
f 49/72/153 48/73/154 37/74/155 36/75/156
f 42/59/157 49/72/158 36/75/159 35/60/160
f 48/76/161 30/77/162 31/78/163 47/79/164
f 47/79/165 31/78/166 32/80/167 46/81/168
f 46/81/169 32/80/170 33/82/171 45/83/172
f 30/84/173 33/85/174 32/86/175 31/87/176
f 34/61/177 35/60/178 51/88/179 50/89/180
f 35/60/181 36/75/182 53/90/183 51/88/184
f 36/75/185 37/74/186 54/91/187 53/90/188
f 37/71/189 38/69/190 55/92/191 54/93/192
f 38/69/193 39/67/194 56/94/195 55/92/196
f 39/67/197 40/65/198 57/95/199 56/94/200
f 40/65/201 41/63/202 58/96/203 57/95/204
f 41/63/205 34/61/206 50/89/207 58/96/208
f 73/97/209 74/98/210 131/99/211 115/100/212
f 95/101/213 130/102/214 131/99/215 74/98/216
f 128/103/217 129/104/218 94/105/219 67/106/220
f 94/105/221 100/107/222 68/108/223 67/106/224
f 123/109/225 4/110/226 1/111/227 122/112/228
f 129/104/229 130/102/230 95/101/231 94/105/232
f 67/113/233 33/114/234 127/115/235 128/116/236
f 118/117/237 119/118/238 90/119/239 77/120/240
f 77/120/241 110/121/242 105/122/243 79/123/244
f 79/123/245 80/124/246 77/120/247
f 77/120/248 80/124/249 117/125/250 118/117/251
f 75/126/252 79/123/253 105/122/254 107/127/255
f 85/128/256 110/121/257 77/120/258 90/119/259
f 70/129/260 4/110/261 123/109/262 124/130/263
f 102/131/264 73/97/265 76/132/266 104/133/267
f 138/134/268 75/126/269 107/127/270 137/135/271
f 127/115/272 33/114/273 30/136/274 126/137/275
f 30/136/276 113/138/277 125/139/278 126/137/279
f 124/130/280 133/140/281 134/141/282 70/129/283
f 118/117/284 117/125/285 81/142/286 78/143/287
f 78/143/288 89/144/289 119/118/290 118/117/291
f 82/145/292 123/109/293 122/112/294 61/146/295
f 124/130/296 123/109/297 82/145/298 62/147/299
f 62/147/300 132/148/301 133/140/302 124/130/303
f 126/137/304 125/139/305 114/149/306 109/150/307
f 63/151/308 127/115/309 126/137/310 109/150/311
f 128/116/312 127/115/313 63/151/314 64/152/315
f 64/153/316 93/154/317 129/104/318 128/103/319
f 93/154/320 92/155/321 130/102/322 129/104/323
f 131/99/324 130/102/325 92/155/326 65/156/327
f 115/100/328 131/99/329 65/156/330 66/157/331
f 132/148/332 114/149/333 125/139/334 133/140/335
f 134/141/336 133/140/337 125/139/338 113/138/339
f 76/132/340 138/134/341 137/135/342 104/133/343
f 73/97/344 72/158/345 76/132/346
f 80/124/347 79/123/348 75/126/349 71/159/350
f 116/160/351 72/158/352 73/97/353 115/100/354
f 140/161/355 71/159/356 139/162/357 143/163/358
f 75/126/359 138/134/360 139/162/361 71/159/362
f 140/161/363 117/125/364 80/124/365 71/159/366
f 66/157/367 60/164/368 116/160/369 115/100/370
f 141/165/371 81/142/372 117/125/373 140/161/374
f 76/132/375 72/158/376 139/162/377 138/134/378
f 139/162/379 72/158/380 116/160/381 143/163/382
f 143/163/383 142/166/384 141/165/385 140/161/386
f 142/166/387 143/163/388 116/160/389 60/164/390
f 100/107/391 98/167/392 69/168/393 68/108/394
f 67/113/395 68/169/396 69/170/397
f 99/171/398 95/101/399 74/98/400 97/172/401
f 100/107/402 94/105/403 95/101/404 99/171/405
f 99/171/406 98/167/407 100/107/408
f 102/131/409 97/172/410 74/98/411 73/97/412
f 16/173/413 4/110/414 70/129/415 59/174/416
f 15/175/417 144/176/418 108/177/419 106/178/420
f 107/127/421 105/122/422 106/178/423 108/177/424
f 108/177/425 136/179/426 137/135/427 107/127/428
f 144/176/429 15/175/430 16/180/431 59/181/432
f 144/176/433 145/182/434 136/179/435 108/177/436
f 135/183/437 59/174/438 70/129/439 134/141/440
f 113/138/441 112/184/442 135/183/443 134/141/444
f 145/182/445 144/176/446 59/181/447 135/185/448
f 145/182/449 146/186/450 103/187/451 136/179/452
f 104/133/453 137/135/454 136/179/455 103/187/456
f 97/172/457 96/188/458 98/167/459 99/171/460
f 69/170/461 45/189/462 33/114/463 67/113/464
f 69/168/465 98/167/466 44/190/467 45/191/468
f 102/131/469 101/192/470 96/188/471 97/172/472
f 103/187/473 101/192/474 102/131/475 104/133/476
f 48/193/477 112/184/478 113/138/479 30/136/480
f 146/186/481 112/194/482 48/195/483 49/196/484
f 44/190/485 98/167/486 96/188/487
f 146/186/488 145/182/489 135/185/490 112/194/491
f 146/186/492 49/196/493 101/192/494 103/187/495
f 96/188/496 101/192/497 42/197/498 43/198/499
f 96/188/500 43/198/501 44/190/502
f 101/192/503 49/196/504 42/197/505
f 1/111/506 19/199/507 87/200/508 84/201/509
f 105/122/510 110/121/511 111/202/512 106/178/513
f 111/202/514 110/121/515 85/128/516 86/203/517
f 149/204/518 20/205/519 111/202/520 86/203/521
f 20/205/522 149/204/523 87/206/524 19/207/525
f 106/178/526 111/202/527 13/208/528 14/209/529
f 106/178/530 14/209/531 15/175/532
f 13/208/533 111/202/534 20/205/535
f 148/210/536 149/211/537 86/212/538 91/213/539
f 91/213/540 86/212/541 85/128/542 90/119/543
f 149/211/544 148/210/545 84/214/546 87/215/547
f 170/216/548 172/217/549 171/218/550
f 171/218/551 172/217/552 173/219/553
f 173/219/554 172/217/555 174/220/556
f 174/220/557 172/217/558 175/221/559
f 175/221/560 172/217/561 176/222/562
f 176/222/563 172/217/564 177/223/565
f 177/223/566 172/217/567 178/224/568
f 178/224/569 172/217/570 170/216/571
f 163/225/572 154/226/573 155/227/574 162/228/575
f 164/229/576 161/230/577 154/226/578 163/225/579
f 165/231/580 160/232/581 161/230/582 164/229/583
f 166/233/584 159/234/585 160/232/586 165/231/587
f 167/235/588 158/236/589 159/234/590 166/233/591
f 168/237/592 157/238/593 158/236/594 167/235/595
f 169/239/596 156/240/597 157/241/598 168/242/599
f 162/228/600 155/227/601 156/240/602 169/239/603
f 168/243/604 167/244/605 151/245/606 150/246/607
f 167/244/608 166/247/609 152/248/610 151/245/611
f 166/247/612 165/249/613 153/250/614 152/248/615
f 150/251/616 151/252/617 152/253/618 153/254/619
f 154/226/620 170/255/621 171/256/622 155/227/623
f 155/227/624 171/256/625 173/257/626 156/240/627
f 156/240/628 173/257/629 174/258/630 157/241/631
f 157/238/632 174/259/633 175/260/634 158/236/635
f 158/236/636 175/260/637 176/261/638 159/234/639
f 159/234/640 176/261/641 177/262/642 160/232/643
f 160/232/644 177/262/645 178/263/646 161/230/647
f 161/230/648 178/263/649 170/255/650 154/226/651
f 199/264/652 201/265/653 200/266/654
f 200/266/655 201/265/656 202/267/657
f 202/267/658 201/265/659 203/268/660
f 203/268/661 201/265/662 204/269/663
f 204/269/664 201/265/665 205/270/666
f 205/270/667 201/265/668 206/271/669
f 206/271/670 201/265/671 207/272/672
f 207/272/673 201/265/674 199/264/675
f 192/273/676 183/274/677 184/275/678 191/276/679
f 193/277/680 190/278/681 183/274/682 192/273/683
f 194/279/684 189/280/685 190/278/686 193/277/687
f 195/281/688 188/282/689 189/280/690 194/279/691
f 196/283/692 187/284/693 188/282/694 195/281/695
f 197/285/696 186/286/697 187/284/698 196/283/699
f 198/287/700 185/288/701 186/289/702 197/290/703
f 191/276/704 184/275/705 185/288/706 198/287/707
f 197/291/708 196/292/709 180/293/710 179/294/711
f 196/292/712 195/295/713 181/296/714 180/293/715
f 195/295/716 194/297/717 182/298/718 181/296/719
f 179/299/720 180/300/721 181/301/722 182/302/723
f 183/274/724 199/303/725 200/304/726 184/275/727
f 184/275/728 200/304/729 202/305/730 185/288/731
f 185/288/732 202/305/733 203/306/734 186/289/735
f 186/286/736 203/307/737 204/308/738 187/284/739
f 187/284/740 204/308/741 205/309/742 188/282/743
f 188/282/744 205/309/745 206/310/746 189/280/747
f 189/280/748 206/310/749 207/311/750 190/278/751
f 190/278/752 207/311/753 199/303/754 183/274/755
f 215/312/756 247/313/757 263/314/758 216/315/759
f 229/316/760 216/315/761 263/314/762 262/317/763
f 260/318/764 209/319/765 228/320/766 261/321/767
f 228/320/768 209/319/769 210/322/770 234/323/771
f 255/324/772 254/325/773 150/326/774 153/327/775
f 261/321/776 228/320/777 229/316/778 262/317/779
f 209/328/780 260/329/781 259/330/782 182/331/783
f 250/332/784 219/333/785 226/334/786 251/335/787
f 219/333/788 220/336/789 239/337/790 243/338/791
f 220/336/792 219/333/793 221/339/794
f 219/333/795 250/332/796 249/340/797 221/339/798
f 217/341/799 241/342/800 239/337/801 220/336/802
f 223/343/803 226/334/804 219/333/805 243/338/806
f 212/344/807 256/345/808 255/324/809 153/327/810
f 236/346/811 238/347/812 218/348/813 215/312/814
f 269/349/815 268/350/816 241/342/817 217/341/818
f 259/330/819 258/351/820 179/352/821 182/331/822
f 179/352/823 258/351/824 257/353/825 246/354/826
f 256/345/827 212/344/828 265/355/829 264/356/830
f 250/332/831 78/143/832 81/142/833 249/340/834
f 78/143/835 250/332/836 251/335/837 89/144/838
f 82/145/839 61/146/840 254/325/841 255/324/842
f 256/345/843 62/147/844 82/145/845 255/324/846
f 62/147/847 256/345/848 264/356/849 132/148/850
f 258/351/851 109/150/852 114/149/853 257/353/854
f 63/151/855 109/150/856 258/351/857 259/330/858
f 260/329/859 64/152/860 63/151/861 259/330/862
f 64/153/863 260/318/864 261/321/865 93/154/866
f 93/154/867 261/321/868 262/317/869 92/155/870
f 263/314/871 65/156/872 92/155/873 262/317/874
f 247/313/875 66/157/876 65/156/877 263/314/878
f 132/148/879 264/356/880 257/353/881 114/149/882
f 265/355/883 246/354/884 257/353/885 264/356/886
f 218/348/887 238/347/888 268/350/889 269/349/890
f 215/312/891 218/348/892 214/357/893
f 221/339/894 213/358/895 217/341/896 220/336/897
f 248/359/898 247/313/899 215/312/900 214/357/901
f 271/360/902 272/361/903 270/362/904 213/358/905
f 217/341/906 213/358/907 270/362/908 269/349/909
f 271/360/910 213/358/911 221/339/912 249/340/913
f 66/157/914 247/313/915 248/359/916 60/164/917
f 141/165/918 271/360/919 249/340/920 81/142/921
f 218/348/922 269/349/923 270/362/924 214/357/925
f 270/362/926 272/361/927 248/359/928 214/357/929
f 272/361/930 271/360/931 141/165/932 142/166/933
f 142/166/934 60/164/935 248/359/936 272/361/937
f 234/323/938 210/322/939 211/363/940 232/364/941
f 209/328/942 211/365/943 210/366/944
f 233/367/945 231/368/946 216/315/947 229/316/948
f 234/323/949 233/367/950 229/316/951 228/320/952
f 233/367/953 234/323/954 232/364/955
f 236/346/956 215/312/957 216/315/958 231/368/959
f 165/369/960 208/370/961 212/344/962 153/327/963
f 164/371/964 240/372/965 242/373/966 273/374/967
f 241/342/968 242/373/969 240/372/970 239/337/971
f 242/373/972 241/342/973 268/350/974 267/375/975
f 273/374/976 208/376/977 165/377/978 164/371/979
f 273/374/980 242/373/981 267/375/982 274/378/983
f 266/379/984 265/355/985 212/344/986 208/370/987
f 246/354/988 265/355/989 266/379/990 245/380/991
f 274/378/992 266/381/993 208/376/994 273/374/995
f 274/378/996 267/375/997 237/382/998 275/383/999
f 238/347/1000 237/382/1001 267/375/1002 268/350/1003
f 231/368/1004 233/367/1005 232/364/1006 230/384/1007
f 211/365/1008 209/328/1009 182/331/1010 194/385/1011
f 211/363/1012 194/386/1013 193/387/1014 232/364/1015
f 236/346/1016 231/368/1017 230/384/1018 235/388/1019
f 237/382/1020 238/347/1021 236/346/1022 235/388/1023
f 197/389/1024 179/352/1025 246/354/1026 245/380/1027
f 275/383/1028 198/390/1029 197/391/1030 245/392/1031
f 193/387/1032 230/384/1033 232/364/1034
f 275/383/1035 245/392/1036 266/381/1037 274/378/1038
f 275/383/1039 237/382/1040 235/388/1041 198/390/1042
f 230/384/1043 192/393/1044 191/394/1045 235/388/1046
f 230/384/1047 193/387/1048 192/393/1049
f 235/388/1050 191/394/1051 198/390/1052
f 150/326/1053 222/395/1054 225/396/1055 168/397/1056
f 239/337/1057 240/372/1058 244/398/1059 243/338/1060
f 244/398/1061 224/399/1062 223/343/1063 243/338/1064
f 278/400/1065 224/399/1066 244/398/1067 169/401/1068
f 169/401/1069 168/402/1070 225/403/1071 278/400/1072
f 240/372/1073 163/404/1074 162/405/1075 244/398/1076
f 240/372/1077 164/371/1078 163/404/1079
f 162/405/1080 169/401/1081 244/398/1082
f 222/395/1083 150/326/1084 254/325/1085 253/406/1086
f 277/407/1087 227/408/1088 224/409/1089 278/410/1090
f 227/408/1091 226/334/1092 223/343/1093 224/409/1094
f 278/410/1095 225/411/1096 222/412/1097 277/407/1098
f 120/413/1099 147/414/1100 148/210/1101 91/213/1102
f 84/201/1103 121/415/1104 122/112/1105 1/111/1106
f 90/119/1107 119/118/1108 120/413/1109 91/213/1110
f 120/413/1111 119/118/1112 89/144/1113 88/416/1114
f 121/417/1115 147/414/1116 279/418/1117 83/419/1118
f 61/146/1119 122/112/1120 121/415/1121 83/420/1122
f 84/214/1123 148/210/1124 147/414/1125 121/417/1126
f 252/421/1127 227/408/1128 277/407/1129 276/422/1130
f 226/334/1131 227/408/1132 252/421/1133 251/335/1134
f 252/421/1135 88/416/1136 89/144/1137 251/335/1138
f 253/406/1139 254/325/1140 61/146/1141 83/420/1142
f 222/412/1143 253/423/1144 276/422/1145 277/407/1146
f 276/422/1147 279/418/1148 88/416/1149 252/421/1150
f 279/418/1151 147/414/1152 120/413/1153 88/416/1154
f 253/423/1155 83/419/1156 279/418/1157 276/422/1158