g default
v 0.000000 0.924415 0.000000
v 0.924415 0.000000 0.000000
v 0.000000 0.000000 -0.924415
v -0.924415 0.000000 0.000000
v 0.000000 -0.000000 0.924415
v 0.000000 -0.924415 -0.000000
vt 0.302169 0.348915
vt 0.601346 0.521645
vt 0.302169 0.694375
vt 0.000000 0.348915
vt 0.299177 0.521645
vt 0.000000 0.694375
vt 0.823814 0.000000
vt 0.996544 0.299177
vt 0.651084 0.299177
vt 0.000000 0.997007
vt 0.172730 0.697830
vt 0.345460 0.997007
vt 0.604338 0.348915
vt 0.903515 0.521645
vt 0.604338 0.694375
vt 0.302169 0.299177
vt 0.474899 0.000000
vt 0.647629 0.299177
vt 0.299177 0.345460
vt 0.000000 0.172730
vt 0.299177 0.000000
vt 0.694375 0.697830
vt 0.521645 0.997007
vt 0.348915 0.697830
vn 0.577350 0.577350 -0.577350
vn 0.577350 0.577350 -0.577350
vn 0.577350 0.577350 -0.577350
vn -0.577350 0.577350 -0.577350
vn -0.577350 0.577350 -0.577350
vn -0.577350 0.577350 -0.577350
vn -0.577350 0.577350 0.577350
vn -0.577350 0.577350 0.577350
vn -0.577350 0.577350 0.577350
vn 0.577350 0.577350 0.577350
vn 0.577350 0.577350 0.577350
vn 0.577350 0.577350 0.577350
vn 0.577350 -0.577350 -0.577350
vn 0.577350 -0.577350 -0.577350
vn 0.577350 -0.577350 -0.577350
vn -0.577350 -0.577350 -0.577350
vn -0.577350 -0.577350 -0.577350
vn -0.577350 -0.577350 -0.577350
vn -0.577350 -0.577350 0.577350
vn -0.577350 -0.577350 0.577350
vn -0.577350 -0.577350 0.577350
vn 0.577350 -0.577350 0.577350
vn 0.577350 -0.577350 0.577350
vn 0.577350 -0.577350 0.577350
s off
g Dice:pSolid4
usemtl Dice:lambert7SG
f 2/1/1 3/2/2 1/3/3
f 3/4/4 4/5/5 1/6/6
f 4/7/7 5/8/8 1/9/9
f 1/10/10 5/11/11 2/12/12
f 6/13/13 3/14/14 2/15/15
f 6/16/16 4/17/17 3/18/18
f 6/19/19 5/20/20 4/21/21
f 6/22/22 2/23/23 5/24/24