g default
v -0.555437 -0.057528 0.230158
v -0.497904 -0.057528 0.287690
v -0.538586 -0.057528 0.270839
v -0.555437 0.057528 0.230158
v -0.538586 0.057528 0.270839
v -0.497904 0.057528 0.287690
v 0.555437 -0.057528 0.230158
v 0.538586 -0.057528 0.270839
v 0.497904 -0.057528 0.287690
v 0.555437 0.057528 0.230158
v 0.497904 0.057528 0.287690
v 0.538586 0.057528 0.270839
v -0.538586 0.057528 -0.270839
v -0.555437 0.057528 -0.230158
v -0.497904 0.057528 -0.287690
v -0.555437 -0.057528 -0.230158
v -0.538586 -0.057528 -0.270839
v -0.497904 -0.057528 -0.287690
v 0.538586 0.057528 -0.270839
v 0.497904 0.057528 -0.287690
v 0.555437 0.057528 -0.230158
v 0.555437 -0.057528 -0.230158
v 0.497904 -0.057528 -0.287690
v 0.538586 -0.057528 -0.270839
vt 0.993671 0.752035
vt 0.911178 0.752035
vt 0.911177 0.038057
vt 0.993670 0.038057
vt 0.911177 0.006485
vt 0.993670 0.006485
vt 0.911178 0.783606
vt 0.993671 0.783606
vt 0.017795 0.554267
vt 0.031086 0.522181
vt 0.063171 0.508892
vt 0.880667 0.949411
vt 0.848581 0.962701
vt 0.893958 0.917324
vt 0.017795 0.439645
vt 0.063172 0.485022
vt 0.031086 0.471731
vt 0.017795 0.076588
vt 0.031086 0.044502
vt 0.063172 0.031213
vt 0.893956 0.076588
vt 0.848581 0.031212
vt 0.880666 0.044502
vt 0.893957 0.439645
vt 0.880667 0.471731
vt 0.848581 0.485022
vt 0.910160 0.038056
vt 0.992653 0.038056
vt 0.992653 0.752035
vt 0.910160 0.752035
vt 0.993773 0.752822
vt 0.911279 0.752821
vt 0.911281 0.422783
vt 0.993774 0.422784
vt 0.910479 0.422436
vt 0.992973 0.422435
vt 0.992973 0.752474
vt 0.910479 0.752475
vt 0.848582 0.508890
vt 0.893957 0.554267
vt 0.992973 0.784046
vt 0.910479 0.784045
vt 0.911279 0.784393
vt 0.993772 0.784393
vt 0.910479 0.390864
vt 0.992973 0.390864
vt 0.992653 0.006485
vt 0.910160 0.006485
vt 0.992653 0.783605
vt 0.910160 0.783605
vt 0.993774 0.391212
vt 0.911281 0.391212
vt 0.880667 0.522181
vt 0.031086 0.949411
vt 0.017795 0.917324
vt 0.063172 0.962701
vn 0.016256 0.000000 0.999868
vn 0.016256 0.000000 0.999868
vn -0.016256 0.000000 0.999868
vn -0.016256 0.000000 0.999868
vn -0.382685 0.000000 0.923879
vn -0.382685 0.000000 0.923879
vn 0.382686 0.000000 0.923879
vn 0.382686 0.000000 0.923879
vn 0.000000 1.000000 0.000000
vn 0.000000 1.000000 0.000000
vn 0.000000 1.000000 0.000000
vn 0.000000 1.000000 0.000000
vn 0.000000 1.000000 -0.000000
vn 0.000000 1.000000 -0.000000
vn 0.000000 -1.000000 0.000000
vn 0.000000 -1.000000 0.000000
vn 0.000000 -1.000000 0.000000
vn 0.000000 -1.000000 -0.000000
vn 0.000000 -1.000000 0.000000
vn 0.000000 -1.000000 -0.000000
vn 0.000000 -1.000000 -0.000000
vn 0.000000 -1.000000 -0.000000
vn 0.000000 -1.000000 0.000000
vn 0.000000 -1.000000 0.000000
vn 0.000000 -1.000000 0.000000
vn 0.000000 -1.000000 0.000000
vn -0.016255 0.000000 -0.999868
vn -0.016255 0.000000 -0.999868
vn 0.016255 0.000000 -0.999868
vn 0.016255 0.000000 -0.999868
vn 0.999435 0.000000 0.033615
vn 0.999435 0.000000 0.033615
vn 0.999435 0.000000 -0.033615
vn 0.999435 0.000000 -0.033615
vn -0.999435 0.000000 -0.033615
vn -0.999435 0.000000 -0.033615
vn -0.999435 0.000000 0.033615
vn -0.999435 0.000000 0.033615
vn 0.000000 1.000000 0.000000
vn 0.000000 1.000000 0.000000
vn -0.923880 0.000000 0.382682
vn -0.923880 0.000000 0.382682
vn 0.923880 0.000000 0.382682
vn 0.923880 0.000000 0.382682
vn -0.923881 0.000000 -0.382681
vn -0.923881 0.000000 -0.382681
vn -0.382680 0.000000 -0.923881
vn -0.382680 0.000000 -0.923881
vn 0.382681 0.000000 -0.923881
vn 0.382681 0.000000 -0.923881
vn 0.923881 0.000000 -0.382681
vn 0.923881 0.000000 -0.382681
vn 0.000000 1.000000 0.000000
vn 0.000000 1.000000 0.000000
vn 0.000000 1.000000 -0.000000
vn 0.000000 1.000000 -0.000000
vn 0.000000 1.000000 0.000000
vn 0.000000 1.000000 0.000000
vn 0.000000 1.000000 0.000000
vn 0.000000 1.000000 0.000000
vn 0.000000 -1.000000 0.000000
vn 0.000000 -1.000000 0.000000
vn 0.000000 -1.000000 0.000000
vn 0.000000 -1.000000 0.000000
s 1
g pCube1
usemtl lambert5SG
f 9/1/1 11/2/2 6/3/3 2/4/4
f 6/3/3 5/5/5 3/6/6 2/4/4
f 12/7/7 11/2/2 9/1/1 8/8/8
s 2
f 4/9/9 5/10/10 6/11/11
s 3
f 19/12/12 20/13/13 21/14/14
s 4
f 1/15/15 2/16/16 3/17/17
s 5
f 16/18/18 17/19/19 18/20/20
f 22/21/21 23/22/22 24/23/23
s 4
f 7/24/24 8/25/25 9/26/26
f 1/15/15 7/24/24 9/26/26 2/16/16
s 6
f 18/27/27 15/28/28 20/29/29 23/30/30
s 7
f 10/31/31 7/32/32 22/33/33 21/34/34
s 8
f 14/35/35 16/36/36 1/37/37 4/38/38
s 2
f 6/11/11 11/39/39 10/40/40 4/9/9
s 8
f 1/37/37 3/41/41 5/42/42 4/38/38
s 7
f 8/43/43 7/32/32 10/31/31 12/44/44
s 8
f 14/35/35 13/45/45 17/46/46 16/36/36
s 6
f 13/47/47 15/28/28 18/27/27 17/48/48
f 20/29/29 19/49/49 24/50/50 23/30/30
s 7
f 19/51/51 21/34/34 22/33/33 24/52/52
s 2
f 10/40/40 11/39/39 12/53/53
s 3
f 13/54/54 14/55/55 15/56/56
s off
f 10/40/57 21/14/58 14/55/59 4/9/60
s 3
f 20/13/13 15/56/56 14/55/55 21/14/14
s off
f 22/21/61 7/24/62 1/15/63 16/18/64
s 5
f 22/21/21 16/18/18 18/20/20 23/22/22