g default
v 0.079638 0.492137 0.245102
v 0.208496 0.492137 0.151482
v 0.257715 0.492137 0.000000
v 0.208496 0.492137 -0.151482
v 0.079638 0.492137 -0.245102
v -0.079639 0.492137 -0.245102
v -0.208496 0.492137 -0.151481
v -0.257715 0.492137 0.000000
v -0.208497 0.492137 0.151481
v -0.079639 0.492137 0.245102
v 0.083228 0.509426 0.256150
v 0.217894 0.509426 0.158309
v 0.269332 0.509426 0.000000
v 0.217894 0.509426 -0.158309
v 0.083228 0.509426 -0.256150
v -0.083228 0.509426 -0.256150
v -0.217894 0.509426 -0.158309
v -0.269332 0.509426 0.000000
v -0.217894 0.509426 0.158309
v -0.083228 0.509426 0.256150
v 0.079155 0.592654 0.243613
v 0.207229 0.592654 0.150561
v 0.256150 0.592654 0.000000
v 0.207229 0.592654 -0.150561
v 0.079154 0.592654 -0.243613
v -0.079155 0.592654 -0.243613
v -0.207230 0.592654 -0.150561
v -0.256150 0.592654 0.000000
v -0.207230 0.592654 0.150561
v -0.079155 0.592654 0.243613
v 0.067333 0.667735 0.207230
v 0.176280 0.667735 0.128075
v 0.176280 0.667735 -0.128075
v 0.067333 0.667735 -0.207230
v -0.067333 0.667735 -0.207230
v -0.176280 0.667735 -0.128075
v -0.176280 0.667735 0.128075
v -0.067333 0.667735 0.207229
v 0.048920 0.727319 0.150561
v 0.128075 0.727319 0.093052
v 0.128075 0.727319 -0.093052
v 0.048920 0.727319 -0.150561
v -0.048920 0.727319 -0.150561
v -0.128075 0.727319 -0.093052
v -0.128075 0.727319 0.093052
v -0.048921 0.727319 0.150561
v -0.000000 0.775988 0.048918
v 0.067334 0.765575 0.048918
v 0.067334 0.765575 -0.048918
v -0.000000 0.775988 -0.048918
v -0.067334 0.765575 -0.048918
v -0.067334 0.765575 0.048918
v 0.044518 0.487369 0.137011
v 0.116548 0.487369 0.084677
v 0.144062 0.487369 0.000000
v 0.116549 0.487369 -0.084677
v 0.044517 0.487369 -0.137011
v -0.044517 0.487369 -0.137011
v -0.116548 0.487369 -0.084677
v -0.144062 0.487369 0.000000
v -0.116549 0.487369 0.084677
v -0.044518 0.487369 0.137011
v 0.210107 0.667735 0.000000
v 0.202702 0.667735 0.046755
v 0.202702 0.667735 -0.046755
v 0.142619 0.727319 0.048288
v 0.142619 0.727319 -0.048289
v -0.210108 0.667735 0.000000
v -0.202702 0.667735 -0.046755
v -0.202702 0.667735 0.046755
v -0.142620 0.727319 -0.048289
v -0.142620 0.727319 0.048288
v -0.000000 0.667735 0.000000
v -0.000000 0.667735 0.048666
v -0.000000 0.667735 -0.048666
v 0.116548 0.402647 0.084677
v 0.044518 0.402647 0.137011
v 0.144062 0.402647 0.000000
v 0.116549 0.402647 -0.084677
v 0.044517 0.402647 -0.137011
v -0.044517 0.402647 -0.137011
v -0.116548 0.402647 -0.084677
v -0.144062 0.402647 0.000000
v -0.116549 0.402647 0.084677
v -0.044518 0.402647 0.137011
v 0.133095 0.445008 0.096699
v 0.050838 0.445008 0.156462
v 0.164514 0.445008 0.000000
v 0.133095 0.445008 -0.096699
v 0.050837 0.445008 -0.156462
v -0.050838 0.445008 -0.156462
v -0.133094 0.445008 -0.096699
v -0.164514 0.445008 0.000000
v -0.133094 0.445008 0.096699
v -0.050838 0.445008 0.156462
v 0.116548 0.317924 0.084677
v 0.044518 0.317924 0.137011
v 0.144062 0.317924 0.000000
v 0.116549 0.317924 -0.084677
v 0.044517 0.317924 -0.137011
v -0.044517 0.317924 -0.137011
v -0.116548 0.317924 -0.084677
v -0.144062 0.317924 0.000000
v -0.116548 0.317924 0.084677
v -0.044517 0.317924 0.137011
v 0.133095 0.360285 0.096699
v 0.050838 0.360285 0.156462
v 0.164514 0.360285 0.000000
v 0.133095 0.360285 -0.096699
v 0.050837 0.360285 -0.156462
v -0.050838 0.360285 -0.156462
v -0.133094 0.360285 -0.096699
v -0.164514 0.360285 0.000000
v -0.133094 0.360285 0.096699
v -0.050838 0.360285 0.156462
v 0.116548 0.233202 0.084677
v 0.044518 0.233202 0.137011
v 0.144062 0.233202 0.000000
v 0.116549 0.233202 -0.084677
v 0.044517 0.233202 -0.137011
v -0.044517 0.233202 -0.137011
v -0.116548 0.233202 -0.084677
v -0.144062 0.233202 0.000000
v -0.116548 0.233202 0.084677
v -0.044517 0.233202 0.137011
v 0.133095 0.275563 0.096699
v 0.050838 0.275563 0.156462
v 0.164514 0.275563 0.000000
v 0.133095 0.275563 -0.096699
v 0.050837 0.275563 -0.156462
v -0.050838 0.275563 -0.156462
v -0.133094 0.275563 -0.096699
v -0.164514 0.275563 0.000000
v -0.133094 0.275563 0.096699
v -0.050838 0.275563 0.156462
v 0.116548 0.148479 0.084677
v 0.044518 0.148479 0.137011
v 0.144062 0.148479 0.000000
v 0.116549 0.148479 -0.084677
v 0.044517 0.148479 -0.137011
v -0.044517 0.148479 -0.137011
v -0.116548 0.148479 -0.084677
v -0.144062 0.148479 0.000000
v -0.116548 0.148479 0.084677
v -0.044517 0.148479 0.137011
v 0.133095 0.190840 0.096699
v 0.050838 0.190840 0.156462
v 0.164514 0.190840 0.000000
v 0.133095 0.190840 -0.096699
v 0.050837 0.190840 -0.156462
v -0.050838 0.190840 -0.156462
v -0.133094 0.190840 -0.096699
v -0.164514 0.190840 0.000000
v -0.133094 0.190840 0.096699
v -0.050838 0.190840 0.156462
v 0.178171 0.000000 0.308601
v 0.356342 0.000000 0.000000
v 0.178171 0.000000 -0.308601
v -0.178171 0.000000 -0.308601
v -0.356342 0.000000 0.000000
v -0.178171 0.000000 0.308601
v 0.178171 0.152461 0.308601
v 0.356342 0.152461 0.000000
v 0.178171 0.152461 -0.308601
v -0.178171 0.152461 -0.308601
v -0.356342 0.152461 0.000000
v -0.178171 0.152461 0.308601
v 0.000000 0.000000 0.000000
v 0.000000 0.152461 0.000000
vt 0.965352 0.422003
vt 0.943995 0.451147
vt 0.939578 0.448943
vt 0.961938 0.418431
vt 0.940224 0.453840
vt 0.905791 0.464743
vt 0.903529 0.460357
vt 0.901248 0.464691
vt 0.867129 0.453802
vt 0.867809 0.448956
vt 0.863376 0.451133
vt 0.842039 0.421999
vt 0.845470 0.418454
vt 0.840605 0.417590
vt 0.840613 0.381460
vt 0.845479 0.380628
vt 0.842070 0.377076
vt 0.863291 0.347997
vt 0.867696 0.350185
vt 0.867032 0.345299
vt 0.901357 0.334276
vt 0.903632 0.338644
vt 0.905899 0.334295
vt 0.940109 0.345055
vt 0.939448 0.349910
vt 0.943890 0.347714
vt 0.965370 0.376892
vt 0.961936 0.380457
vt 0.966821 0.381323
vt 0.966822 0.417594
vt 0.929559 0.434448
vt 0.945261 0.412666
vt 0.903797 0.442801
vt 0.878309 0.434933
vt 0.862290 0.413275
vt 0.862102 0.386360
vt 0.877727 0.364618
vt 0.903423 0.356197
vt 0.928965 0.363992
vt 0.945067 0.385674
vt 0.922009 0.423514
vt 0.932554 0.408210
vt 0.910921 0.428025
vt 0.886445 0.424326
vt 0.897948 0.427954
vt 0.875181 0.409410
vt 0.874781 0.390795
vt 0.885285 0.375517
vt 0.896336 0.370988
vt 0.920841 0.374629
vt 0.909306 0.371023
vt 0.932149 0.389561
vt 0.915515 0.414685
vt 0.922053 0.404783
vt 0.910103 0.416904
vt 0.898303 0.417162
vt 0.892865 0.415207
vt 0.885705 0.406041
vt 0.891785 0.384328
vt 0.885268 0.394210
vt 0.897170 0.382114
vt 0.908964 0.381807
vt 0.914429 0.383761
vt 0.921613 0.392944
vt 0.986686 0.268903
vt 0.988037 0.277359
vt 0.950087 0.277401
vt 0.950075 0.268626
vt 0.986699 0.285836
vt 0.950099 0.286177
vt 0.913488 0.285900
vt 0.912137 0.277443
vt 0.913475 0.268965
vt 0.904340 0.428923
vt 0.902914 0.370072
vt 0.975868 0.258019
vt 0.975905 0.296736
vt 0.924306 0.296784
vt 0.924269 0.258066
vt 0.909045 0.399286
vt 0.908909 0.391737
vt 0.898273 0.399705
vt 0.898417 0.407295
vt 0.897923 0.392050
vt 0.962310 0.303761
vt 0.937919 0.303785
vt 0.950117 0.305684
vt 0.909392 0.406897
vt 0.962255 0.251018
vt 0.937864 0.251041
vt 0.950058 0.249118
vt 0.980440 0.442937
vt 0.968502 0.459229
vt 0.940037 0.479634
vt 0.920790 0.485728
vt 0.886327 0.485467
vt 0.867255 0.479380
vt 0.838880 0.459204
vt 0.826953 0.442917
vt 0.816064 0.409618
vt 0.816069 0.389422
vt 0.826996 0.356249
vt 0.838859 0.339994
vt 0.867112 0.319551
vt 0.886300 0.313390
vt 0.920751 0.313429
vt 0.939874 0.319443
vt 0.968447 0.339557
vt 0.980453 0.355867
vt 0.991460 0.389320
vt 0.991460 0.409595
vt 0.895077 0.614570
vt 0.894996 0.631275
vt 0.886540 0.631159
vt 0.886614 0.614456
vt 0.878085 0.631043
vt 0.878163 0.614344
vt 0.894916 0.647976
vt 0.886460 0.647860
vt 0.878005 0.647745
vt 0.894836 0.664677
vt 0.886381 0.664561
vt 0.877925 0.664446
vt 0.894758 0.681376
vt 0.886307 0.681264
vt 0.877844 0.681149
vt 0.894692 0.698065
vt 0.886262 0.697979
vt 0.877761 0.697871
vt 0.894719 0.714707
vt 0.886403 0.714814
vt 0.877653 0.714704
vt 0.895681 0.731699
vt 0.886853 0.733409
vt 0.877239 0.732209
vt 0.895683 0.563506
vt 0.895267 0.581012
vt 0.886517 0.580902
vt 0.886067 0.562305
vt 0.878200 0.581009
vt 0.877239 0.564015
vt 0.895160 0.597847
vt 0.886658 0.597739
vt 0.878228 0.597653
vt 0.894764 0.614979
vt 0.894682 0.631685
vt 0.886225 0.631570
vt 0.886300 0.614865
vt 0.877770 0.631454
vt 0.877848 0.614753
vt 0.894601 0.648388
vt 0.886146 0.648271
vt 0.877690 0.648156
vt 0.894520 0.665087
vt 0.886066 0.664971
vt 0.877611 0.664855
vt 0.894441 0.681784
vt 0.885991 0.681672
vt 0.877531 0.681558
vt 0.894375 0.698471
vt 0.885947 0.698385
vt 0.877447 0.698277
vt 0.894401 0.715111
vt 0.886087 0.715217
vt 0.877340 0.715107
vt 0.895363 0.732101
vt 0.886537 0.733810
vt 0.876924 0.732609
vt 0.895371 0.563907
vt 0.894955 0.581416
vt 0.886204 0.581306
vt 0.885754 0.562705
vt 0.877886 0.581413
vt 0.876924 0.564416
vt 0.894847 0.598254
vt 0.886344 0.598145
vt 0.877913 0.598059
vt 0.894902 0.614862
vt 0.894822 0.631565
vt 0.886365 0.631449
vt 0.886440 0.614748
vt 0.877912 0.631334
vt 0.877990 0.614636
vt 0.894741 0.648265
vt 0.886285 0.648149
vt 0.877831 0.648034
vt 0.894662 0.664967
vt 0.886207 0.664851
vt 0.877750 0.664735
vt 0.894584 0.681667
vt 0.886132 0.681555
vt 0.877669 0.681441
vt 0.894519 0.698360
vt 0.886088 0.698274
vt 0.877585 0.698166
vt 0.894546 0.715006
vt 0.886228 0.715112
vt 0.877478 0.715002
vt 0.895508 0.732001
vt 0.886679 0.733712
vt 0.877063 0.732510
vt 0.895508 0.563808
vt 0.895093 0.581311
vt 0.886343 0.581201
vt 0.885894 0.562607
vt 0.878029 0.581307
vt 0.877068 0.564316
vt 0.894985 0.598142
vt 0.886484 0.598034
vt 0.878056 0.597948
vt 0.894572 0.615119
vt 0.894490 0.631824
vt 0.886034 0.631708
vt 0.886108 0.615004
vt 0.877579 0.631592
vt 0.877657 0.614893
vt 0.894410 0.648525
vt 0.885954 0.648409
vt 0.877499 0.648293
vt 0.894330 0.665225
vt 0.885875 0.665109
vt 0.877419 0.664994
vt 0.894251 0.681924
vt 0.885801 0.681812
vt 0.877339 0.681697
vt 0.894186 0.698613
vt 0.885756 0.698526
vt 0.877255 0.698419
vt 0.894213 0.715255
vt 0.885897 0.715361
vt 0.877148 0.715251
vt 0.895175 0.732247
vt 0.886347 0.733956
vt 0.876733 0.732756
vt 0.895178 0.564053
vt 0.894763 0.581560
vt 0.886012 0.581450
vt 0.885562 0.562852
vt 0.877695 0.581556
vt 0.876734 0.564562
vt 0.894655 0.598395
vt 0.886153 0.598287
vt 0.877723 0.598201
vt 0.827712 0.648408
vt 0.827712 0.605232
vt 0.846184 0.605232
vt 0.846184 0.648408
vt 0.827712 0.562057
vt 0.846184 0.562057
vt 0.827711 0.518881
vt 0.846184 0.518881
vt 0.827710 0.475705
vt 0.846183 0.475705
vt 0.827710 0.734759
vt 0.827711 0.691584
vt 0.846184 0.691584
vt 0.846183 0.734759
vt 0.876940 0.542393
vt 0.854858 0.529644
vt 0.876940 0.516894
vt 0.899023 0.529644
vt 0.899023 0.504145
vt 0.876940 0.491395
vt 0.854858 0.504145
vt 0.970837 0.577991
vt 0.926173 0.577991
vt 0.948505 0.539311
vt 0.903840 0.539311
vt 0.926173 0.500630
vt 0.970837 0.500630
vt 0.993169 0.539311
vn 0.080221 -0.965716 0.246894
vn 0.210020 -0.965716 0.152589
vn 0.808763 0.025073 0.587600
vn 0.308919 0.025073 0.950758
vn 0.259600 -0.965716 -0.000000
vn 0.999686 0.025072 -0.000000
vn 0.210020 -0.965716 -0.152589
vn 0.808763 0.025071 -0.587601
vn 0.080220 -0.965716 -0.246894
vn 0.308920 0.025070 -0.950758
vn -0.080221 -0.965716 -0.246894
vn -0.308919 0.025069 -0.950758
vn -0.210020 -0.965717 -0.152588
vn -0.808763 0.025069 -0.587601
vn -0.259599 -0.965717 -0.000000
vn -0.999686 0.025071 0.000001
vn -0.210021 -0.965717 0.152588
vn -0.808762 0.025072 0.587602
vn -0.080220 -0.965717 0.246893
vn -0.308920 0.025073 0.950758
vn 0.768661 0.285392 0.572461
vn 0.295557 0.291931 0.909628
vn 0.966063 0.258306 -0.000000
vn 0.768661 0.285392 -0.572461
vn 0.295556 0.291930 -0.909628
vn -0.295556 0.291930 -0.909629
vn -0.768661 0.285393 -0.572460
vn -0.966063 0.258307 0.000001
vn -0.768661 0.285393 0.572460
vn -0.295556 0.291931 0.909628
vn 0.652622 0.548093 0.523143
vn 0.256442 0.557962 0.789250
vn 0.824270 0.503794 0.258400
vn 0.652621 0.548094 -0.523144
vn 0.824270 0.503794 -0.258400
vn -0.824270 0.503794 -0.258399
vn -0.652621 0.548094 -0.523143
vn -0.652622 0.548092 0.523144
vn -0.824271 0.503793 0.258400
vn -0.256444 0.557962 0.789249
vn 0.453844 0.780459 0.430011
vn 0.192517 0.785408 0.588279
vn 0.646628 0.733301 0.210099
vn -0.646627 0.733302 -0.210102
vn -0.453842 0.780460 -0.430010
vn -0.646626 0.733302 0.210103
vn -0.453842 0.780460 0.430011
vn -0.192519 0.785408 0.588279
vn 0.000001 1.000000 0.000000
vn 0.000001 1.000000 0.000000
vn -0.000000 1.000000 0.000000
vn -0.000000 1.000000 0.000000
vn 0.000001 1.000000 0.000000
vn 0.000000 1.000000 0.000000
vn -0.000001 1.000000 0.000000
vn -0.000001 1.000000 0.000000
vn -0.000001 1.000000 0.000000
vn 0.852474 0.522770 0.000000
vn -0.852476 0.522767 -0.000002
vn -0.008308 0.013550 -0.999874
vn -0.009427 0.016227 -0.999824
vn -0.004926 0.008268 -0.999954
vn -0.009424 0.016229 0.999824
vn -0.008306 0.013550 0.999874
vn -0.004923 0.008268 0.999954
vn 0.008305 0.013550 0.999874
vn 0.009424 0.016229 0.999824
vn 0.004923 0.008268 0.999954
vn 0.009424 0.016221 -0.999824
vn 0.008307 0.013545 -0.999874
vn 0.004925 0.008267 -0.999954
vn 0.000000 0.918107 0.396333
vn -0.225724 0.902731 0.366231
vn -0.225724 0.902732 -0.366229
vn 0.003404 0.004916 0.999982
vn 0.225724 0.902732 0.366229
vn -0.003407 0.004918 -0.999982
vn 0.003407 0.004918 -0.999982
vn -0.000360 0.002326 -0.999997
vn 0.000360 0.002326 -0.999997
vn 0.012952 -0.999121 0.039862
vn 0.033909 -0.999121 0.024636
vn 0.041914 -0.999121 0.000000
vn 0.033909 -0.999121 -0.024636
vn 0.012952 -0.999121 -0.039862
vn -0.012952 -0.999121 -0.039862
vn -0.033909 -0.999121 -0.024636
vn -0.041914 -0.999121 -0.000000
vn -0.033909 -0.999121 0.024636
vn -0.012952 -0.999121 0.039863
vn 0.278280 -0.434782 0.856461
vn 0.728549 -0.434782 0.529322
vn 0.809017 0.000001 0.587786
vn 0.309016 0.000000 0.951057
vn 0.728549 0.434782 0.529322
vn 0.278280 0.434782 0.856461
vn 0.900536 -0.434781 0.000001
vn 1.000000 0.000001 0.000001
vn 0.900536 0.434782 0.000001
vn 0.728548 -0.434781 -0.529324
vn 0.809016 0.000000 -0.587787
vn 0.728548 0.434780 -0.529323
vn 0.278282 -0.434776 -0.856463
vn 0.309018 0.000000 -0.951056
vn 0.278281 0.434775 -0.856464
vn -0.278282 -0.434776 -0.856463
vn -0.309019 -0.000000 -0.951056
vn -0.278282 0.434775 -0.856463
vn -0.728549 -0.434780 -0.529322
vn -0.809017 -0.000000 -0.587786
vn -0.728550 0.434779 -0.529322
vn -0.900537 -0.434780 -0.000001
vn -1.000000 0.000000 -0.000000
vn -0.900537 0.434779 -0.000000
vn -0.728550 -0.434780 0.529322
vn -0.809016 -0.000000 0.587786
vn -0.728550 0.434780 0.529322
vn -0.278280 -0.434781 0.856461
vn -0.309016 -0.000000 0.951057
vn -0.278280 0.434781 0.856461
vn 0.278280 -0.434782 0.856461
vn 0.728548 -0.434782 0.529322
vn 0.809017 -0.000000 0.587786
vn 0.309016 0.000000 0.951057
vn 0.728548 0.434782 0.529322
vn 0.278280 0.434782 0.856461
vn 0.900536 -0.434781 0.000001
vn 1.000000 0.000001 0.000001
vn 0.900536 0.434782 0.000001
vn 0.728549 -0.434779 -0.529324
vn 0.809016 0.000001 -0.587787
vn 0.728548 0.434781 -0.529324
vn 0.278281 -0.434775 -0.856464
vn 0.309018 0.000000 -0.951056
vn 0.278282 0.434776 -0.856463
vn -0.278282 -0.434775 -0.856463
vn -0.309020 -0.000000 -0.951056
vn -0.278282 0.434775 -0.856463
vn -0.728551 -0.434777 -0.529322
vn -0.809016 0.000000 -0.587786
vn -0.728551 0.434778 -0.529322
vn -0.900538 -0.434778 -0.000000
vn -1.000000 -0.000001 -0.000001
vn -0.900538 0.434777 -0.000001
vn -0.728549 -0.434780 0.529322
vn -0.809016 -0.000001 0.587786
vn -0.728551 0.434779 0.529322
vn -0.278280 -0.434781 0.856461
vn -0.309016 -0.000000 0.951057
vn -0.278281 0.434781 0.856461
vn 0.278280 -0.434782 0.856461
vn 0.728548 -0.434782 0.529322
vn 0.809016 0.000000 0.587786
vn 0.309016 -0.000000 0.951057
vn 0.728548 0.434782 0.529322
vn 0.278280 0.434782 0.856461
vn 0.900536 -0.434781 0.000001
vn 1.000000 0.000000 0.000001
vn 0.900536 0.434782 0.000001
vn 0.728549 -0.434780 -0.529324
vn 0.809015 0.000000 -0.587787
vn 0.728548 0.434780 -0.529324
vn 0.278281 -0.434775 -0.856464
vn 0.309018 0.000000 -0.951056
vn 0.278281 0.434776 -0.856463
vn -0.278282 -0.434776 -0.856463
vn -0.309020 0.000000 -0.951056
vn -0.278282 0.434776 -0.856463
vn -0.728551 -0.434778 -0.529322
vn -0.809016 0.000000 -0.587786
vn -0.728551 0.434778 -0.529322
vn -0.900538 -0.434778 -0.000000
vn -1.000000 -0.000000 -0.000000
vn -0.900538 0.434778 -0.000000
vn -0.728549 -0.434780 0.529322
vn -0.809016 -0.000000 0.587786
vn -0.728549 0.434781 0.529322
vn -0.278280 -0.434782 0.856461
vn -0.309016 -0.000000 0.951057
vn -0.278280 0.434782 0.856461
vn 0.278280 -0.434782 0.856461
vn 0.728548 -0.434782 0.529322
vn 0.809016 0.000000 0.587786
vn 0.309016 0.000000 0.951057
vn 0.728548 0.434782 0.529322
vn 0.278280 0.434782 0.856461
vn 0.900536 -0.434781 0.000001
vn 1.000000 0.000000 0.000001
vn 0.900536 0.434781 0.000001
vn 0.728549 -0.434780 -0.529324
vn 0.809015 0.000000 -0.587787
vn 0.728549 0.434780 -0.529324
vn 0.278281 -0.434775 -0.856464
vn 0.309018 -0.000000 -0.951056
vn 0.278281 0.434775 -0.856464
vn -0.278282 -0.434776 -0.856463
vn -0.309020 -0.000000 -0.951056
vn -0.278282 0.434776 -0.856463
vn -0.728551 -0.434778 -0.529322
vn -0.809016 0.000000 -0.587786
vn -0.728551 0.434778 -0.529322
vn -0.900538 -0.434778 -0.000000
vn -1.000000 -0.000000 -0.000000
vn -0.900538 0.434778 -0.000000
vn -0.728549 -0.434780 0.529322
vn -0.809016 -0.000000 0.587786
vn -0.728549 0.434780 0.529322
vn -0.278280 -0.434782 0.856461
vn -0.309016 0.000000 0.951057
vn -0.278280 0.434782 0.856461
vn 0.866026 0.000000 0.500000
vn 0.866026 0.000000 0.500000
vn 0.866026 0.000000 0.500000
vn 0.866026 0.000000 0.500000
vn 0.866026 0.000000 -0.500000
vn 0.866026 0.000000 -0.500000
vn 0.866026 0.000000 -0.500000
vn 0.866026 0.000000 -0.500000
vn 0.000000 0.000000 -1.000000
vn 0.000000 0.000000 -1.000000
vn 0.000000 0.000000 -1.000000
vn 0.000000 0.000000 -1.000000
vn -0.866026 0.000000 -0.500000
vn -0.866026 0.000000 -0.500000
vn -0.866026 0.000000 -0.500000
vn -0.866026 0.000000 -0.500000
vn -0.866026 0.000000 0.500000
vn -0.866026 0.000000 0.500000
vn -0.866026 0.000000 0.500000
vn -0.866026 0.000000 0.500000
vn 0.000000 0.000000 1.000000
vn 0.000000 0.000000 1.000000
vn 0.000000 0.000000 1.000000
vn 0.000000 0.000000 1.000000
vn 0.000000 -1.000000 0.000000
vn 0.000000 -1.000000 0.000000
vn 0.000000 -1.000000 0.000000
vn 0.000000 -1.000000 0.000000
vn 0.000000 -1.000000 0.000000
vn 0.000000 -1.000000 0.000000
vn 0.000000 -1.000000 0.000000
vn 0.000000 1.000000 -0.000000
vn 0.000000 1.000000 0.000000
vn 0.000000 1.000000 -0.000000
vn 0.000000 1.000000 0.000000
vn 0.000000 1.000000 -0.000000
vn 0.000000 1.000000 -0.000000
vn 0.000000 1.000000 -0.000000
vn 0.256443 0.557964 -0.789249
vn -0.256443 0.557964 -0.789249
vn 0.646627 0.733301 -0.210102
vn 0.453842 0.780460 -0.430011
vn 0.192518 0.785408 -0.588278
vn -0.192518 0.785408 -0.588278
vn 0.000000 0.918107 -0.396332
vn 0.225723 0.902732 -0.366230
vn -0.003404 0.004916 0.999982
vn 0.000360 0.002326 0.999997
vn -0.000360 0.002326 0.999997
s 1
g polySurface8
usemtl lambert4SG
f 1/1/1 2/2/2 12/3/3 11/4/4
f 2/5/2 3/6/5 13/7/6 12/3/3
f 3/8/5 4/9/7 14/10/8 13/7/6
f 4/11/7 5/12/9 15/13/10 14/10/8
f 5/14/9 6/15/11 16/16/12 15/13/10
f 6/17/11 7/18/13 17/19/14 16/16/12
f 7/20/13 8/21/15 18/22/16 17/19/14
f 8/23/15 9/24/17 19/25/18 18/22/16
f 9/26/17 10/27/19 20/28/20 19/25/18
f 10/29/19 1/30/1 11/4/4 20/28/20
f 11/4/4 12/3/3 22/31/21 21/32/22
f 12/3/3 13/7/6 23/33/23 22/31/21
f 13/7/6 14/10/8 24/34/24 23/33/23
f 14/10/8 15/13/10 25/35/25 24/34/24
f 15/13/10 16/16/12 26/36/26 25/35/25
f 16/16/12 17/19/14 27/37/27 26/36/26
f 17/19/14 18/22/16 28/38/28 27/37/27
f 18/22/16 19/25/18 29/39/29 28/38/28
f 19/25/18 20/28/20 30/40/30 29/39/29
f 20/28/20 11/4/4 21/32/22 30/40/30
f 21/32/22 22/31/21 32/41/31 31/42/32
f 22/31/21 23/33/23 64/43/33 32/41/31
f 23/33/23 24/34/24 33/44/34 65/45/35
f 27/37/27 28/38/28 69/49/36 36/48/37
f 28/38/28 29/39/29 37/50/38 70/51/39
f 29/39/29 30/40/30 38/52/40 37/50/38
f 30/40/30 21/32/22 31/42/32 38/52/40
f 31/42/32 32/41/31 40/53/41 39/54/42
f 32/41/31 64/43/33 66/55/43 40/53/41
f 36/48/37 69/49/36 71/61/44 44/59/45
f 72/62/46 70/51/39 37/50/38 45/63/47
f 37/50/38 38/52/40 46/64/48 45/63/47
f 38/52/40 31/42/32 39/54/42 46/64/48
s 2
f 64/65/49 63/66/50 73/67/51 74/68/52
f 63/66/50 65/69/53 75/70/54 73/67/51
f 69/71/55 68/72/56 73/67/51 75/70/54
f 68/72/56 70/73/57 74/68/52 73/67/51
s 1
f 23/33/23 65/45/35 63/74/58
f 23/33/23 63/74/58 64/43/33
f 28/38/28 70/51/39 68/75/59
f 28/38/28 68/75/59 69/49/36
s 3
f 66/76/60 64/65/61 74/68/62
s 4
f 65/69/63 67/77/64 75/70/65
s 5
f 71/78/66 69/71/67 75/70/68
s 6
f 70/73/69 72/79/70 74/68/71
s 1
f 46/64/48 39/54/42 47/80/72
f 52/81/73 72/62/46 45/63/47
f 52/81/73 45/63/47 46/64/48 47/80/72
f 44/59/45 71/61/44 51/84/74
s 5
f 75/70/68 51/86/75 71/78/66
s 1
f 48/88/76 47/80/72 39/54/42 40/53/41
f 40/53/41 66/55/43 48/88/76
s 3
f 74/68/62 48/89/77 66/76/60
s 6
f 72/79/70 52/90/78 74/68/71
f 74/68/71 52/90/78 47/91/79
s 3
f 74/68/62 47/91/80 48/89/77
s 1
f 53/92/81 54/93/82 2/2/2 1/1/1
f 54/94/82 55/95/83 3/6/5 2/5/2
f 55/96/83 56/97/84 4/9/7 3/8/5
f 56/98/84 57/99/85 5/12/9 4/11/7
f 57/100/85 58/101/86 6/15/11 5/14/9
f 58/102/86 59/103/87 7/18/13 6/17/11
f 59/104/87 60/105/88 8/21/15 7/20/13
f 60/106/88 61/107/89 9/24/17 8/23/15
f 61/108/89 62/109/90 10/27/19 9/26/17
f 62/110/90 53/111/81 1/30/1 10/29/19
s 7
f 77/112/91 76/113/92 86/114/93 87/115/94
f 54/116/95 53/117/96 87/115/94 86/114/93
f 76/113/92 78/118/97 88/119/98 86/114/93
f 55/120/99 54/116/95 86/114/93 88/119/98
f 78/118/97 79/121/100 89/122/101 88/119/98
f 56/123/102 55/120/99 88/119/98 89/122/101
f 79/121/100 80/124/103 90/125/104 89/122/101
f 57/126/105 56/123/102 89/122/101 90/125/104
f 80/124/103 81/127/106 91/128/107 90/125/104
f 58/129/108 57/126/105 90/125/104 91/128/107
f 81/127/106 82/130/109 92/131/110 91/128/107
f 59/132/111 58/129/108 91/128/107 92/131/110
f 82/130/109 83/133/112 93/134/113 92/131/110
f 60/135/114 59/132/111 92/131/110 93/134/113
f 83/136/112 84/137/115 94/138/116 93/139/113
f 61/140/117 60/141/114 93/139/113 94/138/116
f 84/137/115 85/142/118 95/143/119 94/138/116
f 62/144/120 61/140/117 94/138/116 95/143/119
f 85/142/118 77/112/91 87/115/94 95/143/119
f 53/117/96 62/144/120 95/143/119 87/115/94
s 8
f 97/145/121 96/146/122 106/147/123 107/148/124
f 76/149/125 77/150/126 107/148/124 106/147/123
f 96/146/122 98/151/127 108/152/128 106/147/123
f 78/153/129 76/149/125 106/147/123 108/152/128
f 98/151/127 99/154/130 109/155/131 108/152/128
f 79/156/132 78/153/129 108/152/128 109/155/131
f 99/154/130 100/157/133 110/158/134 109/155/131
f 80/159/135 79/156/132 109/155/131 110/158/134
f 100/157/133 101/160/136 111/161/137 110/158/134
f 81/162/138 80/159/135 110/158/134 111/161/137
f 101/160/136 102/163/139 112/164/140 111/161/137
f 82/165/141 81/162/138 111/161/137 112/164/140
f 102/163/139 103/166/142 113/167/143 112/164/140
f 83/168/144 82/165/141 112/164/140 113/167/143
f 103/169/142 104/170/145 114/171/146 113/172/143
f 84/173/147 83/174/144 113/172/143 114/171/146
f 104/170/145 105/175/148 115/176/149 114/171/146
f 85/177/150 84/173/147 114/171/146 115/176/149
f 105/175/148 97/145/121 107/148/124 115/176/149
f 77/150/126 85/177/150 115/176/149 107/148/124
s 9
f 117/178/151 116/179/152 126/180/153 127/181/154
f 96/182/155 97/183/156 127/181/154 126/180/153
f 116/179/152 118/184/157 128/185/158 126/180/153
f 98/186/159 96/182/155 126/180/153 128/185/158
f 118/184/157 119/187/160 129/188/161 128/185/158
f 99/189/162 98/186/159 128/185/158 129/188/161
f 119/187/160 120/190/163 130/191/164 129/188/161
f 100/192/165 99/189/162 129/188/161 130/191/164
f 120/190/163 121/193/166 131/194/167 130/191/164
f 101/195/168 100/192/165 130/191/164 131/194/167
f 121/193/166 122/196/169 132/197/170 131/194/167
f 102/198/171 101/195/168 131/194/167 132/197/170
f 122/196/169 123/199/172 133/200/173 132/197/170
f 103/201/174 102/198/171 132/197/170 133/200/173
f 123/202/172 124/203/175 134/204/176 133/205/173
f 104/206/177 103/207/174 133/205/173 134/204/176
f 124/203/175 125/208/178 135/209/179 134/204/176
f 105/210/180 104/206/177 134/204/176 135/209/179
f 125/208/178 117/178/151 127/181/154 135/209/179
f 97/183/156 105/210/180 135/209/179 127/181/154
s 10
f 137/211/181 136/212/182 146/213/183 147/214/184
f 116/215/185 117/216/186 147/214/184 146/213/183
f 136/212/182 138/217/187 148/218/188 146/213/183
f 118/219/189 116/215/185 146/213/183 148/218/188
f 138/217/187 139/220/190 149/221/191 148/218/188
f 119/222/192 118/219/189 148/218/188 149/221/191
f 139/220/190 140/223/193 150/224/194 149/221/191
f 120/225/195 119/222/192 149/221/191 150/224/194
f 140/223/193 141/226/196 151/227/197 150/224/194
f 121/228/198 120/225/195 150/224/194 151/227/197
f 141/226/196 142/229/199 152/230/200 151/227/197
f 122/231/201 121/228/198 151/227/197 152/230/200
f 142/229/199 143/232/202 153/233/203 152/230/200
f 123/234/204 122/231/201 152/230/200 153/233/203
f 143/235/202 144/236/205 154/237/206 153/238/203
f 124/239/207 123/240/204 153/238/203 154/237/206
f 144/236/205 145/241/208 155/242/209 154/237/206
f 125/243/210 124/239/207 154/237/206 155/242/209
f 145/241/208 137/211/181 147/214/184 155/242/209
f 117/216/186 125/243/210 155/242/209 147/214/184
s off
f 156/244/211 157/245/212 163/246/213 162/247/214
f 157/245/215 158/248/216 164/249/217 163/246/218
f 158/248/219 159/250/220 165/251/221 164/249/222
f 159/250/223 160/252/224 166/253/225 165/251/226
f 160/254/227 161/255/228 167/256/229 166/257/230
f 161/255/231 156/244/232 162/247/233 167/256/234
s 11
f 157/258/235 156/259/236 168/260/237
f 158/261/238 157/258/235 168/260/237
f 159/262/239 158/261/238 168/260/237
f 160/263/240 159/262/239 168/260/237
f 161/264/241 160/263/240 168/260/237
f 156/259/236 161/264/241 168/260/237
s 12
f 162/265/242 163/266/243 169/267/244
f 163/266/243 164/268/245 169/267/244
f 164/268/245 165/269/246 169/267/244
f 165/269/246 166/270/247 169/267/244
f 166/270/247 167/271/248 169/267/244
f 167/271/248 162/265/242 169/267/244
s 1
f 33/44/34 24/34/24 25/35/25 34/46/249
f 34/46/249 25/35/25 26/36/26 35/47/250
f 35/47/250 26/36/26 27/37/27 36/48/37
f 67/56/251 65/45/35 33/44/34 41/57/252
f 41/57/252 33/44/34 34/46/249 42/58/253
f 43/60/254 35/47/250 36/48/37 44/59/45
f 42/58/253 43/60/254 50/82/255
f 49/83/256 67/56/251 41/57/252
f 49/83/256 41/57/252 42/58/253 50/82/255
f 51/84/74 50/82/255 43/60/254 44/59/45
s 4
f 67/77/64 49/85/257 75/70/65
f 50/87/258 75/70/65 49/85/257
s 5
f 50/87/259 51/86/75 75/70/68
s 1
f 42/58/253 34/46/249 35/47/250 43/60/254